<svg width="168" height="168" viewBox="0 0 168 168" fill="none" xmlns="http://www.w3.org/2000/svg">
<g clip-path="url(#clip0_5404_199925)">
<rect width="168" height="168" rx="15.0448" fill="#1565C0"/>
<mask id="mask0_5404_199925" style="mask-type:alpha" maskUnits="userSpaceOnUse" x="0" y="0" width="168" height="168">
<rect width="168" height="168" rx="10.0299" fill="#E3F2FD"/>
</mask>
<g mask="url(#mask0_5404_199925)">
<path d="M0 -27.582H168V56.418C168 102.81 130.392 140.418 84 140.418C37.6081 140.418 0 102.81 0 56.418V-27.582Z" fill="#2196F3"/>
</g>
<path d="M65.1867 138.084H29.8154V168.129H65.1867V138.084Z" fill="#455A64"/>
<g opacity="0.3">
<path d="M65.1867 138.084H29.8154V168.129H65.1867V138.084Z" fill="black"/>
</g>
<path d="M71.5519 138.084H36.1807V168.129H71.5519V138.084Z" fill="#455A64"/>
<path d="M36.0631 163.269C36.088 163.307 34.7129 164.421 32.9893 165.758C31.2657 167.096 29.8439 168.157 29.8158 168.123C29.7878 168.089 31.163 166.972 32.8897 165.634C34.6164 164.296 36.0351 163.235 36.0631 163.269Z" fill="#455A64"/>
<path d="M36.0631 160.383C36.088 160.42 34.7129 161.537 32.9893 162.871C31.2657 164.206 29.8439 165.27 29.8158 165.236C29.7878 165.202 31.163 164.085 32.8897 162.747C34.6164 161.409 36.0351 160.333 36.0631 160.383Z" fill="#455A64"/>
<path d="M36.0631 157.467C36.088 157.501 34.7129 158.618 32.9893 159.956C31.2657 161.294 29.8439 162.358 29.8158 162.321C29.7878 162.283 31.163 161.17 32.8897 159.832C34.6164 158.494 36.0351 157.43 36.0631 157.467Z" fill="#455A64"/>
<path d="M36.0631 154.564C36.088 154.599 34.7129 155.715 32.9893 157.053C31.2657 158.391 29.8439 159.455 29.8158 159.421C29.7878 159.387 31.163 158.267 32.8897 156.932C34.6164 155.597 36.0351 154.53 36.0631 154.564Z" fill="#455A64"/>
<path d="M36.0631 151.671C36.088 151.709 34.7129 152.822 32.9893 154.16C31.2657 155.498 29.8439 156.559 29.8158 156.525C29.7878 156.49 31.163 155.374 32.8897 154.036C34.6164 152.698 36.0351 151.628 36.0631 151.671Z" fill="#455A64"/>
<path d="M36.0631 148.762C36.088 148.796 34.7129 149.913 32.9893 151.251C31.2657 152.588 29.8439 153.649 29.8158 153.615C29.7878 153.581 31.163 152.464 32.8897 151.126C34.6164 149.788 36.0351 148.724 36.0631 148.762Z" fill="#455A64"/>
<path d="M36.0631 145.859C36.088 145.894 34.7129 147.01 32.9893 148.348C31.2657 149.686 29.8439 150.75 29.8158 150.713C29.7878 150.675 31.163 149.562 32.8897 148.224C34.6164 146.886 36.0351 145.822 36.0631 145.859Z" fill="#455A64"/>
<path d="M36.0631 142.959C36.088 142.994 34.7129 144.111 32.9893 145.448C31.2657 146.786 29.8439 147.85 29.8158 147.816C29.7878 147.782 31.163 146.665 32.8897 145.327C34.6164 143.989 36.0351 142.922 36.0631 142.959Z" fill="#455A64"/>
<path d="M36.0631 140.054C36.088 140.091 34.7129 141.205 32.9893 142.543C31.2657 143.88 29.8439 144.941 29.8158 144.907C29.7878 144.873 31.163 143.756 32.8897 142.418C34.6164 141.08 36.0351 140.019 36.0631 140.054Z" fill="#455A64"/>
<path d="M34.7934 138.138C34.0166 138.848 33.2024 139.515 32.3542 140.138C31.5402 140.803 30.6929 141.426 29.8154 142.005C30.594 141.297 31.4081 140.629 32.2546 140.004C33.6298 138.944 34.7654 138.104 34.7934 138.138Z" fill="#455A64"/>
<path d="M31.1315 138.084C31.1595 138.118 30.8888 138.376 30.5248 138.66C30.3196 138.853 30.0787 139.006 29.8154 139.108C29.7874 139.073 30.0612 138.815 30.4377 138.532C30.6391 138.341 30.8744 138.189 31.1315 138.084Z" fill="#455A64"/>
<path d="M92.1566 105.703H54.707V168.101H92.1566V105.703Z" fill="#455A64"/>
<g opacity="0.3">
<path d="M92.1576 105.703H54.708V168.101H92.1576V105.703Z" fill="black"/>
</g>
<path d="M99.9291 105.703H62.4795V168.101H99.9291V105.703Z" fill="#455A64"/>
<path d="M62.3648 136.299C62.3928 136.337 60.719 137.684 58.6314 139.308C56.5438 140.932 54.8233 142.223 54.7953 142.189C54.7673 142.155 56.4411 140.808 58.5287 139.18C60.6163 137.553 62.3368 136.265 62.3648 136.299Z" fill="#455A64"/>
<path d="M62.3648 132.783C62.3928 132.817 60.719 134.164 58.6314 135.788C56.5438 137.412 54.8233 138.706 54.7953 138.669C54.7673 138.632 56.4411 137.288 58.5287 135.66C60.6163 134.033 62.3368 132.745 62.3648 132.783Z" fill="#455A64"/>
<path d="M62.3641 129.27C62.3921 129.305 60.7183 130.652 58.6307 132.279C56.543 133.906 54.8226 135.182 54.7914 135.154C54.7603 135.126 56.4373 133.772 58.5249 132.145C60.6125 130.518 62.3361 129.23 62.3641 129.27Z" fill="#455A64"/>
<path d="M62.3641 125.745C62.3921 125.783 60.7183 127.13 58.6307 128.754C56.543 130.378 54.8226 131.669 54.7914 131.635C54.7603 131.601 56.4373 130.253 58.5249 128.626C60.6125 126.999 62.3361 125.711 62.3641 125.745Z" fill="#455A64"/>
<path d="M62.3648 122.23C62.3928 122.264 60.719 123.611 58.6314 125.238C56.5438 126.865 54.8233 128.154 54.7953 128.116C54.7673 128.079 56.4411 126.735 58.5287 125.108C60.6163 123.48 62.3368 122.192 62.3648 122.23Z" fill="#455A64"/>
<path d="M62.3641 118.711C62.3921 118.745 60.7183 120.093 58.6307 121.72C56.543 123.347 54.8226 124.635 54.7914 124.604C54.7603 124.573 56.4373 123.222 58.5249 121.595C60.6125 119.968 62.3361 118.692 62.3641 118.711Z" fill="#455A64"/>
<path d="M62.3648 115.192C62.3928 115.229 60.719 116.577 58.6314 118.201C56.5438 119.825 54.8233 121.116 54.7953 121.082C54.7673 121.047 56.4411 119.7 58.5287 118.073C60.6163 116.446 62.3368 115.158 62.3648 115.192Z" fill="#455A64"/>
<path d="M62.3648 111.677C62.3928 111.711 60.719 113.058 58.6314 114.686C56.5438 116.313 54.8233 117.601 54.7953 117.563C54.7673 117.526 56.4411 116.182 58.5287 114.555C60.6163 112.928 62.3368 111.64 62.3648 111.677Z" fill="#455A64"/>
<path d="M62.3648 108.158C62.3928 108.192 60.719 109.539 58.6314 111.166C56.5438 112.793 54.8233 114.082 54.7953 114.047C54.7673 114.013 56.4411 112.666 58.5287 111.039C60.6163 109.412 62.3368 108.114 62.3648 108.158Z" fill="#455A64"/>
<path d="M60.8272 105.834C60.8552 105.871 59.5267 106.951 57.8591 108.245C56.1915 109.539 54.8195 110.566 54.7915 110.529C54.7634 110.491 56.0919 109.415 57.7595 108.117C59.4271 106.82 60.7992 105.8 60.8272 105.834Z" fill="#455A64"/>
<path d="M56.3783 105.768C56.1676 106.035 55.9155 106.266 55.6316 106.453C55.3809 106.684 55.0939 106.872 54.7822 107.01C55.2452 106.513 55.7839 106.093 56.3783 105.765V105.768Z" fill="#455A64"/>
<path d="M54.7738 146.653C54.7458 146.616 56.4196 145.269 58.5072 143.644C60.5948 142.02 62.3153 140.726 62.3402 140.763C62.3651 140.801 60.6975 142.145 58.6068 143.772C56.5161 145.399 54.8018 146.693 54.7738 146.653Z" fill="#455A64"/>
<path d="M55.0032 151.102C54.9783 151.067 56.649 149.72 58.7366 148.093C60.8243 146.466 62.5448 145.178 62.5728 145.212C62.6008 145.246 60.9269 146.593 58.8393 148.221C56.7517 149.848 55.0312 151.136 55.0032 151.102Z" fill="#455A64"/>
<path d="M54.7914 155.187C54.7634 155.153 56.4372 153.806 58.5248 152.179C60.6124 150.551 62.3329 149.263 62.3609 149.298C62.3889 149.332 60.7151 150.682 58.6275 152.306C56.5399 153.93 54.8225 155.224 54.7914 155.187Z" fill="#455A64"/>
<path d="M54.7914 158.706C54.7634 158.671 56.4372 157.324 58.5248 155.697C60.6124 154.07 62.3329 152.782 62.3609 152.816C62.3889 152.85 60.7151 154.197 58.6275 155.825C56.5399 157.452 54.8225 158.74 54.7914 158.706Z" fill="#455A64"/>
<path d="M54.7914 162.224C54.7634 162.187 56.4372 160.84 58.5248 159.216C60.6124 157.592 62.3329 156.297 62.3609 156.335C62.3889 156.372 60.7151 157.716 58.6275 159.343C56.5399 160.97 54.8225 162.249 54.7914 162.224Z" fill="#455A64"/>
<path d="M54.7914 165.74C54.7634 165.706 56.4372 164.358 58.5248 162.731C60.6124 161.104 62.3329 159.816 62.3609 159.85C62.3889 159.884 60.7151 161.235 58.6275 162.859C56.5399 164.483 54.8225 165.777 54.7914 165.74Z" fill="#455A64"/>
<path d="M56.3276 168.065C56.2996 168.027 57.6281 166.948 59.2957 165.654C60.9633 164.359 62.3353 163.336 62.3633 163.37C62.3913 163.404 61.0628 164.484 59.3952 165.781C57.7276 167.079 56.3556 168.099 56.3276 168.065Z" fill="#455A64"/>
<path d="M60.7676 168.13C61.2289 167.631 61.7679 167.211 62.3636 166.885C62.1514 167.152 61.8983 167.383 61.6138 167.57C61.3618 167.798 61.0764 167.987 60.7676 168.13Z" fill="#455A64"/>
<path d="M131.508 123.965H98.5166V168.088H131.508V123.965Z" fill="#455A64"/>
<g opacity="0.3">
<path d="M131.508 123.966H98.5166V168.089H131.508V123.966Z" fill="black"/>
</g>
<path d="M138.122 123.965H105.131V168.088H138.122V123.965Z" fill="#455A64"/>
<path d="M105.132 150.875C105.16 150.909 103.698 152.091 101.868 153.516C100.039 154.941 98.5333 156.064 98.5053 156.03C98.4773 155.996 99.9395 154.811 101.769 153.389C103.598 151.967 105.104 150.838 105.132 150.875Z" fill="#455A64"/>
<path d="M105.132 147.794C105.16 147.828 103.698 149.014 101.868 150.436C100.039 151.857 98.5333 152.984 98.5053 152.949C98.4773 152.915 99.9395 151.73 101.769 150.308C103.598 148.886 105.104 147.76 105.132 147.794Z" fill="#455A64"/>
<path d="M105.132 144.715C105.16 144.752 103.698 145.934 101.868 147.356C100.039 148.778 98.5333 149.907 98.5053 149.87C98.4773 149.833 99.9395 148.653 101.769 147.228C103.598 145.804 105.104 144.68 105.132 144.715Z" fill="#455A64"/>
<path d="M105.132 141.637C105.16 141.671 103.698 142.854 101.868 144.279C100.039 145.703 98.5333 146.827 98.5053 146.792C98.4773 146.758 99.9395 145.573 101.769 144.151C103.598 142.729 105.104 141.6 105.132 141.637Z" fill="#455A64"/>
<path d="M105.132 138.557C105.16 138.591 103.698 139.777 101.868 141.198C100.039 142.62 98.5333 143.746 98.5053 143.712C98.4773 143.678 99.9395 142.496 101.769 141.071C103.598 139.646 105.104 138.523 105.132 138.557Z" fill="#455A64"/>
<path d="M105.132 135.493C105.16 135.53 103.698 136.712 101.868 138.134C100.039 139.556 98.5333 140.685 98.5053 140.648C98.4773 140.611 99.9395 139.432 101.769 138.007C103.598 136.582 105.104 135.443 105.132 135.493Z" fill="#455A64"/>
<path d="M105.132 132.4C105.16 132.434 103.698 133.616 101.868 135.041C100.039 136.466 98.5333 137.589 98.5053 137.555C98.4773 137.521 99.9395 136.336 101.769 134.914C103.598 133.492 105.104 132.362 105.132 132.4Z" fill="#455A64"/>
<path d="M105.132 129.32C105.16 129.357 103.698 130.539 101.868 131.961C100.039 133.383 98.5333 134.509 98.5053 134.475C98.4773 134.441 99.9395 133.258 101.769 131.833C103.598 130.409 105.104 129.285 105.132 129.32Z" fill="#455A64"/>
<path d="M105.132 126.243C105.16 126.277 103.698 127.46 101.868 128.881C100.039 130.303 98.5333 131.433 98.5053 131.395C98.4773 131.358 99.9395 130.179 101.769 128.754C103.598 127.329 105.104 126.206 105.132 126.243Z" fill="#455A64"/>
<path d="M103.788 124.208C103.816 124.243 102.656 125.192 101.197 126.327C99.7374 127.463 98.5334 128.353 98.5054 128.318C98.4774 128.284 99.6379 127.335 101.097 126.2C102.556 125.064 103.76 124.174 103.788 124.208Z" fill="#455A64"/>
<path d="M99.9017 124.152C99.9297 124.187 99.6404 124.463 99.2546 124.759C99.0334 124.957 98.7797 125.114 98.5048 125.226C98.4768 125.191 98.7692 124.915 99.155 124.603C99.3742 124.409 99.6273 124.256 99.9017 124.152Z" fill="#455A64"/>
<path d="M105.132 162.973C105.16 163.008 103.698 164.19 101.868 165.615C100.039 167.04 98.5333 168.16 98.5053 168.129C98.4773 168.098 99.9395 166.909 101.769 165.487C103.598 164.065 105.104 162.939 105.132 162.973Z" fill="#455A64"/>
<path d="M105.132 159.894C105.16 159.931 103.698 161.113 101.868 162.535C100.039 163.957 98.5333 165.083 98.5053 165.049C98.4773 165.015 99.9395 163.833 101.769 162.408C103.598 160.983 105.104 159.86 105.132 159.894Z" fill="#455A64"/>
<path d="M105.132 156.817C105.16 156.852 103.698 158.034 101.868 159.459C100.039 160.884 98.5333 162.007 98.5053 161.969C98.4773 161.932 99.9395 160.753 101.769 159.328C103.598 157.903 105.104 156.78 105.132 156.817Z" fill="#455A64"/>
<path d="M105.132 153.737C105.16 153.771 103.698 154.953 101.868 156.378C100.039 157.803 98.5333 158.926 98.5053 158.892C98.4773 158.858 99.9395 157.672 101.769 156.25C103.598 154.829 105.104 153.702 105.132 153.737Z" fill="#455A64"/>
<g opacity="0.3">
<path d="M93.8674 103.058C93.5724 102.967 93.2591 102.949 92.9558 103.009C83.448 104.063 72.9166 104.779 63.3994 105.834V105.936C69.505 107.692 75.8584 108.427 82.2035 108.114C82.7978 108.086 83.476 108.08 83.8805 108.519C84.2849 108.957 84.1916 109.744 84.0578 110.385C82.72 116.203 81.3832 122.02 80.0475 127.836C79.839 128.751 79.6928 129.874 80.4084 130.477C81.3977 131.314 82.8538 130.322 83.6876 129.332C89.35 122.615 91.9198 113.898 94.3434 105.454C94.5986 104.598 94.7012 103.401 93.8674 103.058Z" fill="black"/>
</g>
<path d="M106 100.221C105.007 99.3716 103.72 98.947 102.416 99.0386L100.238 106.005C101.844 106.073 103.446 106.904 104.995 106.478C105.616 106.286 106.169 105.921 106.588 105.424C107.008 104.928 107.275 104.322 107.36 103.677C107.426 103.035 107.337 102.385 107.1 101.784C106.864 101.182 106.487 100.647 106 100.221Z" fill="#069550"/>
<path d="M102.457 98.8769C102.457 98.8209 102.694 98.7773 103.12 98.7804C103.733 98.7904 104.34 98.9051 104.915 99.1196C105.79 99.4624 106.546 100.051 107.093 100.815C107.428 101.268 107.675 101.78 107.821 102.324C107.979 102.921 107.997 103.546 107.874 104.15C107.753 104.764 107.479 105.336 107.077 105.815C106.697 106.255 106.211 106.593 105.665 106.795C104.78 107.109 103.826 107.171 102.908 106.972C102.319 106.855 101.743 106.677 101.191 106.44C100.802 106.272 100.6 106.151 100.618 106.095C100.637 106.039 100.87 106.054 101.281 106.123C101.692 106.191 102.277 106.316 102.992 106.381C103.799 106.477 104.617 106.371 105.372 106.07C105.787 105.896 106.154 105.625 106.443 105.28C106.748 104.902 106.955 104.456 107.046 103.979C107.135 103.512 107.13 103.032 107.031 102.566C106.932 102.101 106.741 101.66 106.471 101.269C106.023 100.592 105.407 100.043 104.685 99.6733C104.173 99.4315 103.637 99.2448 103.086 99.1164C102.678 99.0044 102.451 98.936 102.457 98.8769Z" fill="#E0E0E0"/>
<path d="M82.6101 124.485L78.1953 136.855L93.5616 142.431C94.0033 140.928 87.1214 135.101 87.1214 135.101L90.2917 127.289L82.6101 124.485Z" fill="#069550"/>
<g opacity="0.6">
<path d="M82.6123 132.712C82.4483 132.703 82.2868 132.754 82.1587 132.857C82.0307 132.96 81.9451 133.107 81.9185 133.269C81.9041 133.432 81.9527 133.595 82.0545 133.724C82.1563 133.853 82.3035 133.938 82.4661 133.962C82.6404 133.971 82.8117 133.915 82.9468 133.805C83.0819 133.694 83.1712 133.538 83.1972 133.365C83.1972 133.038 82.8861 132.662 82.547 132.709" fill="white"/>
</g>
<path d="M78.1953 136.856L78.6402 135.611L93.2349 141.432C93.2349 141.432 93.8136 141.98 93.5615 142.434L78.1953 136.856Z" fill="#F5F5F5"/>
<path d="M87.3991 135.114C87.3711 135.186 86.9822 135.086 86.5279 135.192C86.0737 135.298 85.7595 135.543 85.7004 135.503C85.6413 135.463 85.9119 135.058 86.4657 134.937C87.0195 134.815 87.4426 135.049 87.3991 135.114Z" fill="#263238"/>
<path d="M88.7706 136.364C88.7706 136.442 88.3879 136.451 88.0208 136.675C87.6537 136.899 87.4546 137.211 87.3799 137.179C87.3052 137.148 87.4141 136.71 87.8777 136.436C88.3413 136.162 88.7955 136.29 88.7706 136.364Z" fill="#263238"/>
<path d="M88.9852 138.622C88.9106 138.622 88.9417 138.202 89.2963 137.86C89.651 137.518 90.0493 137.484 90.0586 137.549C90.0679 137.614 89.7692 137.764 89.4955 138.047C89.2217 138.33 89.063 138.644 88.9852 138.622Z" fill="#263238"/>
<path d="M87.9206 133.253C87.8646 133.309 87.5565 133.082 87.1241 132.942C86.6916 132.802 86.3089 132.833 86.2934 132.752C86.2778 132.671 86.6916 132.522 87.2019 132.677C87.7121 132.833 87.9797 133.206 87.9206 133.253Z" fill="#263238"/>
<path d="M88.2164 131.296C87.9395 131.271 87.6742 131.174 87.4479 131.012C87.1892 130.862 86.949 130.681 86.7323 130.474C86.6045 130.35 86.485 130.218 86.3746 130.079C86.3067 130 86.2511 129.91 86.2097 129.815C86.1792 129.743 86.1734 129.664 86.1931 129.589C86.2128 129.514 86.257 129.448 86.3186 129.401C86.3755 129.363 86.4404 129.338 86.5084 129.329C86.5764 129.32 86.6455 129.326 86.7106 129.348C86.8079 129.384 86.8999 129.433 86.9843 129.494C87.1339 129.594 87.2745 129.706 87.4044 129.83C87.6211 130.042 87.8037 130.287 87.9457 130.555C88.0998 130.788 88.1781 131.063 88.1697 131.342C88.1262 131.342 88.039 131.059 87.7746 130.655C87.6212 130.424 87.4381 130.215 87.2301 130.032C87.1072 129.918 86.9751 129.814 86.835 129.721C86.6888 129.622 86.5519 129.569 86.4834 129.628C86.415 129.687 86.4523 129.659 86.4679 129.718C86.5016 129.788 86.5433 129.854 86.5923 129.914C86.6889 130.046 86.7927 130.173 86.9035 130.294C87.0995 130.498 87.3141 130.683 87.5444 130.847C87.7783 130.981 88.0029 131.131 88.2164 131.296Z" fill="#263238"/>
<path d="M88.0797 131.367C88.014 131.096 88.0369 130.81 88.1451 130.552C88.2364 130.263 88.3752 129.991 88.5557 129.747C88.6656 129.604 88.7885 129.471 88.9229 129.351C89.0003 129.267 89.098 129.203 89.2068 129.166C89.3156 129.129 89.432 129.12 89.5451 129.14C89.6129 129.167 89.6716 129.212 89.7146 129.271C89.7575 129.33 89.7829 129.4 89.7878 129.473C89.7938 129.577 89.7865 129.682 89.766 129.784C89.7292 129.965 89.6652 130.139 89.5762 130.3C89.4289 130.574 89.2149 130.806 88.954 130.975C88.5091 131.265 88.1637 131.243 88.1668 131.215C88.3984 131.095 88.6228 130.962 88.8389 130.817C89.0506 130.649 89.2227 130.437 89.3429 130.195C89.4143 130.053 89.4647 129.902 89.4922 129.747C89.5264 129.575 89.514 129.42 89.4455 129.414C89.3778 129.412 89.3104 129.425 89.2482 129.452C89.1859 129.479 89.1301 129.519 89.0846 129.569C88.9605 129.675 88.846 129.792 88.7424 129.918C88.5668 130.133 88.4232 130.373 88.3162 130.63C88.1482 131.063 88.114 131.371 88.0797 131.367Z" fill="#263238"/>
<path d="M66.0766 89.3257C63.5597 89.3848 61.1734 89.7395 59.4404 91.5627C57.1412 93.9832 54.3007 97.4335 54.1514 99.8229C53.89 103.398 56.0679 104.459 57.6235 105.333C58.324 105.712 59.1144 105.894 59.9102 105.859L88.9906 105.638L89.9053 100.713L71.095 96.077L71.8759 88.999L66.0766 89.3257Z" fill="#263238"/>
<path d="M71.8803 88.9993L81.0303 88.5762C81.0303 88.5762 96.8259 89.4473 100.205 92.5585C103.583 95.6697 103.154 99.1605 102.031 102.514C100.908 105.868 91.0048 127.448 91.0048 127.448C91.0048 127.448 91.8075 128.82 91.3564 130.185C91.1752 130.784 90.8422 131.325 90.3896 131.756C89.937 132.188 89.3805 132.494 88.7741 132.646L79.9787 129.414C79.9787 129.414 78.784 128.994 79.6272 127.858C80.4703 126.723 81.0303 126.527 81.0303 126.527V124.293C81.0303 124.293 84.1229 118.674 84.4029 117.902C84.6829 117.131 87.6447 105.694 87.6447 105.694L89.6141 102.312C89.6141 102.312 84.854 100.075 80.7316 98.4542L71.0869 96.0804L71.8803 88.9993Z" fill="#263238"/>
<path d="M86.7198 129.009C86.7011 129.031 86.4243 128.81 85.9482 128.505C84.706 127.7 83.3057 127.169 81.8415 126.95C81.5344 126.92 81.2291 126.874 80.9268 126.813C81.2373 126.776 81.5513 126.783 81.8601 126.831C82.6056 126.911 83.3376 127.087 84.038 127.354C84.7398 127.619 85.404 127.975 86.0136 128.412C86.2746 128.579 86.5121 128.78 86.7198 129.009Z" fill="#455A64"/>
<path d="M91.1137 127.466C90.9234 127.306 90.7522 127.126 90.6035 126.927C90.3079 126.579 89.9128 126.084 89.499 125.524C89.0852 124.964 88.7305 124.435 88.4879 124.049C88.3394 123.851 88.2181 123.633 88.127 123.402C88.2999 123.58 88.4542 123.775 88.5874 123.984L89.6359 125.425L90.6968 126.853C90.8584 127.041 90.9983 127.246 91.1137 127.466Z" fill="#455A64"/>
<path d="M94.3372 99.2227C94.3372 99.2507 94.0261 99.3191 93.5065 99.4902C92.8425 99.7108 92.2066 100.008 91.6118 100.377C91.0194 100.75 90.4723 101.191 89.9815 101.69C89.605 102.073 89.3997 102.337 89.3779 102.312C89.5139 102.05 89.688 101.81 89.8944 101.6C90.3677 101.065 90.9157 100.602 91.5216 100.224C92.1269 99.8476 92.7826 99.5584 93.4692 99.3658C93.7499 99.2757 94.0424 99.2275 94.3372 99.2227Z" fill="#455A64"/>
<path d="M85.3418 114.489C85.3456 114.425 85.3571 114.361 85.376 114.299C85.4134 114.159 85.4569 113.988 85.5129 113.764L86.0387 111.801L87.8401 105.345C88.2041 104.085 88.5183 102.884 88.8699 101.795C89.2419 100.848 89.8054 99.9884 90.5251 99.2692C91.0001 98.7819 91.527 98.3479 92.0962 97.9749C92.3016 97.8442 92.4602 97.7478 92.5722 97.6887C92.6273 97.654 92.6857 97.6248 92.7465 97.6016C92.7465 97.6016 92.5256 97.7509 92.1242 98.0278C91.5764 98.4206 91.067 98.8644 90.6028 99.3532C89.9086 100.067 89.3657 100.913 89.0068 101.842C88.6677 102.912 88.3565 104.129 87.9925 105.383L86.1538 111.848L85.5751 113.795C85.5067 114.01 85.4538 114.184 85.4102 114.321C85.3941 114.38 85.3711 114.436 85.3418 114.489Z" fill="#455A64"/>
<path d="M77.2497 98.0214C77.2031 98.0214 77.0102 96.3134 76.8204 94.2009C76.6306 92.0884 76.5093 90.3679 76.5591 90.3648C76.6088 90.3616 76.7986 92.0697 76.9884 94.1853C77.1782 96.3009 77.2964 98.0152 77.2497 98.0214Z" fill="#455A64"/>
<path d="M62.0236 102.586C61.9956 102.586 61.8556 102.322 61.5693 101.917C61.1946 101.391 60.7474 100.921 60.2409 100.52C59.7304 100.125 59.1656 99.8056 58.5639 99.5715C58.1003 99.3911 57.7986 99.3195 57.8048 99.2915C58.0783 99.304 58.3482 99.3596 58.6044 99.4564C59.8712 99.8783 60.9536 100.724 61.6689 101.852C61.8267 102.076 61.9465 102.324 62.0236 102.586Z" fill="#455A64"/>
<path d="M67.6266 96.3755C67.6266 96.4035 67.2221 96.1546 66.5501 95.8497C64.7913 95.0505 62.8409 94.7698 60.9282 95.0408C60.197 95.1466 59.7552 95.2772 59.749 95.2461C59.846 95.1916 59.951 95.1527 60.0601 95.131C60.3417 95.0435 60.6285 94.9738 60.9188 94.9226C62.8554 94.5806 64.8505 94.8674 66.6123 95.7408C66.8775 95.87 67.1332 96.0176 67.3777 96.1826C67.4691 96.2352 67.5529 96.3001 67.6266 96.3755Z" fill="#455A64"/>
<path d="M89.5326 100.709C89.4563 100.701 89.3805 100.689 89.3055 100.672L88.6584 100.529L86.2877 99.9969C84.2872 99.5489 81.5182 98.9485 78.4474 98.3387C75.3767 97.7289 72.589 97.2249 70.5668 96.8857L68.1711 96.4751L67.5209 96.3568C67.4452 96.345 67.3704 96.3284 67.2969 96.3071C67.3741 96.3049 67.4513 96.3112 67.5271 96.3257L68.1805 96.4097C68.7498 96.4875 69.5712 96.6088 70.5854 96.7675C72.6139 97.0786 75.4078 97.5671 78.4817 98.1738C81.5555 98.7805 84.3214 99.4027 86.3157 99.8818C87.3144 100.121 88.1202 100.321 88.6739 100.467L89.3149 100.638C89.3899 100.653 89.463 100.677 89.5326 100.709Z" fill="#455A64"/>
<path d="M71.0989 96.9139C70.9822 96.5957 70.8482 96.2841 70.6975 95.9805C70.5154 95.6645 70.2915 95.3746 70.0317 95.1187C69.7101 94.8055 69.3704 94.5115 69.0143 94.2382C68.3551 93.7519 67.6581 93.3191 66.9298 92.944C66.6204 92.7997 66.3229 92.6311 66.04 92.4399C66.3628 92.5435 66.6753 92.6768 66.9734 92.8382C67.7263 93.1861 68.4415 93.6104 69.1077 94.1044C69.4709 94.3816 69.814 94.6841 70.1344 95.0098C70.397 95.2815 70.6191 95.5895 70.794 95.9245C70.9076 96.15 70.9943 96.3881 71.0522 96.6338C71.083 96.724 71.0987 96.8186 71.0989 96.9139Z" fill="#455A64"/>
<path d="M103.489 101.31C103.526 101.347 103.041 101.838 102.661 102.585C102.282 103.332 102.16 104.01 102.107 104.001C102.136 103.48 102.273 102.972 102.512 102.508C102.75 102.044 103.083 101.636 103.489 101.31Z" fill="#263238"/>
<path d="M127.022 59.2435C127.014 59.2588 127.005 59.2733 126.994 59.2871L126.91 59.4115L126.568 59.8906L125.249 61.6671C124.104 63.201 122.474 65.3726 120.529 67.9673L120.489 68.0233L120.433 67.9829L116.317 65.0739L116.425 65.0552C115.449 66.3775 114.406 67.7869 113.33 69.2367C112.163 70.8078 111.034 72.3479 109.964 73.7697L109.923 73.8288L109.864 73.7915L104.808 70.8327L104.895 70.8141L100.54 76.2587L99.3139 77.7614L98.9872 78.1565C98.9518 78.2026 98.9134 78.2463 98.8721 78.2872C98.9013 78.2368 98.9346 78.189 98.9716 78.1441L99.2828 77.7365L100.477 76.2027L104.793 70.7207L104.83 70.6741L104.88 70.7052L109.945 73.6484L109.842 73.6701L113.202 69.1309L116.313 64.9526L116.36 64.8903L116.422 64.937L120.526 67.8584H120.43L125.196 61.5925L126.543 59.8409L126.904 59.3835C126.941 59.3337 126.972 59.2964 127 59.2653C127.028 59.2342 127.019 59.2435 127.022 59.2435Z" fill="#FFF9E1"/>
<path d="M126.581 63.8606C126.569 63.7396 126.569 63.6175 126.581 63.4965C126.6 63.229 126.625 62.8992 126.65 62.5103C126.715 61.6765 126.815 60.5253 126.936 59.2591V59.2373L127.045 59.3213C125.847 59.7475 124.761 60.1271 123.974 60.3947L123.041 60.7058C122.929 60.7507 122.812 60.781 122.692 60.796C122.797 60.7344 122.907 60.6843 123.022 60.6467L123.94 60.2889C124.718 59.9964 125.807 59.5982 126.992 59.172L127.113 59.1284V59.256V59.2684C126.992 60.5347 126.874 61.6827 126.781 62.5134C126.734 62.9023 126.693 63.2321 126.659 63.4965C126.65 63.6208 126.623 63.7432 126.581 63.8606Z" fill="#FFF9E1"/>
<path d="M90.8929 77.3846C90.7498 76.4325 87.9061 73.284 87.9061 73.284C87.9061 73.284 85.4327 67.2296 85.0065 65.5464C84.6863 64.4853 84.2976 63.4461 83.8429 62.4352C82.8473 60.7521 82.3557 60.721 80.6508 59.7627L77.3467 58.3036L76.9422 57.4044C76.5947 56.6295 75.9933 55.9963 75.2373 55.6093L66.9584 51.3345L64.3948 55.8613C64.3948 55.8613 59.4728 58.1853 59.1866 58.5525C58.1755 59.8405 58.8755 80.5269 58.8755 80.5269C58.8755 80.5269 58.3808 88.588 57.8301 90.8499C57.2794 93.1117 56.959 94.7824 56.959 94.7824L59.4168 91.9575C60.8604 90.1498 64.0245 89.316 66.2988 89.3503L85.7252 89.4343L84.5429 83.6412L100.662 87.048C100.662 87.048 103.366 81.7776 103.58 81.6718C103.795 81.566 90.8929 77.3846 90.8929 77.3846Z" fill="#069550"/>
<path d="M66.5381 57.6384C66.4012 57.5015 68.0937 61.5336 69.1857 65.9142C69.8764 68.6458 70.0226 73.0699 70.0226 75.5278L70.4395 82.416V88.4424L79.7545 87.8201L78.3607 77.6963C78.3607 77.6963 77.2251 71.1628 76.9077 68.6738C76.6184 66.3995 75.2339 57.2837 75.2339 57.2837C75.2339 57.2837 70.4395 61.6114 66.5381 57.6384Z" fill="white"/>
<path d="M87.2088 81.2055C87.1947 81.1274 87.1947 81.0473 87.2088 80.9691C87.2309 80.7585 87.2715 80.5503 87.3301 80.3469C87.5301 79.665 87.8968 79.0437 88.3973 78.5392C88.8993 78.0373 89.52 77.6702 90.2017 77.4721C90.4048 77.4113 90.6131 77.3696 90.824 77.3477C90.9733 77.3477 91.0573 77.3477 91.0604 77.3477C91.0636 77.3477 90.7338 77.4099 90.236 77.5841C89.5853 77.804 88.9942 78.1711 88.5085 78.6567C88.0229 79.1424 87.6558 79.7335 87.4359 80.3842C87.2741 80.8789 87.2399 81.2087 87.2088 81.2055Z" fill="#263238"/>
<path d="M87.6904 77.5158C88.122 77.2609 88.6112 77.1196 89.1122 77.1051C89.6086 77.0358 90.1144 77.0958 90.5807 77.2793C90.5807 77.3291 89.9243 77.2046 89.1247 77.2793C88.3251 77.354 87.706 77.5655 87.6904 77.5158Z" fill="#263238"/>
<path d="M59.4222 58.3662C58.114 58.9349 56.9581 59.8035 56.0479 60.9018C55.1377 62 54.4988 63.2972 54.1829 64.6882C53.3118 68.2412 49.5752 82.7674 50.3437 84.939C51.1121 87.1106 66.0459 89.2449 66.0459 89.2449L67.8162 81.778L60.2311 79.7028C60.2311 79.7028 60.3275 72.7897 60.424 69.9243C60.5204 67.0589 59.4222 58.3662 59.4222 58.3662Z" fill="#069550"/>
<path d="M67.6198 82.8267L70.2767 83.5236L68.6993 89.2793L66.0859 89.1642L67.6198 82.8267Z" fill="white"/>
<path d="M85.9073 87.8171L83.5148 85.2752L78.5866 84.0308C78.5866 84.0308 74.0723 85.3841 73.9634 85.381C73.8545 85.3779 70.0339 84.3357 70.0339 84.3357L68.6992 89.2296L75.5812 89.7025L83.4401 89.3914C83.4401 89.3914 83.8477 89.0087 83.605 88.7473C83.3623 88.486 84.921 89.1891 85.1046 89.1985C85.2881 89.2078 85.6428 89.3478 85.8855 89.0522C86.0504 88.85 86.2744 88.2029 85.9073 87.8171Z" fill="#C78976"/>
<path d="M83.6069 88.744C83.3399 88.6923 83.0784 88.6152 82.826 88.5138C82.3469 88.3614 81.6873 88.1591 80.9593 87.9694C80.2313 87.7796 79.5437 87.6396 79.0521 87.54C78.7824 87.5047 78.5167 87.4433 78.2588 87.3564C78.532 87.3442 78.8057 87.365 79.0739 87.4187C79.7236 87.5081 80.3677 87.6349 81.0029 87.7982C81.6365 87.9599 82.2598 88.1594 82.8696 88.3956C83.1294 88.4794 83.3772 88.5966 83.6069 88.744Z" fill="#8B5D54"/>
<path d="M85.9081 87.8167C85.5378 87.7201 85.1732 87.6027 84.8161 87.4651C84.1472 87.238 83.2076 86.9611 82.1654 86.6718C81.1231 86.3824 80.1991 86.0495 79.4959 86.0122C79.1169 85.9942 78.7369 86.0088 78.3604 86.0558C78.457 86.0037 78.5625 85.9699 78.6715 85.9562C78.9494 85.8968 79.2339 85.8738 79.5177 85.8878C80.2457 85.8878 81.2009 86.1989 82.2307 86.51C83.2605 86.8211 84.2094 87.098 84.8752 87.3562C85.205 87.4838 85.4726 87.5958 85.653 87.6674C85.7447 87.7049 85.8305 87.7552 85.9081 87.8167Z" fill="#8B5D54"/>
<path d="M50.2887 84.1577C50.2887 84.1577 50.2887 84.2821 50.3261 84.5092C50.4078 84.839 50.5892 85.1356 50.8456 85.3586C51.4959 85.9622 52.7341 86.4662 54.3053 86.7493C55.024 86.9857 55.8422 87.1724 56.7165 87.3715C57.5907 87.5707 58.5334 87.7698 59.5166 87.972C61.5046 88.3765 63.7042 88.8058 66.0314 89.2414L65.9319 89.3067L66.4577 87.1289C66.8777 85.4177 67.2852 83.7563 67.6679 82.1852L67.727 82.2878L60.9882 80.362C60.0596 79.9705 59.0543 79.795 58.0481 79.8486C57.2839 79.8906 56.5331 80.0664 55.8298 80.3682C55.3825 80.5613 54.9552 80.7979 54.5542 81.0745L54.2431 81.3016L54.1342 81.3731C54.1342 81.3731 54.1622 81.3389 54.2306 81.2829C54.2991 81.2269 54.3924 81.1429 54.5417 81.0433C54.9373 80.7504 55.3628 80.5001 55.8111 80.2967C56.5192 79.9769 57.279 79.7872 58.0543 79.7366C59.0788 79.673 60.1044 79.8433 61.0535 80.2344L67.8017 82.1292L67.8826 82.1509L67.8639 82.2318C67.4781 83.8061 67.0768 85.4644 66.6599 87.1786C66.4763 87.9222 66.299 88.6534 66.131 89.3565L66.1092 89.4374H66.0283C63.698 88.9956 61.5015 88.5631 59.5134 88.1462C58.521 87.9409 57.5814 87.7355 56.7134 87.524C55.8453 87.3124 55.024 87.1257 54.2928 86.8769C52.7061 86.5657 51.4616 86.0493 50.8083 85.4146C50.5476 85.18 50.3688 84.8682 50.2981 84.5248C50.2727 84.404 50.2695 84.2796 50.2887 84.1577Z" fill="#263238"/>
<path d="M60.6422 80.2008C60.6205 80.2226 60.3685 79.9892 59.9111 79.6843C58.716 78.8856 57.3036 78.475 55.8665 78.5083C55.319 78.5083 54.9799 78.5799 54.9736 78.5519C55.2577 78.4465 55.5574 78.3897 55.8603 78.3838C57.3314 78.2788 58.7914 78.7037 59.9764 79.5817C60.2306 79.7504 60.4555 79.9595 60.6422 80.2008Z" fill="#263238"/>
<path d="M61.6349 68.0356C61.6517 68.1866 61.6517 68.3389 61.6349 68.4899C61.6349 68.7823 61.6038 69.2055 61.5634 69.7344C61.4794 70.7766 61.3238 72.2233 61.05 73.7789C60.8343 75.128 60.5224 76.4598 60.1167 77.7644C60.0327 78.0102 59.9455 78.2342 59.874 78.4302L59.6562 78.9186C59.593 79.0574 59.5147 79.1889 59.4229 79.3106C59.4674 79.1659 59.5247 79.0253 59.594 78.8906C59.65 78.7444 59.7122 78.5795 59.7806 78.3928C59.8491 78.2062 59.9206 77.9728 59.9953 77.7239C60.3686 76.4181 60.6647 75.0915 60.882 73.7509C61.1558 72.1953 61.33 70.7486 61.4451 69.7064C61.4949 69.2148 61.5385 68.801 61.5727 68.4619C61.5789 68.3181 61.5998 68.1752 61.6349 68.0356Z" fill="#263238"/>
<path d="M68.4843 64.5234C68.4843 64.5234 68.4501 64.4363 68.3723 64.2838C68.2574 64.0678 68.0893 63.8847 67.8839 63.7518C67.7315 63.6473 67.5573 63.579 67.3745 63.552C67.1917 63.525 67.0052 63.5402 66.8292 63.5963C66.6065 63.6733 66.4076 63.8066 66.2516 63.9832C66.0957 64.1598 65.9881 64.3738 65.9394 64.6043L65.8958 64.8345L65.7962 64.623C65.4162 63.8085 65.0847 62.9722 64.8038 62.1184C64.3085 60.6965 64.0612 59.2 64.0726 57.6943C64.0726 57.405 64.1131 57.1467 64.1286 56.9165C64.1442 56.6863 64.1971 56.4965 64.2313 56.3409C64.2648 56.177 64.3138 56.0166 64.3775 55.8618C64.2641 56.4674 64.2017 57.0814 64.1909 57.6974C64.2178 59.1811 64.4792 60.6512 64.9656 62.0531C65.2441 62.8996 65.5681 63.7305 65.9363 64.5421L65.79 64.5607C65.8458 64.3054 65.9677 64.0693 66.1435 63.876C66.3194 63.6827 66.5429 63.539 66.7918 63.4594C66.9853 63.4024 67.1894 63.3911 67.388 63.4261C67.5867 63.4612 67.7745 63.5418 67.9368 63.6616C68.1469 63.8092 68.3126 64.0115 68.4159 64.2465C68.4421 64.3089 68.4629 64.3734 68.4781 64.4394C68.4874 64.4985 68.4874 64.5234 68.4843 64.5234Z" fill="#263238"/>
<path d="M76.5401 65.2546C76.5091 65.1276 76.4862 64.9988 76.4717 64.8689C76.4019 64.5104 76.3799 64.1442 76.4063 63.7799C76.4728 63.2284 76.7357 62.7193 77.1468 62.3457C77.3921 62.1278 77.7086 62.0072 78.0366 62.0066C78.2157 62.0052 78.3928 62.0445 78.5545 62.1216C78.7162 62.1986 78.8583 62.3114 78.97 62.4515L78.8362 62.5323L78.5437 61.7577C77.9713 60.2301 77.461 58.8425 77.1001 57.8375C76.9321 57.3553 76.789 56.954 76.6801 56.6428C76.622 56.4979 76.5772 56.3479 76.5463 56.1948C76.6215 56.3307 76.686 56.4721 76.7392 56.6179C76.8606 56.9291 77.0161 57.3211 77.2059 57.794C77.5948 58.7896 78.1206 60.1709 78.6931 61.6985L78.9824 62.4732L79.1691 62.9741L78.858 62.5572C78.7595 62.435 78.6349 62.3363 78.4933 62.2684C78.3517 62.2006 78.1967 62.1653 78.0397 62.1652C77.7446 62.1651 77.459 62.2698 77.2339 62.4608C76.8468 62.8093 76.5918 63.2808 76.5121 63.7955C76.4801 64.1498 76.4864 64.5065 76.5308 64.8595C76.551 64.9903 76.5541 65.1231 76.5401 65.2546Z" fill="#263238"/>
<path d="M82.0539 66.0566C82.0975 66.0566 82.7913 70.5928 83.6095 76.1992C84.4278 81.8055 85.0438 86.3572 85.0002 86.3635C84.9567 86.3697 84.2629 81.8304 83.4446 76.2209C82.6264 70.6114 82.0104 66.0629 82.0539 66.0566Z" fill="#263238"/>
<g opacity="0.3">
<path d="M64.9043 62.1709C64.9458 63.431 65.22 64.6725 65.7132 65.8328C66.0648 65.3972 66.4568 64.9368 66.995 64.8061C67.6639 64.6474 68.3422 65.0612 68.8244 65.5621C68.7403 65.0574 68.5401 64.5792 68.2395 64.1652C68.0917 63.9616 67.8988 63.795 67.6759 63.6784C67.453 63.5619 67.2061 63.4984 66.9546 63.4932C66.7019 63.4985 66.4581 63.588 66.262 63.7475C66.0659 63.9069 65.9286 64.1273 65.8719 64.3736L64.9385 62.1958" fill="black"/>
</g>
<path d="M61.6102 64.1347C61.5791 64.1347 61.5884 63.7956 61.492 63.2667C61.3603 62.5773 61.0916 61.9214 60.7018 61.3377C60.4868 61.0188 60.2386 60.7237 59.9613 60.4572C59.7331 60.2403 59.4841 60.0464 59.2177 59.8786C58.7635 59.5892 58.443 59.4803 58.4523 59.4492C58.5327 59.4546 58.6116 59.4735 58.6857 59.5052C58.7753 59.5328 58.8626 59.5672 58.947 59.6079C59.0616 59.6564 59.1728 59.7126 59.2799 59.7759C59.5621 59.9354 59.8261 60.1253 60.0671 60.3421C60.3598 60.6123 60.6208 60.915 60.8449 61.2444C61.247 61.8464 61.5085 62.5312 61.6102 63.248C61.6414 63.4632 61.6518 63.681 61.6413 63.8982C61.632 64.0507 61.6227 64.1347 61.6102 64.1347Z" fill="#263238"/>
<g opacity="0.3">
<path d="M82.334 68.0767L84.4154 82.7429L84.518 82.9762C85.0084 77.9061 84.2589 72.7927 82.334 68.0767Z" fill="black"/>
</g>
<path d="M93.8859 76.504L87.119 88.3266L70.4399 88.6906L70.3994 89.4435L86.5466 89.3253L87.0599 89.3066L104.112 89.3408L107.56 83.3984L111.962 77.0889C112.028 76.9954 112.066 76.8856 112.074 76.7716C112.081 76.6575 112.057 76.5436 112.004 76.4424C111.951 76.3412 111.871 76.2565 111.773 76.1977C111.675 76.1388 111.563 76.1081 111.449 76.1089L94.4241 76.1742C94.3132 76.1762 94.2047 76.2078 94.1101 76.2658C94.0154 76.3238 93.938 76.406 93.8859 76.504Z" fill="#E0E0E0"/>
<path d="M107.559 83.4141C107.559 83.4141 108.433 84.2168 108.296 84.8981C108.16 85.5795 108.203 86.0897 107.559 86.1426C107.568 86.3913 107.483 86.6343 107.32 86.8225C107.157 87.0108 106.929 87.1302 106.682 87.1568C106.682 87.1568 106.881 88.2271 105.633 88.4013C105.633 88.4013 105.254 89.5462 104.467 89.2693C104.017 89.1142 103.584 88.913 103.175 88.6689L102.945 88.252C102.945 88.252 101.791 87.8195 102.074 87.1662C102.248 86.771 102.846 86.6684 102.846 86.6684C102.777 86.5054 102.748 86.3286 102.761 86.1523C102.774 85.976 102.829 85.8053 102.92 85.6541C103.197 85.2808 104.099 85.5888 104.099 85.5888C104.08 85.2692 104.181 84.954 104.383 84.7052C104.694 84.3412 106.128 85.3275 106.128 85.3275L106.909 84.3941L107.559 83.4141Z" fill="#C78976"/>
<path d="M105.633 88.4051C105.128 88.1899 104.646 87.923 104.196 87.6087C103.714 87.3458 103.262 87.033 102.846 86.6753C103.838 87.1522 104.776 87.7331 105.646 88.4082L105.633 88.4051Z" fill="#8B5D54"/>
<path d="M106.681 87.151C106.212 86.9646 105.764 86.7278 105.346 86.4448C104.901 86.2071 104.484 85.9213 104.102 85.5923C104.571 85.7779 105.019 86.0148 105.436 86.2985C105.882 86.5349 106.299 86.8208 106.681 87.151Z" fill="#8B5D54"/>
<path d="M105.254 84.802C105.282 84.7553 105.817 85.0353 106.439 85.4242C106.826 85.6466 107.198 85.894 107.553 86.1647C107.528 86.2176 106.971 85.9655 106.349 85.5673C105.959 85.3501 105.592 85.0936 105.254 84.802Z" fill="#8B5D54"/>
<path d="M111.961 76.5731C111.935 76.5774 111.907 76.5774 111.88 76.5731H111.641H110.708L107.323 76.6011L96.1502 76.626H95.3351C95.2145 76.6132 95.0928 76.6336 94.9831 76.6852C94.8733 76.7368 94.7799 76.8174 94.7128 76.9184C94.4546 77.3789 94.2026 77.8362 93.9537 78.2843L92.5163 80.879L90.074 85.2689C89.3771 86.5134 88.814 87.5121 88.4158 88.2214L87.9553 89.0179L87.834 89.2232C87.8199 89.2478 87.8033 89.2708 87.7842 89.2917C87.7932 89.2648 87.8047 89.2388 87.8184 89.2139C87.8464 89.1579 87.8806 89.0895 87.9273 89.0024C88.03 88.8032 88.1762 88.5326 88.3566 88.1872L89.9714 85.2098C90.6589 83.9653 91.4741 82.4595 92.3825 80.8043C92.8368 79.9736 93.3159 79.1056 93.8106 78.2034L94.5728 76.8251C94.6554 76.7019 94.7691 76.6027 94.9025 76.5376C95.0358 76.4726 95.184 76.4441 95.332 76.4549H96.1471L107.319 76.4798L110.704 76.5078H111.638H111.877L111.961 76.5731Z" fill="#263238"/>
<path d="M99.9622 82.5247C99.8841 82.6384 99.8404 82.7722 99.8363 82.9101C99.8321 83.048 99.8678 83.1841 99.939 83.3023C100.01 83.4205 100.114 83.5157 100.238 83.5765C100.361 83.6374 100.5 83.6613 100.637 83.6455C100.774 83.6296 100.904 83.5747 101.01 83.4872C101.117 83.3997 101.196 83.2834 101.239 83.1521C101.281 83.0208 101.285 82.8801 101.249 82.7468C101.214 82.6134 101.141 82.4932 101.039 82.4003C100.879 82.2746 100.676 82.2171 100.475 82.2404C100.273 82.2638 100.089 82.366 99.9622 82.5247Z" fill="white"/>
<path d="M75.4017 56.6607L75.3083 53.9758C75.3083 53.9758 78.8738 53.1948 78.6964 49.5921C78.6124 47.8498 78.1426 44.2812 77.6822 41.058C77.4402 39.3879 76.5789 37.8698 75.2694 36.8052C73.9599 35.7407 72.2979 35.2075 70.6135 35.3116L70.2682 35.3334C66.5348 35.7814 64.8329 39.2038 65.3836 42.9216L66.2579 57.0901C66.3316 58.2762 66.8636 59.3872 67.7414 60.1884C68.6192 60.9896 69.7741 61.4181 70.962 61.3835C71.5636 61.365 72.1557 61.2282 72.7045 60.9808C73.2532 60.7334 73.7479 60.3804 74.1602 59.9418C74.5724 59.5032 74.8943 58.9877 75.1073 58.4248C75.3203 57.8618 75.4204 57.2624 75.4017 56.6607Z" fill="#E2A18D"/>
<path d="M75.3087 53.9799C73.6459 54.0787 71.9896 53.6986 70.5361 52.8848C70.5361 52.8848 71.7526 55.436 75.3274 54.8915L75.3087 53.9799Z" fill="#8B5D54"/>
<path d="M77.226 44.4404C77.2355 44.5745 77.1925 44.707 77.1059 44.8098C77.0194 44.9126 76.8961 44.9777 76.7624 44.9911C76.6973 45.0002 76.631 44.9962 76.5675 44.9793C76.504 44.9624 76.4445 44.9329 76.3925 44.8925C76.3406 44.8522 76.2973 44.8019 76.2652 44.7445C76.233 44.6872 76.2128 44.624 76.2055 44.5586C76.2002 44.4257 76.2464 44.2958 76.3345 44.1961C76.4226 44.0965 76.5458 44.0346 76.6784 44.0235C76.8059 44.0083 76.9344 44.0433 77.0366 44.1211C77.1387 44.1989 77.2067 44.3134 77.226 44.4404Z" fill="#263238"/>
<path d="M77.016 42.8662C76.9569 42.9378 76.5494 42.6733 75.9956 42.7075C75.4418 42.7418 75.0622 43.0467 74.9906 42.9813C74.9191 42.916 75.0155 42.8289 75.1867 42.6889C75.4141 42.5092 75.6914 42.4038 75.9808 42.3871C76.2703 42.3704 76.5578 42.4432 76.8045 42.5955C76.9818 42.7169 77.0471 42.8351 77.016 42.8662Z" fill="#263238"/>
<path d="M71.8384 44.6615C71.8471 44.7955 71.8032 44.9276 71.7161 45.0299C71.6289 45.1321 71.5054 45.1964 71.3717 45.209C71.3068 45.2186 71.2406 45.215 71.1771 45.1985C71.1135 45.1819 71.054 45.1527 71.002 45.1127C70.9501 45.0726 70.9067 45.0224 70.8745 44.9652C70.8423 44.908 70.822 44.8449 70.8148 44.7797C70.8052 44.6456 70.8483 44.5131 70.9348 44.4103C71.0214 44.3075 71.1446 44.2424 71.2784 44.229C71.3436 44.2203 71.4099 44.2246 71.4734 44.2416C71.537 44.2587 71.5965 44.2882 71.6486 44.3284C71.7007 44.3686 71.7442 44.4188 71.7768 44.4759C71.8094 44.5331 71.8303 44.5962 71.8384 44.6615Z" fill="#263238"/>
<path d="M71.5834 43.3047C71.5243 43.3762 71.1167 43.1118 70.563 43.146C70.0092 43.1802 69.6296 43.4851 69.558 43.4198C69.4865 43.3545 69.5829 43.2673 69.754 43.1273C69.9811 42.942 70.261 42.8331 70.5536 42.8162C70.8405 42.798 71.1258 42.8709 71.3688 43.0247C71.5492 43.1553 71.6239 43.2736 71.5834 43.3047Z" fill="#263238"/>
<path d="M73.8456 47.2842C74.1308 47.1748 74.4287 47.1016 74.7322 47.0664C74.8754 47.0446 75.006 47.0073 75.0247 46.9109C75.026 46.764 74.9838 46.62 74.9034 46.4971L74.4242 45.4455C73.7491 43.949 73.2513 42.717 73.3104 42.689C73.3695 42.661 73.9669 43.8557 74.642 45.349C74.8038 45.7193 74.9531 46.0708 75.1087 46.4068C75.2078 46.5722 75.2463 46.7669 75.2176 46.9575C75.2001 47.0088 75.1711 47.0553 75.1328 47.0936C75.0945 47.1319 75.0479 47.1609 74.9967 47.1784C74.9202 47.2047 74.8408 47.2215 74.7602 47.2282C74.4588 47.2844 74.1516 47.3032 73.8456 47.2842Z" fill="#263238"/>
<path d="M72.2464 47.7568C72.3366 47.7568 72.3739 48.348 72.9153 48.7431C73.4566 49.1382 74.0913 49.0324 74.1007 49.1164C74.1007 49.1538 73.9638 49.2409 73.6962 49.2658C73.3442 49.2915 72.9943 49.1936 72.7069 48.9889C72.4323 48.7895 72.2451 48.492 72.1842 48.1582C72.1406 47.9186 72.1997 47.7568 72.2464 47.7568Z" fill="#263238"/>
<path d="M71.5929 41.1271C71.5494 41.2827 70.9925 41.2453 70.3485 41.3636C69.7044 41.4818 69.188 41.6747 69.104 41.5596C69.0604 41.4973 69.1444 41.3511 69.3466 41.1924C69.6163 40.9926 69.93 40.8603 70.2613 40.8067C70.5909 40.7473 70.9299 40.7665 71.2507 40.8627C71.484 40.9436 71.624 41.0556 71.5929 41.1271Z" fill="#263238"/>
<path d="M76.7145 41.2767C76.6242 41.4105 76.2353 41.3016 75.7811 41.3234C75.3269 41.3452 74.938 41.4603 74.8477 41.3234C74.8042 41.2612 74.8477 41.1305 75.022 41.0123C75.238 40.8515 75.4994 40.7633 75.7687 40.7602C76.038 40.7474 76.3045 40.8192 76.5309 40.9656C76.6927 41.0869 76.7549 41.2238 76.7145 41.2767Z" fill="#263238"/>
<path d="M77.2247 39.4282C77.2247 39.4282 76.1358 37.2317 75.0158 36.7712C73.6624 36.2143 73.1833 37.7046 71.9046 37.4215C70.6259 37.1384 69.3347 36.6157 68.112 37.6642C66.7742 38.8122 67.4898 39.5153 67.4898 41.1176C67.5364 47.6169 66.4662 49.5178 65.9342 46.4906C65.8751 46.1577 64.9324 45.9493 64.7084 44.5461C64.4159 42.7261 64.2075 40.5016 64.5372 39.1824C64.8141 38.0655 65.3928 37.2721 66.46 36.3823C68.1462 34.9574 70.573 34.7801 72.2344 34.8267C73.8957 34.8734 77.2247 36.5939 77.2247 39.4282Z" fill="#263238"/>
<path d="M66.1764 46.3788C66.1642 46.247 66.1254 46.1191 66.0622 46.0027C65.9991 45.8864 65.913 45.7841 65.8091 45.702C65.7053 45.62 65.5858 45.5599 65.458 45.5254C65.3302 45.4909 65.1967 45.4828 65.0657 45.5015C64.3968 45.6073 63.6718 46.0335 63.8025 47.4211C64.0327 49.8758 66.4533 49.1385 66.4501 49.0669C66.447 48.9954 66.2821 47.4055 66.1764 46.3788Z" fill="#C78976"/>
<path d="M65.828 48.1928C65.828 48.1928 65.7876 48.227 65.7192 48.2675C65.6239 48.319 65.5127 48.3323 65.408 48.3048C65.1374 48.2332 64.8822 47.8412 64.8262 47.3994C64.8011 47.1898 64.8234 46.9771 64.8916 46.7772C64.9072 46.6982 64.9417 46.6242 64.9921 46.5614C65.0425 46.4985 65.1072 46.4488 65.1809 46.4163C65.229 46.3994 65.2815 46.3995 65.3296 46.4165C65.3776 46.4334 65.4185 46.4663 65.4454 46.5096C65.4827 46.5781 65.4734 46.6279 65.4858 46.631C65.4983 46.6341 65.5356 46.5843 65.5076 46.4847C65.4859 46.4258 65.4468 46.3748 65.3956 46.3385C65.3228 46.2945 65.236 46.2801 65.1529 46.2981C65.0539 46.3273 64.964 46.3816 64.8921 46.4558C64.8201 46.5299 64.7685 46.6213 64.7422 46.7212C64.6567 46.944 64.6278 47.1845 64.6582 47.4212C64.7205 47.9128 65.016 48.3546 65.38 48.423C65.4479 48.4357 65.5178 48.4331 65.5845 48.4153C65.6513 48.3976 65.7132 48.3651 65.7658 48.3204C65.8312 48.255 65.8374 48.1959 65.828 48.1928Z" fill="#8B5D54"/>
<path d="M65.9343 41.6059C66.2503 41.8327 66.6184 41.9761 67.0045 42.0228C67.1985 42.0411 67.3924 41.988 67.5499 41.8734C67.7075 41.7588 67.8178 41.5907 67.8601 41.4006C67.8788 41.2294 67.8259 41.0303 67.9286 40.8934C68.0312 40.7565 68.305 40.7597 68.5135 40.769C68.8739 40.7736 69.225 40.6545 69.5082 40.4314C69.7913 40.2082 69.9893 39.8947 70.0691 39.5432C70.1871 39.6581 70.3439 39.7248 70.5085 39.7299C70.6732 39.7351 70.8338 39.6785 70.9589 39.5712C71.2007 39.3484 71.4101 39.0929 71.5811 38.812C71.6687 38.6725 71.789 38.5565 71.9316 38.4741C72.0742 38.3917 72.2348 38.3454 72.3994 38.3391C72.5773 38.3868 72.7598 38.415 72.9438 38.4231C73.2549 38.3734 73.398 37.9876 73.4292 37.664C73.4603 37.3404 73.4727 36.9609 73.7403 36.7711C74.0078 36.5813 74.319 36.6653 74.6208 36.6933C74.9225 36.7213 75.3021 36.6249 75.3581 36.3293C75.3663 36.2502 75.3585 36.1703 75.3349 36.0944C75.3114 36.0184 75.2727 35.9481 75.2212 35.8875C75.0026 35.6023 74.6941 35.3993 74.3458 35.3112C73.9974 35.2231 73.6295 35.2552 73.3016 35.4022C73.1502 35.0049 72.8858 34.6606 72.541 34.4118C72.1963 34.163 71.7862 34.0206 71.3615 34.0021C70.9367 33.9835 70.5158 34.0897 70.1507 34.3076C69.7856 34.5254 69.4923 34.8454 69.3068 35.2279C69.031 35.0067 68.7058 34.8553 68.3589 34.7869C68.0119 34.7184 67.6536 34.7349 67.3144 34.8348C66.9752 34.9347 66.6652 35.1152 66.4108 35.3608C66.1564 35.6064 65.9652 35.9098 65.8534 36.2453C65.5469 36.1848 65.2294 36.2157 64.9403 36.3342C64.6513 36.4528 64.4034 36.6537 64.2277 36.912C64.052 37.1703 63.9561 37.4746 63.9519 37.787C63.9478 38.0994 64.0356 38.4061 64.2044 38.6689C63.9833 38.7956 63.7977 38.9761 63.665 39.1936C63.5323 39.4112 63.4567 39.6588 63.4453 39.9134C63.4702 40.4236 63.996 40.9028 64.4813 40.7379C64.4291 40.8412 64.3976 40.9539 64.3889 41.0694C64.3801 41.1849 64.3942 41.301 64.4303 41.4111C64.4664 41.5212 64.5239 41.6231 64.5993 41.7109C64.6748 41.7988 64.7669 41.8709 64.8702 41.9232C64.9736 41.9755 65.0863 42.007 65.2018 42.0157C65.3173 42.0245 65.4334 42.0104 65.5435 41.9743C65.6535 41.9382 65.7554 41.8807 65.8433 41.8053C65.9312 41.7298 66.0033 41.6377 66.0556 41.5343" fill="#263238"/>
<path d="M73.5309 36.1177C73.5309 36.1177 73.5309 36.1177 73.5309 36.1612C73.5334 36.2058 73.5334 36.2505 73.5309 36.295C73.5072 36.4637 73.4568 36.6275 73.3816 36.7804C73.2616 37.0243 73.087 37.2372 72.8713 37.4026C72.5869 37.623 72.2387 37.7452 71.8789 37.7511L71.9162 37.6951C71.9616 37.8029 71.985 37.9187 71.985 38.0357C71.985 38.1527 71.9616 38.2686 71.9162 38.3764C71.8199 38.6015 71.691 38.8112 71.5335 38.9986C71.4588 39.1113 71.3723 39.2156 71.2753 39.3098C71.1639 39.3977 71.0324 39.4565 70.8926 39.4809C70.7487 39.5106 70.5998 39.5045 70.4587 39.4633C70.3177 39.4221 70.189 39.3469 70.0837 39.2444L70.1739 39.2133C70.1548 39.4709 70.0824 39.7216 69.9614 39.9498C69.8404 40.1779 69.6733 40.3784 69.4708 40.5387C69.247 40.7255 68.9686 40.8347 68.6774 40.8498C68.4028 40.8533 68.1294 40.8112 67.8685 40.7254L67.9339 40.6911C67.8246 40.997 67.6406 41.2708 67.3987 41.4876C67.2879 41.5945 67.1549 41.6755 67.0092 41.725C66.8634 41.7745 66.7085 41.7911 66.5556 41.7738C66.2933 41.7336 66.0485 41.6176 65.8512 41.4402C65.6539 41.2628 65.5127 41.0317 65.4449 40.7751L65.504 40.8C65.2527 40.9538 64.9557 41.0154 64.664 40.9743C64.441 40.9513 64.2271 40.8732 64.0417 40.7471C63.929 40.67 63.8301 40.5742 63.7493 40.464C63.6995 40.3862 63.6777 40.3427 63.6777 40.3427C63.7845 40.4881 63.9162 40.6134 64.0666 40.7129C64.2442 40.8252 64.4456 40.8944 64.6547 40.9152C64.9311 40.9489 65.2106 40.8851 65.4449 40.7347L65.4916 40.7067V40.7596C65.5563 41.0005 65.69 41.2172 65.8763 41.383C66.0626 41.5488 66.2933 41.6566 66.54 41.693C66.6795 41.7088 66.8208 41.6929 66.9533 41.6466C67.0858 41.6003 67.2062 41.5247 67.3054 41.4254C67.5327 41.219 67.7048 40.9591 67.8063 40.6694L67.825 40.6227H67.8716C68.1201 40.7066 68.381 40.7476 68.6432 40.744C68.9122 40.7283 69.1687 40.6256 69.3743 40.4516C69.566 40.3021 69.7242 40.1141 69.8389 39.8998C69.9536 39.6855 70.0221 39.4495 70.0401 39.2071V39.092L70.121 39.176C70.2623 39.3071 70.4448 39.385 70.6372 39.3964C70.8296 39.4077 71.02 39.3518 71.1757 39.2382C71.2662 39.1524 71.3475 39.0576 71.4184 38.9551C71.5736 38.774 71.7005 38.5705 71.7949 38.3515C71.8384 38.254 71.8622 38.1488 71.8649 38.042C71.8676 37.9352 71.849 37.8289 71.8104 37.7293L71.7886 37.6733H71.8478C72.1902 37.674 72.5238 37.5649 72.7998 37.3622C73.0102 37.2073 73.1834 37.0075 73.3069 36.7773C73.4214 36.573 73.4973 36.3494 73.5309 36.1177Z" fill="#455A64"/>
<path d="M74.7601 44.8763C74.6918 44.6888 74.6377 44.4964 74.5983 44.3008C74.5076 43.7683 74.5974 43.2208 74.8534 42.7452C75.03 42.4164 75.2815 42.134 75.5877 41.9207C75.9379 41.6754 76.3469 41.5272 76.773 41.4913C77.0031 41.4719 77.2348 41.4866 77.4606 41.5349C77.6956 41.5826 77.9215 41.6677 78.1295 41.7869C78.5739 42.0334 78.9282 42.4152 79.1408 42.8768C79.3534 43.3383 79.4133 43.8557 79.3118 44.3536C79.265 44.5894 79.181 44.8163 79.0629 45.0257C78.9557 45.2287 78.8171 45.4135 78.6522 45.5732C78.3474 45.8739 77.9685 46.0886 77.5539 46.1955C77.1919 46.2852 76.8143 46.2916 76.4495 46.2141C75.9174 46.0979 75.4398 45.8065 75.093 45.3866C74.9704 45.2287 74.8591 45.0624 74.7601 44.8888C74.7774 44.9379 74.7982 44.9857 74.8223 45.0319C74.8484 45.0896 74.8796 45.1447 74.9156 45.1968C74.9588 45.271 75.0077 45.3418 75.0619 45.4083C75.353 45.7785 75.7447 46.0567 76.1901 46.2096C76.6355 46.3625 77.1156 46.3835 77.5726 46.2701C78.0016 46.1676 78.3957 45.9528 78.7144 45.6479C78.8862 45.4816 79.0311 45.2895 79.1438 45.0786C79.2682 44.8623 79.3554 44.6267 79.402 44.3816C79.5073 43.8642 79.4452 43.3267 79.2249 42.8468C79.0045 42.367 78.6372 41.9696 78.1762 41.7122C77.9586 41.5908 77.7235 41.5037 77.4793 41.454C77.2453 41.4036 77.005 41.39 76.7668 41.4136C76.3543 41.4481 75.9573 41.5863 75.6124 41.8153C75.2676 42.0443 74.9862 42.3566 74.7943 42.7234C74.5337 43.2167 74.4513 43.7848 74.561 44.3319C74.5768 44.4173 74.5986 44.5015 74.6263 44.5839C74.6426 44.6449 74.6644 44.7042 74.6916 44.7612C74.7113 44.8014 74.7342 44.8398 74.7601 44.8763Z" fill="#263238"/>
<path d="M68.4095 45.2491C68.3454 45.0602 68.2914 44.8681 68.2477 44.6735C68.1596 44.1407 68.2504 43.5937 68.5059 43.1179C68.6814 42.7894 68.9319 42.5069 69.237 42.2934C69.5857 42.04 69.9963 41.8853 70.4255 41.8454C70.6545 41.8244 70.8855 41.8391 71.11 41.889C71.3458 41.9372 71.5726 42.0222 71.782 42.141C72.2263 42.3867 72.5803 42.768 72.7925 43.2292C73.0046 43.6904 73.0637 44.2074 72.9611 44.7046C72.8687 45.169 72.6389 45.595 72.3016 45.9273C72.018 46.2099 71.6679 46.4166 71.2836 46.5286C70.8992 46.6406 70.4929 46.6542 70.1019 46.5682C69.568 46.4545 69.0886 46.1627 68.7423 45.7407C68.6203 45.5835 68.5091 45.4182 68.4095 45.246C68.4272 45.2954 68.449 45.3433 68.4748 45.3891C68.4996 45.4468 68.5299 45.502 68.565 45.554C68.6093 45.6282 68.6592 45.6989 68.7143 45.7655C69.058 46.205 69.5425 46.5126 70.0864 46.6367C70.4898 46.7293 70.91 46.7185 71.3081 46.6054C71.7063 46.4923 72.0694 46.2804 72.3638 45.9896C72.5365 45.8245 72.6824 45.6334 72.7962 45.4233C72.918 45.2047 73.0051 44.9686 73.0545 44.7233C73.1604 44.2042 73.0966 43.6647 72.8725 43.1846C72.6484 42.7045 72.2759 42.3092 71.81 42.057C71.593 41.9342 71.3577 41.8471 71.1131 41.7988C70.8791 41.7483 70.6388 41.7347 70.4006 41.7583C69.9591 41.7969 69.536 41.9526 69.1748 42.2094C68.8619 42.4331 68.6061 42.7272 68.4281 43.0681C68.1681 43.5617 68.0867 44.13 68.1979 44.6766C68.2122 44.7614 68.234 44.8447 68.2632 44.9255C68.279 44.9877 68.3009 45.0481 68.3286 45.106C68.3518 45.1557 68.3789 45.2035 68.4095 45.2491Z" fill="#263238"/>
<path d="M73.0497 43.7124C73.2772 43.5827 73.5319 43.5082 73.7934 43.4947C74.0549 43.4812 74.3159 43.5291 74.5556 43.6346C74.5556 43.6346 74.4933 43.563 74.3565 43.5008C74.1777 43.4218 73.9829 43.386 73.7878 43.3963C73.5927 43.4065 73.4027 43.4626 73.2333 43.5599C73.1026 43.6221 73.0404 43.6906 73.0497 43.7124Z" fill="#263238"/>
<path d="M65.9531 45.7284C66.3488 45.5805 66.7317 45.4005 67.0981 45.1901C67.4809 45.0118 67.8491 44.8038 68.1994 44.5679C67.8044 44.7173 67.4216 44.8973 67.0545 45.1061C66.6728 45.2867 66.3048 45.4946 65.9531 45.7284Z" fill="#263238"/>
<path d="M78.4852 157.466H59.0215V161H78.4852V157.466Z" fill="#FF9500"/>
<path d="M60.9286 161.025C60.8207 159.859 60.8207 158.685 60.9286 157.519C61.0364 158.685 61.0364 159.859 60.9286 161.025Z" fill="#263238"/>
<path d="M59.8641 161.025C59.7562 159.859 59.7562 158.685 59.8641 157.519C59.972 158.685 59.972 159.859 59.8641 161.025Z" fill="#263238"/>
<path d="M63.2655 161.025C63.1576 159.859 63.1576 158.685 63.2655 157.519C63.3733 158.685 63.3733 159.859 63.2655 161.025Z" fill="#263238"/>
<path d="M62.201 161.025C62.0932 159.859 62.0932 158.685 62.201 157.519C62.3089 158.685 62.3089 159.859 62.201 161.025Z" fill="#263238"/>
<path d="M65.6043 161.025C65.4965 159.859 65.4965 158.685 65.6043 157.519C65.7122 158.685 65.7122 159.859 65.6043 161.025Z" fill="#263238"/>
<path d="M64.5409 161.025C64.433 159.859 64.433 158.685 64.5409 157.519C64.6487 158.685 64.6487 159.859 64.5409 161.025Z" fill="#263238"/>
<path d="M67.9315 161.025C67.8236 159.859 67.8236 158.685 67.9315 157.519C68.0393 158.685 68.0393 159.859 67.9315 161.025Z" fill="#263238"/>
<path d="M66.8778 161.025C66.7699 159.859 66.7699 158.685 66.8778 157.519C66.9898 158.685 66.9898 159.859 66.8778 161.025Z" fill="#263238"/>
<path d="M70.2801 161.025C70.1723 159.859 70.1723 158.685 70.2801 157.519C70.388 158.685 70.388 159.859 70.2801 161.025Z" fill="#263238"/>
<path d="M69.2166 161.025C69.1088 159.859 69.1088 158.685 69.2166 157.519C69.3245 158.685 69.3245 159.859 69.2166 161.025Z" fill="#263238"/>
<path d="M72.62 161.025C72.5121 159.859 72.5121 158.685 72.62 157.519C72.7278 158.685 72.7278 159.859 72.62 161.025Z" fill="#263238"/>
<path d="M71.5565 161.025C71.4486 159.859 71.4486 158.685 71.5565 157.519C71.6643 158.685 71.6643 159.859 71.5565 161.025Z" fill="#263238"/>
<path d="M74.9598 161.025C74.8519 159.859 74.8519 158.685 74.9598 157.519C75.0677 158.685 75.0677 159.859 74.9598 161.025Z" fill="#263238"/>
<path d="M73.8934 161.025C73.7855 159.859 73.7855 158.685 73.8934 157.519C74.0013 158.685 74.0013 159.859 73.8934 161.025Z" fill="#263238"/>
<path d="M77.2977 161.025C77.1898 159.859 77.1898 158.685 77.2977 157.519C77.4056 158.685 77.4056 159.859 77.2977 161.025Z" fill="#263238"/>
<path d="M76.2323 161.025C76.1244 159.859 76.1244 158.685 76.2323 157.519C76.3401 158.685 76.3401 159.859 76.2323 161.025Z" fill="#263238"/>
<path d="M78.4813 157.466C78.4813 157.512 74.0945 157.547 68.6841 157.547C63.2737 157.547 58.8838 157.512 58.8838 157.466C58.8838 157.419 63.2706 157.385 68.6841 157.385C74.0976 157.385 78.4813 157.422 78.4813 157.466Z" fill="#263238"/>
<path d="M76.9569 160.972H57.4932V164.506H76.9569V160.972Z" fill="#FF9500"/>
<path d="M59.4002 164.531C59.2924 163.365 59.2924 162.191 59.4002 161.025C59.5081 162.191 59.5081 163.365 59.4002 164.531Z" fill="#263238"/>
<path d="M58.3377 164.531C58.2299 163.365 58.2299 162.191 58.3377 161.025C58.4456 162.191 58.4456 163.365 58.3377 164.531Z" fill="#263238"/>
<path d="M61.7411 164.531C61.6332 163.365 61.6332 162.191 61.7411 161.025C61.8489 162.191 61.8489 163.365 61.7411 164.531Z" fill="#263238"/>
<path d="M60.6766 164.531C60.5687 163.365 60.5687 162.191 60.6766 161.025C60.7845 162.191 60.7845 163.365 60.6766 164.531Z" fill="#263238"/>
<path d="M64.0809 164.531C63.973 163.365 63.973 162.191 64.0809 161.025C64.1888 162.191 64.1888 163.365 64.0809 164.531Z" fill="#263238"/>
<path d="M63.0125 164.531C62.9047 163.365 62.9047 162.191 63.0125 161.025C63.1204 162.191 63.1204 163.365 63.0125 164.531Z" fill="#263238"/>
<path d="M66.4168 164.531C66.309 163.365 66.309 162.191 66.4168 161.025C66.5247 162.191 66.5247 163.365 66.4168 164.531Z" fill="#263238"/>
<path d="M65.3524 164.531C65.2445 163.365 65.2445 162.191 65.3524 161.025C65.4602 162.191 65.4602 163.365 65.3524 164.531Z" fill="#263238"/>
<path d="M68.7567 164.531C68.6488 163.365 68.6488 162.191 68.7567 161.025C68.8645 162.191 68.8645 163.365 68.7567 164.531Z" fill="#263238"/>
<path d="M67.6922 164.531C67.5844 163.365 67.5844 162.191 67.6922 161.025C67.8001 162.191 67.8001 163.365 67.6922 164.531Z" fill="#263238"/>
<path d="M71.0955 164.531C70.9877 163.365 70.9877 162.191 71.0955 161.025C71.2034 162.191 71.2034 163.365 71.0955 164.531Z" fill="#263238"/>
<path d="M70.0291 164.531C69.9213 163.365 69.9213 162.191 70.0291 161.025C70.137 162.191 70.137 163.365 70.0291 164.531Z" fill="#263238"/>
<path d="M73.4325 164.531C73.3246 163.365 73.3246 162.191 73.4325 161.025C73.5403 162.191 73.5403 163.365 73.4325 164.531Z" fill="#263238"/>
<path d="M72.369 164.531C72.2611 163.365 72.2611 162.191 72.369 161.025C72.4768 162.191 72.4768 163.365 72.369 164.531Z" fill="#263238"/>
<path d="M75.7723 164.531C75.6644 163.365 75.6644 162.191 75.7723 161.025C75.8802 162.191 75.8802 163.365 75.7723 164.531Z" fill="#263238"/>
<path d="M74.7078 164.531C74.6 163.365 74.6 162.191 74.7078 161.025C74.8157 162.191 74.8157 163.365 74.7078 164.531Z" fill="#263238"/>
<path d="M76.9543 160.988C76.9543 161.034 72.5768 161.069 67.1789 161.069C61.781 161.069 57.4004 161.034 57.4004 160.988C57.4004 160.941 61.7779 160.907 67.1789 160.907C72.5799 160.907 76.9543 160.929 76.9543 160.988Z" fill="#263238"/>
<path d="M75.7069 164.532H56.2432V168.066H75.7069V164.532Z" fill="#FF9500"/>
<path d="M58.1502 168.091C58.0424 166.925 58.0424 165.751 58.1502 164.584C58.2581 165.751 58.2581 166.925 58.1502 168.091Z" fill="#263238"/>
<path d="M57.0868 168.091C56.9789 166.925 56.9789 165.751 57.0868 164.584C57.1946 165.751 57.1946 166.925 57.0868 168.091Z" fill="#263238"/>
<path d="M60.4901 168.091C60.3822 166.925 60.3822 165.751 60.4901 164.584C60.5979 165.751 60.5979 166.925 60.4901 168.091Z" fill="#263238"/>
<path d="M59.4266 168.091C59.3187 166.925 59.3187 165.751 59.4266 164.584C59.5345 165.751 59.5345 166.925 59.4266 168.091Z" fill="#263238"/>
<path d="M62.8299 168.091C62.7221 166.925 62.7221 165.751 62.8299 164.584C62.9378 165.751 62.9378 166.925 62.8299 168.091Z" fill="#263238"/>
<path d="M61.7655 168.091C61.6576 166.925 61.6576 165.751 61.7655 164.584C61.8733 165.751 61.8733 166.925 61.7655 168.091Z" fill="#263238"/>
<path d="M65.1668 168.091C65.059 166.925 65.059 165.751 65.1668 164.584C65.2747 165.751 65.2747 166.925 65.1668 168.091Z" fill="#263238"/>
<path d="M64.1024 168.091C63.9945 166.925 63.9945 165.751 64.1024 164.584C64.2102 165.751 64.2102 166.925 64.1024 168.091Z" fill="#263238"/>
<path d="M67.5057 168.091C67.3978 166.925 67.3978 165.751 67.5057 164.584C67.6136 165.751 67.6136 166.925 67.5057 168.091Z" fill="#263238"/>
<path d="M66.4412 168.091C66.3334 166.925 66.3334 165.751 66.4412 164.584C66.5491 165.751 66.5491 166.925 66.4412 168.091Z" fill="#263238"/>
<path d="M69.8455 168.091C69.7377 166.925 69.7377 165.751 69.8455 164.584C69.9534 165.751 69.9534 166.925 69.8455 168.091Z" fill="#263238"/>
<path d="M68.7782 168.091C68.6703 166.925 68.6703 165.751 68.7782 164.584C68.8902 165.751 68.8902 166.925 68.7782 168.091Z" fill="#263238"/>
<path d="M72.1825 168.091C72.0746 166.925 72.0746 165.751 72.1825 164.584C72.2903 165.751 72.2903 166.925 72.1825 168.091Z" fill="#263238"/>
<path d="M71.118 168.091C71.0101 166.925 71.0101 165.751 71.118 164.584C71.2259 165.751 71.2259 166.925 71.118 168.091Z" fill="#263238"/>
<path d="M74.5213 168.091C74.4135 166.925 74.4135 165.751 74.5213 164.584C74.6292 165.751 74.6292 166.925 74.5213 168.091Z" fill="#263238"/>
<path d="M73.4569 168.091C73.349 166.925 73.349 165.751 73.4569 164.584C73.5647 165.751 73.5647 166.925 73.4569 168.091Z" fill="#263238"/>
<path d="M75.7102 164.532C75.7102 164.578 71.3327 164.612 65.9348 164.612C60.5368 164.612 56.1562 164.578 56.1562 164.532C56.1562 164.485 60.5337 164.451 65.9348 164.451C71.3358 164.451 75.7102 164.488 75.7102 164.532Z" fill="#263238"/>
<g opacity="0.3">
<path d="M60.1543 161.01C63.1009 161.683 66.1328 161.903 69.1457 161.663C72.1324 161.464 75.1472 161.025 78.1402 161.063L60.1543 161.01Z" fill="black"/>
</g>
<g opacity="0.3">
<path d="M56.4824 164.578C59.429 165.251 62.4609 165.471 65.4738 165.231C68.4606 165.032 71.4753 164.594 74.4683 164.631L56.4824 164.578Z" fill="black"/>
</g>
<path d="M59.4518 157.758C59.5876 157.758 59.6976 157.722 59.6976 157.677C59.6976 157.632 59.5876 157.596 59.4518 157.596C59.3161 157.596 59.2061 157.632 59.2061 157.677C59.2061 157.722 59.3161 157.758 59.4518 157.758Z" fill="white"/>
<path d="M62.3969 157.687C61.6562 157.795 60.9038 157.795 60.1631 157.687C60.9038 157.579 61.6562 157.579 62.3969 157.687Z" fill="white"/>
<path d="M65.4868 157.687C64.7461 157.795 63.9936 157.795 63.2529 157.687C63.9936 157.579 64.7461 157.579 65.4868 157.687Z" fill="white"/>
<path d="M109.599 154.497C110.307 156.373 110.443 158.418 109.989 160.371C109.535 162.325 108.511 164.1 107.048 165.472C105.585 166.843 103.747 167.75 101.768 168.077C99.7896 168.404 97.7582 168.137 95.9313 167.309C94.1045 166.481 92.5644 165.129 91.5059 163.426C90.4474 161.722 89.9182 159.743 89.9851 157.738C90.0521 155.733 90.7123 153.794 91.8821 152.165C93.0519 150.535 94.6788 149.29 96.5568 148.586C99.0702 147.64 101.856 147.732 104.302 148.841C106.748 149.949 108.653 151.984 109.599 154.497Z" fill="#FFB900"/>
<path d="M107.343 155.346C107.883 156.776 107.987 158.334 107.642 159.823C107.296 161.312 106.517 162.665 105.402 163.711C104.287 164.757 102.887 165.449 101.379 165.698C99.8705 165.948 98.3222 165.745 96.9297 165.114C95.5372 164.483 94.3631 163.454 93.556 162.155C92.7489 160.857 92.3452 159.349 92.3958 157.821C92.4465 156.293 92.9493 154.815 93.8406 153.573C94.7319 152.331 95.9716 151.381 97.4028 150.844C98.351 150.487 99.3604 150.319 100.373 150.352C101.386 150.385 102.383 150.617 103.306 151.035C104.229 151.453 105.061 152.049 105.753 152.789C106.446 153.529 106.986 154.397 107.343 155.346Z" fill="#FFB900"/>
<path d="M107.343 155.346C107.321 155.31 107.301 155.273 107.284 155.234L107.132 154.901L107.02 154.655C106.976 154.565 106.917 154.475 106.861 154.372C106.733 154.133 106.589 153.903 106.429 153.685C106.005 153.076 105.491 152.534 104.904 152.079C103.51 150.974 101.775 150.388 99.9961 150.422C98.2173 150.455 96.5055 151.106 95.1538 152.263C94.8771 152.497 94.6172 152.751 94.376 153.022C94.2546 153.162 94.1457 153.311 94.0275 153.454C93.9141 153.601 93.8102 153.755 93.7164 153.915C93.5111 154.234 93.3262 154.565 93.1626 154.907C93.009 155.262 92.879 155.627 92.7737 155.999C92.5514 156.763 92.4547 157.557 92.4875 158.351C92.5436 160 93.1381 161.584 94.18 162.863C94.6782 163.483 95.274 164.018 95.944 164.446C96.2685 164.657 96.6063 164.846 96.9552 165.013C97.2979 165.168 97.6501 165.301 98.0099 165.411C98.3673 165.513 98.731 165.59 99.0988 165.644C99.4601 165.687 99.8238 165.707 100.188 165.703C101.554 165.687 102.892 165.308 104.064 164.605C104.995 164.041 105.797 163.287 106.415 162.391C107.034 161.496 107.456 160.48 107.655 159.409C107.795 158.681 107.826 157.935 107.745 157.197C107.72 156.928 107.678 156.661 107.617 156.398C107.592 156.282 107.577 156.174 107.552 156.086C107.527 155.999 107.496 155.906 107.474 155.828C107.431 155.679 107.396 155.564 107.368 155.477C107.355 155.437 107.346 155.397 107.34 155.355C107.358 155.392 107.373 155.431 107.384 155.47C107.415 155.558 107.455 155.673 107.505 155.819L107.589 156.077C107.617 156.174 107.639 156.279 107.664 156.388C107.732 156.653 107.78 156.922 107.807 157.194C107.902 157.937 107.881 158.691 107.745 159.428C107.553 160.515 107.132 161.549 106.51 162.461C105.888 163.373 105.078 164.142 104.136 164.717C102.619 165.631 100.84 166.009 99.0832 165.79C98.7081 165.738 98.3369 165.66 97.9725 165.557C97.5994 165.45 97.2336 165.319 96.8774 165.165C96.5207 164.997 96.1756 164.806 95.8445 164.593C95.1607 164.155 94.5524 163.61 94.0431 162.978C93.5214 162.324 93.1018 161.595 92.7986 160.816C92.5156 160.029 92.352 159.205 92.3132 158.37C92.2819 157.559 92.3817 156.748 92.6088 155.968C92.8087 155.21 93.1359 154.492 93.5764 153.843C93.6724 153.679 93.7816 153.523 93.9031 153.377C94.0213 153.227 94.1333 153.066 94.2577 152.935C94.5045 152.659 94.7706 152.401 95.0542 152.163C96.1154 151.262 97.3976 150.659 98.769 150.418C99.8556 150.231 100.97 150.277 102.037 150.553C103.104 150.829 104.101 151.33 104.96 152.02C105.547 152.486 106.058 153.041 106.475 153.663C106.635 153.883 106.777 154.116 106.899 154.36C106.955 154.466 107.011 154.559 107.054 154.649L107.157 154.901L107.297 155.24C107.316 155.274 107.331 155.309 107.343 155.346Z" fill="#263238"/>
<g opacity="0.3">
<path d="M107.316 155.455C107.272 155.474 107.123 155.166 106.799 154.656C106.347 153.939 105.788 153.296 105.141 152.749C104.697 152.379 104.214 152.057 103.701 151.79C103.11 151.49 102.482 151.267 101.834 151.128C101.487 151.05 101.134 150.999 100.779 150.975C100.41 150.946 100.038 150.946 99.6685 150.975C99.2872 151.005 98.9087 151.063 98.5361 151.15C98.1537 151.243 97.7784 151.364 97.4129 151.51C97.0498 151.664 96.6984 151.844 96.3613 152.049C96.0329 152.248 95.7208 152.472 95.428 152.721C95.1452 152.958 94.882 153.219 94.6408 153.498C94.4051 153.766 94.1899 154.051 93.9968 154.351C93.6388 154.905 93.3534 155.504 93.1475 156.131C92.9681 156.682 92.8502 157.252 92.7959 157.829C92.7228 158.673 92.7784 159.523 92.9608 160.349C93.0915 160.941 93.2003 161.261 93.1568 161.283C93.1132 161.305 92.9452 161.003 92.7399 160.412C92.4693 159.565 92.3575 158.676 92.4101 157.789C92.4435 157.174 92.5479 156.566 92.7212 155.975C92.9202 155.296 93.2101 154.647 93.583 154.046C93.7825 153.718 94.0072 153.406 94.255 153.113C94.511 152.806 94.792 152.521 95.0951 152.26C95.4073 151.99 95.7401 151.744 96.0907 151.526C96.8157 151.078 97.6092 150.753 98.4396 150.562C99.2312 150.376 100.047 150.318 100.857 150.39C101.949 150.484 103.01 150.807 103.968 151.339C104.503 151.64 105.002 152.001 105.455 152.416C106.108 153.015 106.645 153.729 107.039 154.522C107.269 155.095 107.344 155.431 107.316 155.455Z" fill="black"/>
</g>
<g opacity="0.3">
<path d="M102.549 162.067L103.041 163.311L101.92 163.75L101.432 162.539C100.3 162.907 99.1017 162.975 98.299 162.735L98.3768 161.13C99.1972 161.328 100.055 161.309 100.866 161.074L100.132 159.207C98.7719 159.394 97.2226 159.518 96.5972 157.922C96.1336 156.737 96.5972 155.384 98.2835 154.5L97.795 153.256L98.9151 152.817L99.3911 154.036C100.209 153.768 101.079 153.696 101.93 153.828L101.911 155.424C101.264 155.325 100.605 155.356 99.9698 155.514L100.716 157.415C102.073 157.219 103.597 157.104 104.217 158.675C104.677 159.826 104.232 161.167 102.549 162.067ZM99.4906 157.561L98.8684 155.975C98.3302 156.339 98.2213 156.756 98.3644 157.126C98.5075 157.496 98.9431 157.599 99.4906 157.561ZM102.471 159.503C102.319 159.111 101.911 159.027 101.364 159.046L101.986 160.601C102.48 160.25 102.611 159.861 102.471 159.5V159.503Z" fill="black"/>
</g>
<path d="M139 157.514H119.536V161.048H139V157.514Z" fill="#FFC800"/>
<path d="M121.444 161.074C121.336 159.907 121.336 158.734 121.444 157.567C121.552 158.734 121.552 159.907 121.444 161.074Z" fill="#263238"/>
<path d="M120.379 161.074C120.271 159.907 120.271 158.734 120.379 157.567C120.487 158.734 120.487 159.907 120.379 161.074Z" fill="#263238"/>
<path d="M123.782 161.074C123.674 159.907 123.674 158.734 123.782 157.567C123.89 158.734 123.89 159.907 123.782 161.074Z" fill="#263238"/>
<path d="M122.72 161.074C122.612 159.907 122.612 158.734 122.72 157.567C122.827 158.734 122.827 159.907 122.72 161.074Z" fill="#263238"/>
<path d="M126.123 161.074C126.015 159.907 126.015 158.734 126.123 157.567C126.231 158.734 126.231 159.907 126.123 161.074Z" fill="#263238"/>
<path d="M125.056 161.074C124.948 159.907 124.948 158.734 125.056 157.567C125.163 158.734 125.163 159.907 125.056 161.074Z" fill="#263238"/>
<path d="M128.459 161.074C128.351 159.907 128.351 158.734 128.459 157.567C128.567 158.734 128.567 159.907 128.459 161.074Z" fill="#263238"/>
<path d="M127.394 161.074C127.287 159.907 127.287 158.734 127.394 157.567C127.502 158.734 127.502 159.907 127.394 161.074Z" fill="#263238"/>
<path d="M130.799 161.074C130.691 159.907 130.691 158.734 130.799 157.567C130.907 158.734 130.907 159.907 130.799 161.074Z" fill="#263238"/>
<path d="M129.743 161.074C129.635 159.907 129.635 158.734 129.743 157.567C129.851 158.734 129.851 159.907 129.743 161.074Z" fill="#263238"/>
<path d="M133.138 161.074C133.026 159.908 133.026 158.733 133.138 157.567C133.246 158.734 133.246 159.907 133.138 161.074Z" fill="#263238"/>
<path d="M132.071 161.074C131.963 159.907 131.963 158.734 132.071 157.567C132.179 158.734 132.179 159.907 132.071 161.074Z" fill="#263238"/>
<path d="M135.474 161.074C135.367 159.907 135.367 158.734 135.474 157.567C135.582 158.734 135.582 159.907 135.474 161.074Z" fill="#263238"/>
<path d="M134.411 161.074C134.303 159.907 134.303 158.734 134.411 157.567C134.519 158.734 134.519 159.907 134.411 161.074Z" fill="#263238"/>
<path d="M137.814 161.074C137.706 159.907 137.706 158.734 137.814 157.567C137.922 158.734 137.922 159.907 137.814 161.074Z" fill="#263238"/>
<path d="M136.751 161.074C136.643 159.907 136.643 158.734 136.751 157.567C136.859 158.734 136.859 159.907 136.751 161.074Z" fill="#263238"/>
<path d="M138.999 157.514C138.999 157.561 134.612 157.595 129.199 157.595C123.785 157.595 119.398 157.561 119.398 157.514C119.398 157.468 123.785 157.434 129.199 157.434C134.612 157.434 138.999 157.471 138.999 157.514Z" fill="#263238"/>
<path d="M137.475 161.021H118.012V164.555H137.475V161.021Z" fill="#FFC800"/>
<path d="M119.919 164.58C119.811 163.414 119.811 162.24 119.919 161.074C120.027 162.24 120.027 163.414 119.919 164.58Z" fill="#263238"/>
<path d="M118.854 164.58C118.746 163.414 118.746 162.24 118.854 161.074C118.962 162.24 118.962 163.414 118.854 164.58Z" fill="#263238"/>
<path d="M122.259 164.58C122.151 163.414 122.151 162.24 122.259 161.074C122.366 162.24 122.366 163.414 122.259 164.58Z" fill="#263238"/>
<path d="M121.191 164.58C121.083 163.414 121.083 162.24 121.191 161.074C121.299 162.24 121.299 163.414 121.191 164.58Z" fill="#263238"/>
<path d="M124.596 164.58C124.488 163.414 124.488 162.24 124.596 161.074C124.703 162.24 124.703 163.414 124.596 164.58Z" fill="#263238"/>
<path d="M123.522 164.58C123.414 163.414 123.414 162.24 123.522 161.074C123.63 162.24 123.63 163.414 123.522 164.58Z" fill="#263238"/>
<path d="M126.943 164.58C126.835 163.414 126.835 162.24 126.943 161.074C127.051 162.24 127.051 163.414 126.943 164.58Z" fill="#263238"/>
<path d="M125.871 164.58C125.763 163.414 125.763 162.24 125.871 161.074C125.979 162.24 125.979 163.414 125.871 164.58Z" fill="#263238"/>
<path d="M129.272 164.58C129.164 163.414 129.164 162.24 129.272 161.074C129.384 162.24 129.384 163.414 129.272 164.58Z" fill="#263238"/>
<path d="M128.207 164.58C128.099 163.414 128.099 162.24 128.207 161.074C128.315 162.24 128.315 163.414 128.207 164.58Z" fill="#263238"/>
<path d="M131.61 164.58C131.502 163.414 131.502 162.24 131.61 161.074C131.718 162.24 131.718 163.414 131.61 164.58Z" fill="#263238"/>
<path d="M130.547 164.58C130.439 163.414 130.439 162.24 130.547 161.074C130.655 162.24 130.655 163.414 130.547 164.58Z" fill="#263238"/>
<path d="M133.95 164.58C133.842 163.414 133.842 162.24 133.95 161.074C134.058 162.24 134.058 163.414 133.95 164.58Z" fill="#263238"/>
<path d="M132.886 164.58C132.778 163.414 132.778 162.24 132.886 161.074C132.993 162.24 132.993 163.414 132.886 164.58Z" fill="#263238"/>
<path d="M136.277 164.58C136.169 163.414 136.169 162.24 136.277 161.074C136.385 162.24 136.385 163.414 136.277 164.58Z" fill="#263238"/>
<path d="M135.222 164.58C135.115 163.414 135.115 162.24 135.222 161.074C135.33 162.24 135.33 163.414 135.222 164.58Z" fill="#263238"/>
<path d="M137.473 161.021C137.473 161.068 133.098 161.102 127.697 161.102C122.296 161.102 117.922 161.055 117.922 161.021C117.922 160.987 122.299 160.94 127.697 160.94C133.095 160.94 137.473 160.977 137.473 161.021Z" fill="#263238"/>
<path d="M136.224 164.581H116.761V168.115H136.224V164.581Z" fill="#FFC800"/>
<path d="M118.668 168.139C118.56 166.973 118.56 165.799 118.668 164.633C118.776 165.799 118.776 166.973 118.668 168.139Z" fill="#263238"/>
<path d="M117.61 168.139C117.502 166.973 117.502 165.799 117.61 164.633C117.718 165.799 117.718 166.973 117.61 168.139Z" fill="#263238"/>
<path d="M121.007 168.139C120.899 166.973 120.899 165.799 121.007 164.633C121.115 165.799 121.115 166.973 121.007 168.139Z" fill="#263238"/>
<path d="M119.944 168.139C119.832 166.973 119.832 165.799 119.944 164.633C120.052 165.799 120.052 166.973 119.944 168.139Z" fill="#263238"/>
<path d="M123.345 168.139C123.237 166.973 123.237 165.799 123.345 164.633C123.452 165.799 123.452 166.973 123.345 168.139Z" fill="#263238"/>
<path d="M122.277 168.139C122.169 166.973 122.169 165.799 122.277 164.633C122.385 165.799 122.385 166.973 122.277 168.139Z" fill="#263238"/>
<path d="M125.699 168.139C125.591 166.973 125.591 165.799 125.699 164.633C125.807 165.799 125.807 166.973 125.699 168.139Z" fill="#263238"/>
<path d="M124.62 168.139C124.512 166.973 124.512 165.799 124.62 164.633C124.728 165.799 124.728 166.973 124.62 168.139Z" fill="#263238"/>
<path d="M128.024 168.139C127.916 166.973 127.916 165.799 128.024 164.633C128.132 165.799 128.132 166.973 128.024 168.139Z" fill="#263238"/>
<path d="M126.943 168.139C126.835 166.973 126.835 165.799 126.943 164.633C127.051 165.799 127.051 166.973 126.943 168.139Z" fill="#263238"/>
<path d="M130.366 168.139C130.258 166.973 130.258 165.799 130.366 164.633C130.474 165.799 130.474 166.973 130.366 168.139Z" fill="#263238"/>
<path d="M129.296 168.139C129.188 166.973 129.188 165.799 129.296 164.633C129.404 165.799 129.404 166.973 129.296 168.139Z" fill="#263238"/>
<path d="M132.699 168.139C132.591 166.973 132.591 165.799 132.699 164.633C132.807 165.799 132.807 166.973 132.699 168.139Z" fill="#263238"/>
<path d="M131.636 168.139C131.528 166.973 131.528 165.799 131.636 164.633C131.743 165.799 131.743 166.973 131.636 168.139Z" fill="#263238"/>
<path d="M135.033 168.139C134.921 166.973 134.921 165.799 135.033 164.633C135.141 165.799 135.141 166.973 135.033 168.139Z" fill="#263238"/>
<path d="M133.972 168.139C133.865 166.973 133.865 165.799 133.972 164.633C134.08 165.799 134.08 166.973 133.972 168.139Z" fill="#263238"/>
<path d="M136.225 164.58C136.225 164.627 131.847 164.661 126.446 164.661C121.045 164.661 116.671 164.627 116.671 164.58C116.671 164.534 121.048 164.5 126.446 164.5C131.844 164.5 136.225 164.537 136.225 164.58Z" fill="#263238"/>
<g opacity="0.3">
<path d="M120.656 161.055C123.602 161.728 126.633 161.948 129.645 161.709C132.631 161.509 135.649 161.071 138.642 161.108L120.656 161.055Z" fill="black"/>
</g>
<g opacity="0.3">
<path d="M116.988 164.627C119.934 165.3 122.965 165.521 125.977 165.281C128.963 165.082 131.981 164.643 134.974 164.68L116.988 164.627Z" fill="black"/>
</g>
<path d="M119.968 157.807C120.104 157.807 120.214 157.771 120.214 157.726C120.214 157.681 120.104 157.645 119.968 157.645C119.833 157.645 119.723 157.681 119.723 157.726C119.723 157.771 119.833 157.807 119.968 157.807Z" fill="white"/>
<path d="M122.915 157.735C122.174 157.843 121.421 157.843 120.681 157.735C121.421 157.627 122.174 157.627 122.915 157.735Z" fill="white"/>
<path d="M126.011 157.735C125.27 157.843 124.518 157.843 123.777 157.735C124.518 157.627 125.27 157.627 126.011 157.735Z" fill="white"/>
<path d="M49.7975 144.778C49.0424 146.636 47.753 148.229 46.0925 149.354C44.432 150.479 42.4751 151.086 40.4694 151.099C38.4636 151.111 36.4994 150.528 34.8251 149.424C33.1508 148.319 31.8419 146.743 31.064 144.894C30.286 143.045 30.0741 141.007 30.4549 139.038C30.8357 137.069 31.7923 135.257 33.2034 133.831C34.6145 132.406 36.4168 131.431 38.3821 131.03C40.3475 130.63 42.3875 130.821 44.244 131.581C46.7301 132.595 48.7118 134.555 49.7532 137.03C50.7946 139.504 50.8105 142.292 49.7975 144.778Z" fill="#FFB900"/>
<path d="M47.5643 143.877C46.9888 145.293 46.006 146.506 44.7404 147.364C43.4748 148.221 41.9833 148.683 40.4547 148.693C38.926 148.702 37.429 148.258 36.1531 147.416C34.8772 146.574 33.8797 145.372 33.287 143.963C32.6943 142.554 32.5329 141.001 32.8233 139.5C33.1137 137.999 33.8429 136.618 34.9185 135.532C35.9941 134.446 37.3678 133.703 38.8657 133.398C40.3635 133.093 41.9183 133.239 43.3331 133.818C44.2714 134.201 45.1252 134.764 45.8456 135.477C46.5661 136.189 47.1391 137.037 47.532 137.971C47.9249 138.905 48.13 139.907 48.1356 140.92C48.1411 141.934 47.947 142.938 47.5643 143.877Z" fill="#FFB900"/>
<path d="M47.564 143.876C47.5722 143.834 47.5836 143.794 47.5983 143.754L47.7134 143.406L47.7974 143.151C47.8254 143.054 47.8472 142.949 47.872 142.84C47.9436 142.579 47.9945 142.312 48.0245 142.043C48.1276 141.309 48.1192 140.563 47.9996 139.831C47.728 138.072 46.8532 136.462 45.5249 135.278C44.1967 134.093 42.4978 133.407 40.7194 133.338C40.3573 133.322 39.9945 133.33 39.6336 133.363C39.45 133.385 39.2696 133.419 39.086 133.447C38.9007 133.472 38.7177 133.512 38.5384 133.565C38.1706 133.66 37.809 133.777 37.4557 133.917C37.1017 134.071 36.7587 134.25 36.429 134.452C35.7468 134.861 35.1353 135.378 34.6183 135.983C33.542 137.231 32.9019 138.796 32.7952 140.441C32.7405 141.234 32.813 142.032 33.0098 142.802C33.1891 143.549 33.4874 144.263 33.8934 144.915C34.2678 145.549 34.7391 146.12 35.2903 146.607C36.6091 147.801 38.3014 148.501 40.0784 148.587C41.8554 148.672 43.6071 148.139 45.0346 147.077C45.629 146.64 46.1535 146.116 46.5902 145.522C46.7565 145.309 46.9073 145.084 47.0414 144.849C47.1036 144.747 47.1627 144.657 47.2094 144.569C47.256 144.482 47.2934 144.401 47.3276 144.327L47.4925 144C47.5095 143.961 47.5293 143.924 47.5516 143.888C47.541 143.929 47.5264 143.968 47.508 144.006L47.3587 144.342L47.2467 144.588C47.2 144.678 47.1409 144.772 47.0849 144.874C46.9528 145.113 46.8041 145.341 46.64 145.559C46.2068 146.168 45.682 146.706 45.0844 147.155C44.2935 147.759 43.3919 148.202 42.4306 148.458C41.2626 148.778 40.036 148.818 38.8496 148.577C37.4864 148.295 36.2226 147.656 35.1877 146.726C34.9124 146.477 34.6536 146.211 34.413 145.929C34.1729 145.634 33.9546 145.322 33.7596 144.996C33.5588 144.664 33.379 144.32 33.2214 143.966C33.073 143.599 32.9503 143.223 32.8543 142.84C32.6498 142.054 32.5741 141.241 32.6303 140.432C32.6929 139.598 32.8806 138.779 33.1872 138.002C33.5146 137.232 33.955 136.516 34.4939 135.877C35.0223 135.262 35.6464 134.737 36.3419 134.321C36.68 134.117 37.0313 133.937 37.3935 133.78C37.753 133.635 38.1221 133.516 38.498 133.422C38.6803 133.368 38.8665 133.327 39.0549 133.301C39.2416 133.276 39.4282 133.238 39.6149 133.22C41.3768 133.057 43.1427 133.486 44.6333 134.439C45.5568 135.041 46.3422 135.832 46.9375 136.76C47.5328 137.688 47.9245 138.731 48.0867 139.822C48.1998 140.563 48.1998 141.317 48.0867 142.059C48.0503 142.329 47.9941 142.596 47.9187 142.858C47.8907 142.973 47.8658 143.079 47.8378 143.169L47.7445 143.425C47.6885 143.568 47.6449 143.683 47.6138 143.767C47.6008 143.805 47.5841 143.841 47.564 143.876Z" fill="#263238"/>
<g opacity="0.3">
<path d="M47.4804 143.916C47.4338 143.901 47.5333 143.574 47.6422 142.983C47.7963 142.148 47.8194 141.295 47.7107 140.453C47.6369 139.879 47.5013 139.315 47.3062 138.77C47.0784 138.151 46.772 137.563 46.3946 137.022C45.9793 136.426 45.4793 135.893 44.9106 135.441C44.6104 135.203 44.292 134.989 43.9585 134.8C43.2718 134.411 42.5271 134.133 41.7527 133.979C41.3774 133.903 40.9966 133.857 40.614 133.842C40.2445 133.824 39.8741 133.835 39.5064 133.876C39.1527 133.912 38.8023 133.975 38.4579 134.063C37.8173 134.226 37.2004 134.47 36.6223 134.791C36.1178 135.076 35.6453 135.414 35.213 135.799C34.5851 136.367 34.0479 137.028 33.62 137.759C33.3089 138.279 33.1751 138.59 33.1316 138.574C33.088 138.559 33.1658 138.223 33.4178 137.641C33.7841 136.834 34.2968 136.102 34.9298 135.482C35.368 135.05 35.8557 134.672 36.3828 134.355C36.9898 133.993 37.6428 133.714 38.3242 133.525C38.6924 133.423 39.0679 133.349 39.4473 133.304C39.8423 133.253 40.2409 133.236 40.6389 133.251C41.0569 133.263 41.4731 133.31 41.8834 133.391C42.3005 133.473 42.7104 133.589 43.1092 133.736C43.5065 133.886 43.8914 134.067 44.2603 134.278C44.6197 134.482 44.962 134.715 45.2839 134.975C45.5928 135.226 45.882 135.5 46.1488 135.796C46.4066 136.08 46.6427 136.382 46.8551 136.701C47.5903 137.804 48.0315 139.076 48.1369 140.397C48.2085 141.281 48.1167 142.17 47.8662 143.02C47.6827 143.63 47.5115 143.929 47.4804 143.916Z" fill="black"/>
</g>
<g opacity="0.3">
<path d="M39.4805 145.534L38.9889 146.779L37.8689 146.34L38.348 145.12C37.2684 144.62 36.3413 143.854 35.915 143.132L37.0631 142.009C37.5322 142.71 38.1755 143.277 38.9298 143.655L39.6609 141.788C38.5378 140.998 37.3151 140.04 37.9404 138.441C38.4071 137.255 39.6672 136.574 41.5121 137.069L42.0006 135.824L43.1175 136.263L42.6415 137.482C43.4235 137.84 44.1092 138.379 44.642 139.054L43.5437 140.211C43.1371 139.701 42.6325 139.278 42.0597 138.967L41.3161 140.867C42.4423 141.645 43.6433 142.594 43.0273 144.172C42.5637 145.338 41.3192 146.01 39.4805 145.534ZM40.3018 140.152L40.9241 138.565C40.2769 138.466 39.916 138.699 39.7698 139.066C39.6236 139.433 39.8694 139.803 40.3018 140.143V140.152ZM41.1761 143.602C41.3285 143.21 41.089 142.871 40.6721 142.513L40.0685 144.069C40.6658 144.156 41.0267 143.96 41.1761 143.602Z" fill="black"/>
</g>
<path d="M49.827 150.372H30.3633V153.906H49.827V150.372Z" fill="#FFB900"/>
<path d="M32.2703 153.931C32.1625 152.765 32.1625 151.591 32.2703 150.425C32.3782 151.591 32.3782 152.765 32.2703 153.931Z" fill="#263238"/>
<path d="M31.2215 153.931C31.1137 152.765 31.1137 151.591 31.2215 150.425C31.3294 151.591 31.3294 152.765 31.2215 153.931Z" fill="#263238"/>
<path d="M34.6092 153.931C34.5014 152.765 34.5014 151.591 34.6092 150.425C34.7171 151.591 34.7171 152.765 34.6092 153.931Z" fill="#263238"/>
<path d="M33.5457 153.931C33.4379 152.765 33.4379 151.591 33.5457 150.425C33.6536 151.591 33.6536 152.765 33.5457 153.931Z" fill="#263238"/>
<path d="M36.9491 153.931C36.8412 152.765 36.8412 151.591 36.9491 150.425C37.0569 151.591 37.0569 152.765 36.9491 153.931Z" fill="#263238"/>
<path d="M35.8885 153.931C35.7807 152.765 35.7807 151.591 35.8885 150.425C35.9964 151.591 35.9964 152.765 35.8885 153.931Z" fill="#263238"/>
<path d="M39.285 153.931C39.1771 152.765 39.1771 151.591 39.285 150.425C39.3929 151.591 39.3929 152.765 39.285 153.931Z" fill="#263238"/>
<path d="M38.2205 153.931C38.1127 152.765 38.1127 151.591 38.2205 150.425C38.3284 151.591 38.3284 152.765 38.2205 153.931Z" fill="#263238"/>
<path d="M41.6258 153.931C41.518 152.765 41.518 151.591 41.6258 150.425C41.7337 151.591 41.7337 152.765 41.6258 153.931Z" fill="#263238"/>
<path d="M40.5555 153.931C40.4476 152.765 40.4476 151.591 40.5555 150.425C40.6634 151.591 40.6634 152.765 40.5555 153.931Z" fill="#263238"/>
<path d="M43.9774 153.931C43.8695 152.765 43.8695 151.591 43.9774 150.425C44.0852 151.591 44.0852 152.765 43.9774 153.931Z" fill="#263238"/>
<path d="M42.8973 153.931C42.7894 152.765 42.7894 151.591 42.8973 150.425C43.0093 151.591 43.0093 152.765 42.8973 153.931Z" fill="#263238"/>
<path d="M46.3016 153.931C46.1937 152.765 46.1937 151.591 46.3016 150.425C46.4095 151.591 46.4095 152.765 46.3016 153.931Z" fill="#263238"/>
<path d="M45.2371 153.931C45.1293 152.765 45.1293 151.591 45.2371 150.425C45.345 151.591 45.345 152.765 45.2371 153.931Z" fill="#263238"/>
<path d="M48.6444 153.931C48.5365 152.765 48.5365 151.591 48.6444 150.425C48.7522 151.591 48.7522 152.765 48.6444 153.931Z" fill="#263238"/>
<path d="M47.577 153.931C47.4691 152.765 47.4691 151.591 47.577 150.425C47.6849 151.591 47.6849 152.765 47.577 153.931Z" fill="#263238"/>
<path d="M49.8255 150.372C49.8255 150.419 45.448 150.453 40.0501 150.453C34.6521 150.453 30.2871 150.409 30.2871 150.372C30.2871 150.335 34.6646 150.291 40.0656 150.291C45.4667 150.291 49.8255 150.328 49.8255 150.372Z" fill="#263238"/>
<path d="M48.5535 153.963H29.0898V157.497H48.5535V153.963Z" fill="#FFB900"/>
<path d="M30.9969 157.521C30.8891 156.355 30.8891 155.181 30.9969 154.015C31.1048 155.181 31.1048 156.355 30.9969 157.521Z" fill="#263238"/>
<path d="M29.9334 157.521C29.8256 156.355 29.8256 155.181 29.9334 154.015C30.0413 155.181 30.0413 156.355 29.9334 157.521Z" fill="#263238"/>
<path d="M33.3358 157.521C33.2279 156.355 33.2279 155.181 33.3358 154.015C33.4436 155.181 33.4436 156.355 33.3358 157.521Z" fill="#263238"/>
<path d="M32.2703 157.521C32.1625 156.355 32.1625 155.181 32.2703 154.015C32.3782 155.181 32.3782 156.355 32.2703 157.521Z" fill="#263238"/>
<path d="M35.6737 157.521C35.5658 156.355 35.5658 155.181 35.6737 154.015C35.7815 155.181 35.7815 156.355 35.6737 157.521Z" fill="#263238"/>
<path d="M34.6092 157.521C34.5014 156.355 34.5014 155.181 34.6092 154.015C34.7171 155.181 34.7171 156.355 34.6092 157.521Z" fill="#263238"/>
<path d="M38.0135 157.521C37.9057 156.355 37.9057 155.181 38.0135 154.015C38.1214 155.181 38.1214 156.355 38.0135 157.521Z" fill="#263238"/>
<path d="M36.9491 157.521C36.8412 156.355 36.8412 155.181 36.9491 154.015C37.0569 155.181 37.0569 156.355 36.9491 157.521Z" fill="#263238"/>
<path d="M40.3535 157.521C40.2415 156.355 40.2415 155.181 40.3535 154.015C40.4614 155.181 40.4614 156.355 40.3535 157.521Z" fill="#263238"/>
<path d="M39.285 157.521C39.1771 156.355 39.1771 155.181 39.285 154.015C39.3929 155.181 39.3929 156.355 39.285 157.521Z" fill="#263238"/>
<path d="M42.6903 157.521C42.5824 156.355 42.5824 155.181 42.6903 154.015C42.7981 155.181 42.7981 156.355 42.6903 157.521Z" fill="#263238"/>
<path d="M41.6258 157.521C41.518 156.355 41.518 155.181 41.6258 154.015C41.7337 155.181 41.7337 156.355 41.6258 157.521Z" fill="#263238"/>
<path d="M45.0282 157.521C44.9203 156.355 44.9203 155.181 45.0282 154.015C45.136 155.181 45.136 156.355 45.0282 157.521Z" fill="#263238"/>
<path d="M43.9774 157.521C43.8695 156.355 43.8695 155.181 43.9774 154.015C44.0852 155.181 44.0852 156.355 43.9774 157.521Z" fill="#263238"/>
<path d="M47.3651 157.521C47.2572 156.355 47.2572 155.181 47.3651 154.015C47.4729 155.181 47.4729 156.355 47.3651 157.521Z" fill="#263238"/>
<path d="M46.3016 157.521C46.1937 156.355 46.1937 155.181 46.3016 154.015C46.4095 155.181 46.4095 156.355 46.3016 157.521Z" fill="#263238"/>
<path d="M48.5539 153.963C48.5539 154.009 44.1764 154.044 38.7754 154.044C33.3744 154.044 29 154.009 29 153.963C29 153.916 33.3775 153.882 38.7754 153.882C44.1733 153.882 48.5539 153.919 48.5539 153.963Z" fill="#263238"/>
<path d="M50.1444 157.521H30.6807V161.056H50.1444V157.521Z" fill="#FFB900"/>
<path d="M32.5868 161.081C32.4789 159.915 32.4789 158.741 32.5868 157.575C32.6946 158.741 32.6946 159.915 32.5868 161.081Z" fill="#263238"/>
<path d="M31.5325 161.081C31.4241 159.911 31.4241 158.734 31.5325 157.565C31.6404 158.731 31.6404 159.905 31.5325 161.071V161.081Z" fill="#263238"/>
<path d="M34.9266 161.081C34.8187 159.915 34.8187 158.741 34.9266 157.575C35.0345 158.741 35.0345 159.915 34.9266 161.081Z" fill="#263238"/>
<path d="M33.8621 161.081C33.7543 159.915 33.7543 158.741 33.8621 157.575C33.97 158.741 33.97 159.915 33.8621 161.081Z" fill="#263238"/>
<path d="M37.2635 161.081C37.1557 159.915 37.1557 158.741 37.2635 157.575C37.3714 158.741 37.3714 159.915 37.2635 161.081Z" fill="#263238"/>
<path d="M36.1995 161.081C36.0911 159.911 36.0911 158.734 36.1995 157.565C36.3074 158.731 36.3074 159.905 36.1995 161.071V161.081Z" fill="#263238"/>
<path d="M39.6024 161.081C39.4945 159.915 39.4945 158.741 39.6024 157.575C39.7102 158.741 39.7102 159.915 39.6024 161.081Z" fill="#263238"/>
<path d="M38.5399 161.081C38.432 159.915 38.432 158.741 38.5399 157.575C38.6477 158.741 38.6477 159.915 38.5399 161.081Z" fill="#263238"/>
<path d="M41.9422 161.081C41.8344 159.915 41.8344 158.741 41.9422 157.575C42.0501 158.741 42.0501 159.915 41.9422 161.081Z" fill="#263238"/>
<path d="M40.8665 161.081C40.758 159.911 40.758 158.734 40.8665 157.565C40.9743 158.731 40.9743 159.905 40.8665 161.071V161.081Z" fill="#263238"/>
<path d="M44.2884 161.081C44.1799 159.911 44.1799 158.734 44.2884 157.565C44.3962 158.731 44.3962 159.905 44.2884 161.071V161.081Z" fill="#263238"/>
<path d="M43.2147 161.081C43.1068 159.915 43.1068 158.741 43.2147 157.575C43.3225 158.741 43.3225 159.915 43.2147 161.081Z" fill="#263238"/>
<path d="M46.619 161.081C46.5111 159.915 46.5111 158.741 46.619 157.575C46.7268 158.741 46.7268 159.915 46.619 161.081Z" fill="#263238"/>
<path d="M45.5545 161.081C45.4467 159.915 45.4467 158.741 45.5545 157.575C45.6624 158.741 45.6624 159.915 45.5545 161.081Z" fill="#263238"/>
<path d="M48.9554 161.081C48.8469 159.911 48.8469 158.734 48.9554 157.565C49.0632 158.731 49.0632 159.905 48.9554 161.071V161.081Z" fill="#263238"/>
<path d="M47.8914 161.081C47.7836 159.915 47.7836 158.741 47.8914 157.575C48.0034 158.741 48.0034 159.915 47.8914 161.081Z" fill="#263238"/>
<path d="M50.1435 157.521C50.1435 157.568 45.7536 157.602 40.3433 157.602C34.9329 157.602 30.543 157.568 30.543 157.521C30.543 157.475 34.9298 157.44 40.3433 157.44C45.7568 157.44 50.1435 157.478 50.1435 157.521Z" fill="#263238"/>
<path d="M48.619 161.028H29.1553V164.562H48.619V161.028Z" fill="#FFB900"/>
<path d="M31.0623 164.587C30.9545 163.421 30.9545 162.247 31.0623 161.081C31.1702 162.247 31.1702 163.421 31.0623 164.587Z" fill="#263238"/>
<path d="M29.9989 164.587C29.891 163.421 29.891 162.247 29.9989 161.081C30.1067 162.247 30.1067 163.421 29.9989 164.587Z" fill="#263238"/>
<path d="M33.3983 164.587C33.2904 163.421 33.2904 162.247 33.3983 161.081C33.5061 162.247 33.5061 163.421 33.3983 164.587Z" fill="#263238"/>
<path d="M32.3348 164.587C32.2269 163.421 32.2269 162.247 32.3348 161.081C32.4427 162.247 32.4427 163.421 32.3348 164.587Z" fill="#263238"/>
<path d="M35.7381 164.587C35.6303 163.421 35.6303 162.247 35.7381 161.081C35.846 162.247 35.846 163.421 35.7381 164.587Z" fill="#263238"/>
<path d="M34.6746 164.587C34.5668 163.421 34.5668 162.247 34.6746 161.081C34.7825 162.247 34.7825 163.421 34.6746 164.587Z" fill="#263238"/>
<path d="M38.0662 164.587C37.9584 163.421 37.9584 162.247 38.0662 161.081C38.1741 162.247 38.1741 163.421 38.0662 164.587Z" fill="#263238"/>
<path d="M37.0145 164.587C36.9066 163.421 36.9066 162.247 37.0145 161.081C37.1224 162.247 37.1224 163.421 37.0145 164.587Z" fill="#263238"/>
<path d="M40.4139 164.587C40.306 163.421 40.306 162.247 40.4139 161.081C40.5218 162.247 40.5218 163.421 40.4139 164.587Z" fill="#263238"/>
<path d="M39.3514 164.587C39.2435 163.421 39.2435 162.247 39.3514 161.081C39.4593 162.247 39.4593 163.421 39.3514 164.587Z" fill="#263238"/>
<path d="M42.7547 164.587C42.6469 163.421 42.6469 162.247 42.7547 161.081C42.8626 162.247 42.8626 163.421 42.7547 164.587Z" fill="#263238"/>
<path d="M41.6912 164.587C41.5834 163.421 41.5834 162.247 41.6912 161.081C41.7991 162.247 41.7991 163.421 41.6912 164.587Z" fill="#263238"/>
<path d="M45.0936 164.587C44.9857 163.421 44.9857 162.247 45.0936 161.081C45.2015 162.247 45.2015 163.421 45.0936 164.587Z" fill="#263238"/>
<path d="M44.0272 164.587C43.9193 163.421 43.9193 162.247 44.0272 161.081C44.1392 162.247 44.1392 163.421 44.0272 164.587Z" fill="#263238"/>
<path d="M47.4305 164.587C47.3226 163.421 47.3226 162.247 47.4305 161.081C47.5384 162.247 47.5384 163.421 47.4305 164.587Z" fill="#263238"/>
<path d="M46.367 164.587C46.2592 163.421 46.2592 162.247 46.367 161.081C46.4749 162.247 46.4749 163.421 46.367 164.587Z" fill="#263238"/>
<path d="M48.6162 161.028C48.6162 161.071 44.2388 161.109 38.8408 161.109C33.4429 161.109 29.0654 161.071 29.0654 161.028C29.0654 160.984 33.4398 160.947 38.8408 160.947C44.2419 160.947 48.6162 160.987 48.6162 161.028Z" fill="#263238"/>
<path d="M50.5701 164.612H31.1064V168.146H50.5701V164.612Z" fill="#FFB900"/>
<path d="M33.0135 168.171C32.9057 167.005 32.9057 165.831 33.0135 164.665C33.1214 165.831 33.1214 167.005 33.0135 168.171Z" fill="#263238"/>
<path d="M31.95 168.171C31.8422 167.005 31.8422 165.831 31.95 164.665C32.0579 165.831 32.0579 167.005 31.95 168.171Z" fill="#263238"/>
<path d="M35.3504 168.171C35.2426 167.005 35.2426 165.831 35.3504 164.665C35.4583 165.831 35.4583 167.005 35.3504 168.171Z" fill="#263238"/>
<path d="M34.286 168.171C34.1781 167.005 34.1781 165.831 34.286 164.665C34.3938 165.831 34.3938 167.005 34.286 168.171Z" fill="#263238"/>
<path d="M37.6893 168.171C37.5814 167.005 37.5814 165.831 37.6893 164.665C37.7972 165.831 37.7972 167.005 37.6893 168.171Z" fill="#263238"/>
<path d="M36.6258 168.171C36.518 167.005 36.518 165.831 36.6258 164.665C36.7337 165.831 36.7337 167.005 36.6258 168.171Z" fill="#263238"/>
<path d="M40.0301 168.171C39.9223 167.005 39.9223 165.831 40.0301 164.665C40.138 165.831 40.138 167.005 40.0301 168.171Z" fill="#263238"/>
<path d="M38.9618 168.171C38.8539 167.005 38.8539 165.831 38.9618 164.665C39.0738 165.831 39.0738 167.005 38.9618 168.171Z" fill="#263238"/>
<path d="M42.3661 168.171C42.2582 167.005 42.2582 165.831 42.3661 164.665C42.4739 165.831 42.4739 167.005 42.3661 168.171Z" fill="#263238"/>
<path d="M41.3016 168.171C41.1937 167.005 41.1937 165.831 41.3016 164.665C41.4095 165.831 41.4095 167.005 41.3016 168.171Z" fill="#263238"/>
<path d="M44.7049 168.171C44.5971 167.005 44.5971 165.831 44.7049 164.665C44.8128 165.831 44.8128 167.005 44.7049 168.171Z" fill="#263238"/>
<path d="M43.6414 168.171C43.5336 167.005 43.5336 165.831 43.6414 164.665C43.7493 165.831 43.7493 167.005 43.6414 168.171Z" fill="#263238"/>
<path d="M47.0457 168.171C46.9379 167.005 46.9379 165.831 47.0457 164.665C47.1536 165.831 47.1536 167.005 47.0457 168.171Z" fill="#263238"/>
<path d="M45.9774 168.171C45.8695 167.005 45.8695 165.831 45.9774 164.665C46.0852 165.831 46.0852 167.005 45.9774 168.171Z" fill="#263238"/>
<path d="M49.3807 168.171C49.2728 167.005 49.2728 165.831 49.3807 164.665C49.4886 165.831 49.4886 167.005 49.3807 168.171Z" fill="#263238"/>
<path d="M48.3328 168.171C48.225 167.005 48.225 165.831 48.3328 164.665C48.4407 165.831 48.4407 167.005 48.3328 168.171Z" fill="#263238"/>
<path d="M50.5664 164.612C50.5664 164.659 46.189 164.693 40.791 164.693C35.3931 164.693 31.0156 164.659 31.0156 164.612C31.0156 164.565 35.39 164.531 40.791 164.531C46.1921 164.531 50.5664 164.569 50.5664 164.612Z" fill="#263238"/>
<g opacity="0.3">
<path d="M30.6807 157.521C33.627 158.195 36.6591 158.416 39.672 158.174C42.6588 157.978 45.6736 157.552 48.6665 157.574L30.6807 157.521Z" fill="black"/>
</g>
<g opacity="0.3">
<path d="M30.8584 154.002C33.8038 154.676 36.8346 154.898 39.8467 154.659C42.8334 154.46 45.8513 154.021 48.8443 154.055L30.8584 154.002Z" fill="black"/>
</g>
<g opacity="0.3">
<path d="M31.7959 161.062C34.7424 161.736 37.7742 161.957 40.7873 161.718C43.774 161.519 46.7888 161.081 49.7818 161.115L31.7959 161.062Z" fill="black"/>
</g>
<g opacity="0.3">
<path d="M31.0361 164.593C33.9829 165.264 37.0146 165.485 40.0275 165.246C43.0143 165.047 46.029 164.608 49.022 164.643L31.0361 164.593Z" fill="black"/>
</g>
<path d="M30.7205 152.79C30.6127 152.149 30.6127 151.495 30.7205 150.854C30.8284 151.495 30.8284 152.149 30.7205 152.79Z" fill="white"/>
<path d="M29.494 156.566C29.3861 155.879 29.3861 155.179 29.494 154.491C29.6018 155.179 29.6018 155.879 29.494 156.566Z" fill="white"/>
<path d="M31.2401 160.201C31.1322 159.592 31.1322 158.97 31.2401 158.362C31.348 158.97 31.348 159.592 31.2401 160.201Z" fill="white"/>
<path d="M29.4483 163.554C29.3363 163.009 29.3363 162.447 29.4483 161.902C29.5561 162.447 29.5561 163.008 29.4483 163.554Z" fill="white"/>
<path d="M36.5758 154.255C36.5758 154.298 35.1384 154.336 33.3651 154.336C31.5917 154.336 30.1543 154.298 30.1543 154.255C31.2225 154.173 32.2941 154.146 33.3651 154.174C34.436 154.146 35.5077 154.173 36.5758 154.255Z" fill="white"/>
<path d="M38.6516 150.854C37.5762 150.936 36.4973 150.963 35.4191 150.935C34.3409 150.963 33.262 150.936 32.1865 150.854C32.1865 150.811 33.6332 150.773 35.4191 150.773C37.2049 150.773 38.6516 150.811 38.6516 150.854Z" fill="white"/>
<path d="M41.7644 150.904C41.0612 151.012 40.3457 151.012 39.6426 150.904C40.3457 150.796 41.0612 150.796 41.7644 150.904Z" fill="white"/>
</g>
<path d="M135.286 54.7665C135.21 53.8666 135.067 52.9736 134.859 52.0949C134.742 51.3946 134.437 50.739 133.977 50.1981C133.435 49.6996 132.735 49.4066 132 49.3699C132.48 49.2001 132.911 48.9159 133.256 48.5417C133.797 47.9062 134.141 47.1261 134.244 46.2976C134.429 45.5466 134.501 44.7722 134.458 44C134.544 45.3736 135.1 46.6757 136.034 47.6868C136.615 48.1567 137.321 48.4448 138.064 48.515C137.315 48.7217 136.663 49.185 136.221 49.824C135.911 50.2931 135.735 50.8383 135.713 51.4003C135.446 53.3505 135.366 54.7665 135.286 54.7665Z" fill="#E3F2FD"/>
<path d="M84.185 31.7686C84.0186 30.378 83.7792 28.9971 83.4679 27.6316C83.2965 26.5426 82.829 25.5217 82.1165 24.6805C81.2676 23.891 80.159 23.4397 79 23.4119C79.7506 23.1208 80.4284 22.6689 80.9858 22.088C81.8321 21.0937 82.3775 19.8786 82.5578 18.5854C82.8277 17.4106 82.9298 16.2035 82.8612 15C82.9894 17.139 83.8571 19.1669 85.3158 20.7366C86.2148 21.4886 87.3207 21.9502 88.4875 22.0604C87.4437 22.2802 86.5028 22.8415 85.8136 23.6556C85.1243 24.4697 84.726 25.4902 84.6814 26.556C84.3781 29.5622 84.2954 31.7686 84.185 31.7686Z" fill="#E3F2FD"/>
<path d="M34.8468 53.4408C34.7234 52.4091 34.5458 51.3846 34.3148 50.3715C34.1876 49.5636 33.8408 48.8062 33.3122 48.1821C32.6824 47.5963 31.8598 47.2615 31 47.2408C31.5569 47.0249 32.0597 46.6897 32.4733 46.2587C33.1012 45.521 33.5058 44.6195 33.6396 43.66C33.8398 42.7884 33.9155 41.8929 33.8646 41C33.9598 42.5869 34.6036 44.0915 35.6858 45.256C36.3527 45.814 37.1732 46.1565 38.0389 46.2382C37.2645 46.4013 36.5664 46.8177 36.0551 47.4217C35.5437 48.0257 35.2482 48.7828 35.2151 49.5735C34.99 51.8038 34.9287 53.4408 34.8468 53.4408Z" fill="#E3F2FD"/>
<defs>
<clipPath id="clip0_5404_199925">
<rect width="168" height="168" fill="white"/>
</clipPath>
</defs>
</svg>
