<svg width="67" height="67" viewBox="0 0 67 67" fill="none" xmlns="http://www.w3.org/2000/svg">
<rect width="67" height="67" rx="6" fill="#1565C0"/>
<mask id="mask0_2122_60263" style="mask-type:alpha" maskUnits="userSpaceOnUse" x="0" y="0" width="67" height="67">
<rect width="67" height="67" rx="4" fill="#E3F2FD"/>
</mask>
<g mask="url(#mask0_2122_60263)">
<path d="M0 -11H67V22.5C67 41.0015 52.0015 56 33.5 56C14.9985 56 0 41.0015 0 22.5V-11Z" fill="#2196F3"/>
</g>
<path d="M12.526 22C12.4908 21.5821 12.4244 21.1674 12.3275 20.7593C12.2732 20.4341 12.1317 20.1296 11.9181 19.8784C11.6664 19.6469 11.3416 19.5108 11 19.4938C11.2228 19.415 11.423 19.2829 11.5831 19.1092C11.8346 18.8141 11.9942 18.4518 12.0422 18.067C12.1282 17.7182 12.1616 17.3586 12.1414 17C12.1813 17.6379 12.4398 18.2426 12.8734 18.7122C13.143 18.9304 13.471 19.0642 13.8164 19.0968C13.4685 19.1928 13.1655 19.4079 12.9603 19.7047C12.8162 19.9225 12.7346 20.1757 12.7245 20.4367C12.6005 21.3424 12.5632 22 12.526 22Z" fill="#E3F2FD"/>
<path d="M55.4313 20.9081C55.3625 20.2567 55.2542 19.61 55.1071 18.9716C55.0281 18.4574 54.8065 17.9756 54.4673 17.5811C54.0688 17.2064 53.5467 16.9909 53 16.9754C53.3528 16.8394 53.6726 16.63 53.9384 16.3612C54.3308 15.8877 54.5847 15.3149 54.672 14.7062C54.7962 14.1465 54.845 13.5726 54.8171 13C54.8798 14.0068 55.2863 14.9614 55.9687 15.7043C56.3933 16.0544 56.9136 16.2684 57.4616 16.3185C56.9876 16.441 56.5657 16.7129 56.2584 17.094C55.9511 17.475 55.7747 17.945 55.7555 18.4342C55.5337 19.8503 55.491 20.9081 55.4313 20.9081Z" fill="#E3F2FD"/>
<path d="M57.5439 51.5957L57.3922 51.5513C57.7924 50.1916 57.0665 48.7759 55.7738 48.3955L52.5181 47.4374C51.8474 47.2403 51.4714 46.5058 51.679 45.8012C52.3497 43.5229 51.1327 41.1507 48.9669 40.5135L49.0139 40.354C51.2631 41.0162 52.5267 43.4797 51.8302 45.8459C51.6488 46.463 51.9793 47.1054 52.5647 47.2783L55.8208 48.2364C57.1966 48.6414 57.9698 50.148 57.5439 51.5957Z" fill="#1976D2"/>
<path d="M57.2151 52.7129L57.0638 52.6681C57.4641 51.3084 56.7378 49.8928 55.4455 49.5123L52.1894 48.5542C51.5187 48.3571 51.143 47.6227 51.3502 46.9184C52.021 44.6401 50.8043 42.2679 48.6382 41.6307L48.6851 41.4712C50.9347 42.133 52.198 44.5969 51.5019 46.9631C51.3204 47.5802 51.6509 48.2226 52.2364 48.3951L55.4921 49.3532C56.8682 49.759 57.6411 51.2652 57.2151 52.7129Z" fill="#1976D2"/>
<path d="M40.3006 36.2061H33.4456V41.8586H40.3006V36.2061Z" fill="#FF9500"/>
<path d="M36.8732 36.2061H30.0182V41.8586H36.8732V36.2061Z" fill="#FFA600"/>
<path d="M40.2969 40.4242H39.2107L39.3065 40.1186L39.2107 39.8999H40.2969V40.4242Z" fill="#FF9500"/>
<path d="M36.8732 37.9551H35.787L35.8828 37.6495L35.787 37.4312H36.8732V37.9551Z" fill="#008444"/>
<path d="M36.8733 37.4312H37.9595L37.8641 37.7367L37.9595 37.9551H36.8733V37.4312Z" fill="#1FB767"/>
<path d="M30.0182 40.4849H31.1044L31.0087 40.7904L31.1044 41.0088H30.0182V40.4849Z" fill="#008444"/>
<path d="M30.467 37.3564H32.4397V36.5888H30.467V37.3564Z" fill="white"/>
<path d="M40.5468 20.835C39.5638 20.835 38.5346 20.6793 37.9611 20.3506C37.0511 19.8256 35.8971 20.048 35.8855 20.0503L35.8572 19.9109C35.9067 19.9008 37.0749 19.6746 38.0322 20.2273C38.9758 20.7717 41.3204 20.8201 42.3817 20.4587C43.4269 20.1028 44.8153 19.7197 45.3925 19.7197V19.8621C44.8314 19.8621 43.4623 20.241 42.4275 20.5936C41.9583 20.7516 41.2652 20.835 40.5468 20.835Z" fill="#1976D2"/>
<path d="M34.897 30.9951H34.4473V33.9278H34.897V30.9951Z" fill="#1976D2"/>
<path d="M35.7874 30.9951H35.3376V33.9278H35.7874V30.9951Z" fill="#1976D2"/>
<path d="M40.5468 20.5188C39.5638 20.5188 38.5346 20.3627 37.9611 20.0344C37.0511 19.5094 35.8971 19.7322 35.8855 19.7363L35.8572 19.5966C35.9067 19.5869 37.0749 19.3607 38.0322 19.9133C38.9758 20.4577 41.3204 20.5058 42.3817 20.1447C43.4269 19.7888 44.8153 19.4058 45.3925 19.4058V19.5477C44.8314 19.5477 43.4623 19.9271 42.4275 20.2792C41.9583 20.4354 41.2652 20.5188 40.5468 20.5188Z" fill="#1976D2"/>
<path d="M50.0145 37.6608H49.8281V37.5185H50.0145C50.4302 37.518 50.8287 37.3526 51.1227 37.0586C51.4167 36.7647 51.582 36.3661 51.5825 35.9504V19.7199C51.582 19.3042 51.4166 18.9057 51.1227 18.6118C50.8287 18.3179 50.4301 18.1526 50.0145 18.1522H48.6305V18.0103H50.0145C50.4677 18.0112 50.9021 18.1917 51.2227 18.5122C51.5432 18.8326 51.7238 19.267 51.7249 19.7203V35.9504C51.7239 36.4037 51.5434 36.8382 51.2228 37.1588C50.9023 37.4793 50.4678 37.6598 50.0145 37.6608Z" fill="#1976D2"/>
<path d="M49.8279 36.2879V36.1455C50.1173 36.1456 50.395 36.0308 50.5998 35.8263C50.8046 35.6218 50.9198 35.3443 50.9201 35.0548V19.968C50.9197 19.6876 50.8081 19.4188 50.6099 19.2206C50.4117 19.0224 50.1429 18.9108 49.8625 18.9104H48.7655V18.7681H49.8625C50.1807 18.7685 50.4856 18.895 50.7106 19.1199C50.9355 19.3449 51.062 19.6498 51.0624 19.968V35.0548C51.062 35.382 50.9318 35.6956 50.7003 35.9268C50.4688 36.158 50.155 36.2879 49.8279 36.2879Z" fill="#1976D2"/>
<path d="M36.9963 20.9683H33.1123C32.5598 20.9683 32.1118 21.4162 32.1118 21.9688V30.646C32.1118 31.1986 32.5598 31.6465 33.1123 31.6465H36.9963C37.5489 31.6465 37.9968 31.1986 37.9968 30.646V21.9688C37.9968 21.4162 37.5489 20.9683 36.9963 20.9683Z" fill="#AEC3FF"/>
<path d="M33.725 23.0001C34.0078 23.0001 34.237 22.7708 34.237 22.4881C34.237 22.2053 34.0078 21.9761 33.725 21.9761C33.4422 21.9761 33.213 22.2053 33.213 22.4881C33.213 22.7708 33.4422 23.0001 33.725 23.0001Z" fill="#DDE7FE"/>
<path d="M33.213 29.7906C33.2129 29.6892 33.2429 29.5901 33.2992 29.5058C33.3555 29.4215 33.4355 29.3557 33.5291 29.3169C33.6228 29.2781 33.7258 29.2679 33.8253 29.2877C33.9247 29.3074 34.016 29.3562 34.0877 29.4279C34.1594 29.4996 34.2082 29.5909 34.2279 29.6903C34.2477 29.7898 34.2375 29.8928 34.1987 29.9865C34.1599 30.0801 34.0941 30.1601 34.0098 30.2164C33.9255 30.2727 33.8264 30.3027 33.725 30.3026C33.5893 30.3025 33.4591 30.2485 33.3631 30.1525C33.2671 30.0565 33.2131 29.9263 33.213 29.7906Z" fill="#DDE7FE"/>
<path d="M35.8716 22.4884C35.8716 22.3871 35.9016 22.288 35.9579 22.2038C36.0142 22.1195 36.0943 22.0539 36.1879 22.0151C36.2815 21.9763 36.3845 21.9661 36.4839 21.9859C36.5833 22.0057 36.6746 22.0545 36.7463 22.1261C36.8179 22.1978 36.8667 22.2891 36.8865 22.3885C36.9063 22.4879 36.8961 22.5909 36.8573 22.6845C36.8185 22.7782 36.7529 22.8582 36.6686 22.9145C36.5844 22.9708 36.4853 23.0008 36.384 23.0008C36.3167 23.0009 36.25 22.9877 36.1878 22.9619C36.1256 22.9362 36.0691 22.8984 36.0215 22.8509C35.974 22.8033 35.9362 22.7468 35.9105 22.6846C35.8848 22.6224 35.8715 22.5557 35.8716 22.4884Z" fill="#DDE7FE"/>
<path d="M35.8716 29.7906C35.8715 29.6892 35.9015 29.5901 35.9578 29.5058C36.014 29.4215 36.094 29.3558 36.1876 29.3169C36.2812 29.2781 36.3843 29.2679 36.4837 29.2876C36.5831 29.3074 36.6744 29.3561 36.7461 29.4278C36.8178 29.4994 36.8667 29.5907 36.8865 29.6901C36.9063 29.7895 36.8961 29.8926 36.8574 29.9862C36.8186 30.0798 36.7529 30.1599 36.6687 30.2162C36.5844 30.2725 36.4853 30.3026 36.384 30.3026C36.2481 30.3026 36.1179 30.2487 36.0218 30.1526C35.9257 30.0566 35.8717 29.9264 35.8716 29.7906Z" fill="#DDE7FE"/>
<path d="M37.2402 34.4326C37.2398 34.5379 37.2169 34.6419 37.1732 34.7377H33.1509C33.1069 34.642 33.0839 34.5379 33.0835 34.4326C33.0835 33.7663 34.0151 33.2256 35.1621 33.2256C36.309 33.2256 37.2402 33.7663 37.2402 34.4326Z" fill="#008444"/>
<path d="M40.7237 35.8078V41.274C40.7238 41.4899 40.6714 41.7027 40.571 41.8939C40.4707 42.0851 40.3254 42.2491 40.1476 42.3718L38.4805 43.5213C38.4522 43.5412 38.4202 43.5552 38.3864 43.5626C38.3526 43.57 38.3177 43.5706 38.2837 43.5643C38.2496 43.5581 38.2172 43.5451 38.1882 43.5262C38.1593 43.5074 38.1344 43.4829 38.1149 43.4543C38.0951 43.426 38.081 43.394 38.0737 43.3602C38.0663 43.3264 38.0657 43.2915 38.0719 43.2575C38.0782 43.2234 38.0911 43.191 38.11 43.162C38.1289 43.1331 38.1534 43.1081 38.182 43.0887L39.8488 41.9388C39.9565 41.8646 40.0446 41.7653 40.1054 41.6495C40.1663 41.5337 40.198 41.4048 40.198 41.274V35.8078C40.198 35.5239 40.0852 35.2516 39.8844 35.0508C39.6836 34.85 39.4113 34.7372 39.1274 34.7372H31.1966C30.9128 34.7375 30.6408 34.8504 30.4403 35.0512C30.2398 35.2519 30.1271 35.5241 30.1271 35.8078V41.2427C30.1266 41.3798 30.1613 41.5148 30.2278 41.6347C30.2944 41.7546 30.3906 41.8554 30.5072 41.9276L32.3704 43.0921C32.3998 43.1102 32.4253 43.134 32.4455 43.162C32.4656 43.1901 32.48 43.2219 32.4878 43.2555C32.4955 43.2892 32.4965 43.3241 32.4907 43.3581C32.4849 43.3922 32.4724 43.4247 32.4538 43.4539C32.4356 43.4832 32.4117 43.5086 32.3836 43.5287C32.3555 43.5488 32.3238 43.5631 32.2901 43.5709C32.2565 43.5787 32.2216 43.5798 32.1876 43.5741C32.1535 43.5684 32.1209 43.556 32.0916 43.5377L30.2285 42.3736C30.0361 42.2543 29.8775 42.0877 29.7677 41.8898C29.6579 41.6918 29.6007 41.469 29.6013 41.2427V35.8078C29.6013 35.3844 29.7695 34.9784 30.0689 34.679C30.3683 34.3796 30.7743 34.2114 31.1977 34.2114H39.1285C39.5517 34.2117 39.9574 34.38 40.2566 34.6794C40.5557 34.9787 40.7237 35.3846 40.7237 35.8078Z" fill="#1976D2"/>
<path d="M45.8234 17.6816H34.8951V18.0107H45.8234V17.6816Z" fill="#1976D2"/>
<path d="M45.8234 18.603H34.8951V18.9321H45.8234V18.603Z" fill="#1976D2"/>
<path d="M36.4713 20.9686H33.213V18.6817C33.2131 18.4607 33.2566 18.2419 33.3413 18.0378C33.4259 17.8336 33.55 17.6482 33.7063 17.492C33.8627 17.3358 34.0483 17.212 34.2525 17.1276C34.4567 17.0432 34.6756 16.9998 34.8966 17C35.3424 17.0003 35.7699 17.1776 36.0851 17.4929C36.4003 17.8083 36.5774 18.2358 36.5775 18.6817V20.8616C36.5776 20.8756 36.575 20.8895 36.5697 20.9025C36.5644 20.9155 36.5566 20.9273 36.5467 20.9372C36.5368 20.9471 36.5251 20.955 36.5121 20.9604C36.4992 20.9658 36.4853 20.9686 36.4713 20.9686Z" fill="#008444"/>
<path d="M48.0401 17H46.3789C45.5977 17 44.9644 17.6333 44.9644 18.4145V48.0565C44.9644 48.8378 45.5977 49.4711 46.3789 49.4711H48.0401C48.8213 49.4711 49.4546 48.8378 49.4546 48.0565V18.4145C49.4546 17.6333 48.8213 17 48.0401 17Z" fill="#AEC3FF"/>
<path d="M47.2097 18.8388C47.354 18.8388 47.4709 18.7219 47.4709 18.5776C47.4709 18.4334 47.354 18.3164 47.2097 18.3164C47.0654 18.3164 46.9485 18.4334 46.9485 18.5776C46.9485 18.7219 47.0654 18.8388 47.2097 18.8388Z" fill="#1976D2"/>
<path d="M49.1371 21.5757H45.1197C44.7379 21.5757 44.4285 21.8852 44.4285 22.2669V42.5442C44.4285 42.926 44.7379 43.2355 45.1197 43.2355H49.1371C49.5188 43.2355 49.8283 42.926 49.8283 42.5442V22.2669C49.8283 21.8852 49.5188 21.5757 49.1371 21.5757Z" fill="#98B5F4"/>
<path d="M45.0967 47.4668H49.473C49.6504 47.4668 49.8205 47.5373 49.9459 47.6627C50.0714 47.7881 50.1419 47.9583 50.1419 48.1357V51.1123H45.0967C44.9193 51.1123 44.7492 51.0418 44.6238 50.9164C44.4983 50.7909 44.4279 50.6208 44.4279 50.4434V48.1357C44.4279 47.9583 44.4983 47.7881 44.6238 47.6627C44.7492 47.5373 44.9193 47.4668 45.0967 47.4668Z" fill="#98B5F4"/>
<path d="M35.8878 18.626C35.9002 18.0769 35.4652 17.6216 34.916 17.6091C34.3669 17.5967 33.9116 18.0317 33.8992 18.5809C33.8867 19.13 34.3218 19.5853 34.8709 19.5978C35.42 19.6102 35.8753 19.1752 35.8878 18.626Z" fill="#008444"/>
<path d="M34.8967 19.6291C34.6939 19.6291 34.4956 19.569 34.327 19.4563C34.1583 19.3436 34.0269 19.1834 33.9493 18.9961C33.8717 18.8087 33.8514 18.6025 33.8909 18.4036C33.9305 18.2046 34.0282 18.0219 34.1716 17.8785C34.315 17.7351 34.4977 17.6374 34.6966 17.5978C34.8956 17.5583 35.1018 17.5786 35.2891 17.6562C35.4765 17.7338 35.6367 17.8652 35.7494 18.0339C35.8621 18.2025 35.9222 18.4008 35.9222 18.6036C35.9219 18.8755 35.8138 19.1362 35.6215 19.3284C35.4293 19.5207 35.1686 19.6288 34.8967 19.6291ZM34.8967 17.64C34.7061 17.6401 34.5199 17.6966 34.3614 17.8026C34.203 17.9085 34.0796 18.059 34.0067 18.2351C33.9338 18.4112 33.9148 18.6049 33.952 18.7918C33.9892 18.9787 34.081 19.1504 34.2158 19.2851C34.3506 19.4199 34.5223 19.5116 34.7092 19.5488C34.8961 19.5859 35.0899 19.5668 35.2659 19.4939C35.442 19.4209 35.5925 19.2974 35.6983 19.1389C35.8042 18.9805 35.8607 18.7942 35.8607 18.6036C35.8607 18.3479 35.7592 18.1026 35.5784 17.9217C35.3976 17.7408 35.1524 17.6391 34.8967 17.6389V17.64Z" fill="#1976D2"/>
<path d="M35.4829 18.7418C35.5599 18.4155 35.3578 18.0886 35.0315 18.0116C34.7053 17.9346 34.3783 18.1366 34.3013 18.4629C34.2243 18.7892 34.4264 19.1161 34.7527 19.1932C35.0789 19.2702 35.4059 19.0681 35.4829 18.7418Z" fill="#069550"/>
<path d="M59.3788 58.2978H6.71685C5.76394 58.2978 4.85006 57.9193 4.17626 57.2455C3.50245 56.5717 3.1239 55.6578 3.1239 54.7049C3.124 53.752 3.50259 52.8383 4.17639 52.1645C4.85019 51.4908 5.76401 51.1123 6.71685 51.1123H59.3788C59.8506 51.1123 60.3177 51.2052 60.7536 51.3858C61.1895 51.5663 61.5855 51.8309 61.9191 52.1645C62.2527 52.4981 62.5174 52.8942 62.6979 53.3301C62.8785 53.7659 62.9714 54.2331 62.9714 54.7049C62.9714 55.1767 62.8785 55.6439 62.698 56.0798C62.5175 56.5157 62.2529 56.9118 61.9193 57.2455C61.5857 57.5791 61.1896 57.8438 60.7537 58.0243C60.3178 58.2049 59.8506 58.2978 59.3788 58.2978Z" fill="#AEC3FF"/>
<path d="M62.973 54.7049C62.973 55.6577 62.5945 56.5716 61.9207 57.2454C61.247 57.9191 60.3332 58.2977 59.3804 58.2978H50.4505C50.3586 58.2978 50.2705 58.2613 50.2055 58.1963C50.1405 58.1313 50.104 58.0432 50.104 57.9513V51.4589C50.104 51.3669 50.1405 51.2788 50.2055 51.2138C50.2705 51.1488 50.3586 51.1123 50.4505 51.1123H59.3789C59.8508 51.1121 60.3181 51.2049 60.7542 51.3853C61.1902 51.5658 61.5864 51.8304 61.9202 52.164C62.254 52.4976 62.5187 52.8937 62.6994 53.3297C62.88 53.7657 62.973 54.233 62.973 54.7049Z" fill="#C5D7FF"/>
<path d="M63.5 58C63.4855 58.0455 63.5 58.5 63.5 59C63.5 59.5 63.5 59 63.5 59.5C63.4779 59.5556 63.5 59.5 63.5 60C63.3067 60.4752 63 61 64.3891 61.097L58.6878 61.0992L6.35596 61.1234V58.1621L63.5 58Z" fill="#C5D7FF"/>
<path d="M22.1472 54.3177L21.7421 54.1314C21.7256 54.1236 21.7116 54.1114 21.7016 54.0962C21.6916 54.0809 21.686 54.0632 21.6855 54.045C21.6855 53.9976 21.681 53.9499 21.6758 53.9019C21.6668 53.8144 21.6507 53.7278 21.6277 53.6429C21.6223 53.624 21.6228 53.6038 21.6291 53.5852C21.6354 53.5666 21.6473 53.5503 21.6631 53.5386L22.0357 53.2554C22.055 53.2408 22.068 53.2195 22.0723 53.1958C22.0766 53.172 22.0718 53.1475 22.0588 53.1272L21.83 52.7664C21.8176 52.7468 21.7983 52.7324 21.7758 52.7261C21.7534 52.7198 21.7295 52.7219 21.7086 52.7322L21.3233 52.9215C21.3049 52.9304 21.2842 52.9332 21.2641 52.9296C21.244 52.926 21.2256 52.9161 21.2115 52.9013C21.0849 52.7699 20.9382 52.6593 20.777 52.5738C20.7579 52.5635 20.7428 52.5471 20.7341 52.5273C20.7253 52.5075 20.7234 52.4853 20.7285 52.4642L20.7911 52.2105C20.7967 52.1869 20.7934 52.1622 20.782 52.1409C20.7707 52.1195 20.7519 52.1031 20.7293 52.0946L20.3309 51.9508C20.323 51.9475 20.3145 51.9455 20.306 51.9448C20.2862 51.9428 20.2664 51.9472 20.2493 51.9571C20.2322 51.9671 20.2186 51.9822 20.2106 52.0003L20.0693 52.3029L20.0354 52.3774C19.8469 52.3715 19.6587 52.3967 19.4783 52.4519C19.4597 52.4576 19.4397 52.4574 19.4211 52.4515C19.4025 52.4455 19.3862 52.4339 19.3744 52.4184L19.1467 52.1203C19.1317 52.1006 19.1098 52.0873 19.0854 52.083C19.0611 52.0787 19.036 52.0838 19.0152 52.0972L18.7398 52.2712L18.6608 52.3215C18.6397 52.3345 18.6242 52.3548 18.6173 52.3786C18.6104 52.4024 18.6126 52.4279 18.6235 52.4501L18.7815 52.7728C18.7909 52.7909 18.7943 52.8115 18.791 52.8316C18.7878 52.8518 18.7782 52.8703 18.7636 52.8846C18.6779 52.972 18.6015 53.068 18.5356 53.1711C18.5292 53.1797 18.524 53.1883 18.5188 53.1968C18.5173 53.2 18.5153 53.2029 18.5128 53.2054C18.5015 53.2211 18.4857 53.2331 18.4675 53.2397C18.4493 53.2464 18.4295 53.2474 18.4107 53.2427L17.9982 53.1417L17.9844 53.1391C17.9628 53.1372 17.9412 53.1425 17.9228 53.1541C17.9045 53.1658 17.8905 53.1832 17.8831 53.2036L17.7385 53.6004C17.7303 53.6236 17.731 53.6491 17.7405 53.6718C17.75 53.6946 17.7676 53.7129 17.7899 53.7234L18.2125 53.9194C18.2301 53.9273 18.2448 53.9403 18.2548 53.9569C18.2647 53.9734 18.2693 53.9926 18.268 54.0118C18.2643 54.1001 18.2673 54.1885 18.277 54.2764C18.2822 54.3241 18.2893 54.3706 18.2982 54.4169C18.3016 54.4351 18.2999 54.454 18.2934 54.4714C18.2868 54.4888 18.2756 54.5041 18.2609 54.5156L17.904 54.788C17.8849 54.8024 17.8719 54.8235 17.8676 54.847C17.8633 54.8706 17.8681 54.8948 17.8809 54.9151L18.1074 55.2717C18.1205 55.2928 18.141 55.3083 18.1649 55.3152C18.1888 55.3221 18.2144 55.3199 18.2367 55.3089L18.5415 55.1599C18.5613 55.15 18.5839 55.1471 18.6055 55.1516C18.6272 55.1561 18.6466 55.1678 18.6608 55.1849C18.7744 55.3217 18.9084 55.4402 19.058 55.5363C19.0756 55.5472 19.0892 55.5633 19.097 55.5825C19.1047 55.6016 19.1062 55.6228 19.1012 55.6428L19.0099 56.0155C19.0043 56.0396 19.0076 56.0649 19.0192 56.0868C19.0309 56.1087 19.0501 56.1256 19.0733 56.1343L19.469 56.2785C19.4919 56.2867 19.517 56.286 19.5394 56.2766C19.5618 56.2672 19.5799 56.2498 19.5901 56.2279L19.5983 56.2103L19.7619 55.8586C19.7704 55.8403 19.7843 55.8251 19.8016 55.8149C19.819 55.8047 19.8391 55.8001 19.8592 55.8016C19.9603 55.8085 20.0618 55.8065 20.1625 55.7956C20.2173 55.7896 20.2706 55.7807 20.3242 55.7703C20.3423 55.7665 20.3611 55.768 20.3783 55.7747C20.3955 55.7813 20.4105 55.7927 20.4215 55.8075L20.6525 56.1116C20.6677 56.1317 20.6899 56.1454 20.7147 56.1499C20.7395 56.1543 20.765 56.1493 20.7863 56.1358L21.141 55.9122C21.1508 55.9059 21.1593 55.898 21.1664 55.8888C21.1774 55.8743 21.1843 55.857 21.1862 55.8389C21.1881 55.8207 21.185 55.8024 21.1772 55.7859L21.0497 55.5284C21.0425 55.5129 21.0393 55.4957 21.0405 55.4786C21.0417 55.4614 21.0471 55.4449 21.0564 55.4304C21.0619 55.4231 21.068 55.4162 21.0747 55.4099C21.25 55.2635 21.3942 55.0835 21.4988 54.8804C21.5075 54.8637 21.5208 54.8499 21.5372 54.8406C21.5536 54.8314 21.5724 54.8271 21.5912 54.8282C21.5969 54.8285 21.6025 54.8295 21.6079 54.8312L21.9433 54.9128C21.9668 54.9186 21.9915 54.9155 22.0128 54.9042C22.0342 54.8928 22.0505 54.874 22.0588 54.8513L22.0622 54.842L22.2034 54.4552C22.2095 54.4426 22.2129 54.4289 22.2133 54.4149C22.2138 54.4008 22.2112 54.3869 22.2059 54.3739C22.2006 54.361 22.1927 54.3493 22.1825 54.3396C22.1724 54.3299 22.1603 54.3225 22.1472 54.3177ZM20.8344 54.4455C20.779 54.5786 20.6935 54.6969 20.5847 54.7914C20.562 54.8112 20.5379 54.8293 20.5124 54.8454C20.4103 54.9103 20.2979 54.9573 20.18 54.9844C20.0311 55.018 19.8762 55.0143 19.7291 54.9735C19.582 54.9327 19.4473 54.8562 19.337 54.7507C19.2267 54.6452 19.1442 54.5141 19.0969 54.3689C19.0496 54.2238 19.0389 54.0693 19.0658 53.919C19.0774 53.8486 19.0957 53.7794 19.1206 53.7126C19.1859 53.5587 19.2925 53.426 19.4288 53.3291C19.4414 53.3209 19.4545 53.3135 19.466 53.3057C20.2571 52.8421 21.1463 53.571 20.8344 54.4455Z" fill="#98B5F4"/>
<path d="M24.8898 56.0617L24.598 55.926C24.5863 55.9204 24.5763 55.9117 24.5692 55.9008C24.5621 55.8898 24.5582 55.8772 24.5578 55.8642C24.5578 55.8295 24.5544 55.7956 24.5507 55.7609C24.5443 55.698 24.5327 55.6357 24.516 55.5746C24.5125 55.5611 24.513 55.5468 24.5175 55.5336C24.522 55.5203 24.5303 55.5087 24.5414 55.5001L24.8086 55.2963C24.8225 55.2858 24.8319 55.2704 24.8349 55.2533C24.838 55.2361 24.8344 55.2185 24.825 55.2039L24.6606 54.9449C24.6517 54.9307 24.6379 54.9204 24.6218 54.9158C24.6057 54.9112 24.5885 54.9127 24.5734 54.9199L24.2962 55.0563C24.2829 55.063 24.2678 55.0651 24.2532 55.0625C24.2385 55.0599 24.2251 55.0526 24.215 55.0418C24.124 54.947 24.0185 54.8675 23.9023 54.8063C23.8887 54.7988 23.8779 54.7871 23.8716 54.7728C23.8653 54.7586 23.864 54.7427 23.8677 54.7276L23.9124 54.545C23.9164 54.5282 23.9142 54.5104 23.9061 54.495C23.898 54.4797 23.8846 54.4678 23.8684 54.4616L23.5819 54.358C23.576 54.3557 23.5698 54.3543 23.5636 54.3539C23.5494 54.3524 23.535 54.3555 23.5227 54.3626C23.5103 54.3698 23.5005 54.3807 23.4947 54.3937L23.3937 54.6114L23.3691 54.6643C23.3111 54.6626 23.2531 54.6649 23.1954 54.671C23.1185 54.6792 23.0425 54.6946 22.9685 54.7172C22.9551 54.7212 22.9408 54.721 22.9275 54.7167C22.9141 54.7124 22.9025 54.7041 22.894 54.693L22.7304 54.478C22.7195 54.4638 22.7038 54.4541 22.6862 54.4509C22.6686 54.4478 22.6505 54.4513 22.6354 54.4608L22.4371 54.586L22.3808 54.6233C22.3657 54.6327 22.3547 54.6473 22.3497 54.6643C22.3447 54.6814 22.3463 54.6997 22.354 54.7157L22.4658 54.9475C22.4725 54.9604 22.4749 54.975 22.4727 54.9894C22.4705 55.0037 22.4638 55.017 22.4535 55.0272C22.3917 55.09 22.3366 55.1591 22.2892 55.2333C22.2847 55.2396 22.281 55.2456 22.2769 55.2523C22.2759 55.2545 22.2745 55.2566 22.2728 55.2583C22.2644 55.2696 22.2528 55.2781 22.2395 55.2826C22.2262 55.2871 22.2118 55.2875 22.1983 55.2836L21.9001 55.2113C21.8968 55.2103 21.8935 55.2096 21.8901 55.2091C21.8742 55.2074 21.8583 55.211 21.8448 55.2195C21.8313 55.2279 21.821 55.2407 21.8156 55.2557L21.7116 55.5407C21.7056 55.5575 21.706 55.576 21.7129 55.5925C21.7198 55.609 21.7326 55.6223 21.7489 55.6298L22.0529 55.7703C22.0655 55.7761 22.076 55.7856 22.0832 55.7975C22.0903 55.8094 22.0938 55.8231 22.0932 55.837C22.0902 55.9005 22.0922 55.9642 22.0991 56.0274C22.1029 56.0613 22.1077 56.0952 22.1144 56.1284C22.1169 56.1416 22.1156 56.1552 22.1107 56.1677C22.1059 56.1802 22.0976 56.1911 22.0868 56.1992L21.8305 56.3952C21.8166 56.4055 21.8072 56.4207 21.8041 56.4377C21.801 56.4547 21.8044 56.4723 21.8137 56.4868L21.9769 56.7432C21.9863 56.7582 22.001 56.7692 22.0181 56.7741C22.0352 56.7789 22.0534 56.7772 22.0693 56.7693L22.2892 56.6616C22.3034 56.6547 22.3196 56.6527 22.3351 56.6559C22.3506 56.6591 22.3646 56.6674 22.3749 56.6795C22.4565 56.7781 22.5529 56.8635 22.6607 56.9325C22.6733 56.9404 22.683 56.9521 22.6885 56.9659C22.694 56.9797 22.695 56.9949 22.6913 57.0093L22.6257 57.2761C22.6218 57.2935 22.6243 57.3117 22.6327 57.3274C22.6411 57.3432 22.6549 57.3553 22.6715 57.3618L22.9562 57.465C22.9727 57.471 22.9909 57.4705 23.007 57.4636C23.0231 57.4567 23.036 57.4438 23.043 57.4277L23.049 57.4151L23.1667 57.1621C23.1728 57.1488 23.1827 57.1378 23.1953 57.1305C23.2078 57.1231 23.2223 57.1198 23.2368 57.1211C23.3094 57.1261 23.3824 57.1246 23.4548 57.1166C23.4939 57.1125 23.5323 57.1058 23.5707 57.0987C23.5836 57.0957 23.5972 57.0966 23.6097 57.1012C23.6222 57.1057 23.6331 57.1138 23.6411 57.1244L23.8073 57.3432C23.8183 57.3575 23.8342 57.3672 23.852 57.3704C23.8698 57.3736 23.8882 57.37 23.9034 57.3603L24.1587 57.1982C24.1656 57.1936 24.1718 57.188 24.1769 57.1814C24.1849 57.1709 24.1898 57.1583 24.1911 57.1452C24.1924 57.1321 24.1901 57.1188 24.1844 57.1069L24.0931 56.9206C24.0878 56.9094 24.0854 56.8971 24.0863 56.8847C24.0871 56.8724 24.0912 56.8605 24.0979 56.8502C24.1016 56.8446 24.106 56.8396 24.111 56.8353C24.2371 56.7299 24.3408 56.6004 24.4162 56.4544C24.4234 56.4406 24.435 56.4295 24.4491 56.4228C24.4632 56.416 24.4791 56.4141 24.4944 56.4172L24.7344 56.476C24.7512 56.4802 24.769 56.4781 24.7844 56.4699C24.7997 56.4618 24.8115 56.4483 24.8175 56.4321L24.8201 56.4254L24.9215 56.147C24.927 56.1313 24.9268 56.1142 24.9211 56.0986C24.9153 56.083 24.9042 56.0699 24.8898 56.0617ZM23.9455 56.1533C23.9057 56.2491 23.8442 56.3343 23.7659 56.4023C23.7496 56.4161 23.7322 56.4286 23.7138 56.4395C23.6404 56.4861 23.5596 56.52 23.4749 56.5398C23.3678 56.5638 23.2563 56.561 23.1505 56.5316C23.0447 56.5022 22.9479 56.4471 22.8685 56.3712C22.7892 56.2953 22.7298 56.2009 22.6958 56.0966C22.6617 55.9922 22.654 55.881 22.6734 55.7729C22.6817 55.722 22.6949 55.6721 22.7129 55.6238C22.7603 55.5129 22.8377 55.4174 22.9364 55.3481C22.9458 55.3425 22.9551 55.3369 22.964 55.3309C23.5312 55.0004 24.1706 55.5243 23.9455 56.1533Z" fill="#D2E0FF"/>
<path d="M37.6893 54.3177L37.2838 54.1314C37.2674 54.1236 37.2535 54.1114 37.2435 54.0961C37.2336 54.0809 37.2281 54.0632 37.2276 54.045C37.2276 53.9976 37.2235 53.9499 37.2179 53.9019C37.2089 53.8144 37.1928 53.7278 37.1698 53.6429C37.1644 53.624 37.1649 53.6039 37.1712 53.5853C37.1774 53.5667 37.1891 53.5504 37.2048 53.5385L37.5775 53.2553C37.5969 53.2409 37.61 53.2196 37.6142 53.1958C37.6185 53.1719 37.6135 53.1474 37.6002 53.1272L37.3722 52.7664C37.3597 52.7468 37.3404 52.7324 37.318 52.7261C37.2956 52.7198 37.2716 52.7219 37.2507 52.7322L36.8646 52.9215C36.8463 52.9305 36.8255 52.9334 36.8054 52.9298C36.7853 52.9261 36.7669 52.9162 36.7528 52.9013C36.6263 52.7698 36.4796 52.6592 36.3183 52.5738C36.2994 52.5634 36.2843 52.547 36.2755 52.5272C36.2667 52.5075 36.2646 52.4853 36.2695 52.4642L36.3325 52.2105C36.3381 52.187 36.3349 52.1623 36.3236 52.141C36.3123 52.1196 36.2936 52.1032 36.271 52.0946L35.8723 51.9508C35.8645 51.9475 35.8562 51.9455 35.8477 51.9448C35.8279 51.9429 35.808 51.9472 35.7907 51.9571C35.7735 51.9671 35.7598 51.9822 35.7516 52.0003L35.6111 52.3029L35.5772 52.3774C35.3886 52.3715 35.2004 52.3967 35.0201 52.4519C35.0013 52.4576 34.9813 52.4574 34.9627 52.4514C34.9441 52.4454 34.9277 52.4339 34.9157 52.4184L34.6881 52.1203C34.6731 52.1006 34.6513 52.0873 34.627 52.083C34.6027 52.0788 34.5776 52.0838 34.5569 52.0972L34.2808 52.2712L34.2022 52.3215C34.1811 52.3345 34.1657 52.3549 34.1588 52.3786C34.1519 52.4024 34.1541 52.4278 34.1649 52.4501L34.3229 52.7728C34.3323 52.7908 34.3357 52.8114 34.3326 52.8316C34.3294 52.8517 34.3199 52.8703 34.3054 52.8846C34.2193 52.9717 34.1429 53.0677 34.0773 53.1711C34.0712 53.1794 34.0656 53.1879 34.0605 53.1968C34.0588 53.2 34.0567 53.2029 34.0542 53.2054C34.0429 53.2211 34.0272 53.233 34.0091 53.2397C33.9909 53.2463 33.9712 53.2474 33.9525 53.2427L33.54 53.1417L33.5262 53.1391C33.5045 53.1372 33.4828 53.1425 33.4645 53.1542C33.4461 53.1658 33.432 53.1832 33.4245 53.2036L33.2803 53.6004C33.2718 53.6236 33.2724 53.6491 33.2818 53.6718C33.2913 53.6946 33.3089 53.713 33.3313 53.7234L33.7542 53.9194C33.7718 53.9273 33.7865 53.9404 33.7964 53.9569C33.8064 53.9734 33.811 53.9926 33.8098 54.0118C33.8058 54.1001 33.8086 54.1885 33.8183 54.2764C33.8232 54.3241 33.8306 54.3706 33.8392 54.4168C33.8427 54.4351 33.8411 54.4541 33.8345 54.4715C33.8279 54.4889 33.8167 54.5042 33.8019 54.5156L33.445 54.788C33.4259 54.8025 33.413 54.8236 33.4088 54.8471C33.4046 54.8706 33.4094 54.8949 33.4222 54.9151L33.6488 55.2717C33.6617 55.2928 33.682 55.3084 33.7058 55.3153C33.7296 55.3222 33.7551 55.3199 33.7773 55.3089L34.0829 55.1599C34.1026 55.1501 34.1251 55.1472 34.1467 55.1517C34.1682 55.1563 34.1877 55.1679 34.2018 55.1849C34.3153 55.3218 34.4495 55.4404 34.5994 55.5362C34.6168 55.5472 34.6304 55.5635 34.6381 55.5826C34.6457 55.6017 34.6472 55.6228 34.6422 55.6428L34.5509 56.0155C34.5453 56.0396 34.5486 56.0649 34.5602 56.0868C34.5719 56.1087 34.5911 56.1256 34.6143 56.1343L35.01 56.2785C35.0328 56.2867 35.0579 56.2861 35.0802 56.2767C35.1026 56.2673 35.1206 56.2499 35.1308 56.2279L35.1393 56.2103L35.3029 55.8586C35.3113 55.8403 35.3251 55.8251 35.3424 55.8149C35.3598 55.8048 35.3798 55.8001 35.3998 55.8016C35.5008 55.8085 35.6021 55.8065 35.7027 55.7956C35.7575 55.7896 35.8112 55.7807 35.8641 55.7703C35.8822 55.7665 35.9011 55.768 35.9184 55.7746C35.9357 55.7812 35.9507 55.7926 35.9617 55.8075L36.1928 56.1116C36.2079 56.1317 36.2301 56.1454 36.2549 56.1498C36.2797 56.1543 36.3053 56.1493 36.3265 56.1358L36.6817 55.9122C36.6911 55.9056 36.6997 55.8977 36.707 55.8888C36.718 55.8742 36.7247 55.8569 36.7265 55.8387C36.7283 55.8206 36.725 55.8023 36.7171 55.7859L36.5904 55.5284C36.5829 55.5129 36.5797 55.4957 36.5808 55.4785C36.582 55.4614 36.5876 55.4448 36.5971 55.4304C36.6022 55.4228 36.6084 55.4159 36.6153 55.4099C36.7906 55.2634 36.9347 55.0834 37.0394 54.8804C37.048 54.8636 37.0614 54.8498 37.0778 54.8405C37.0942 54.8312 37.113 54.827 37.1318 54.8282C37.1374 54.8285 37.1429 54.8295 37.1482 54.8312L37.4836 54.9128C37.507 54.9186 37.5318 54.9155 37.5531 54.9042C37.5744 54.8928 37.5908 54.874 37.5991 54.8513L37.6021 54.842L37.7433 54.4552C37.7494 54.4428 37.7529 54.4291 37.7535 54.4152C37.7541 54.4013 37.7518 54.3875 37.7467 54.3745C37.7416 54.3616 37.7339 54.3499 37.724 54.3401C37.7141 54.3303 37.7023 54.3227 37.6893 54.3177ZM36.3765 54.4455C36.3207 54.5781 36.2352 54.6961 36.1264 54.7902C36.1037 54.81 36.0796 54.8281 36.0541 54.8443C35.9518 54.9093 35.8392 54.9563 35.721 54.9833C35.5721 55.0168 35.4173 55.013 35.2702 54.9722C35.1232 54.9314 34.9885 54.8548 34.8782 54.7494C34.7679 54.6439 34.6854 54.5128 34.6381 54.3677C34.5907 54.2226 34.58 54.0681 34.6068 53.9179C34.6188 53.8475 34.6373 53.7784 34.662 53.7115C34.7271 53.5575 34.8338 53.4247 34.9701 53.328L35.0074 53.3045C35.7996 52.8421 36.6891 53.571 36.3765 54.4455Z" fill="#98B5F4"/>
<path d="M40.4317 56.0616L40.1403 55.926C40.1285 55.9205 40.1184 55.9118 40.1113 55.9008C40.1041 55.8899 40.1001 55.8772 40.0997 55.8641C40.0997 55.8295 40.0967 55.7956 40.093 55.7609C40.0862 55.698 40.0746 55.6357 40.0584 55.5746C40.0546 55.5611 40.055 55.5467 40.0595 55.5334C40.064 55.5201 40.0725 55.5085 40.0837 55.5001L40.3505 55.2963C40.3645 55.2858 40.374 55.2705 40.377 55.2533C40.38 55.2361 40.3764 55.2184 40.3669 55.2038L40.2029 54.9449C40.1939 54.9308 40.18 54.9205 40.1639 54.9159C40.1478 54.9113 40.1305 54.9127 40.1154 54.9199L39.8378 55.0563C39.8245 55.0629 39.8095 55.0651 39.7949 55.0625C39.7803 55.0598 39.767 55.0526 39.7569 55.0417C39.6659 54.9471 39.5603 54.8676 39.4443 54.8062C39.4306 54.7988 39.4198 54.787 39.4135 54.7728C39.4072 54.7586 39.4057 54.7427 39.4092 54.7276L39.4547 54.545C39.4587 54.5281 39.4564 54.5102 39.4481 54.4948C39.4399 54.4795 39.4263 54.4676 39.41 54.4616L39.1234 54.358C39.1178 54.3557 39.1119 54.3543 39.1059 54.3539C39.0916 54.3524 39.0773 54.3555 39.0648 54.3626C39.0524 54.3698 39.0425 54.3807 39.0366 54.3937L38.9352 54.6113L38.9106 54.6643C38.8528 54.6626 38.7949 54.6649 38.7374 54.671C38.6607 54.6787 38.585 54.6936 38.5112 54.7157C38.4978 54.7197 38.4835 54.7195 38.4701 54.7152C38.4568 54.7109 38.4452 54.7026 38.4367 54.6915L38.2727 54.4765C38.262 54.4623 38.2464 54.4527 38.2289 54.4495C38.2114 54.4463 38.1934 54.4498 38.1784 54.4593L37.9802 54.5845L37.9232 54.6218C37.9082 54.6313 37.8973 54.6459 37.8924 54.663C37.8876 54.6801 37.8893 54.6983 37.8971 54.7142L38.0107 54.946C38.0174 54.9589 38.0197 54.9736 38.0175 54.9879C38.0152 55.0023 38.0084 55.0155 37.9981 55.0257C37.9364 55.0885 37.8814 55.1576 37.8341 55.2318C37.8297 55.2379 37.8256 55.2442 37.8218 55.2508L37.8177 55.2568C37.8093 55.268 37.7976 55.2764 37.7843 55.2809C37.7711 55.2854 37.7567 55.2858 37.7432 55.2821L37.4451 55.2098C37.4416 55.2089 37.4382 55.2081 37.4346 55.2076C37.4188 55.2059 37.4028 55.2095 37.3893 55.218C37.3758 55.2264 37.3655 55.2392 37.3601 55.2541L37.2562 55.5392C37.2501 55.556 37.2506 55.5745 37.2575 55.591C37.2644 55.6075 37.2772 55.6208 37.2934 55.6283L37.5971 55.7688C37.6098 55.7745 37.6204 55.7839 37.6276 55.7958C37.6348 55.8078 37.6382 55.8216 37.6374 55.8355C37.6345 55.899 37.6365 55.9626 37.6433 56.0259C37.647 56.0598 37.6526 56.0937 37.659 56.1269C37.6614 56.14 37.6602 56.1536 37.6554 56.1661C37.6506 56.1786 37.6424 56.1895 37.6318 56.1977L37.375 56.3937C37.3612 56.4041 37.3519 56.4193 37.3489 56.4363C37.3458 56.4533 37.3493 56.4708 37.3586 56.4853L37.5211 56.7417C37.5306 56.7567 37.5454 56.7677 37.5625 56.7725C37.5796 56.7773 37.5979 56.7756 37.6139 56.7678L37.8337 56.6601C37.8479 56.6531 37.864 56.6511 37.8795 56.6543C37.8949 56.6576 37.9089 56.6659 37.9191 56.678C38.0009 56.7766 38.0974 56.8619 38.2053 56.931C38.2178 56.939 38.2275 56.9507 38.233 56.9644C38.2386 56.9782 38.2397 56.9933 38.2362 57.0078L38.1706 57.2746C38.1667 57.2919 38.1691 57.3101 38.1775 57.3258C38.1858 57.3416 38.1995 57.3538 38.2161 57.3603L38.5004 57.4635C38.5169 57.4696 38.5352 57.4692 38.5514 57.4622C38.5676 57.4553 38.5806 57.4424 38.5876 57.4262L38.5939 57.4136L38.7113 57.1605C38.7173 57.1474 38.7272 57.1364 38.7397 57.1291C38.7521 57.1217 38.7666 57.1184 38.781 57.1196C38.8537 57.1246 38.9268 57.1231 38.9993 57.1151C39.0388 57.111 39.0772 57.1043 39.1156 57.0972C39.1285 57.0943 39.142 57.0951 39.1544 57.0997C39.1669 57.1043 39.1777 57.1123 39.1857 57.1229L39.3519 57.3416C39.3628 57.356 39.3788 57.3657 39.3966 57.3689C39.4144 57.3721 39.4327 57.3685 39.448 57.3588L39.7032 57.1967C39.7103 57.1923 39.7165 57.1866 39.7215 57.1799C39.7295 57.1694 39.7345 57.1569 39.7358 57.1437C39.7371 57.1306 39.7348 57.1173 39.729 57.1054L39.6377 56.9191C39.6306 56.9049 39.6286 56.8888 39.6318 56.8733C39.6351 56.8578 39.6434 56.8439 39.6555 56.8337C39.7815 56.7283 39.8852 56.5988 39.9607 56.4529C39.9668 56.4408 39.9764 56.4308 39.9882 56.4242C40 56.4175 40.0136 56.4146 40.0271 56.4157C40.031 56.4153 40.035 56.4153 40.039 56.4157L40.2793 56.4745C40.2962 56.4787 40.314 56.4766 40.3293 56.4684C40.3446 56.4603 40.3564 56.4468 40.3624 56.4306L40.3647 56.4238L40.4657 56.1455C40.4706 56.1298 40.4699 56.1128 40.4637 56.0975C40.4576 56.0822 40.4462 56.0695 40.4317 56.0616ZM39.4875 56.1533C39.4478 56.249 39.3864 56.3342 39.3082 56.4022C39.2918 56.4159 39.2744 56.4284 39.2561 56.4395C39.1825 56.4861 39.1017 56.52 39.0169 56.5397C38.9097 56.5638 38.7983 56.561 38.6925 56.5316C38.5867 56.5022 38.4898 56.4471 38.4105 56.3712C38.3311 56.2953 38.2718 56.2009 38.2377 56.0965C38.2037 55.9921 38.196 55.8809 38.2153 55.7729C38.224 55.7221 38.2372 55.6722 38.2548 55.6238C38.3022 55.5129 38.3796 55.4173 38.4784 55.3481L38.5063 55.3309C39.0728 55.0004 39.7122 55.5243 39.4875 56.1533Z" fill="#D2E0FF"/>
<path d="M28.9718 53.9449L28.532 53.867C28.5141 53.8637 28.4975 53.8555 28.4839 53.8434C28.4704 53.8312 28.4605 53.8155 28.4553 53.7981C28.4419 53.7522 28.4262 53.7068 28.4091 53.662C28.3781 53.5799 28.3407 53.5003 28.2973 53.4239C28.2872 53.407 28.2825 53.3875 28.2838 53.3679C28.285 53.3482 28.2922 53.3295 28.3044 53.314L28.5909 52.9455C28.6059 52.9264 28.6131 52.9024 28.6111 52.8783C28.6091 52.8542 28.598 52.8317 28.5801 52.8154L28.2667 52.5251C28.2494 52.5097 28.227 52.5011 28.2038 52.5011C28.1805 52.5011 28.1581 52.5097 28.1408 52.5251L27.8162 52.8072C27.8009 52.8203 27.7818 52.8282 27.7618 52.8298C27.7417 52.8314 27.7216 52.8266 27.7044 52.8162C27.5483 52.7215 27.3781 52.6523 27.2002 52.6112C27.1793 52.6059 27.1607 52.5939 27.1472 52.577C27.1338 52.5601 27.1262 52.5393 27.1257 52.5177L27.1212 52.2568C27.1207 52.2327 27.1114 52.2095 27.095 52.1917C27.0786 52.1739 27.0562 52.1628 27.0322 52.1603L26.6096 52.1231C26.5855 52.1206 26.5613 52.1274 26.542 52.1422C26.5228 52.1569 26.5099 52.1785 26.506 52.2024L26.4475 52.5307L26.4334 52.6108C26.3548 52.6289 26.2776 52.6524 26.2023 52.6813C26.102 52.7201 26.0055 52.768 25.9139 52.8244C25.8973 52.8347 25.8779 52.8396 25.8584 52.8386C25.8388 52.8375 25.8201 52.8305 25.8047 52.8184L25.5066 52.5874C25.4871 52.5722 25.4626 52.5649 25.4379 52.5669C25.4133 52.569 25.3903 52.5803 25.3736 52.5985L25.15 52.8378L25.0867 52.9063C25.0697 52.9244 25.0601 52.948 25.0596 52.9727C25.0592 52.9974 25.0679 53.0215 25.084 53.0401L25.3196 53.3118C25.3333 53.3267 25.3418 53.3456 25.3439 53.3657C25.346 53.3859 25.3415 53.4062 25.3311 53.4236C25.2696 53.5297 25.2197 53.6422 25.1821 53.7589C25.178 53.7686 25.1753 53.7783 25.172 53.788C25.1714 53.7913 25.1704 53.7946 25.169 53.7977C25.1617 53.8155 25.1492 53.8308 25.1333 53.8416C25.1173 53.8524 25.0985 53.8583 25.0792 53.8584L24.6544 53.8666C24.6498 53.8661 24.6452 53.8661 24.6406 53.8666C24.6193 53.8704 24.5998 53.8811 24.585 53.8969C24.5702 53.9128 24.5609 53.933 24.5586 53.9546L24.5214 54.3753C24.5192 54.3998 24.5264 54.4243 24.5414 54.4438C24.5565 54.4634 24.5783 54.4765 24.6026 54.4807L25.0613 54.562C25.0802 54.5652 25.0976 54.5741 25.1114 54.5874C25.1251 54.6006 25.1345 54.6178 25.1385 54.6365C25.157 54.7229 25.1819 54.8079 25.213 54.8906C25.2305 54.935 25.2502 54.9786 25.2696 55.021C25.2777 55.0379 25.281 55.0566 25.279 55.0752C25.277 55.0937 25.2699 55.1114 25.2584 55.1261L24.9831 55.4805C24.9683 55.4994 24.9612 55.5231 24.9631 55.547C24.965 55.5709 24.9759 55.5932 24.9935 55.6094L25.3039 55.896C25.322 55.9128 25.3456 55.9224 25.3703 55.9229C25.395 55.9234 25.419 55.9147 25.4377 55.8986L25.6944 55.675C25.7111 55.6606 25.7321 55.6522 25.7541 55.651C25.7761 55.6499 25.7978 55.6561 25.8159 55.6687C25.9607 55.7723 26.1208 55.8527 26.2903 55.9072C26.31 55.9133 26.3272 55.9255 26.3396 55.942C26.3519 55.9585 26.3586 55.9786 26.3588 55.9992L26.3663 56.3819C26.3668 56.4067 26.3765 56.4303 26.3934 56.4484C26.4103 56.4665 26.4333 56.4777 26.458 56.4799L26.8768 56.5172C26.901 56.5193 26.9251 56.5123 26.9445 56.4976C26.9638 56.4828 26.9769 56.4614 26.9811 56.4374L26.9849 56.4181L27.0527 56.0369C27.056 56.0169 27.0655 55.9986 27.0797 55.9842C27.0939 55.9699 27.1122 55.9603 27.1321 55.9567C27.2315 55.9374 27.3292 55.9094 27.4238 55.8733C27.4752 55.8535 27.5248 55.8315 27.5729 55.8073C27.5893 55.799 27.6077 55.7955 27.6261 55.7972C27.6444 55.7989 27.6619 55.8058 27.6765 55.817L27.9779 56.0518C27.9977 56.0673 28.0225 56.0748 28.0476 56.0729C28.0727 56.071 28.0961 56.0597 28.1132 56.0413L28.3986 55.7324C28.4063 55.7238 28.4124 55.714 28.4169 55.7033C28.4238 55.6864 28.4259 55.6679 28.423 55.6498C28.4201 55.6318 28.4123 55.6148 28.4005 55.6009L28.2119 55.3844C28.2008 55.3714 28.1932 55.3557 28.19 55.3389C28.1867 55.3222 28.1879 55.3048 28.1933 55.2886C28.1966 55.28 28.2009 55.2717 28.206 55.264C28.3375 55.0774 28.4308 54.8665 28.4802 54.6436C28.4841 54.6252 28.4931 54.6084 28.5064 54.5952C28.5196 54.5819 28.5364 54.5729 28.5548 54.569C28.5604 54.5687 28.566 54.5687 28.5715 54.569L28.9155 54.5627C28.9396 54.5623 28.9627 54.5529 28.9804 54.5365C28.9981 54.5201 29.0091 54.4977 29.0113 54.4736V54.464L29.0485 54.0541C29.0514 54.0296 29.0452 54.0049 29.0311 53.9848C29.0169 53.9646 28.9958 53.9504 28.9718 53.9449ZM27.7357 54.4051C27.716 54.5476 27.6638 54.6838 27.5833 54.8031C27.5661 54.8279 27.5472 54.8516 27.5267 54.8739C27.4447 54.9629 27.348 55.0372 27.2409 55.0933C27.1055 55.1638 26.9547 55.1998 26.8021 55.1979C26.6494 55.1961 26.4996 55.1565 26.366 55.0827C26.2323 55.0089 26.119 54.9033 26.0361 54.7751C25.9532 54.6469 25.9033 54.5002 25.8908 54.3481C25.8843 54.2769 25.8843 54.2053 25.8908 54.1342C25.9145 53.9688 25.9838 53.8134 26.0909 53.6851C26.101 53.674 26.1114 53.6632 26.1218 53.652C26.7672 53.0014 27.8136 53.4795 27.7353 54.4051H27.7357Z" fill="#98B5F4"/>
<path d="M59.3789 58.4589H6.7169C5.72773 58.4491 4.78241 58.0492 4.08642 57.3462C3.39043 56.6433 3 55.694 3 54.7048C3 53.7156 3.39043 52.7663 4.08642 52.0634C4.78241 51.3604 5.72773 50.9605 6.7169 50.9507H59.3789C60.368 50.9605 61.3133 51.3604 62.0093 52.0634C62.7053 52.7663 63.0958 53.7156 63.0958 54.7048C63.0958 55.694 62.7053 56.6433 62.0093 57.3462C61.3133 58.0492 60.368 58.4491 59.3789 58.4589ZM6.7169 51.273C5.80679 51.273 4.93395 51.6346 4.2904 52.2781C3.64685 52.9217 3.2853 53.7945 3.2853 54.7046C3.2853 55.6147 3.64685 56.4876 4.2904 57.1311C4.93395 57.7747 5.80679 58.1362 6.7169 58.1362H59.3789C60.289 58.1362 61.1618 57.7747 61.8054 57.1311C62.4489 56.4876 62.8105 55.6147 62.8105 54.7046C62.8105 53.7945 62.4489 52.9217 61.8054 52.2781C61.1618 51.6346 60.289 51.273 59.3789 51.273H6.7169Z" fill="#1976D2"/>
<path d="M20.7358 50.9497H27.764V45.1545H20.7358V50.9497Z" fill="#8DB0FF"/>
<path d="M24.2498 50.9497H31.2781V45.1545H24.2498V50.9497Z" fill="#AEC3FF"/>
<path d="M20.7397 49.4797H21.8536L21.7556 49.1663L21.8536 48.9424H20.7397V49.4797Z" fill="#2A4E96"/>
<path d="M24.25 46.9475H25.3634L25.2654 46.6341L25.3634 46.4102H24.25V46.9475Z" fill="#618DC1"/>
<path d="M24.2502 46.4102H23.1364L23.2344 46.7235L23.1364 46.9475H24.2502V46.4102Z" fill="#2A4E96"/>
<path d="M31.2785 49.542H30.1647L30.2627 49.8554L30.1647 50.0793H31.2785V49.542Z" fill="#618DC1"/>
<path d="M30.8179 45.5479H28.7957V46.3349H30.8179V45.5479Z" fill="white"/>
<path d="M44.9221 35.5752C44.9221 35.5752 44.4898 38.035 44.0168 40.605C43.5031 43.398 42.9411 46.3206 42.8352 46.3574C42.6316 46.4275 42.6481 45.983 42.5083 45.644C42.3956 45.3712 42.0542 43.0358 42.1664 41.5815C42.1939 41.226 42.2849 36.8418 42.8918 36.3263C43.4988 35.8107 44.9221 35.5752 44.9221 35.5752Z" fill="#FFB27D"/>
<path d="M42.3751 44.9888C42.4342 45.2537 42.4175 45.5299 42.3268 45.7858C42.1739 46.18 42.1415 46.2922 42.4235 46.5113C42.7055 46.7303 43.0121 47.0433 43.2244 46.9514C43.4367 46.8595 43.3052 45.055 43.3052 45.055L42.3751 44.9888Z" fill="#FFB27D"/>
<path d="M42.9629 61.1156C43.2255 60.9555 43.0761 59.7614 43.0761 59.7614C43.0761 59.7614 41.8535 58.7835 41.6852 59.5322C41.5169 60.2809 40.5244 60.6175 39.9581 60.7094C39.5678 60.7727 39.4469 60.9889 39.4092 61.1166L42.9629 61.1156Z" fill="#2A4E96"/>
<path d="M48.3931 61.1156C48.6557 60.9555 48.5063 59.7614 48.5063 59.7614C48.5063 59.7614 47.2832 58.7835 47.1153 59.5322C46.9475 60.2809 45.9546 60.6175 45.3883 60.7094C44.9975 60.7727 44.8766 60.9889 44.8394 61.1166L48.3931 61.1156Z" fill="#2A4E96"/>
<path d="M46.6938 47.2449C46.2586 49.0827 45.7101 51.1836 45.4964 52.3676C45.4712 52.5044 45.4509 52.6297 45.4354 52.74C45.4199 52.8502 45.4108 52.9474 45.4064 53.0277C45.2923 55.2452 43.5401 60.3151 43.2267 60.4332C42.743 60.616 41.9774 60.2271 41.5775 60.0999C41.4962 60.0762 41.4265 60.0233 41.3819 59.9513C41.3373 59.8794 41.3208 59.7935 41.3356 59.7101C42.2038 55.7201 42.7382 50.0094 42.8547 46.6075C42.9133 44.8939 42.9916 43.6752 42.9916 43.6752C42.9916 43.6752 47.2665 42.5343 47.2921 43.9775C47.3032 44.5365 47.0329 45.8133 46.6938 47.2449Z" fill="#069550"/>
<path d="M46.694 47.2443C46.2587 49.0821 45.7103 51.183 45.4965 52.3669C45.4714 52.5038 45.3403 53.6674 45.3248 53.7777L44.5767 45.2749L45.6378 45.3716L46.694 47.2443Z" fill="#069550"/>
<path d="M45.0107 44.4753L46.5192 60.2337C46.5192 60.2337 47.6354 60.5959 48.6443 60.3164C48.6443 60.3164 49.2305 51.7014 49.1763 49.5951C49.1221 47.4889 49.6512 43.9598 49.0554 43.571C48.4596 43.1821 45.0107 44.4753 45.0107 44.4753Z" fill="#069550"/>
<path d="M49.0247 40.2616C49.0411 40.4415 49.1093 43.8003 49.1142 43.9266C49.1195 44.0654 48.7398 44.3425 47.3982 44.5418C46.8348 44.6228 46.2665 44.6655 45.6973 44.6694C44.0244 44.6883 43.385 43.9851 43.385 43.9851C43.2709 43.9851 43.5122 43.1692 43.5509 37.8594C43.5216 37.8629 43.492 37.8611 43.4634 37.854C42.8704 37.6238 42.3186 37.1426 42.3186 37.1426C42.3186 37.1426 42.9904 35.2753 43.6244 34.325C43.7792 34.0933 44.1966 33.911 44.7523 33.793C44.8974 33.762 45.054 33.7349 45.217 33.7127C46.0542 33.605 46.902 33.6104 47.7377 33.7286C47.8828 33.7489 48.0308 33.7741 48.173 33.8031C48.8017 33.9308 49.3661 34.1349 49.769 34.427C50.36 34.856 50.7996 37.0536 50.7996 37.0536C50.7996 37.0536 50.243 37.6853 48.9908 37.9933C48.9241 39.2571 48.9507 39.4288 49.0247 40.2616Z" fill="#006430"/>
<path d="M42.9929 43.6777L43.5036 37.3159C43.5173 37.1394 43.599 36.9751 43.7316 36.8578C43.8642 36.7404 44.0372 36.6793 44.2141 36.6872L47.6929 36.8236C47.8311 36.8291 47.9622 36.886 48.0607 36.9831C48.1591 37.0803 48.2176 37.2107 48.2249 37.3488C48.2674 38.1841 48.427 39.8071 49.0243 40.2598L49.3397 44.8645L45.4517 48.3844C45.4517 48.3844 45.0102 45.8047 44.4032 45.088C44.0637 44.689 42.9929 43.6777 42.9929 43.6777Z" fill="#069550"/>
<path d="M48.1745 33.8006L47.7547 37.0511L47.3195 36.9824L47.7402 33.7261C47.8868 33.7483 48.0323 33.7735 48.1745 33.8006Z" fill="#069550"/>
<path d="M45.2186 33.7119L44.6799 36.6277L44.6349 36.8725L44.5865 36.8613L44.203 36.7753L44.7539 33.7922C44.8994 33.7612 45.0557 33.7342 45.2186 33.7119Z" fill="#069550"/>
<path d="M50.7995 40.52C50.7995 40.52 50.5383 41.3136 47.1809 42.4115C47.1809 42.4115 47.1427 41.5148 47.3468 41.3959C47.978 41.0254 49.4816 39.9198 49.5333 39.7249C49.5672 39.5958 49.2248 38.6193 48.7914 37.6375C49.5875 37.549 50.1006 37.4774 50.6873 37.1631C50.9054 38.7064 51.2053 39.7868 50.7995 40.52Z" fill="#FFB27D"/>
<path d="M46.7979 41.4371C46.7979 41.4371 46.5179 41.2229 46.3027 41.1909C46.0875 41.159 45.7252 41.0222 45.7842 41.1494C45.8432 41.2765 46.2393 41.4777 46.2393 41.4777L46.7979 41.4371Z" fill="#FFB27D"/>
<path d="M46.2614 42.8522L45.1669 42.9861C45.1084 42.9931 45.0492 42.9792 44.9999 42.9469C44.9505 42.9147 44.9141 42.866 44.8971 42.8096L44.1484 40.3295C44.1379 40.2946 44.1352 40.2577 44.1404 40.2216C44.1456 40.1855 44.1586 40.1509 44.1786 40.1204C44.1985 40.0898 44.2249 40.0639 44.2558 40.0446C44.2868 40.0253 44.3216 40.0129 44.3578 40.0084L45.4523 39.8749C45.5108 39.8677 45.5699 39.8815 45.6193 39.9137C45.6687 39.9459 45.7051 39.9945 45.7221 40.051L46.4708 42.5335C46.481 42.5683 46.4836 42.6049 46.4782 42.6408C46.4729 42.6767 46.4598 42.711 46.4399 42.7413C46.42 42.7716 46.3937 42.7973 46.3628 42.8164C46.332 42.8355 46.2974 42.8478 46.2614 42.8522Z" fill="#233862"/>
<path d="M45.874 42.9001L44.7795 43.0335C44.721 43.0407 44.6618 43.027 44.6124 42.9948C44.563 42.9626 44.5266 42.914 44.5096 42.8575L43.761 40.375C43.7504 40.3401 43.7476 40.3032 43.7528 40.2671C43.758 40.231 43.771 40.1964 43.7909 40.1659C43.8109 40.1353 43.8373 40.1095 43.8683 40.0902C43.8993 40.071 43.9341 40.0587 43.9704 40.0543L45.0644 39.9209C45.1229 39.9136 45.1822 39.9272 45.2317 39.9595C45.2812 39.9917 45.3177 40.0404 45.3347 40.0969L46.0834 42.5794C46.0939 42.6143 46.0966 42.6511 46.0914 42.6872C46.0861 42.7233 46.0731 42.7579 46.0532 42.7884C46.0332 42.8189 46.0069 42.8447 45.9759 42.864C45.945 42.8833 45.9102 42.8956 45.874 42.9001Z" fill="#192E4F"/>
<path d="M45.1001 40.3997C45.0838 40.4011 45.0675 40.3971 45.0536 40.3884C45.0397 40.3796 45.0291 40.3666 45.0232 40.3513L44.2905 38.175C44.2883 38.1683 44.2875 38.1611 44.2883 38.1541C44.289 38.1471 44.2914 38.1403 44.2951 38.1342C44.2988 38.1282 44.3037 38.123 44.3096 38.1191C44.3155 38.1152 44.3222 38.1126 44.3292 38.1116C44.3456 38.1102 44.3619 38.1142 44.3758 38.1229C44.3896 38.1316 44.4003 38.1446 44.4061 38.16L45.1393 40.3363C45.1416 40.3431 45.1423 40.3502 45.1415 40.3573C45.1407 40.3644 45.1384 40.3712 45.1346 40.3772C45.1309 40.3833 45.1258 40.3884 45.1199 40.3923C45.1139 40.3962 45.1072 40.3987 45.1001 40.3997Z" fill="#192E4F"/>
<path d="M47.3467 41.3936C47.3467 41.3936 47.1533 41.514 47.0135 41.4777C46.8989 41.4473 46.7983 41.4366 46.6662 41.3467C46.5269 41.2499 46.2184 41.3771 46.1275 41.4381C45.8721 41.6083 45.0107 41.6011 45.0107 41.7713C45.0107 41.9415 45.3856 42.4194 45.8392 42.5616C46.2929 42.7037 47.1808 42.4102 47.1808 42.4102L47.3467 41.3936Z" fill="#FFB27D"/>
<path d="M47.3574 33.6502C47.3757 34.1556 46.9279 34.4018 46.2566 34.3055C45.5853 34.2093 45.5723 33.6889 45.5723 33.6889L45.5887 33.185L45.6076 32.5886L45.625 32.0566L47.25 32.2767C47.2453 32.3624 47.2461 32.4484 47.2524 32.534C47.2679 32.8532 47.3133 33.3687 47.3574 33.6502Z" fill="#FFB27D"/>
<path d="M47.2527 32.5312C47.2372 32.5535 46.8658 33.0594 45.589 33.1827L45.6079 32.5864L47.2522 32.5308L47.2527 32.5312Z" fill="#ED975D"/>
<path d="M45.2953 32.8691C45.2953 32.8691 47.2946 33.2729 47.5272 32.0242C47.7599 30.7754 48.1739 29.9856 46.9072 29.6751C45.6406 29.3646 45.303 29.7946 45.1241 30.1926C44.9451 30.5907 44.7807 32.7317 45.2953 32.8691Z" fill="#FFB27D"/>
<path d="M47.4327 32.3018C47.4327 32.3018 48.1281 32.4585 48.1939 31.1928C48.2191 30.7053 48.339 28.9947 46.9481 29.0532C45.5571 29.1117 44.9216 29.9238 44.7949 30.0689C43.8451 31.1411 46.1568 30.3431 46.4644 30.5922C46.772 30.8412 46.4794 31.2513 46.831 31.3979C47.1826 31.5444 47.4597 31.543 47.4027 31.867C47.3456 32.1911 47.4327 32.3018 47.4327 32.3018Z" fill="#233862"/>
<path d="M44.6105 30.0942C44.6105 30.0942 45.3558 30.3534 45.6169 30.3723L46.8502 30.4574L48.5381 30.7549C48.5381 30.7549 48.8674 29.5018 48.0419 28.7144C48.0216 28.6946 47.9998 28.6747 47.9776 28.6559C47.7546 28.4624 47.4557 28.3033 47.0586 28.2037C45.0385 27.6964 44.6192 30.0212 44.6105 30.0942Z" fill="#FFD026"/>
<path d="M45.5947 30.3359L45.9139 30.3784C46.163 30.0486 47.0858 28.9048 48.0588 28.7341C48.0539 28.7263 48.0484 28.7188 48.0424 28.7118C48.026 28.6915 48.0124 28.6813 47.9882 28.6509L47.9781 28.6533C46.7327 28.9527 45.8051 30.0428 45.5947 30.3359Z" fill="#FF9500"/>
<path d="M46.8523 30.4585C46.8523 30.4585 47.0694 30.7042 47.126 30.9421C47.1826 31.1801 48.279 31.3203 48.3545 31.1975C48.4299 31.0746 48.5402 30.7579 48.5402 30.7579L46.8523 30.4585Z" fill="#FFD026"/>
<path d="M46.8523 30.4572C46.8523 30.4572 44.8327 30.4949 43.9094 30.0089C43.8939 30.0007 43.8812 29.9881 43.873 29.9726C43.8649 29.9571 43.8616 29.9395 43.8636 29.9221C43.8657 29.9047 43.8729 29.8883 43.8845 29.8752C43.896 29.862 43.9113 29.8526 43.9283 29.8483C44.1797 29.7947 44.4358 29.766 44.6929 29.7627C44.6929 29.7627 45.4135 30.3624 46.8523 30.4572Z" fill="#FF9500"/>
<path d="M55.62 61.1133H61.0508V56.6353H55.62V61.1133Z" fill="#7F9EF4"/>
<path d="M58.3359 61.1133H63.7667V56.6353H58.3359V61.1133Z" fill="#AEC3FF"/>
<path d="M55.6235 59.9786H56.484L56.4083 59.7364L56.484 59.5635H55.6235V59.9786Z" fill="#5D86E2"/>
<path d="M58.3354 58.0211H59.1962L59.1202 57.7789L59.1962 57.606H58.3354V58.0211Z" fill="#7F9EF4"/>
<path d="M58.3354 57.606H57.475L57.5506 57.8482L57.475 58.0211H58.3354V57.606Z" fill="#5D86E2"/>
<path d="M63.7667 60.0264H62.9059L62.9819 60.2686L62.9059 60.4415H63.7667V60.0264Z" fill="#7F9EF4"/>
<path d="M63.4106 56.9385H61.8478V57.5466H63.4106V56.9385Z" fill="white"/>
<path d="M48.2605 61.1177H53.7025V56.6304H48.2605V61.1177Z" fill="#7F9EF4"/>
<path d="M50.9815 61.1177H56.4235V56.6304H50.9815V61.1177Z" fill="#D4E4F8"/>
<path d="M48.2639 59.9797H49.1262L49.0502 59.7371L49.1262 59.5635H48.2639V59.9797Z" fill="#2A4E96"/>
<path d="M50.9814 58.0194H51.8437L51.7681 57.7768L51.8437 57.6035H50.9814V58.0194Z" fill="#618DC1"/>
<path d="M50.9815 57.6035H50.1193L50.1953 57.8461L50.1193 58.0194H50.9815V57.6035Z" fill="#2A4E96"/>
<path d="M56.4234 60.0283H55.5612L55.6372 60.2709L55.5612 60.4442H56.4234V60.0283Z" fill="#618DC1"/>
<path d="M56.067 56.9351H54.5012V57.5443H56.067V56.9351Z" fill="white"/>
<path d="M51.0805 56.6348H56.1826V52.4277H51.0805V56.6348Z" fill="#069550"/>
<path d="M53.6313 56.6348H58.7334V52.4277H53.6313V56.6348Z" fill="#008444"/>
<path d="M51.0836 55.5674H51.8919L51.8207 55.3401L51.8919 55.1772H51.0836V55.5674Z" fill="#FF9500"/>
<path d="M53.632 53.7306H54.4402L54.369 53.5033L54.4402 53.3408H53.632V53.7306Z" fill="#FFDA4F"/>
<path d="M53.632 53.3408H52.8234L52.8945 53.5681L52.8234 53.7306H53.632V53.3408Z" fill="#FF9500"/>
<path d="M58.7338 55.6133H57.9252L57.9967 55.8406L57.9252 56.0031H58.7338V55.6133Z" fill="#FFDA4F"/>
<path d="M58.3996 52.7129H56.9314V53.2841H58.3996V52.7129Z" fill="white"/>
<path d="M16.9784 41.4258H23.4604V36.0811H16.9784V41.4258Z" fill="#006430"/>
<path d="M20.219 41.4258H26.701V36.0811H20.219V41.4258Z" fill="#008444"/>
<path d="M20.2195 37.7356H21.2469L21.1564 37.4466L21.2469 37.2397H20.2195V37.7356Z" fill="#FFDA4F"/>
<path d="M20.2189 37.2397H19.192L19.2825 37.5287L19.192 37.7356H20.2189V37.2397Z" fill="#FF9500"/>
<path d="M26.7017 40.1279H25.6743L25.7648 40.4169L25.6743 40.6238H26.7017V40.1279Z" fill="#FFDA4F"/>
<path d="M26.2767 36.4434H24.4116V37.1693H26.2767V36.4434Z" fill="white"/>
<path d="M23.6445 41.1984C23.8018 41.0964 24.1584 40.8738 24.1742 40.9257C24.1858 40.9642 24.1649 41.0282 24.1204 41.0941C24.3338 41.0236 24.549 40.9804 25.0481 41.0969C25.098 41.1079 25.1451 41.1289 25.1866 41.1586C25.2282 41.1883 25.2632 41.2262 25.2897 41.2699C25.3361 41.352 25.3533 41.4526 25.2215 41.5278C24.9581 41.678 25.036 41.5848 24.6696 41.8061C24.3032 42.0273 23.8625 42.0681 23.607 41.8942L23.2582 41.8223L23.2368 41.2425C23.2368 41.2425 23.439 41.2249 23.6445 41.1984Z" fill="#FFC299"/>
<path d="M16.5147 35.4703C15.5532 36.0686 14.5574 35.2555 14.5574 35.2555C14.5574 35.2555 14.9386 34.2815 14.7007 32.9916C14.691 32.9392 16.3779 33.6345 16.4285 33.6456C16.4285 33.6456 16.4285 33.6498 16.4285 33.6572L16.4312 33.6818C16.4577 33.9086 16.4776 34.134 16.4883 34.3446C16.5282 34.9735 16.5147 35.4703 16.5147 35.4703Z" fill="#FFB27D"/>
<path d="M16.4913 34.3211C15.7255 34.2515 15.1365 33.822 14.9412 33.5789C14.8814 33.5061 16.3842 33.617 16.4287 33.6207C16.4287 33.6207 16.4287 33.6248 16.4287 33.6323C16.4287 33.6397 16.4287 33.6466 16.4315 33.6569C16.4607 33.8851 16.4793 34.1105 16.4913 34.3211Z" fill="#ED975D"/>
<path d="M16.7436 33.5406C16.7436 33.5406 15.0901 34.2716 14.6508 33.2349C14.2116 32.1983 13.7018 31.5939 14.739 31.0837C15.7761 30.5735 16.1504 30.881 16.3814 31.1913C16.6124 31.5016 17.1625 33.324 16.7436 33.5406Z" fill="#FFB27D"/>
<path d="M14.7644 33.518C14.7436 33.5375 14.3934 33.7216 13.4244 32.4512C13.2728 32.2518 13.1081 31.7889 13.2853 31.319C13.4625 30.8491 14.3169 30.345 15.0478 30.0602C15.3429 29.9478 15.6662 29.9329 15.9704 30.0175C16.0439 30.0372 16.1128 30.0713 16.173 30.1178C16.2332 30.1644 16.2836 30.2225 16.3211 30.2887C16.3586 30.355 16.3826 30.428 16.3916 30.5036C16.4006 30.5792 16.3944 30.6558 16.3735 30.729C16.2343 31.2146 15.8911 31.5124 15.456 31.4994C15.1647 31.4906 15.1833 32.0857 15.1884 32.2276C15.1935 32.3696 15.1837 32.4902 14.8173 32.4313C14.5028 32.3812 14.6782 32.7963 14.7858 32.9832C14.8395 33.0747 14.8655 33.1797 14.8609 33.2856C14.8595 33.3726 14.825 33.4557 14.7644 33.518Z" fill="#2A4E96"/>
<path d="M12.2341 61.1357H11.1673C10.9437 61.1357 10.6956 60.9121 10.6334 60.5025C10.5713 60.093 10.1121 59.8694 10.0128 59.534C9.91358 59.1987 10.4224 58.7265 10.4224 58.7265L10.5077 58.6171L10.5963 58.5034L11.4405 58.7019C11.4405 58.7019 11.4614 58.9028 11.4744 59.1588C11.4832 59.3443 11.4883 59.5577 11.4776 59.7451C11.453 60.1922 11.6028 60.6727 11.9999 60.7604C12.3969 60.8481 12.2341 61.1357 12.2341 61.1357Z" fill="#2C3A64"/>
<path d="M19.6557 61.1349H16.8263C16.8057 61.1316 16.7857 61.1258 16.7665 61.1177C16.5777 61.025 16.6371 60.3009 16.6593 60.0778L16.6668 60.0124C16.6668 60.0124 17.6603 59.2179 17.7971 59.8269C17.8013 59.8459 17.8064 59.8649 17.8115 59.883C17.984 60.4521 18.7549 60.7105 19.2002 60.7828C19.5425 60.8376 19.6306 61.0356 19.6557 61.1349Z" fill="#2C3A64"/>
<path d="M19.0836 44.8447C19.0836 44.8447 18.9328 46.7269 18.7556 48.9899C18.5144 52.0632 18.2246 55.8388 18.1963 56.554C18.1466 57.7962 17.9477 59.7828 17.9477 59.7828C17.9477 59.7828 17.4759 60.2545 16.532 60.0555C16.532 60.0555 15.6907 57.2196 15.4504 54.2191L15.4393 54.0707C15.2157 51.0164 14.8683 44.584 14.8683 44.584L19.0836 44.8447Z" fill="#008444"/>
<path d="M18.6651 44.5822C18.2667 44.6063 14.0648 44.4472 14.0639 44.2112C14.0602 43.3953 13.8895 42.0738 13.6766 40.4694C13.6373 40.1704 13.6064 39.874 13.5839 39.5803C13.5247 38.8603 13.5234 38.1367 13.5797 37.4165C13.6854 36.1823 14.0064 35.3896 14.5412 34.9253C14.5412 34.9253 15.0445 34.967 15.5083 35.0366C16.0333 35.1155 16.2272 35.083 16.5876 34.9819L17.2291 35.5338C17.6131 35.8914 17.9207 36.2648 18.044 36.7815C18.044 36.7829 18.7008 44.5799 18.6651 44.5822Z" fill="#006430"/>
<path d="M14.2751 38.9136C14.2751 38.9136 14.7176 40.3148 16.1935 40.9934C17.6695 41.672 16.7872 39.7039 16.7872 39.7039L14.2751 38.9136Z" fill="#1B407A"/>
<path d="M18.0439 36.7593L16.8964 37.026L15.3166 41.3039C15.0898 41.918 14.5671 42.2969 13.9126 42.2969V42.399L13.9905 44.4375L19.0797 44.9013C19.0797 44.9013 19.1038 42.3503 19.0129 41.533C18.8756 40.3219 18.0439 36.7593 18.0439 36.7593Z" fill="#008444"/>
<path d="M23.5478 41.5464C23.584 41.2124 23.4128 41.1498 23.4128 41.1498C23.4128 41.1498 20.0297 40.4007 19.744 40.2982C19.4582 40.1957 17.0811 37.5241 17.0811 37.5241C17.0811 37.5241 16.1734 36.4169 15.3867 36.6233C14.7035 36.8028 14.4192 37.319 14.3097 37.8177C14.1799 38.4114 13.7703 38.6001 14.2759 38.9378C15.4109 39.6962 18.346 41.615 18.8877 41.7969C20.0937 42.2018 23.3869 41.9996 23.3869 41.9996C23.4743 41.8627 23.5294 41.7077 23.5478 41.5464Z" fill="#006430"/>
<path d="M15.7066 35.812C15.4395 35.5638 14.541 34.9279 14.541 34.9279C14.5916 34.8451 14.6612 34.7756 14.7442 34.7252C14.8583 34.7011 15.7442 35.3672 16.0387 35.6297C16.394 35.946 17.3797 36.9386 17.3797 36.9386L16.8963 37.0509C16.8963 37.0509 16.0216 36.1042 15.7066 35.812Z" fill="#069550"/>
<path d="M16.814 31.0923C16.814 31.0923 16.1544 31.4634 15.9114 31.5255L14.7615 31.815L13.2189 32.3822C13.2189 32.3822 12.6952 31.2551 13.3413 30.372C13.3575 30.3497 13.3747 30.3256 13.3923 30.3057C13.57 30.0863 13.8251 29.8845 14.1841 29.7226C16.0037 28.9016 16.7936 31.0251 16.814 31.0923Z" fill="#FFD026"/>
<path d="M15.9265 31.4883L15.6325 31.5811C15.3412 31.3121 14.2762 30.3891 13.3291 30.3942C13.3326 30.386 13.3366 30.3781 13.3412 30.3705C13.3537 30.3482 13.3648 30.3362 13.3824 30.3037H13.3922C14.6176 30.3761 15.6779 31.2471 15.9265 31.4883Z" fill="#FFA600"/>
<path d="M14.7614 31.79C14.7614 31.79 14.5982 32.0591 14.5847 32.2914C14.5713 32.5238 13.5606 32.8439 13.4683 32.7409C13.376 32.6379 13.2188 32.3573 13.2188 32.3573L14.7614 31.79Z" fill="#FFD026"/>
<path d="M14.7614 31.7893C14.7614 31.7893 16.6742 31.4827 17.4632 30.8672C17.4766 30.8569 17.4865 30.8427 17.4916 30.8266C17.4967 30.8104 17.4967 30.7931 17.4917 30.777C17.4866 30.7608 17.4767 30.7466 17.4633 30.7363C17.4499 30.726 17.4337 30.72 17.4168 30.7192C17.1705 30.7104 16.9239 30.7259 16.6807 30.7656C16.6807 30.7656 16.1014 31.4567 14.7614 31.7893Z" fill="#FFA600"/>
<path d="M18.5214 44.7185C18.5214 44.7185 18.6193 45.8929 18.0761 48.0966C17.6777 49.7135 15.4504 54.2191 15.4504 54.2191L15.4393 54.0707C15.2157 51.0164 14.8683 44.584 14.8683 44.584L18.5214 44.7185Z" fill="#069550"/>
<path d="M18.5214 44.7196C18.5214 44.7196 15.6754 51.8853 13.8873 55.089C12.0993 58.2926 11.5403 59.1869 11.5403 59.1869C11.5403 59.1869 10.5162 58.7769 10.423 58.4977C10.423 58.4977 11.1067 52.313 12.3043 50.805C12.981 49.9535 13.7755 47.3968 13.8126 46.5026C13.8498 45.6083 13.9518 43.4668 13.9518 43.4668L18.5214 44.7196Z" fill="#008444"/>
<path d="M64.329 61.0503H4.30918C4.26476 61.0503 4.22876 61.1167 4.22876 61.1987V61.3118C4.22876 61.3938 4.26476 61.4602 4.30918 61.4602H64.329C64.3734 61.4602 64.4094 61.3938 64.4094 61.3118V61.1987C64.4094 61.1167 64.3734 61.0503 64.329 61.0503Z" fill="#2E3552"/>
<path d="M30.1861 13C30.1159 12.4195 30.015 11.843 29.8837 11.273C29.8114 10.8184 29.6144 10.3923 29.314 10.0411C28.956 9.71154 28.4886 9.52314 28 9.51151C28.3165 9.39 28.6022 9.20138 28.8372 8.95888C29.194 8.5438 29.424 8.03658 29.5 7.49671C29.6138 7.00628 29.6568 6.50238 29.6279 6C29.682 6.89292 30.0478 7.73946 30.6628 8.39473C31.0418 8.70866 31.5081 8.90136 32 8.94737C31.5599 9.03911 31.1632 9.27341 30.8727 9.61325C30.5821 9.9531 30.4141 10.3791 30.3953 10.824C30.2674 12.0789 30.2326 13 30.1861 13Z" fill="#E3F2FD"/>
</svg>
