<svg width="168" height="168" viewBox="0 0 168 168" fill="none" xmlns="http://www.w3.org/2000/svg">
<g clip-path="url(#clip0_5404_202632)">
<rect width="168" height="168" rx="15.0448" fill="#1565C0"/>
<mask id="mask0_5404_202632" style="mask-type:alpha" maskUnits="userSpaceOnUse" x="0" y="0" width="168" height="168">
<rect width="168" height="168" rx="10.0299" fill="#E3F2FD"/>
</mask>
<g mask="url(#mask0_5404_202632)">
<path d="M0 -27.582H168V56.418C168 102.81 130.392 140.418 84 140.418C37.6081 140.418 0 102.81 0 56.418V-27.582Z" fill="#2196F3"/>
</g>
<path d="M156.072 157.571C156.072 157.618 123.37 157.658 83.0391 157.658C42.7086 157.658 10 157.618 10 157.571C10 157.524 42.6953 157.484 83.0391 157.484C123.383 157.484 156.072 157.521 156.072 157.571Z" fill="#263238"/>
<path d="M37.6457 136.082L30.9089 146.55C30.9089 146.55 18.0065 143.22 16.5703 145.05L36.3999 158.841L47.5622 142.959L37.6457 136.082Z" fill="#069550"/>
<path opacity="0.3" d="M37.6457 136.082L30.9089 146.55C30.9089 146.55 18.0065 143.22 16.5703 145.05L36.3999 158.841L47.5622 142.959L37.6457 136.082Z" fill="black"/>
<path d="M37.6385 149.956C37.7852 150.148 37.8576 150.387 37.8422 150.628C37.8269 150.869 37.7249 151.097 37.555 151.269C37.3697 151.425 37.1318 151.505 36.8898 151.492C36.6477 151.479 36.4198 151.374 36.2524 151.198C36.0936 150.996 36.0154 150.741 36.0326 150.484C36.0499 150.227 36.1614 149.986 36.3459 149.806C36.74 149.522 37.4748 149.599 37.6819 150.029" fill="#E0E0E0"/>
<path d="M36.4032 158.824L37.5121 157.244L18.0533 144.572C18.0533 144.572 16.9043 144.341 16.5703 145.05L36.4032 158.824Z" fill="#E0E0E0"/>
<path d="M30.6574 146.226C30.594 146.326 31.0449 146.707 31.3054 147.348C31.5659 147.989 31.5358 148.574 31.6394 148.597C31.7429 148.621 32.0001 147.963 31.6728 147.188C31.3455 146.413 30.6975 146.122 30.6574 146.226Z" fill="#263238"/>
<path d="M27.9794 145.638C27.8925 145.718 28.1965 146.176 28.2399 146.814C28.2833 147.452 28.0796 147.949 28.1764 148.013C28.2733 148.076 28.7209 147.572 28.6507 146.777C28.5806 145.982 28.0462 145.548 27.9794 145.638Z" fill="#263238"/>
<path d="M25.0681 147.308C25.1415 147.388 25.6125 147.001 25.7361 146.306C25.8596 145.611 25.549 145.077 25.4522 145.13C25.3553 145.184 25.4522 145.658 25.3319 146.236C25.2117 146.814 24.9779 147.231 25.0681 147.308Z" fill="#263238"/>
<path d="M32.4578 144.011C32.4344 144.128 32.9721 144.302 33.4932 144.719C34.0142 145.137 34.3215 145.608 34.4317 145.557C34.5419 145.507 34.3682 144.889 33.7637 144.395C33.1592 143.901 32.4611 143.901 32.4578 144.011Z" fill="#263238"/>
<path d="M33.8549 141.924C33.8282 141.964 34.1688 142.288 34.8569 142.608C35.2587 142.794 35.6815 142.929 36.1161 143.013C36.3741 143.062 36.6353 143.093 36.8976 143.106C37.0517 143.121 37.2072 143.112 37.3585 143.079C37.4701 143.055 37.5704 142.994 37.6436 142.906C37.7167 142.819 37.7586 142.709 37.7627 142.595C37.7592 142.494 37.7331 142.396 37.6863 142.307C37.6394 142.218 37.5731 142.141 37.4921 142.081C37.3676 141.991 37.2302 141.922 37.0847 141.874C36.8368 141.778 36.5808 141.706 36.3198 141.657C35.8794 141.572 35.4282 141.56 34.9838 141.62C34.229 141.727 33.8215 141.977 33.8415 142.021C33.8616 142.064 34.2958 141.934 35.0105 141.907C35.4246 141.896 35.8385 141.935 36.243 142.024C36.4786 142.08 36.7097 142.154 36.9344 142.244C37.1815 142.338 37.3619 142.458 37.3519 142.578C37.3519 142.625 37.3519 142.642 37.2517 142.672C37.1419 142.695 37.0294 142.701 36.9177 142.692C36.6717 142.682 36.4265 142.66 36.1829 142.625C35.7688 142.565 35.3616 142.464 34.9671 142.325C34.2724 142.104 33.8916 141.87 33.8549 141.924Z" fill="#263238"/>
<path d="M33.8854 142.151C33.9088 142.188 34.343 141.974 34.8139 141.373C35.0877 141.017 35.2979 140.617 35.4351 140.19C35.5168 139.937 35.5727 139.676 35.6021 139.412C35.6398 139.244 35.6335 139.069 35.5837 138.904C35.534 138.739 35.4426 138.589 35.3182 138.47C35.2275 138.412 35.122 138.381 35.0143 138.381C34.9066 138.381 34.8011 138.412 34.7104 138.47C34.578 138.55 34.4577 138.647 34.353 138.761C34.1654 138.959 34.0089 139.184 33.8887 139.429C33.683 139.843 33.5832 140.302 33.5981 140.765C33.6282 141.546 33.9522 141.944 33.9856 141.917C34.019 141.89 33.842 141.469 33.8887 140.768C33.9158 140.365 34.0298 139.974 34.2227 139.619C34.3339 139.407 34.4744 139.211 34.6402 139.038C34.8206 138.848 35.0176 138.734 35.0811 138.808C35.1413 138.888 35.1832 138.98 35.204 139.078C35.2248 139.176 35.2239 139.278 35.2013 139.375C35.1792 139.616 35.1368 139.854 35.0744 140.087C34.9619 140.482 34.7944 140.86 34.5768 141.209C34.1993 141.807 33.842 142.097 33.8854 142.151Z" fill="#263238"/>
<path d="M39.7264 145.744L32.9929 156.212C32.9929 156.212 20.0872 152.872 18.6543 154.695L38.4839 168.486L49.6361 152.605L39.7264 145.744Z" fill="#069550"/>
<path d="M39.7201 159.619C39.8673 159.811 39.9403 160.049 39.9255 160.29C39.9108 160.531 39.8094 160.759 39.64 160.931C39.4549 161.09 39.2161 161.171 38.973 161.157C38.7299 161.144 38.5011 161.038 38.334 160.861C38.0201 160.494 38.0368 159.752 38.4309 159.472C38.825 159.191 39.5565 159.261 39.7669 159.692" fill="#E0E0E0"/>
<path d="M38.4839 168.487L39.5928 166.907L20.1373 154.235C20.1373 154.235 18.9883 154.005 18.6543 154.696L38.4839 168.487Z" fill="#E0E0E0"/>
<path d="M32.7394 155.888C32.6759 155.988 33.1302 156.369 33.4074 157.01C33.6846 157.652 33.6379 158.236 33.7414 158.259C33.8449 158.283 34.1021 157.625 33.7748 156.853C33.4475 156.082 32.7828 155.785 32.7394 155.888Z" fill="#263238"/>
<path d="M30.0603 155.303C29.9735 155.38 30.2807 155.838 30.3242 156.476C30.3676 157.114 30.1605 157.611 30.2607 157.675C30.3609 157.738 30.8018 157.234 30.7316 156.442C30.6615 155.651 30.1271 155.21 30.0603 155.303Z" fill="#263238"/>
<path d="M27.1511 156.969C27.2246 157.053 27.6955 156.662 27.8191 155.967C27.9427 155.273 27.632 154.738 27.5352 154.792C27.4383 154.845 27.5352 155.323 27.4149 155.897C27.2947 156.472 27.0609 156.893 27.1511 156.969Z" fill="#263238"/>
<path d="M34.5396 153.674C34.5196 153.791 35.0573 153.964 35.5783 154.382C36.0994 154.799 36.4067 155.27 36.5135 155.224C36.6204 155.177 36.4534 154.556 35.8455 154.061C35.2377 153.567 34.5463 153.564 34.5396 153.674Z" fill="#263238"/>
<path d="M35.9428 151.586C35.9127 151.627 36.2534 151.95 36.9448 152.271C37.347 152.458 37.7712 152.594 38.2073 152.675C38.4642 152.724 38.7242 152.756 38.9855 152.769C39.1405 152.785 39.2972 152.777 39.4498 152.745C39.561 152.721 39.6608 152.66 39.7335 152.572C39.8061 152.484 39.8473 152.375 39.8506 152.261C39.85 152.16 39.8251 152.06 39.778 151.969C39.731 151.879 39.6631 151.802 39.58 151.743C39.4559 151.654 39.3184 151.584 39.1726 151.536C38.5055 151.278 37.7844 151.191 37.075 151.282C36.3202 151.389 35.9094 151.64 35.9294 151.683C35.9495 151.727 36.387 151.596 37.0984 151.573C37.5126 151.558 37.9269 151.598 38.3309 151.69C38.5684 151.743 38.8009 151.817 39.0256 151.91C39.2728 152.001 39.4531 152.124 39.4398 152.244C39.4398 152.295 39.4398 152.308 39.3429 152.341C39.2327 152.361 39.1205 152.366 39.0089 152.358C38.7639 152.352 38.5195 152.329 38.2774 152.291C37.8636 152.231 37.4565 152.132 37.0617 151.994C36.367 151.767 35.9728 151.533 35.9428 151.586Z" fill="#263238"/>
<path d="M35.9683 151.813C35.9917 151.85 36.4259 151.636 36.8968 151.035C37.1681 150.678 37.378 150.278 37.518 149.852C37.5986 149.599 37.6534 149.338 37.6817 149.074C37.7194 148.906 37.713 148.731 37.6633 148.566C37.6136 148.401 37.5221 148.252 37.3978 148.132C37.307 148.074 37.2016 148.043 37.0939 148.043C36.9862 148.043 36.8807 148.074 36.7899 148.132C36.6583 148.213 36.5391 148.312 36.4359 148.426C36.2468 148.624 36.0891 148.849 35.9683 149.094C35.7654 149.504 35.6667 149.957 35.681 150.413C35.7111 151.198 36.0351 151.593 36.0651 151.566C36.0952 151.539 35.9249 151.118 35.9716 150.42C35.9983 150.016 36.1122 149.623 36.3056 149.268C36.4173 149.062 36.5579 148.873 36.7231 148.707C36.9001 148.516 37.0972 148.403 37.1607 148.48C37.2208 148.559 37.2629 148.651 37.2843 148.748C37.3056 148.846 37.3056 148.947 37.2842 149.044C37.261 149.284 37.2175 149.522 37.154 149.756C37.0444 150.152 36.8767 150.53 36.6563 150.878C36.2756 151.469 35.9416 151.76 35.9683 151.813Z" fill="#263238"/>
<path d="M36.8848 147.865C36.8848 147.865 42.683 136.983 41.8948 138.069C39.7538 141.025 52.3356 123.096 58.0437 113.914C58.9507 112.455 60.176 111.221 61.6279 110.303C63.0797 109.385 64.7204 108.807 66.4271 108.614C68.1527 108.418 69.9003 108.62 71.5358 109.204C73.1713 109.788 74.6514 110.739 75.8626 111.984L108.321 145.283L123.414 154.068C123.414 154.068 119.7 161.99 107.716 163.653C95.7322 165.317 88.3775 155.621 82.3321 149.445C75.2146 142.17 68.087 132.394 68.087 132.394L49.1726 157.357C49.1726 157.357 37.4893 148.577 36.8848 147.865Z" fill="#263238"/>
<path d="M60.1572 110.588C55.7337 111.651 51.8383 114.265 49.1786 117.956L32.502 140.872L40.5413 146.386L60.1572 110.588Z" fill="#263238"/>
<path d="M57.3716 113.187C57.3716 113.187 57.3716 113.22 57.3115 113.273L57.1144 113.504L56.7804 113.881C56.6535 114.028 56.5266 114.215 56.3729 114.419C55.7483 115.227 54.9467 116.466 53.9681 118.006C52.0409 121.102 49.5159 125.461 46.7871 130.311L39.8099 142.742C38.9147 144.322 38.19 145.605 37.6789 146.503L37.0911 147.505C37.0243 147.612 36.9742 147.699 36.9341 147.766C36.894 147.832 36.8773 147.856 36.874 147.852C36.8707 147.849 36.874 147.819 36.9174 147.759L37.061 147.488L37.6188 146.456L39.703 142.669C41.4665 139.476 43.898 135.064 46.6335 130.214C49.3689 125.364 51.9107 121.009 53.8646 117.926C54.8666 116.396 55.6782 115.164 56.3161 114.366C56.4765 114.165 56.6067 113.981 56.7403 113.834L57.0743 113.467L57.2847 113.247L57.3716 113.187Z" fill="#455A64"/>
<path d="M67.6391 126.309C67.6683 126.614 67.675 126.921 67.6592 127.228C67.6592 127.795 67.6926 128.564 67.7894 129.435C67.8735 130.168 67.9962 130.896 68.1568 131.616C68.2375 131.913 68.2989 132.214 68.3405 132.518C68.2058 132.24 68.1038 131.948 68.0366 131.646C67.6436 130.208 67.4746 128.718 67.5356 127.228C67.5313 126.918 67.5661 126.61 67.6391 126.309Z" fill="#455A64"/>
<path d="M69.853 125.607C69.7798 125.938 69.6861 126.264 69.5725 126.583C69.3888 127.181 69.155 128.012 68.9512 128.944C68.7475 129.876 68.6172 130.728 68.5304 131.349C68.5005 131.686 68.4503 132.02 68.3801 132.351C68.3529 132.011 68.363 131.67 68.4101 131.332C68.5598 129.699 68.9109 128.09 69.4556 126.543C69.5543 126.218 69.6876 125.904 69.853 125.607Z" fill="#455A64"/>
<path d="M91.7674 69.0616L100.451 89.3521C100.801 90.1702 100.982 91.0508 100.981 91.9407C100.981 92.8306 100.799 93.711 100.448 94.5287C100.097 95.3464 99.5837 96.0842 98.9389 96.6975C98.2941 97.3107 97.5314 97.7866 96.6972 98.0962C95.1158 98.6789 93.371 98.6319 91.8233 97.9649C90.2755 97.298 89.0431 96.062 88.3806 94.5124C87.7293 92.986 87.1815 91.7134 87.1047 91.5598C87.1047 91.5598 81.7306 93.2866 79.1689 88.3334C77.9297 85.9386 75.7821 80.8017 73.8917 76.129C72.9135 73.7092 72.8824 71.0098 73.8046 68.5681C74.7268 66.1265 76.5346 64.1216 78.8683 62.9527L79.3492 62.7122C84.6865 60.4143 89.6197 63.6641 91.7674 69.0616Z" fill="#FFBE9D"/>
<path d="M87.0449 91.4931C89.3677 90.3815 91.307 88.6037 92.616 86.3862C92.616 86.3862 92.8799 90.7282 87.6829 92.789L87.0449 91.4931Z" fill="#EB996E"/>
<path d="M76.9646 79.1947C77.0077 79.2909 77.0697 79.3775 77.1468 79.4494C77.2238 79.5213 77.3145 79.5771 77.4134 79.6135C77.5124 79.6499 77.6176 79.6662 77.7229 79.6614C77.8282 79.6566 77.9315 79.6308 78.0267 79.5855C78.1201 79.5475 78.205 79.4913 78.2764 79.42C78.3478 79.3488 78.4043 79.2641 78.4426 79.1708C78.4808 79.0775 78.5001 78.9775 78.4992 78.8766C78.4984 78.7758 78.4774 78.6761 78.4375 78.5835C78.3465 78.3971 78.1863 78.2536 77.9909 78.1837C77.7956 78.1138 77.5807 78.123 77.3921 78.2094C77.2992 78.2459 77.2145 78.3004 77.1427 78.3697C77.0709 78.439 77.0135 78.5218 76.9738 78.6133C76.9341 78.7048 76.9128 78.8033 76.9112 78.9031C76.9096 79.0029 76.9278 79.102 76.9646 79.1947Z" fill="#263238"/>
<path d="M75.9724 78.2492C76.106 78.2959 76.4467 77.6279 77.2149 77.2472C77.9831 76.8664 78.7346 76.9666 78.768 76.833C78.7881 76.7696 78.6144 76.6493 78.2804 76.5925C77.8342 76.5292 77.3793 76.605 76.9778 76.8096C76.5799 77.0096 76.255 77.3298 76.0493 77.7248C75.9023 78.0154 75.909 78.2225 75.9724 78.2492Z" fill="#263238"/>
<path d="M84.4621 75.5577C84.5525 75.7447 84.7127 75.8888 84.9083 75.9588C85.1038 76.0287 85.3191 76.019 85.5075 75.9318C85.601 75.8938 85.6859 75.8375 85.7573 75.7663C85.8287 75.6951 85.8852 75.6104 85.9234 75.5171C85.9617 75.4238 85.9809 75.3237 85.9801 75.2229C85.9792 75.1221 85.9582 75.0224 85.9184 74.9298C85.828 74.7427 85.6678 74.5987 85.4722 74.5287C85.2767 74.4587 85.0614 74.4684 84.873 74.5557C84.7795 74.5937 84.6946 74.6499 84.6232 74.7211C84.5518 74.7923 84.4953 74.8771 84.4571 74.9704C84.4188 75.0637 84.3995 75.1637 84.4004 75.2646C84.4013 75.3654 84.4223 75.4651 84.4621 75.5577Z" fill="#263238"/>
<path d="M83.7237 74.472C83.8506 74.5354 84.2748 73.9175 85.0864 73.637C85.8981 73.3564 86.6295 73.5568 86.683 73.4265C86.7097 73.3698 86.556 73.2228 86.2287 73.1259C85.7947 73.0044 85.3337 73.0208 84.9094 73.1727C84.4878 73.3175 84.1229 73.5923 83.8673 73.9576C83.7037 74.2415 83.6636 74.4419 83.7237 74.472Z" fill="#263238"/>
<path d="M83.8572 81.4795C83.8405 81.4328 83.3228 81.5897 82.5012 81.8803C82.2941 81.9571 82.0903 82.0106 81.9901 81.8803C81.8727 81.6866 81.8168 81.4618 81.8298 81.2357C81.7764 80.6712 81.7196 80.0767 81.6628 79.4555C81.4023 76.9338 81.1084 74.8964 80.9948 74.9097C80.8813 74.9231 81.0215 76.9739 81.2821 79.4989C81.3489 80.1168 81.4157 80.708 81.4791 81.2724C81.4741 81.5712 81.5746 81.8621 81.763 82.0941C81.8261 82.1484 81.9006 82.1877 81.981 82.2091C82.0614 82.2305 82.1456 82.2334 82.2273 82.2177C82.3498 82.1924 82.4688 82.152 82.5813 82.0974C83.3929 81.7634 83.8772 81.5229 83.8572 81.4795Z" fill="#263238"/>
<path d="M86.669 71.4795C86.5487 71.2624 85.7238 71.5129 84.7117 71.5563C83.6997 71.5997 82.8514 71.4594 82.7545 71.6865C82.7111 71.7968 82.8881 71.9905 83.2488 72.1575C83.725 72.3606 84.2414 72.452 84.7583 72.4248C85.2753 72.3976 85.7792 72.2524 86.2314 72.0005C86.5721 71.7934 86.7258 71.5696 86.669 71.4795Z" fill="#263238"/>
<path d="M77.1044 75.4505C76.8739 75.3704 76.4932 75.8647 75.9053 76.2655C75.3175 76.6663 74.7397 76.88 74.7363 77.1272C74.7363 77.2441 74.9267 77.3543 75.2473 77.361C75.6623 77.3527 76.0655 77.2213 76.4057 76.9834C76.7458 76.7456 77.0076 76.412 77.1578 76.025C77.2547 75.7044 77.2146 75.4939 77.1044 75.4505Z" fill="#263238"/>
<path d="M93.2119 72.9555C93.2787 72.8753 96.1277 70.2233 97.7276 73.6869C99.3275 77.1505 95.5232 78.0289 95.4731 77.9454C95.423 77.8619 93.2119 72.9555 93.2119 72.9555Z" fill="#FFBE9D"/>
<path d="M95.9245 76.1452C95.9245 76.1251 96.0046 76.1452 96.1282 76.1452C96.2997 76.1392 96.4624 76.0675 96.5824 75.9448C96.8864 75.6408 96.9164 74.9194 96.6526 74.2748C96.5247 73.9738 96.3307 73.7055 96.0848 73.4899C96.0029 73.3959 95.8991 73.3236 95.7826 73.2793C95.6661 73.235 95.5404 73.2202 95.4168 73.236C95.3384 73.2496 95.2673 73.2906 95.2165 73.3519C95.1657 73.4131 95.1384 73.4905 95.1396 73.57C95.1396 73.6869 95.1897 73.7471 95.1763 73.7604C95.1629 73.7738 95.0728 73.737 95.036 73.5801C95.0152 73.4851 95.0282 73.3859 95.0728 73.2995C95.1349 73.1848 95.239 73.0986 95.3633 73.059C95.5184 73.021 95.6806 73.0235 95.8344 73.0662C95.9882 73.1089 96.1285 73.1904 96.2418 73.3028C96.5322 73.5333 96.7615 73.8315 96.9098 74.1712C97.2104 74.8793 97.1569 75.6976 96.7227 76.075C96.6424 76.1454 96.5472 76.1966 96.4442 76.225C96.3413 76.2533 96.2332 76.258 96.1282 76.2387C95.9679 76.2253 95.9144 76.1552 95.9245 76.1452Z" fill="#EB996E"/>
<path d="M95.0593 71.9035C94.4781 72.0371 93.8202 72.969 93.8402 73.5735C93.8602 74.1781 94.0907 74.7459 94.1141 75.3437C94.1375 75.9416 93.8602 76.633 93.2791 76.7699C93.0746 76.8031 92.8649 76.7817 92.6714 76.7078C92.4778 76.6339 92.3072 76.5101 92.1769 76.3491C91.9212 76.0246 91.7306 75.6537 91.6158 75.2569C91.0179 73.5635 90.5603 71.8167 89.8222 70.1834C89.084 68.5502 88.0186 66.9971 86.4822 66.0552C84.9458 65.1133 82.905 64.8829 81.372 65.8147C80.37 66.4293 79.6619 67.468 78.6833 68.1527C78.0983 68.5494 77.4306 68.8076 76.731 68.9078C76.0313 69.0079 75.318 68.9473 74.6452 68.7305C74.5985 68.7305 74.5183 68.7005 74.4181 68.6838C74.1964 68.6486 73.9924 68.5417 73.8373 68.3794C73.6823 68.2171 73.5847 68.0084 73.5597 67.7853C73.5387 67.6419 73.5512 67.4955 73.5965 67.3578C74.7154 64.3819 78.2057 61.9537 81.3085 61.2656C84.4114 60.5776 87.9885 61.2256 90.4568 63.2162C92.925 65.2068 94.3913 68.9476 95.0593 71.9035Z" fill="#263238"/>
<path d="M86.6834 82.4277C86.6834 82.4778 86.4963 82.4778 86.2358 82.5213C85.9036 82.5785 85.5886 82.7098 85.314 82.9054C85.035 83.1012 84.7959 83.3483 84.6092 83.6335C84.4589 83.8539 84.3888 84.0142 84.3387 84.0009C84.2886 83.9875 84.2819 83.8038 84.3888 83.5233C84.5359 83.1567 84.788 82.8418 85.1136 82.6181C85.4369 82.3888 85.8263 82.2715 86.2224 82.2841C86.5264 82.2941 86.69 82.3843 86.6834 82.4277Z" fill="#263238"/>
<path d="M87.2914 75.0435C87.2574 75.3452 87.1151 75.6242 86.8909 75.8288C86.6666 76.0334 86.3757 76.1495 86.0723 76.1557C86.3164 76.0197 86.5508 75.8668 86.7737 75.6982C87.1143 75.3942 87.2413 75.0268 87.2914 75.0435Z" fill="#EB996E"/>
<path d="M59.5195 81.2122L64.7901 71.5697L69.1321 68.0693L74.7366 68.8409C74.7366 68.8409 76.3465 70.6745 75.7386 71.583C75.1307 72.4915 74.5562 74.7727 73.925 73.9411C73.2937 73.1094 73.1634 71.3526 73.1634 71.3526L71.6838 71.2724V73.8843L74.6631 74.7894C74.6631 74.7894 77.609 72.3379 77.9062 72.8756C78.2035 73.4133 77.943 74.4087 76.2563 75.8348C74.5696 77.261 72.5322 79.4621 72.5322 79.4621L69.8802 80.09L67.4988 83.8909L59.5195 81.2122Z" fill="#FFBE9D"/>
<path d="M89.295 93.6142L61.6197 102.028L68.0993 83.5541L59.3218 80.7886L49.3185 101.296C46.3125 108.394 47.1208 111.53 49.9264 114.609C52.1809 117.084 58.1027 115.875 61.3926 115.277L85.6043 111.503L89.295 93.6142Z" fill="#069550"/>
<path opacity="0.4" d="M89.295 93.6142L61.6197 102.028L68.0993 83.5541L59.3218 80.7886L49.3185 101.296C46.3125 108.394 47.1208 111.53 49.9264 114.609C52.1809 117.084 58.1027 115.875 61.3926 115.277L85.5208 111.517L89.295 93.6142Z" fill="black"/>
<path d="M56.5429 91.8171C56.1285 91.8585 55.7105 91.8427 55.3004 91.7704C54.8826 91.7534 54.469 91.6793 54.0713 91.5499C54.4863 91.5133 54.9043 91.5335 55.3138 91.61C55.7313 91.6201 56.1452 91.6898 56.5429 91.8171Z" fill="#FAFAFA"/>
<path d="M56.9846 90.8413C56.2063 90.7376 55.4477 90.5192 54.7334 90.1934C55.1263 90.2156 55.5136 90.2967 55.8824 90.4338C56.2683 90.5131 56.6399 90.6505 56.9846 90.8413Z" fill="#FAFAFA"/>
<path d="M84.1079 109.161C84.1079 109.161 95.2702 127.164 95.1967 129.849C95.1232 132.535 100.357 138.393 102.668 140.704C104.98 143.016 118.33 154.064 123.413 154.064C123.413 154.064 129.969 144.619 129.505 139.075C129.041 133.53 118.747 104.302 118.747 104.302C118.747 104.302 110.754 87.535 103.383 85.8951C101.513 85.4809 98.52 84.8296 98.52 84.8296C98.52 84.9765 98.9509 88.6339 95.2401 90.895C90.0398 94.0614 83.8574 96.3559 83.8574 96.3559L84.1079 109.161Z" fill="#069550"/>
<path d="M97.0876 91.2226L80.3876 96.0422L65.8219 99.0816L72.3015 80.6081L63.0229 77.709L53.5206 98.3802C50.5146 105.478 51.3229 108.614 54.1285 111.693C56.383 114.168 62.3015 112.959 65.5947 112.345L94.0315 109.689L97.0876 91.2226Z" fill="#069550"/>
<path d="M63.7373 77.8593L68.7807 68.6409L73.1227 65.1406L78.7272 65.9122C78.7272 65.9122 80.3371 67.7458 79.7292 68.6543C79.1213 69.5628 78.5469 71.844 77.9156 71.0123C77.2843 70.1807 77.1541 68.4238 77.1541 68.4238L75.6745 68.3437V70.9556L78.6537 71.8607C78.6537 71.8607 81.5996 69.4091 81.8969 69.9469C82.1941 70.4846 81.9336 71.4799 80.2503 72.9061C78.5669 74.3323 76.5228 76.5334 76.5228 76.5334L73.8709 77.1613L71.8101 80.4545L63.7373 77.8593Z" fill="#FFBE9D"/>
<path d="M71.8108 80.4541C71.8108 80.4541 71.8108 80.434 71.8409 80.3973L71.9377 80.2303L72.3285 79.5857L73.8348 77.1375H73.8515L76.5002 76.4995L76.4734 76.5162C77.7532 75.1217 79.1114 73.8014 80.5416 72.5617C80.947 72.2025 81.302 71.7901 81.597 71.3359C81.7479 71.1056 81.8523 70.848 81.9043 70.5777C81.9308 70.4465 81.9308 70.3114 81.9043 70.1802C81.8895 70.1182 81.8659 70.0586 81.8341 70.0032C81.8341 69.9765 81.774 69.9598 81.7106 69.9698C81.4342 70.0366 81.1711 70.1495 80.9323 70.3038C80.6818 70.4575 80.4313 70.6378 80.1842 70.8015C79.6899 71.1522 79.1989 71.5329 78.7146 71.9337L78.6812 71.9605H78.6378L75.6585 71.0587L75.5984 71.0386V70.9785C75.5984 70.1502 75.5984 69.2651 75.5984 68.37V68.2764H75.6919L77.1715 68.3533H77.245V68.4301C77.2984 69.1552 77.4652 69.8675 77.7393 70.541C77.798 70.6735 77.8696 70.7999 77.9531 70.9184C78.0299 71.0386 78.1301 71.1321 78.2236 71.1154C78.342 71.07 78.4411 70.985 78.5042 70.875C78.5877 70.7582 78.6625 70.6354 78.7279 70.5076C78.9985 69.9865 79.2056 69.4354 79.4861 68.9144C79.5195 68.8509 79.5563 68.7841 79.5963 68.7207C79.6366 68.6634 79.6724 68.6031 79.7032 68.5403C79.7032 68.5102 79.7333 68.4835 79.7466 68.4535L79.7667 68.3599C79.7834 68.2957 79.7902 68.2292 79.7867 68.1629C79.7744 67.8881 79.7062 67.6188 79.5863 67.3713C79.3502 66.8686 79.0456 66.401 78.6812 65.9819L78.7346 66.0086L73.1134 65.2237H73.1735L68.8315 68.714L68.8482 68.6939L65.1408 75.414L64.1154 77.2477L63.8449 77.7253C63.8154 77.7793 63.7831 77.8317 63.748 77.8823C63.748 77.8823 63.7714 77.8255 63.8282 77.7153C63.885 77.6051 63.9752 77.4381 64.082 77.2276L65.084 75.3773C65.9558 73.7707 67.2083 71.4628 68.7413 68.6305L73.0833 65.1235L73.1101 65.1001H73.1435L78.748 65.865H78.778L78.7981 65.8883C79.1738 66.321 79.4885 66.8031 79.7333 67.3212C79.8623 67.5909 79.9351 67.8841 79.947 68.1829C79.9508 68.2605 79.943 68.3382 79.9237 68.4134L79.8969 68.5303C79.8823 68.5668 79.8655 68.6025 79.8468 68.6372C79.8142 68.7046 79.7762 68.7694 79.7333 68.8309C79.6965 68.891 79.6598 68.9545 79.6264 69.0179C79.3559 69.5223 79.1488 70.0734 78.8716 70.6078C78.8027 70.7439 78.7234 70.8746 78.6344 70.9985C78.547 71.1488 78.4044 71.259 78.237 71.3058C78.1883 71.312 78.1388 71.3081 78.0917 71.2943C78.0446 71.2805 78.0008 71.2571 77.9631 71.2257C77.8996 71.1717 77.8445 71.1087 77.7994 71.0386C77.7109 70.9115 77.6348 70.7762 77.5723 70.6345C77.2898 69.9419 77.1174 69.2094 77.0613 68.4635L77.1448 68.5436L75.6652 68.4635L75.7553 68.3766C75.7553 69.2751 75.7553 70.1602 75.7553 70.9852L75.6952 70.905L78.6712 71.8135L78.5977 71.8302C79.0853 71.4294 79.5796 71.0486 80.0773 70.6946C80.3278 70.5176 80.5816 70.3606 80.8388 70.1936C81.0957 70.0234 81.3806 69.9002 81.6805 69.8295C81.7308 69.8198 81.7828 69.8243 81.8306 69.8426C81.8784 69.8609 81.9201 69.8923 81.951 69.9331C81.9921 70.0027 82.0225 70.0782 82.0412 70.1569C82.0767 70.3068 82.0824 70.4623 82.0579 70.6144C82.0007 70.9042 81.8872 71.1799 81.7239 71.4261C81.4211 71.8913 81.0559 72.3127 80.6384 72.6786C79.2098 73.9034 77.8495 75.2057 76.5636 76.5797L73.9083 77.1976L73.9384 77.1775L72.392 79.6024C72.2183 79.8763 72.0813 80.0867 71.9845 80.2336L71.8776 80.394L71.8108 80.4541Z" fill="#EB996E"/>
<path d="M95.5548 113.884C95.4134 113.803 95.2783 113.711 95.1507 113.61C95.0271 113.513 94.8735 113.403 94.6864 113.276C94.4994 113.149 94.299 113.006 94.0552 112.865C93.499 112.526 92.921 112.224 92.3251 111.96C91.5919 111.645 90.8361 111.386 90.0639 111.185C88.6536 110.838 87.2076 110.656 85.7553 110.644C85.1975 110.644 84.7533 110.644 84.4193 110.644C84.257 110.656 84.094 110.656 83.9316 110.644C84.0903 110.605 84.2526 110.583 84.4159 110.577C84.7266 110.544 85.1808 110.521 85.7519 110.511C87.2148 110.486 88.6745 110.654 90.0939 111.008C90.8758 111.211 91.6399 111.477 92.3785 111.803C92.9774 112.077 93.5556 112.394 94.1086 112.752C94.3491 112.899 94.5495 113.056 94.7299 113.186C94.8865 113.296 95.037 113.414 95.1808 113.54C95.3171 113.641 95.4425 113.757 95.5548 113.884Z" fill="#263238"/>
<path d="M93.724 92.0942C93.5625 92.1694 93.3949 92.2308 93.223 92.2779L91.8403 92.7155C90.6679 93.0795 89.048 93.5705 87.2545 94.1016C85.4609 94.6326 83.8343 95.1036 82.6553 95.4376L81.2525 95.8217C81.0832 95.8789 80.9087 95.9192 80.7314 95.9419C80.892 95.8671 81.0584 95.8056 81.2291 95.7582L82.6152 95.3207C83.7842 94.9566 85.4074 94.4656 87.201 93.9346C88.9946 93.4035 90.6245 92.9326 91.8035 92.5986L93.2063 92.2111C93.3748 92.156 93.5482 92.1168 93.724 92.0942Z" fill="#263238"/>
<path d="M120.057 140.039C120.005 140.114 119.946 140.182 119.88 140.243C119.816 140.307 119.743 140.39 119.646 140.477L119.312 140.771C118.549 141.357 117.672 141.775 116.737 142C115.349 142.332 113.903 142.341 112.512 142.027C110.82 141.607 109.222 140.876 107.799 139.869C106.38 138.87 105.026 137.782 103.744 136.613C102.548 135.557 101.466 134.609 100.508 133.894C99.7536 133.316 98.9626 132.788 98.1395 132.314C97.8489 132.15 97.6185 132.027 97.4715 131.947C97.3888 131.909 97.3095 131.864 97.2344 131.813C97.3212 131.839 97.4051 131.874 97.4849 131.917C97.6485 131.983 97.8823 132.1 98.1829 132.251C99.0234 132.702 99.8285 133.217 100.591 133.79C101.563 134.505 102.659 135.437 103.861 136.482C105.137 137.638 106.482 138.714 107.889 139.705C109.295 140.698 110.87 141.425 112.538 141.85C113.909 142.163 115.333 142.163 116.703 141.85C117.626 141.638 118.496 141.243 119.262 140.687L119.612 140.41C119.713 140.327 119.786 140.246 119.853 140.19C119.918 140.136 119.986 140.086 120.057 140.039Z" fill="#263238"/>
<path d="M113.727 121.062C113.618 121.089 113.506 121.101 113.393 121.095C113.091 121.104 112.789 121.091 112.488 121.059C112.037 121.015 111.59 120.935 111.152 120.818C110.084 120.537 109.076 120.061 108.179 119.415C107.816 119.151 107.473 118.86 107.154 118.544C106.94 118.334 106.739 118.111 106.553 117.876C106.478 117.793 106.416 117.699 106.369 117.598C106.393 117.578 106.686 117.949 107.241 118.463C107.565 118.764 107.91 119.042 108.273 119.295C108.72 119.599 109.189 119.87 109.676 120.107C110.166 120.334 110.673 120.524 111.192 120.675C111.618 120.794 112.053 120.885 112.491 120.945C113.256 121.039 113.727 121.032 113.727 121.062Z" fill="#263238"/>
<g opacity="0.2">
<path d="M100.993 134.108C102.349 133.55 103.936 133.984 105.168 134.776C106.401 135.567 107.393 136.676 108.508 137.631C109.624 138.587 110.943 139.418 112.409 139.462C114.527 139.528 116.417 137.949 118.548 137.975C119.336 137.975 120.272 138.406 120.315 139.194C120.348 139.802 119.831 140.287 119.313 140.624C117.012 142.14 115.472 143.156 110.445 141.225C106.974 139.311 103.792 136.915 100.993 134.108Z" fill="black"/>
</g>
<path d="M95.4744 129.813C95.431 129.836 93.0529 125.544 90.1638 120.233C87.2747 114.923 84.9601 110.591 85.0035 110.567C85.047 110.544 87.425 114.833 90.3141 120.15C93.2032 125.467 95.5178 129.789 95.4744 129.813Z" fill="#263238"/>
<path d="M79.4451 110.901C79.3529 110.739 79.2747 110.569 79.2113 110.394C79.0677 110.06 78.8773 109.575 78.6568 108.971C77.508 105.811 76.7236 102.529 76.3188 99.1913C76.2454 98.55 76.1953 98.0323 76.1752 97.6715C76.153 97.4865 76.1463 97.2999 76.1552 97.1138C76.199 97.2948 76.2281 97.4791 76.242 97.6649C76.2854 98.0223 76.3522 98.5399 76.4424 99.1745C76.6194 100.447 76.92 102.201 77.3709 104.108C77.8218 106.015 78.3496 107.712 78.7604 108.931C78.9675 109.539 79.1411 110.03 79.2614 110.367C79.3367 110.54 79.3981 110.719 79.4451 110.901Z" fill="#FAFAFA"/>
<path d="M81.3899 110.875C81.3013 110.703 81.2253 110.524 81.1628 110.34C81.0292 110.006 80.8455 109.482 80.6351 108.848C79.5473 105.536 78.838 102.112 78.5208 98.6405C78.4607 97.9725 78.4273 97.4347 78.414 97.0607C78.3972 96.8673 78.3972 96.6728 78.414 96.4795C78.4539 96.6698 78.4785 96.863 78.4874 97.0573C78.5208 97.4281 78.5743 97.9658 78.6511 98.6271C78.7981 99.9631 79.0552 101.777 79.4661 103.771C79.8769 105.765 80.3712 107.538 80.7586 108.811C80.9557 109.449 81.1194 109.963 81.2363 110.317C81.3005 110.499 81.3519 110.686 81.3899 110.875Z" fill="#FAFAFA"/>
<path d="M106.433 117.959C106.381 117.982 106.327 117.999 106.272 118.009L105.805 118.126C105.397 118.223 104.803 118.35 104.071 118.49C100.241 119.214 96.344 119.52 92.448 119.402C91.6999 119.375 91.0953 119.345 90.6778 119.309L90.2002 119.268C90.1439 119.264 90.088 119.256 90.0332 119.242C90.0897 119.233 90.1471 119.233 90.2035 119.242H90.6845C91.0987 119.242 91.7032 119.268 92.448 119.278C93.941 119.295 96.0018 119.278 98.273 119.088C100.544 118.898 102.582 118.62 104.051 118.37C104.786 118.246 105.387 118.14 105.791 118.059L106.266 117.976C106.32 117.962 106.376 117.956 106.433 117.959Z" fill="#FAFAFA"/>
<path d="M120.532 112.351C120.4 112.475 120.257 112.587 120.104 112.685C119.82 112.902 119.4 113.203 118.872 113.56C116.106 115.419 113.099 116.89 109.934 117.932C109.326 118.129 108.832 118.266 108.484 118.366C108.308 118.423 108.127 118.466 107.943 118.493C108.111 118.414 108.285 118.351 108.464 118.303C108.798 118.193 109.293 118.029 109.894 117.815C113.023 116.713 116.014 115.25 118.805 113.457C119.339 113.123 119.77 112.832 120.064 112.632C120.212 112.526 120.369 112.432 120.532 112.351Z" fill="#FAFAFA"/>
<path d="M120.253 109.405L120.187 109.459L119.986 109.609L119.205 110.173L118.633 110.578C118.423 110.721 118.186 110.865 117.935 111.025C117.431 111.339 116.87 111.72 116.209 112.077L115.183 112.652C114.826 112.849 114.438 113.029 114.048 113.23C113.266 113.64 112.398 114.008 111.493 114.409C109.504 115.228 107.462 115.91 105.38 116.449C103.293 116.966 101.173 117.336 99.0344 117.558C98.0324 117.638 97.1072 117.729 96.2254 117.735C95.7846 117.735 95.3604 117.772 94.9529 117.769L93.7739 117.745C93.0257 117.745 92.351 117.678 91.7699 117.642C91.4726 117.622 91.1954 117.605 90.9416 117.582L90.2502 117.495L89.2949 117.371L89.0444 117.334H88.9609H89.0478L89.2983 117.354L90.2569 117.445L90.9482 117.515C91.2021 117.535 91.4793 117.545 91.7766 117.562C92.3677 117.588 93.0424 117.648 93.7806 117.642H94.9529C95.3604 117.642 95.7846 117.612 96.2254 117.598C97.1039 117.598 98.0391 117.488 99.021 117.405C103.291 116.97 107.475 115.912 111.439 114.265C112.344 113.871 113.213 113.51 113.994 113.106C114.385 112.909 114.772 112.735 115.13 112.538L116.159 111.974C116.827 111.64 117.384 111.252 117.895 110.945C118.146 110.791 118.386 110.651 118.6 110.511L119.175 110.12L119.976 109.586L120.187 109.449C120.223 109.415 120.25 109.402 120.253 109.405Z" fill="#FAFAFA"/>
<path d="M69.8866 87.4818C69.8866 87.5286 67.6288 86.9174 64.8766 86.1158C62.1245 85.3142 59.89 84.6295 59.9034 84.5961C59.9167 84.5627 62.1612 85.1605 64.9134 85.9621C67.6655 86.7637 69.9 87.4351 69.8866 87.4818Z" fill="#FAFAFA"/>
<path d="M69.446 88.7374C69.446 88.7842 67.1514 88.1596 64.3525 87.3446C61.5535 86.5297 59.2924 85.8283 59.3057 85.7849C59.3191 85.7414 61.6003 86.3627 64.4026 87.1776C67.2048 87.9926 69.4593 88.694 69.446 88.7374Z" fill="#FAFAFA"/>
<g opacity="0.3">
<path d="M98.2489 119.445C98.1053 116.499 96.1113 113.847 93.5495 112.388C90.9878 110.928 87.9918 110.531 85.0459 110.695L92.5776 123.721C93.442 123.789 94.3117 123.739 95.1628 123.574C96.1108 123.414 96.9681 122.914 97.5742 122.167C98.1025 121.363 98.3405 120.403 98.2489 119.445Z" fill="black"/>
</g>
<path d="M138.343 145.862C138.366 145.794 138.394 145.728 138.426 145.665L138.693 145.097C139.018 144.361 139.279 143.599 139.475 142.819C139.996 140.795 140.176 137.702 139.408 134.028C138.994 132.026 138.45 130.054 137.778 128.123C137.09 126.029 136.289 123.804 135.634 121.403C134.979 119.002 134.475 116.393 134.572 113.674C134.669 110.955 135.48 108.21 136.372 105.495C137.264 102.779 138.179 100.114 138.453 97.4385C138.758 94.8655 138.241 92.2619 136.977 90.0003C135.798 87.8293 134.305 85.9723 133.206 84.0484C132.17 82.2647 131.407 80.3363 130.941 78.327C130.272 75.4161 130.223 72.397 130.798 69.466C131.002 68.3948 131.312 67.3464 131.723 66.3364C131.71 66.407 131.691 66.4763 131.666 66.5435C131.623 66.6938 131.559 66.8775 131.479 67.1447C131.248 67.9137 131.056 68.6941 130.904 69.4827C130.376 72.4009 130.453 75.3966 131.132 78.2836C131.609 80.2671 132.376 82.1691 133.409 83.9282C134.515 85.8287 136.005 87.6757 137.207 89.8734C138.503 92.1788 139.036 94.8351 138.73 97.4619C138.453 100.184 137.528 102.859 136.639 105.578C135.751 108.297 134.949 110.992 134.849 113.681C134.749 116.37 135.246 118.945 135.884 121.33C136.522 123.714 137.321 125.945 138.002 128.05C138.667 129.991 139.203 131.975 139.605 133.988C140.35 137.689 140.14 140.812 139.582 142.842C139.373 143.625 139.092 144.386 138.743 145.117L138.45 145.675C138.419 145.74 138.384 145.803 138.343 145.862Z" fill="#263238"/>
<path d="M134.712 85.9321C134.712 85.9321 132.461 78.7277 136.502 74.5093C136.534 74.4759 136.575 74.4519 136.619 74.4401C136.664 74.4282 136.711 74.4289 136.755 74.442C136.799 74.4551 136.839 74.4802 136.87 74.5145C136.901 74.5487 136.921 74.5908 136.93 74.6362C137.144 75.8386 137.414 79.4625 134.712 85.9321Z" fill="#069550"/>
<path d="M136.064 76.9141C136.058 77.3634 136.006 77.8109 135.911 78.2501C135.764 79.1652 135.577 80.2541 135.396 81.4264C135.216 82.5987 135.039 83.6876 134.892 84.6027C134.852 85.0476 134.773 85.488 134.655 85.9187C134.614 85.4734 134.628 85.0248 134.695 84.5827C134.768 83.7611 134.915 82.6288 135.119 81.3863C135.323 80.1438 135.54 79.0216 135.714 78.2167C135.78 77.7705 135.898 77.3334 136.064 76.9141Z" fill="#263238"/>
<path d="M137.36 102.936C137.36 102.936 138.736 95.5142 144.281 93.6772C144.325 93.6575 144.374 93.6512 144.421 93.659C144.469 93.6668 144.513 93.6884 144.549 93.721C144.584 93.7537 144.61 93.7961 144.621 93.8429C144.633 93.8897 144.631 93.9389 144.615 93.9845C144.237 95.1368 142.781 98.4668 137.36 102.936Z" fill="#069550"/>
<path d="M142.771 95.5913C142.558 95.9847 142.305 96.3552 142.016 96.6968C141.455 97.435 140.8 98.3034 140.075 99.2653L138.145 101.837C137.903 102.213 137.626 102.564 137.316 102.886C137.493 102.474 137.717 102.083 137.984 101.724C138.435 101.029 139.09 100.097 139.855 99.095C140.62 98.093 141.328 97.2012 141.859 96.5733C142.125 96.2132 142.431 95.8839 142.771 95.5913Z" fill="#263238"/>
<path d="M135.861 121.55C135.861 121.55 135.026 114.051 139.795 110.681C139.833 110.654 139.877 110.638 139.923 110.635C139.969 110.631 140.015 110.64 140.057 110.661C140.098 110.682 140.132 110.715 140.156 110.754C140.18 110.794 140.193 110.839 140.193 110.885C140.176 112.094 139.752 115.701 135.861 121.55Z" fill="#069550"/>
<path d="M138.907 112.953C138.818 113.391 138.683 113.819 138.506 114.229C138.172 115.101 137.808 116.123 137.394 117.235L136.292 120.258C136.171 120.687 136.009 121.103 135.808 121.5C135.855 121.055 135.955 120.616 136.105 120.194C136.332 119.403 136.693 118.317 137.13 117.135C137.568 115.952 137.992 114.897 138.319 114.129C138.472 113.717 138.669 113.323 138.907 112.953Z" fill="#263238"/>
<path d="M140.04 140.277C140.04 140.277 139.482 132.749 144.358 129.552C144.397 129.526 144.442 129.511 144.489 129.509C144.535 129.508 144.582 129.519 144.622 129.542C144.663 129.565 144.696 129.598 144.719 129.639C144.741 129.68 144.752 129.726 144.749 129.773C144.689 130.979 144.135 134.569 140.04 140.277Z" fill="#069550"/>
<path d="M143.389 131.793C143.284 132.228 143.134 132.65 142.941 133.053C142.591 133.911 142.18 134.92 141.722 136.032C141.265 137.144 140.864 138.156 140.513 139.015C140.376 139.439 140.199 139.849 139.985 140.24C140.045 139.797 140.157 139.362 140.319 138.944C140.58 138.159 140.987 137.091 141.455 135.938C141.923 134.786 142.397 133.734 142.751 132.986C142.919 132.566 143.133 132.166 143.389 131.793Z" fill="#263238"/>
<path d="M131.465 79.6166C131.465 79.6166 124.785 76.1229 124.645 70.2846C124.643 70.2383 124.654 70.1924 124.677 70.1521C124.699 70.1117 124.733 70.0784 124.773 70.0559C124.814 70.0334 124.86 70.0226 124.906 70.0247C124.952 70.0267 124.997 70.0415 125.036 70.0675C126.038 70.7555 128.793 73.1236 131.465 79.6166Z" fill="#069550"/>
<path d="M126.045 72.2886C126.355 72.6092 126.634 72.9593 126.877 73.334L128.764 75.9425C129.472 76.9145 130.1 77.7962 130.657 78.5444C130.944 78.8869 131.199 79.2547 131.419 79.6433C131.075 79.3559 130.767 79.0285 130.5 78.668C129.969 78.0334 129.271 77.1316 128.537 76.1095C127.802 75.0875 127.16 74.1423 126.713 73.4375C126.448 73.081 126.224 72.6955 126.045 72.2886Z" fill="#263238"/>
<path d="M138.659 95.087C138.659 95.087 131.769 92.0042 131.284 86.1859C131.28 86.1397 131.288 86.0932 131.308 86.0514C131.329 86.0097 131.36 85.9743 131.399 85.9494C131.438 85.9245 131.484 85.9109 131.53 85.9102C131.576 85.9095 131.622 85.9217 131.662 85.9454C132.694 86.57 135.59 88.7677 138.659 95.087Z" fill="#069550"/>
<path d="M132.801 88.1035C133.134 88.4054 133.435 88.7412 133.699 89.1055C134.287 89.8236 134.975 90.6653 135.74 91.5938L137.787 94.0754C138.096 94.3988 138.372 94.7511 138.612 95.1275C138.252 94.8611 137.925 94.5527 137.637 94.209C137.069 93.6078 136.318 92.7495 135.52 91.7742C134.721 90.7989 134.027 89.8971 133.542 89.2291C133.254 88.883 133.005 88.5054 132.801 88.1035Z" fill="#263238"/>
<path d="M134.695 112.341C134.695 112.341 129.966 106.463 132.184 101.059C132.201 101.016 132.23 100.979 132.267 100.951C132.304 100.924 132.348 100.907 132.393 100.903C132.439 100.899 132.486 100.907 132.527 100.928C132.568 100.948 132.603 100.98 132.628 101.019C133.262 102.044 134.839 105.321 134.695 112.341Z" fill="#069550"/>
<path d="M132.655 103.453C132.809 103.872 132.92 104.305 132.989 104.746C133.186 105.651 133.416 106.716 133.657 107.889L134.351 111.032C134.477 111.459 134.563 111.898 134.609 112.341C134.409 111.94 134.258 111.518 134.158 111.082C133.927 110.287 133.647 109.181 133.383 107.949C133.119 106.716 132.909 105.611 132.778 104.782C132.687 104.346 132.645 103.899 132.655 103.453Z" fill="#263238"/>
<path d="M139.381 132.648C139.381 132.648 132.544 129.452 132.157 123.63C132.154 123.584 132.163 123.538 132.185 123.498C132.206 123.457 132.238 123.423 132.277 123.399C132.316 123.375 132.361 123.363 132.407 123.363C132.453 123.363 132.498 123.376 132.538 123.4C133.56 124.034 136.419 126.279 139.381 132.648Z" fill="#069550"/>
<path d="M133.634 125.568C133.958 125.873 134.253 126.209 134.512 126.57L136.516 129.092L138.52 131.607C138.823 131.936 139.093 132.293 139.328 132.673C138.972 132.399 138.65 132.086 138.367 131.737C137.812 131.129 137.074 130.258 136.292 129.269C135.511 128.28 134.833 127.365 134.355 126.691C134.074 126.345 133.832 125.968 133.634 125.568Z" fill="#263238"/>
<path d="M153.002 102.966C153.007 103.022 153.007 103.078 153.002 103.133C153.002 103.264 153.002 103.421 153.002 103.614C152.981 104.069 152.951 104.68 152.918 105.445C152.831 107.054 152.708 109.296 152.561 111.981C152.07 114.713 150.68 117.739 148.813 120.665C147.44 122.829 146.004 124.8 144.765 126.63C143.64 128.229 142.627 129.903 141.732 131.64C141.147 132.818 140.671 134.048 140.313 135.314C140.193 135.765 140.102 136.116 140.049 136.356C140.027 136.48 139.995 136.602 139.952 136.72C139.952 136.594 139.967 136.469 139.996 136.346C140.029 136.102 140.102 135.745 140.206 135.287C140.523 133.998 140.97 132.745 141.542 131.547C142.418 129.784 143.422 128.088 144.548 126.473C145.777 124.63 147.22 122.659 148.556 120.505C150.416 117.582 151.799 114.6 152.303 111.914C152.491 109.242 152.637 106.994 152.761 105.384C152.825 104.623 152.871 104.012 152.908 103.561L152.958 103.08C152.968 103.04 152.983 103.002 153.002 102.966Z" fill="#263238"/>
<path d="M148.93 120.14C148.93 120.14 151.825 113.17 148.182 108.604C148.153 108.568 148.115 108.54 148.072 108.524C148.029 108.508 147.982 108.504 147.937 108.512C147.892 108.521 147.85 108.542 147.816 108.573C147.782 108.604 147.757 108.643 147.744 108.687C147.42 109.853 146.829 113.437 148.93 120.14Z" fill="#069550"/>
<path d="M148.402 111.036C148.527 111.466 148.604 111.908 148.633 112.355C148.733 113.173 148.85 114.306 148.937 115.561C149.024 116.817 149.07 117.959 149.07 118.788C149.098 119.235 149.071 119.683 148.99 120.124C148.908 119.683 148.867 119.236 148.87 118.788C148.81 117.866 148.736 116.784 148.656 115.578C148.576 114.372 148.496 113.293 148.432 112.368C148.377 111.926 148.367 111.48 148.402 111.036Z" fill="#263238"/>
<g opacity="0.3">
<path d="M148.932 120.141C148.932 120.141 151.827 113.17 148.183 108.604C148.155 108.568 148.117 108.54 148.074 108.524C148.031 108.508 147.984 108.504 147.939 108.513C147.894 108.521 147.852 108.542 147.818 108.573C147.784 108.604 147.759 108.644 147.746 108.688C147.422 109.854 146.831 113.437 148.932 120.141Z" fill="black"/>
</g>
<path d="M139.96 136.938C139.96 136.938 142.281 129.757 138.29 125.498C138.259 125.464 138.218 125.439 138.174 125.426C138.129 125.413 138.082 125.413 138.037 125.426C137.993 125.438 137.952 125.463 137.921 125.497C137.889 125.531 137.868 125.573 137.859 125.618C137.625 126.808 137.321 130.428 139.96 136.938Z" fill="#069550"/>
<path d="M138.695 127.902C138.853 128.321 138.965 128.756 139.029 129.198C139.196 130.007 139.403 131.129 139.594 132.371C139.784 133.614 139.928 134.753 139.988 135.574C140.05 136.017 140.059 136.466 140.015 136.91C139.899 136.479 139.823 136.039 139.787 135.594C139.654 134.676 139.494 133.59 139.313 132.411C139.133 131.232 138.979 130.147 138.832 129.232C138.742 128.794 138.696 128.349 138.695 127.902Z" fill="#263238"/>
<g opacity="0.3">
<path d="M139.958 136.937C139.958 136.937 142.279 129.756 138.288 125.497C138.257 125.463 138.216 125.438 138.172 125.425C138.127 125.412 138.08 125.412 138.035 125.425C137.991 125.437 137.95 125.462 137.919 125.496C137.887 125.53 137.866 125.572 137.857 125.617C137.623 126.807 137.319 130.427 139.958 136.937Z" fill="black"/>
</g>
<path d="M152.618 111.623C152.618 111.623 158.801 107.281 158.176 101.486C158.171 101.441 158.154 101.397 158.127 101.36C158.099 101.324 158.062 101.295 158.019 101.278C157.976 101.261 157.929 101.257 157.884 101.264C157.839 101.272 157.796 101.292 157.762 101.323C156.85 102.134 154.438 104.836 152.618 111.623Z" fill="#069550"/>
<g opacity="0.3">
<path d="M152.618 111.623C152.618 111.623 158.801 107.281 158.176 101.486C158.171 101.441 158.154 101.397 158.127 101.36C158.099 101.324 158.062 101.295 158.019 101.278C157.976 101.261 157.929 101.257 157.884 101.264C157.839 101.272 157.796 101.292 157.762 101.323C156.85 102.134 154.438 104.836 152.618 111.623Z" fill="black"/>
</g>
<path d="M157.056 103.654C156.933 104.085 156.76 104.499 156.542 104.89C156.191 105.638 155.68 106.657 155.079 107.766C154.478 108.875 153.907 109.86 153.463 110.555C153.246 110.947 152.982 111.311 152.678 111.64C152.845 111.227 153.051 110.83 153.292 110.455L154.845 107.642C155.42 106.587 155.938 105.638 156.378 104.813C156.566 104.405 156.793 104.017 157.056 103.654Z" fill="#263238"/>
<path d="M142.453 129.816C142.453 129.816 149.911 128.654 151.909 123.166C151.926 123.123 151.931 123.075 151.923 123.029C151.914 122.983 151.894 122.94 151.862 122.906C151.831 122.871 151.791 122.846 151.746 122.833C151.701 122.82 151.653 122.819 151.608 122.832C150.446 123.166 147.076 124.526 142.453 129.816Z" fill="#069550"/>
<g opacity="0.3">
<path d="M142.454 129.816C142.454 129.816 149.912 128.654 151.91 123.166C151.927 123.123 151.932 123.075 151.924 123.029C151.915 122.983 151.894 122.94 151.863 122.906C151.832 122.871 151.792 122.846 151.747 122.833C151.702 122.82 151.654 122.819 151.609 122.832C150.447 123.166 147.077 124.526 142.454 129.816Z" fill="black"/>
</g>
<path d="M149.949 124.619C149.649 124.95 149.313 125.247 148.947 125.504C148.303 126.019 147.394 126.707 146.369 127.438C145.344 128.17 144.392 128.801 143.697 129.232C143.329 129.488 142.932 129.698 142.515 129.86C142.847 129.562 143.206 129.296 143.587 129.065L146.215 127.208L148.834 125.344C149.18 125.065 149.554 124.823 149.949 124.619Z" fill="#263238"/>
<path d="M133.629 143.541L135.767 157.572L144.31 157.555L147.189 143.541H133.629Z" fill="#455A64"/>
<path d="M145.938 148.954C145.938 148.954 145.915 148.974 145.868 149.004C145.795 149.051 145.719 149.095 145.641 149.134C145.34 149.279 145.017 149.375 144.686 149.418C144.158 149.489 143.621 149.439 143.116 149.271C142.435 149.056 141.842 148.626 141.426 148.045C141.194 147.695 141.058 147.289 141.032 146.87C141.007 146.635 141.049 146.398 141.151 146.185C141.253 145.973 141.411 145.792 141.61 145.664C141.836 145.551 142.09 145.502 142.342 145.523C142.595 145.543 142.837 145.633 143.042 145.781C143.467 146.093 143.758 146.553 143.861 147.07C143.974 147.591 144.01 148.125 143.968 148.657C143.941 149.211 143.828 149.757 143.634 150.276C143.42 150.822 143.076 151.307 142.632 151.689C142.175 152.093 141.597 152.334 140.988 152.374C140.381 152.386 139.785 152.213 139.278 151.88C138.791 151.569 138.36 151.178 138.002 150.724C137.636 150.288 137.411 149.751 137.358 149.184C137.336 148.907 137.38 148.628 137.485 148.37C137.589 148.112 137.753 147.882 137.962 147.698C138.179 147.537 138.437 147.443 138.707 147.426C138.976 147.41 139.244 147.472 139.479 147.604C139.702 147.716 139.897 147.877 140.048 148.076C140.199 148.274 140.303 148.505 140.35 148.75C140.414 149.186 140.345 149.63 140.152 150.026C139.96 150.423 139.653 150.752 139.272 150.971C138.64 151.311 137.909 151.417 137.207 151.268C136.689 151.16 136.192 150.966 135.738 150.694C135.453 150.525 135.178 150.339 134.916 150.136C134.821 150.07 134.733 149.995 134.652 149.912C134.754 149.966 134.851 150.027 134.943 150.096C135.215 150.283 135.495 150.456 135.785 150.614C136.234 150.867 136.723 151.044 137.231 151.138C137.899 151.268 138.592 151.158 139.188 150.828C139.534 150.622 139.811 150.318 139.984 149.955C140.157 149.592 140.218 149.185 140.16 148.787C140.117 148.571 140.025 148.369 139.89 148.195C139.756 148.021 139.583 147.881 139.385 147.785C139.186 147.672 138.959 147.619 138.73 147.633C138.502 147.647 138.282 147.728 138.099 147.865C137.917 148.027 137.776 148.229 137.686 148.455C137.596 148.681 137.56 148.925 137.582 149.168C137.634 149.689 137.844 150.181 138.183 150.58C138.525 151.011 138.937 151.382 139.402 151.676C139.868 151.986 140.418 152.147 140.978 152.137C141.535 152.099 142.063 151.878 142.481 151.509C142.896 151.147 143.215 150.688 143.41 150.173C143.603 149.677 143.715 149.154 143.744 148.623C143.785 148.115 143.754 147.603 143.65 147.103C143.564 146.638 143.306 146.223 142.929 145.938C142.756 145.808 142.55 145.728 142.334 145.707C142.119 145.686 141.902 145.724 141.706 145.818C141.537 145.926 141.4 146.08 141.313 146.262C141.226 146.443 141.191 146.646 141.212 146.846C141.231 147.234 141.353 147.61 141.566 147.935C141.954 148.495 142.513 148.914 143.159 149.131C143.645 149.303 144.163 149.364 144.676 149.311C145.113 149.261 145.539 149.14 145.938 148.954Z" fill="#263238"/>
</g>
<path d="M135.286 54.7665C135.21 53.8666 135.067 52.9736 134.859 52.0949C134.742 51.3946 134.437 50.739 133.977 50.1981C133.435 49.6996 132.735 49.4066 132 49.3699C132.48 49.2001 132.911 48.9159 133.256 48.5417C133.797 47.9062 134.141 47.1261 134.244 46.2976C134.429 45.5466 134.501 44.7722 134.458 44C134.544 45.3736 135.1 46.6757 136.034 47.6868C136.615 48.1567 137.321 48.4448 138.064 48.515C137.315 48.7217 136.663 49.185 136.221 49.824C135.911 50.2931 135.735 50.8383 135.713 51.4003C135.446 53.3505 135.366 54.7665 135.286 54.7665Z" fill="#E3F2FD"/>
<path d="M84.185 31.7686C84.0186 30.378 83.7792 28.9971 83.4679 27.6316C83.2965 26.5426 82.829 25.5217 82.1165 24.6805C81.2676 23.891 80.159 23.4397 79 23.4119C79.7506 23.1208 80.4284 22.6689 80.9858 22.088C81.8321 21.0937 82.3775 19.8786 82.5578 18.5854C82.8277 17.4106 82.9298 16.2035 82.8612 15C82.9894 17.139 83.8571 19.1669 85.3158 20.7366C86.2148 21.4886 87.3207 21.9502 88.4875 22.0604C87.4437 22.2802 86.5028 22.8415 85.8136 23.6556C85.1243 24.4697 84.726 25.4902 84.6814 26.556C84.3781 29.5622 84.2954 31.7686 84.185 31.7686Z" fill="#E3F2FD"/>
<path d="M34.8468 53.4408C34.7234 52.4091 34.5458 51.3846 34.3148 50.3715C34.1876 49.5636 33.8408 48.8062 33.3122 48.1821C32.6824 47.5963 31.8598 47.2615 31 47.2408C31.5569 47.0249 32.0597 46.6897 32.4733 46.2587C33.1012 45.521 33.5058 44.6195 33.6396 43.66C33.8398 42.7884 33.9155 41.8929 33.8646 41C33.9598 42.5869 34.6036 44.0915 35.6858 45.256C36.3527 45.814 37.1732 46.1565 38.0389 46.2382C37.2645 46.4013 36.5664 46.8177 36.0551 47.4217C35.5437 48.0257 35.2482 48.7828 35.2151 49.5735C34.99 51.8038 34.9287 53.4408 34.8468 53.4408Z" fill="#E3F2FD"/>
<defs>
<clipPath id="clip0_5404_202632">
<rect width="168" height="168" fill="white"/>
</clipPath>
</defs>
</svg>
