<svg width="159" height="159" viewBox="0 0 159 159" fill="none" xmlns="http://www.w3.org/2000/svg">
<rect width="158.525" height="158.525" rx="14.1962" fill="#1565C0"/>
<mask id="mask0_4236_16122" style="mask-type:alpha" maskUnits="userSpaceOnUse" x="0" y="0" width="159" height="159">
<rect width="158.525" height="158.525" rx="9.46416" fill="#E3F2FD"/>
</mask>
<g mask="url(#mask0_4236_16122)">
<path d="M0 -26.0271H158.525V53.2352C158.525 97.0106 123.038 132.498 79.2623 132.498C35.4869 132.498 0 97.0106 0 53.2352V-26.0271Z" fill="#2196F3"/>
</g>
<path d="M34.1216 24.3594C34.0385 23.3739 33.8821 22.3959 33.6535 21.4336C33.5254 20.6666 33.1917 19.9487 32.688 19.3562C32.0944 18.8103 31.3284 18.4894 30.5229 18.4492C31.0483 18.2634 31.5204 17.952 31.8981 17.5423C32.4912 16.8463 32.8675 15.9919 32.9806 15.0846C33.1834 14.2621 33.2622 13.4141 33.2146 12.5684C33.3086 14.0727 33.9183 15.4987 34.9409 16.606C35.5766 17.1206 36.3502 17.4362 37.1645 17.513C36.3443 17.7394 35.6297 18.2468 35.1457 18.9466C34.8059 19.4603 34.6136 20.0574 34.5898 20.6729C34.2972 22.8087 34.2094 24.3594 34.1216 24.3594Z" fill="#E3F2FD"/>
<path d="M127.251 30.5227C127.143 29.6294 126.988 28.7422 126.786 27.865C126.674 27.1654 126.371 26.5095 125.909 25.9691C125.358 25.4619 124.639 25.172 123.887 25.1541C124.374 24.9671 124.814 24.6768 125.175 24.3036C125.724 23.6648 126.078 22.8842 126.195 22.0534C126.37 21.2986 126.437 20.5231 126.392 19.75C126.475 21.1242 127.038 22.427 127.985 23.4354C128.568 23.9185 129.285 24.2151 130.043 24.2859C129.365 24.4271 128.755 24.7876 128.308 25.3107C127.86 25.8337 127.602 26.4893 127.573 27.174C127.376 29.1053 127.323 30.5227 127.251 30.5227Z" fill="#E3F2FD"/>
<path d="M78.8817 47.0303C78.7703 46.108 78.6099 45.1922 78.4014 44.2866C78.2866 43.5644 77.9735 42.8873 77.4962 42.3294C76.9276 41.8058 76.185 41.5065 75.4087 41.488C75.9115 41.295 76.3654 40.9953 76.7388 40.61C77.3057 39.9506 77.671 39.1447 77.7918 38.287C77.9725 37.5079 78.0409 36.7073 77.995 35.9092C78.0809 37.3278 78.6621 38.6727 79.6392 39.7138C80.2413 40.2125 80.982 40.5187 81.7636 40.5917C81.0644 40.7375 80.4342 41.1097 79.9726 41.6497C79.5109 42.1896 79.2441 42.8664 79.2142 43.5732C79.011 45.567 78.9556 47.0303 78.8817 47.0303Z" fill="#E3F2FD"/>
<g style="mix-blend-mode:multiply" opacity="0.43">
<path d="M124.505 63.2038C121.239 62.7915 117.921 63.2058 114.857 64.4088C111.793 65.6117 109.079 67.5648 106.966 70.089C105.543 67.1203 103.398 64.5564 100.727 62.6322C98.0559 60.708 94.9445 59.4852 91.6781 59.076C80.887 57.7152 71.2282 63.8695 69.6815 76.1551C68.2718 87.4063 82.2412 102.521 82.2412 102.521L98.0869 122.922C98.3393 123.247 98.6534 123.52 99.0112 123.723C99.3689 123.927 99.7634 124.058 100.172 124.11C100.58 124.161 100.995 124.131 101.392 124.022C101.789 123.913 102.161 123.726 102.486 123.474L122.89 107.628C122.89 107.628 140.168 96.4484 141.581 85.1939C143.128 72.9083 135.293 64.558 124.505 63.2038Z" fill="#D6D6D6"/>
</g>
<path d="M124.085 59.9728C120.818 59.5605 117.501 59.9749 114.437 61.1778C111.372 62.3808 108.659 64.3339 106.545 66.858C105.122 63.8897 102.977 61.3261 100.306 59.402C97.635 57.4779 94.5239 56.2549 91.2577 55.845C80.4666 54.4843 70.8078 60.6385 69.2611 72.9242C67.8514 84.1754 81.8208 99.2901 81.8208 99.2901L97.6665 119.691C98.1764 120.348 98.9261 120.775 99.751 120.879C100.576 120.983 101.408 120.755 102.065 120.246L122.466 104.407C122.466 104.407 139.761 93.224 141.161 81.9695C142.707 69.6774 134.869 61.3336 124.085 59.9728Z" fill="#EC305D"/>
<path opacity="0.25" d="M84.9958 97.59C88.0498 96.4107 91.0178 95.0194 93.878 93.4263C104.023 87.817 113.147 79.9725 119.859 70.4931C122.165 67.2785 124.158 63.8508 125.811 60.2567C125.246 60.1425 124.669 60.0446 124.085 59.9728C120.818 59.5605 117.501 59.9749 114.437 61.1778C111.372 62.3808 108.659 64.3339 106.545 66.858C105.122 63.8897 102.977 61.3261 100.306 59.402C97.635 57.4779 94.5239 56.2549 91.2577 55.845C80.4666 54.4843 70.8077 60.6385 69.261 72.9241C67.9982 83.0072 79.083 96.1869 81.3998 98.8202C82.6333 98.4613 83.8406 98.0305 84.9958 97.59Z" fill="url(#paint0_linear_4236_16122)"/>
<path d="M136.267 84.1733H143.638" stroke="white" stroke-width="1.30525" stroke-miterlimit="10" stroke-linecap="round"/>
<path d="M130.056 84.1973H133.277" stroke="white" stroke-width="1.30525" stroke-miterlimit="10" stroke-linecap="round"/>
<path d="M127.258 84.208H123.179C121.348 84.208 119.162 83.8816 117.579 85.0368C116.483 85.833 115.948 87.1187 115.491 88.3391C114.665 90.4992 113.311 93.374 110.404 92.3005C108.253 91.5075 107.738 88.3847 107.304 86.4432C106.71 83.787 106.697 80.6348 105.189 78.2854C103.382 75.4857 99.8313 75.2931 98.0105 78.2854C96.5943 80.6022 96.2712 83.5945 96.206 86.1985C96.1407 88.871 97.4003 99.5511 91.9182 99.5511C88.4463 99.5511 87.9633 95.0643 87.2879 92.9564C86.5374 90.6298 85.441 87.4091 82.4813 87.4091H75.0806" stroke="white" stroke-width="1.30525" stroke-miterlimit="10" stroke-linecap="round"/>
<g style="mix-blend-mode:multiply" opacity="0.43">
<path d="M77.9852 72.1309L63.2457 74.1769L62.7497 70.5875C62.557 69.2207 61.8309 67.9859 60.7302 67.153C59.6295 66.3202 58.2438 65.9571 56.8761 66.1431L42.9328 68.0782C41.566 68.2709 40.3312 68.997 39.4984 70.0977C38.6655 71.1984 38.3024 72.5841 38.4884 73.9518L38.9877 77.5412L22.522 79.8254C21.3312 79.9929 20.2555 80.6261 19.5311 81.586C18.8067 82.5459 18.4929 83.7541 18.6585 84.9452L20.5739 98.7318L20.6816 99.515L23.7294 121.469C23.8111 122.059 24.0084 122.627 24.3098 123.141C24.6113 123.655 25.011 124.104 25.4862 124.463C25.9614 124.822 26.5027 125.084 27.0792 125.234C27.6557 125.384 28.256 125.418 28.8459 125.336L84.3189 117.638C85.5055 117.466 86.5758 116.831 87.296 115.873C88.0162 114.914 88.3278 113.709 88.1628 112.522L85.0074 89.7877L83.0919 75.9977C82.9268 74.8081 82.2961 73.7327 81.3386 73.0077C80.3811 72.2827 79.175 71.9673 77.9852 72.1309ZM41.2849 73.5798C41.1984 72.9533 41.3638 72.3182 41.7449 71.8135C42.126 71.3088 42.6917 70.9759 43.3179 70.8877L57.2611 68.9527C57.8878 68.868 58.5225 69.0345 59.0268 69.416C59.5311 69.7974 59.8641 70.3628 59.9532 70.9889L60.4492 74.5783L41.7809 77.1692L41.2849 73.5798Z" fill="#D6D6D6"/>
</g>
<path d="M56.4761 78.4586L42.536 80.3936C41.1684 80.5797 39.7827 80.2166 38.682 79.3837C37.5813 78.5509 36.8552 77.316 36.6624 75.9493L36.0457 71.5082C35.8597 70.1405 36.2228 68.7548 37.0556 67.6541C37.8885 66.5534 39.1233 65.8273 40.4901 65.6345L54.4301 63.6995C55.7978 63.5135 57.1835 63.8766 58.2842 64.7094C59.3849 65.5423 60.111 66.7771 60.3037 68.1439L60.9204 72.585C61.1065 73.9527 60.7434 75.3384 59.9105 76.4391C59.0777 77.5398 57.8428 78.2659 56.4761 78.4586ZM40.8751 68.4278C40.2487 68.516 39.6828 68.8488 39.3012 69.3534C38.9196 69.8579 38.7534 70.4931 38.8389 71.1199L39.4557 75.5609C39.5431 76.1877 39.8757 76.7542 40.3805 77.136C40.8852 77.5177 41.5208 77.6836 42.1477 77.5971L56.0878 75.6588C56.7139 75.5714 57.2798 75.2392 57.6615 74.7352C58.0432 74.2312 58.2095 73.5964 58.1239 72.97L57.5072 68.5289C57.419 67.9025 57.0861 67.3366 56.5816 66.955C56.0771 66.5734 55.4419 66.4072 54.8151 66.4928L40.8751 68.4278Z" fill="#333A93"/>
<g opacity="0.25">
<path d="M56.481 78.4588L42.5409 80.3939C41.1732 80.5799 39.7875 80.2168 38.6868 79.384C37.5861 78.5511 36.86 77.3163 36.6673 75.9495L36.0506 71.5084C35.8645 70.1407 36.2276 68.755 37.0605 67.6543C37.8934 66.5536 39.1282 65.8275 40.495 65.6348L54.435 63.6998C55.8027 63.5137 57.1884 63.8768 58.2891 64.7097C59.3898 65.5425 60.1159 66.7774 60.3086 68.1441L60.9253 72.5852C61.1114 73.9529 60.7483 75.3386 59.9154 76.4393C59.0826 77.54 57.8477 78.2661 56.481 78.4588ZM40.88 68.428C40.2536 68.5163 39.6877 68.8491 39.306 69.3536C38.9244 69.8581 38.7582 70.4933 38.8438 71.1201L39.4606 75.5612C39.548 76.188 39.8806 76.7545 40.3853 77.1362C40.8901 77.518 41.5257 77.6838 42.1526 77.5974L56.0926 75.6591C56.7188 75.5716 57.2847 75.2395 57.6664 74.7355C58.0481 74.2315 58.2144 73.5967 58.1288 72.9703L57.5121 68.5292C57.4238 67.9028 57.091 67.3368 56.5865 66.9552C56.082 66.5736 55.4468 66.4074 54.82 66.493L40.88 68.428Z" fill="url(#paint1_linear_4236_16122)"/>
</g>
<path d="M80.6567 73.5415C80.5754 72.9516 80.3785 72.3834 80.0774 71.8696C79.7764 71.3557 79.377 70.9063 78.9021 70.5468C78.4272 70.1874 77.8862 69.9251 77.3099 69.7749C76.7336 69.6247 76.1333 69.5896 75.5434 69.6715L20.0705 77.3724C19.4806 77.4538 18.9126 77.6507 18.3989 77.9518C17.8852 78.2529 17.436 78.6523 17.0768 79.1273C16.7177 79.6022 16.4557 80.1433 16.3059 80.7196C16.156 81.2959 16.1213 81.896 16.2037 82.4857L18.1159 96.2724L82.5657 87.3282L80.6567 73.5415Z" fill="#16A75C"/>
<path opacity="0.6" d="M78.6573 75.9781C78.5767 75.3876 78.3805 74.8187 78.0797 74.3041C77.779 73.7895 77.3797 73.3393 76.9048 72.9792C76.4298 72.6192 75.8885 72.3563 75.3118 72.2057C74.7351 72.0551 74.1344 72.0197 73.544 72.1015L21.6377 79.3163L23.5531 93.0475L79.9495 85.216L78.6573 75.9781Z" fill="url(#paint2_linear_4236_16122)"/>
<path d="M18.1206 96.2718L21.2695 119.009C21.3516 119.6 21.5494 120.168 21.8513 120.682C22.1533 121.196 22.5537 121.645 23.0295 122.005C23.5053 122.364 24.0472 122.626 24.6243 122.775C25.2014 122.925 25.8023 122.959 26.3926 122.876L81.8655 115.178C83.0567 115.012 84.1332 114.38 84.8584 113.421C85.5835 112.461 85.8978 111.253 85.7323 110.062L82.5769 87.3276L18.1206 96.2718Z" fill="#E6F6EC"/>
<path opacity="0.25" d="M23.5547 98.4506L26.5894 120.313L79.3148 112.994C79.9046 112.913 80.4727 112.716 80.9864 112.415C81.5 112.114 81.9493 111.714 82.3085 111.239C82.6676 110.765 82.9296 110.223 83.0794 109.647C83.2292 109.071 83.264 108.471 83.1816 107.881L80.7669 90.4951L23.5547 98.4506Z" fill="url(#paint3_linear_4236_16122)"/>
<path d="M52.9459 97.2782L48.0137 97.9626L49.9871 112.184L54.9193 111.5L52.9459 97.2782Z" fill="#008444"/>
<path d="M58.9183 106.203L58.2339 101.271L44.0124 103.244L44.6969 108.176L58.9183 106.203Z" fill="#008444"/>
<path d="M82.5676 87.3328L18.1187 96.2759L18.2272 97.0581L82.6762 88.115L82.5676 87.3328Z" fill="#083461"/>
<path d="M30.6037 89.9596L24.8989 90.7512L26.1148 99.5136L31.8195 98.722L30.6037 89.9596Z" fill="#022B55"/>
<path d="M73.8581 83.9591L68.1372 84.7529L69.3531 93.5153L75.074 92.7214L73.8581 83.9591Z" fill="#022B55"/>
<path d="M73.2791 83.217L68.8662 83.8411L70.1047 92.5989L74.5175 91.9749L73.2791 83.217Z" fill="#008444"/>
<path d="M29.8541 89.4547L25.439 90.0674L26.6548 98.8297L31.07 98.2171L29.8541 89.4547Z" fill="#008444"/>
<path d="M29.3994 90.144L26.0283 90.6118L26.6342 94.9784L30.0054 94.5107L29.3994 90.144Z" fill="#16A75C"/>
<path d="M72.6778 84.1394L69.3066 84.6072L69.9126 88.9738L73.2837 88.506L72.6778 84.1394Z" fill="#16A75C"/>
<g style="mix-blend-mode:multiply" opacity="0.43">
<path d="M122.18 112.043C125.885 112.043 128.889 109.039 128.889 105.334C128.889 101.629 125.885 98.625 122.18 98.625C118.475 98.625 115.471 101.629 115.471 105.334C115.471 109.039 118.475 112.043 122.18 112.043Z" fill="#D6D6D6"/>
</g>
<path d="M124.638 109.929C127.895 108.162 129.102 104.089 127.335 100.833C125.567 97.576 121.494 96.3688 118.238 98.1362C114.981 99.9036 113.774 103.976 115.542 107.233C117.309 110.489 121.382 111.697 124.638 109.929Z" fill="#49148C"/>
<path d="M122.911 101.169L120.584 101.378L121.188 108.084L123.515 107.875L122.911 101.169Z" fill="#FAFCFC"/>
<path d="M125.53 105.422L125.33 103.104L118.649 103.68L118.849 105.998L125.53 105.422Z" fill="#FAFCFC"/>
<path d="M53.8399 131.392C52.7872 133.25 51.1585 134.715 49.1998 135.566C49.4445 134.933 49.885 133.608 49.5653 132.955C49.4656 132.743 49.3246 132.553 49.1507 132.396C48.9767 132.239 48.7732 132.118 48.552 132.04C48.3308 131.963 48.0964 131.93 47.8624 131.944C47.6284 131.958 47.3995 132.018 47.1891 132.121C46.9787 132.225 46.791 132.369 46.637 132.546C46.4829 132.722 46.3656 132.928 46.2918 133.15C46.218 133.373 46.1893 133.608 46.2074 133.842C46.2254 134.075 46.2898 134.303 46.3968 134.512C46.7231 135.145 47.9533 135.602 48.6255 135.817C47.663 136.157 46.6604 136.369 45.643 136.45C45.1753 136.489 44.7059 136.504 44.2366 136.496C44.5237 136.032 45.3656 134.57 45.1307 133.794C45.0685 133.567 44.9616 133.354 44.8161 133.169C44.6706 132.984 44.4896 132.83 44.2836 132.716C44.0777 132.601 43.8509 132.53 43.6168 132.504C43.3827 132.479 43.1459 132.501 42.9204 132.569C42.6948 132.637 42.4851 132.749 42.3036 132.899C42.122 133.049 41.9723 133.233 41.8633 133.442C41.7542 133.651 41.688 133.879 41.6686 134.114C41.6492 134.349 41.6769 134.585 41.7501 134.809C41.9589 135.504 43.1826 136.179 43.7961 136.479C43.0112 136.442 42.2302 136.346 41.4597 136.192C41.1497 135.54 40.6211 134.593 40.0402 134.384C39.6159 134.279 39.1676 134.335 38.7822 134.541C38.3967 134.747 38.1014 135.089 37.9536 135.501C37.8058 135.912 37.8159 136.364 37.9819 136.768C38.148 137.173 38.4582 137.501 38.8525 137.69C39.5573 137.941 40.8821 137.315 41.4629 137.008C42.2903 137.161 43.1281 137.252 43.969 137.279C43.4893 137.563 42.0862 138.46 41.9328 139.237C41.8428 139.698 41.9399 140.177 42.2028 140.567C42.4656 140.957 42.8726 141.227 43.3343 141.317C43.7961 141.407 44.2746 141.31 44.6647 141.047C45.0548 140.784 45.3246 140.377 45.4146 139.915C45.5745 139.093 44.5238 137.667 44.2235 137.282C47.4051 137.328 51.8299 136.437 54.5676 131.813C54.6221 131.718 54.6368 131.606 54.6083 131.5C54.5799 131.395 54.5106 131.305 54.4159 131.25C54.3211 131.196 54.2086 131.181 54.103 131.21C53.9974 131.238 53.9075 131.307 53.853 131.402L53.8399 131.392Z" fill="#1E88E5"/>
<path d="M47.1077 138.493C47.0586 138.723 47.056 138.96 47.1 139.191C47.144 139.421 47.2337 139.641 47.3638 139.837C47.494 140.032 47.6619 140.2 47.8578 140.33C48.0537 140.46 48.2736 140.549 48.5045 140.592C48.7354 140.636 48.9727 140.633 49.2024 140.583C49.4321 140.534 49.6496 140.439 49.842 140.304C50.0345 140.169 50.198 139.997 50.323 139.798C50.448 139.599 50.5319 139.377 50.5699 139.145C50.7559 138.189 49.3005 136.411 49.3005 136.411C49.3005 136.411 47.2905 137.533 47.1077 138.493Z" fill="#1E88E5"/>
<path d="M108.491 125.102C110.197 126.386 112.273 127.083 114.407 127.086C113.931 126.603 112.998 125.552 113.03 124.825C113.069 124.37 113.283 123.947 113.627 123.646C113.971 123.346 114.418 123.19 114.874 123.212C115.331 123.234 115.761 123.432 116.074 123.764C116.387 124.097 116.56 124.538 116.555 124.994C116.522 125.696 115.559 126.626 115.027 127.066C116.045 126.997 117.049 126.794 118.013 126.463C118.477 126.306 118.914 126.137 119.318 125.947C118.871 125.621 117.52 124.642 117.426 123.823C117.371 123.359 117.503 122.892 117.792 122.524C118.081 122.157 118.505 121.92 118.969 121.865C119.434 121.81 119.901 121.942 120.268 122.231C120.635 122.521 120.872 122.944 120.927 123.409C121.012 124.13 120.16 125.239 119.717 125.758C120.422 125.412 121.101 125.013 121.746 124.564C121.769 123.833 121.883 122.762 122.33 122.341C122.498 122.177 122.698 122.049 122.916 121.963C123.135 121.877 123.368 121.835 123.603 121.841C123.838 121.846 124.07 121.898 124.284 121.994C124.498 122.09 124.691 122.228 124.852 122.399C125.012 122.571 125.137 122.773 125.218 122.993C125.3 123.214 125.337 123.448 125.326 123.683C125.316 123.917 125.259 124.148 125.159 124.36C125.058 124.572 124.917 124.762 124.742 124.919C124.197 125.428 122.732 125.383 122.076 125.331C121.38 125.802 120.647 126.217 119.886 126.574C120.438 126.646 122.079 126.9 122.536 127.579C122.799 127.965 122.899 128.44 122.812 128.9C122.725 129.36 122.459 129.766 122.072 130.029C121.686 130.293 121.211 130.392 120.751 130.305C120.292 130.218 119.885 129.952 119.622 129.566C119.149 128.874 119.544 127.148 119.664 126.678C116.767 127.983 112.352 128.923 108.002 125.768C107.925 125.699 107.877 125.603 107.867 125.501C107.857 125.398 107.886 125.295 107.949 125.212C108.011 125.13 108.102 125.074 108.204 125.056C108.306 125.038 108.411 125.059 108.498 125.115L108.491 125.102Z" fill="#1E88E5"/>
<path d="M117.489 128.937C117.735 129.323 117.822 129.791 117.73 130.24C117.638 130.689 117.375 131.085 116.996 131.344C116.618 131.602 116.153 131.703 115.701 131.626C115.249 131.548 114.845 131.297 114.575 130.927C114.027 130.121 114.653 127.912 114.653 127.912C114.653 127.912 116.941 128.131 117.489 128.937Z" fill="#1E88E5"/>
<path d="M33.4369 63.3374C34.4443 63.3374 35.261 62.5207 35.261 61.5133C35.261 60.5059 34.4443 59.6892 33.4369 59.6892C32.4295 59.6892 31.6128 60.5059 31.6128 61.5133C31.6128 62.5207 32.4295 63.3374 33.4369 63.3374Z" stroke="#70CD94" stroke-width="0.978934" stroke-miterlimit="10"/>
<path d="M65.4231 123.333C65.4231 123.694 65.316 124.047 65.1154 124.347C64.9148 124.647 64.6298 124.88 64.2963 125.018C63.9628 125.156 63.5958 125.192 63.2419 125.122C62.888 125.051 62.563 124.877 62.308 124.622C62.053 124.366 61.8796 124.041 61.8096 123.687C61.7395 123.333 61.7761 122.966 61.9147 122.633C62.0533 122.299 62.2876 122.015 62.588 121.815C62.8884 121.615 63.2413 121.508 63.6022 121.509C63.8416 121.509 64.0787 121.556 64.2998 121.648C64.5209 121.739 64.7218 121.874 64.8909 122.043C65.06 122.213 65.1941 122.414 65.2854 122.635C65.3767 122.856 65.4235 123.093 65.4231 123.333Z" stroke="#FFC800" stroke-width="0.978934" stroke-miterlimit="10"/>
<path d="M108.662 57.8218C109.177 57.8218 109.595 57.404 109.595 56.8886C109.595 56.3732 109.177 55.9553 108.662 55.9553C108.146 55.9553 107.729 56.3732 107.729 56.8886C107.729 57.404 108.146 57.8218 108.662 57.8218Z" fill="#EF9A9A"/>
<path d="M134.652 105.744C135.167 105.744 135.585 105.327 135.585 104.811C135.585 104.296 135.167 103.878 134.652 103.878C134.137 103.878 133.719 104.296 133.719 104.811C133.719 105.327 134.137 105.744 134.652 105.744Z" fill="#70CD94"/>
<path d="M57.1409 125.46C57.1409 125.644 57.0862 125.825 56.9836 125.978C56.8811 126.132 56.7353 126.251 56.5648 126.322C56.3943 126.393 56.2066 126.411 56.0256 126.375C55.8446 126.339 55.6783 126.25 55.5478 126.12C55.4172 125.989 55.3284 125.823 55.2923 125.642C55.2563 125.461 55.2748 125.273 55.3455 125.103C55.4161 124.932 55.5357 124.786 55.6892 124.684C55.8426 124.581 56.0231 124.527 56.2077 124.527C56.3302 124.527 56.4516 124.551 56.5648 124.598C56.678 124.645 56.7809 124.713 56.8676 124.8C56.9542 124.887 57.023 124.989 57.0699 125.103C57.1168 125.216 57.1409 125.337 57.1409 125.46Z" fill="#FAFCFC"/>
<path d="M88.7818 103.928H81.7893C80.2496 103.928 79.0015 105.176 79.0015 106.716V118.262C79.0015 119.802 80.2496 121.05 81.7893 121.05H88.7818C90.3215 121.05 91.5696 119.802 91.5696 118.262V106.716C91.5696 105.176 90.3215 103.928 88.7818 103.928Z" fill="#C62828"/>
<path d="M90.8293 107.143H79.7412V117.489H90.8293V107.143Z" fill="white"/>
<path d="M88.7691 111.442H86.5616V109.237H84.306V111.442H82.1011V113.697H84.306V115.905H86.5616V113.697H88.7691V111.442Z" fill="#E53935"/>
<path opacity="0.1" d="M88.7816 103.928H87.4409C88.0568 112.091 82.3037 117.036 79.1382 119.117C79.3188 119.678 79.6727 120.167 80.1491 120.515C80.6254 120.862 81.1996 121.05 81.7892 121.05H88.7816C89.521 121.05 90.2301 120.757 90.753 120.234C91.2758 119.711 91.5695 119.002 91.5695 118.262V106.716C91.5695 105.976 91.2758 105.267 90.753 104.744C90.2301 104.221 89.521 103.928 88.7816 103.928Z" fill="#211A72"/>
<path d="M88.0028 98.75H82.5639C81.3671 98.75 80.397 99.7202 80.397 100.917V102.014C80.397 103.211 81.3671 104.181 82.5639 104.181H88.0028C89.1995 104.181 90.1697 103.211 90.1697 102.014V100.917C90.1697 99.7202 89.1995 98.75 88.0028 98.75Z" fill="#757575"/>
<g opacity="0.5">
<path d="M82.1859 102.927C82.1859 103.046 82.1383 103.161 82.0537 103.246C81.9691 103.33 81.8544 103.378 81.7347 103.378C81.6758 103.378 81.6175 103.366 81.5631 103.344C81.5086 103.321 81.4592 103.288 81.4175 103.246C81.3759 103.205 81.3428 103.155 81.3203 103.101C81.2977 103.046 81.2861 102.988 81.2861 102.929V99.8498C81.2858 99.7907 81.2972 99.7321 81.3196 99.6774C81.342 99.6226 81.3749 99.5729 81.4166 99.531C81.4583 99.489 81.5079 99.4558 81.5625 99.4331C81.6171 99.4104 81.6756 99.3987 81.7347 99.3987C81.8544 99.3987 81.9691 99.4462 82.0537 99.5308C82.1383 99.6154 82.1859 99.7302 82.1859 99.8498V102.927Z" fill="#EEEEEE"/>
<path d="M83.9603 102.927C83.9603 103.046 83.9127 103.161 83.8281 103.246C83.7435 103.33 83.6288 103.378 83.5091 103.378C83.3902 103.378 83.2761 103.33 83.1919 103.246C83.1078 103.162 83.0606 103.048 83.0606 102.929V99.8498C83.0602 99.7907 83.0716 99.7321 83.094 99.6774C83.1164 99.6226 83.1494 99.5729 83.191 99.531C83.2327 99.489 83.2823 99.4558 83.3369 99.4331C83.3915 99.4104 83.45 99.3987 83.5091 99.3987C83.6288 99.3987 83.7435 99.4462 83.8281 99.5308C83.9127 99.6154 83.9603 99.7302 83.9603 99.8498V102.927Z" fill="#EEEEEE"/>
<path d="M85.7347 102.927C85.7347 103.046 85.6872 103.161 85.6026 103.246C85.518 103.33 85.4032 103.378 85.2836 103.378C85.1646 103.378 85.0505 103.33 84.9664 103.246C84.8822 103.162 84.835 103.048 84.835 102.929V99.8498C84.8346 99.7907 84.846 99.7321 84.8684 99.6774C84.8908 99.6226 84.9238 99.5729 84.9655 99.531C85.0071 99.489 85.0567 99.4558 85.1113 99.4331C85.1659 99.4104 85.2244 99.3987 85.2836 99.3987C85.4032 99.3987 85.518 99.4462 85.6026 99.5308C85.6872 99.6154 85.7347 99.7302 85.7347 99.8498V102.927Z" fill="#EEEEEE"/>
<path d="M87.5091 102.927C87.5091 103.046 87.4616 103.161 87.377 103.246C87.2924 103.33 87.1776 103.378 87.058 103.378C86.939 103.378 86.8249 103.33 86.7408 103.246C86.6566 103.162 86.6094 103.048 86.6094 102.929V99.8498C86.609 99.7907 86.6204 99.7321 86.6428 99.6774C86.6652 99.6226 86.6982 99.5729 86.7399 99.531C86.7816 99.489 86.8311 99.4558 86.8857 99.4331C86.9403 99.4104 86.9989 99.3987 87.058 99.3987C87.1776 99.3987 87.2924 99.4462 87.377 99.5308C87.4616 99.6154 87.5091 99.7302 87.5091 99.8498V102.927Z" fill="#EEEEEE"/>
<path d="M89.2835 102.927C89.2835 103.046 89.236 103.161 89.1514 103.246C89.0668 103.33 88.952 103.378 88.8324 103.378C88.7134 103.378 88.5993 103.33 88.5152 103.246C88.4311 103.162 88.3838 103.048 88.3838 102.929V99.8498C88.3835 99.7907 88.3948 99.7321 88.4172 99.6774C88.4396 99.6226 88.4726 99.5729 88.5143 99.531C88.556 99.489 88.6055 99.4558 88.6601 99.4331C88.7147 99.4104 88.7733 99.3987 88.8324 99.3987C88.952 99.3987 89.0668 99.4462 89.1514 99.5308C89.236 99.6154 89.2835 99.7302 89.2835 99.8498V102.927Z" fill="#EEEEEE"/>
</g>
<path opacity="0.1" d="M88.3254 98.7751C88.5222 99.1056 88.6263 99.4829 88.627 99.8675V100.962C88.625 101.537 88.3957 102.087 87.9892 102.493C87.5827 102.899 87.032 103.128 86.4575 103.129H81.0161C80.9092 103.129 80.8025 103.12 80.6968 103.104C80.8874 103.431 81.1604 103.703 81.4885 103.892C81.8167 104.081 82.1885 104.18 82.5672 104.181H88.0035C88.578 104.18 89.1287 103.951 89.5352 103.545C89.9417 103.139 90.171 102.589 90.173 102.014V100.917C90.171 100.398 89.9837 99.8972 89.6449 99.5045C89.3061 99.1118 88.8381 98.8531 88.3254 98.7751Z" fill="#49148C"/>
<defs>
<linearGradient id="paint0_linear_4236_16122" x1="97.487" y1="98.8202" x2="97.487" y2="55.659" gradientUnits="userSpaceOnUse">
<stop stop-color="white" stop-opacity="0"/>
<stop offset="1" stop-color="white"/>
</linearGradient>
<linearGradient id="paint1_linear_4236_16122" x1="49.507" y1="79.4283" x2="47.4587" y2="64.6671" gradientUnits="userSpaceOnUse">
<stop offset="0.66" stop-color="white" stop-opacity="0"/>
<stop offset="0.69" stop-color="white" stop-opacity="0.04"/>
<stop offset="0.74" stop-color="white" stop-opacity="0.14"/>
<stop offset="0.8" stop-color="white" stop-opacity="0.3"/>
<stop offset="0.87" stop-color="white" stop-opacity="0.52"/>
<stop offset="0.95" stop-color="white" stop-opacity="0.8"/>
<stop offset="1" stop-color="white"/>
</linearGradient>
<linearGradient id="paint2_linear_4236_16122" x1="22.5874" y1="86.1835" x2="78.9851" y2="78.3577" gradientUnits="userSpaceOnUse">
<stop stop-color="white" stop-opacity="0"/>
<stop offset="1" stop-color="white"/>
</linearGradient>
<linearGradient id="paint3_linear_4236_16122" x1="25.0681" y1="109.39" x2="82.2835" y2="101.451" gradientUnits="userSpaceOnUse">
<stop stop-color="white" stop-opacity="0"/>
<stop offset="1" stop-color="white"/>
</linearGradient>
</defs>
</svg>
