<svg width="853" height="704" viewBox="0 0 853 704" fill="none" xmlns="http://www.w3.org/2000/svg">
<g opacity="0.5" clip-path="url(#clip0_4367_154951)">
<path d="M-439 715.661L896 715.661M-439 653.209H896M-439 590.757L896 590.757M-439 528.304L896 528.304M-439 465.852L896 465.852M-439 403.4H896M-439 340.947L896 340.947M-439 278.495L896 278.495M-439 216.043L896 216.043M-439 153.59L896 153.59M-439 91.138L896 91.138M-405.625 28.6857L855.95 28.6857M80.4895 -22L80.4894 742M183.952 -22L183.952 742M287.414 -22L287.414 742M390.877 -22L390.877 742M494.34 -22L494.339 742M597.802 -22L597.802 742M701.265 -22L701.264 742M804.727 -22L804.727 742M-333.36 -22L-333.361 742M-436.823 -22L-436.823 742M-229.898 -22L-229.898 742M-126.435 -22L-126.436 742M-22.973 -22L-22.9731 742M894.839 32.1254L894.84 687.875" stroke="url(#paint0_diamond_4367_154951)" stroke-opacity="0.3" stroke-width="2.7172"/>
</g>
<defs>
<radialGradient id="paint0_diamond_4367_154951" cx="0" cy="0" r="1" gradientUnits="userSpaceOnUse" gradientTransform="translate(773.012 50.0103) rotate(157.505) scale(1386.52 900045)">
<stop offset="0.0165144" stop-color="#1976D2"/>
<stop offset="0.150062" stop-color="#278AEC"/>
<stop offset="0.508838" stop-color="#298DF0"/>
<stop offset="0.704801" stop-color="#1976D2"/>
</radialGradient>
<clipPath id="clip0_4367_154951">
<rect width="853" height="704" fill="white"/>
</clipPath>
</defs>
</svg>
