<svg width="88" height="88" viewBox="0 0 88 88" fill="none" xmlns="http://www.w3.org/2000/svg">
    <g opacity="0.12">
        <rect y="88" width="4" height="4" rx="2" transform="rotate(-90 0 88)" fill="#E3F2FD"/>
        <rect x="48" y="88" width="4" height="4" rx="2" transform="rotate(-90 48 88)" fill="#90CAF9"/>
        <rect x="24" y="88" width="4" height="4" rx="2" transform="rotate(-90 24 88)" fill="#BBDEFB"/>
        <rect x="72" y="88" width="4" height="4" rx="2" transform="rotate(-90 72 88)" fill="#64B5F6"/>
        <rect x="12" y="88" width="4" height="4" rx="2" transform="rotate(-90 12 88)" fill="#E3F2FD"/>
        <rect x="60" y="88" width="4" height="4" rx="2" transform="rotate(-90 60 88)" fill="#90CAF9"/>
        <rect x="36" y="88" width="4" height="4" rx="2" transform="rotate(-90 36 88)" fill="#BBDEFB"/>
        <rect x="84" y="88" width="4" height="4" rx="2" transform="rotate(-90 84 88)" fill="#64B5F6"/>
        <rect y="52" width="4" height="4" rx="2" transform="rotate(-90 0 52)" fill="#BBDEFB"/>
        <rect x="48" y="52" width="4" height="4" rx="2" transform="rotate(-90 48 52)" fill="#90CAF9"/>
        <rect x="24" y="52" width="4" height="4" rx="2" transform="rotate(-90 24 52)" fill="#BBDEFB"/>
        <rect x="72" y="52" width="4" height="4" rx="2" transform="rotate(-90 72 52)" fill="#64B5F6"/>
        <rect x="12" y="52" width="4" height="4" rx="2" transform="rotate(-90 12 52)" fill="#BBDEFB"/>
        <rect x="60" y="52" width="4" height="4" rx="2" transform="rotate(-90 60 52)" fill="#90CAF9"/>
        <rect x="36" y="52" width="4" height="4" rx="2" transform="rotate(-90 36 52)" fill="#BBDEFB"/>
        <rect x="84" y="52" width="4" height="4" rx="2" transform="rotate(-90 84 52)" fill="#64B5F6"/>
        <rect y="76" width="4" height="4" rx="2" transform="rotate(-90 0 76)" fill="#E3F2FD"/>
        <rect x="48" y="76" width="4" height="4" rx="2" transform="rotate(-90 48 76)" fill="#90CAF9"/>
        <rect x="24" y="76" width="4" height="4" rx="2" transform="rotate(-90 24 76)" fill="#BBDEFB"/>
        <rect x="72" y="76" width="4" height="4" rx="2" transform="rotate(-90 72 76)" fill="#64B5F6"/>
        <rect x="12" y="76" width="4" height="4" rx="2" transform="rotate(-90 12 76)" fill="#E3F2FD"/>
        <rect x="60" y="76" width="4" height="4" rx="2" transform="rotate(-90 60 76)" fill="#90CAF9"/>
        <rect x="36" y="76" width="4" height="4" rx="2" transform="rotate(-90 36 76)" fill="#BBDEFB"/>
        <rect x="84" y="76" width="4" height="4" rx="2" transform="rotate(-90 84 76)" fill="#64B5F6"/>
        <rect y="40" width="4" height="4" rx="2" transform="rotate(-90 0 40)" fill="#90CAF9"/>
        <rect x="48" y="40" width="4" height="4" rx="2" transform="rotate(-90 48 40)" fill="#90CAF9"/>
        <rect x="24" y="40" width="4" height="4" rx="2" transform="rotate(-90 24 40)" fill="#90CAF9"/>
        <rect x="72" y="40" width="4" height="4" rx="2" transform="rotate(-90 72 40)" fill="#64B5F6"/>
        <rect x="12" y="40" width="4" height="4" rx="2" transform="rotate(-90 12 40)" fill="#90CAF9"/>
        <rect x="60" y="40" width="4" height="4" rx="2" transform="rotate(-90 60 40)" fill="#90CAF9"/>
        <rect x="36" y="40" width="4" height="4" rx="2" transform="rotate(-90 36 40)" fill="#90CAF9"/>
        <rect x="84" y="40" width="4" height="4" rx="2" transform="rotate(-90 84 40)" fill="#64B5F6"/>
        <rect y="16" width="4" height="4" rx="2" transform="rotate(-90 0 16)" fill="#64B5F6"/>
        <rect x="48" y="16" width="4" height="4" rx="2" transform="rotate(-90 48 16)" fill="#64B5F6"/>
        <rect x="24" y="16" width="4" height="4" rx="2" transform="rotate(-90 24 16)" fill="#64B5F6"/>
        <rect x="72" y="16" width="4" height="4" rx="2" transform="rotate(-90 72 16)" fill="#64B5F6"/>
        <rect x="12" y="16" width="4" height="4" rx="2" transform="rotate(-90 12 16)" fill="#64B5F6"/>
        <rect x="60" y="16" width="4" height="4" rx="2" transform="rotate(-90 60 16)" fill="#64B5F6"/>
        <rect x="36" y="16" width="4" height="4" rx="2" transform="rotate(-90 36 16)" fill="#64B5F6"/>
        <rect x="84" y="16" width="4" height="4" rx="2" transform="rotate(-90 84 16)" fill="#64B5F6"/>
        <rect y="64" width="4" height="4" rx="2" transform="rotate(-90 0 64)" fill="#BBDEFB"/>
        <rect x="48" y="64" width="4" height="4" rx="2" transform="rotate(-90 48 64)" fill="#90CAF9"/>
        <rect x="24" y="64" width="4" height="4" rx="2" transform="rotate(-90 24 64)" fill="#BBDEFB"/>
        <rect x="72" y="64" width="4" height="4" rx="2" transform="rotate(-90 72 64)" fill="#64B5F6"/>
        <rect x="12" y="64" width="4" height="4" rx="2" transform="rotate(-90 12 64)" fill="#BBDEFB"/>
        <rect x="60" y="64" width="4" height="4" rx="2" transform="rotate(-90 60 64)" fill="#90CAF9"/>
        <rect x="36" y="64" width="4" height="4" rx="2" transform="rotate(-90 36 64)" fill="#BBDEFB"/>
        <rect x="84" y="64" width="4" height="4" rx="2" transform="rotate(-90 84 64)" fill="#64B5F6"/>
        <rect y="28" width="4" height="4" rx="2" transform="rotate(-90 0 28)" fill="#90CAF9"/>
        <rect x="48" y="28" width="4" height="4" rx="2" transform="rotate(-90 48 28)" fill="#90CAF9"/>
        <rect x="24" y="28" width="4" height="4" rx="2" transform="rotate(-90 24 28)" fill="#90CAF9"/>
        <rect x="72" y="28" width="4" height="4" rx="2" transform="rotate(-90 72 28)" fill="#64B5F6"/>
        <rect x="12" y="28" width="4" height="4" rx="2" transform="rotate(-90 12 28)" fill="#90CAF9"/>
        <rect x="60" y="28" width="4" height="4" rx="2" transform="rotate(-90 60 28)" fill="#90CAF9"/>
        <rect x="36" y="28" width="4" height="4" rx="2" transform="rotate(-90 36 28)" fill="#90CAF9"/>
        <rect x="84" y="28" width="4" height="4" rx="2" transform="rotate(-90 84 28)" fill="#64B5F6"/>
        <rect y="4" width="4" height="4" rx="2" transform="rotate(-90 0 4)" fill="#64B5F6"/>
        <rect x="48" y="4" width="4" height="4" rx="2" transform="rotate(-90 48 4)" fill="#64B5F6"/>
        <rect x="24" y="4" width="4" height="4" rx="2" transform="rotate(-90 24 4)" fill="#64B5F6"/>
        <rect x="72" y="4" width="4" height="4" rx="2" transform="rotate(-90 72 4)" fill="#64B5F6"/>
        <rect x="12" y="4" width="4" height="4" rx="2" transform="rotate(-90 12 4)" fill="#64B5F6"/>
        <rect x="60" y="4" width="4" height="4" rx="2" transform="rotate(-90 60 4)" fill="#64B5F6"/>
        <rect x="36" y="4" width="4" height="4" rx="2" transform="rotate(-90 36 4)" fill="#64B5F6"/>
        <rect x="84" y="4" width="4" height="4" rx="2" transform="rotate(-90 84 4)" fill="#64B5F6"/>
    </g>
</svg>
