<svg width="168" height="168" viewBox="0 0 168 168" fill="none" xmlns="http://www.w3.org/2000/svg">
<g clip-path="url(#clip0_5404_199284)">
<rect width="168" height="168" rx="15.0448" fill="#1565C0"/>
<mask id="mask0_5404_199284" style="mask-type:alpha" maskUnits="userSpaceOnUse" x="0" y="0" width="168" height="168">
<rect width="168" height="168" rx="10.0299" fill="#E3F2FD"/>
</mask>
<g mask="url(#mask0_5404_199284)">
<path d="M0 -27.582H168V56.418C168 102.81 130.392 140.418 84 140.418C37.6081 140.418 0 102.81 0 56.418V-27.582Z" fill="#2196F3"/>
</g>
<path d="M61.8781 90.0542C61.5401 90.145 61.7722 90.6243 62.09 90.8009C62.4341 90.9492 62.8052 91.0248 63.1799 91.0229C63.2152 90.9876 63.1799 90.8716 62.6753 90.4932C62.1708 90.1147 62.0194 90.0693 61.8781 90.0542Z" fill="#E0E0E0"/>
<path d="M122.304 67.1816C122.248 67.1816 122.248 67.1816 122.243 67.2573L122.581 67.4087C122.505 67.3155 122.41 67.2384 122.304 67.1816Z" fill="#E0E0E0"/>
<path d="M140 122.5C126.649 115.532 101.458 112.239 85.2769 112.915C69.0957 113.591 49.5217 117.86 35.5 124C35.5 124 58.616 143.194 86.735 141.574C114.274 139.99 140 122.5 140 122.5Z" fill="url(#paint0_linear_5404_199284)"/>
<path d="M71.793 129.929C71.048 129.119 70.4196 128.209 69.9261 127.225C69.3522 126.281 68.9108 125.262 68.6143 124.198C68.6849 124.172 69.2752 125.515 70.1582 127.094C71.0412 128.673 71.8535 129.889 71.793 129.929Z" fill="#263238"/>
<path d="M72.7197 123.858C72.7954 123.858 72.9014 124.933 73.2243 126.225C73.5472 127.516 73.9054 128.536 73.8348 128.566C73.0512 127.124 72.6712 125.498 72.7349 123.858H72.7197Z" fill="#263238"/>
<path d="M76.1411 123.138C76.2118 123.168 75.7677 124.233 75.4852 125.61C75.2026 126.988 75.1774 128.133 75.1017 128.133C74.9144 126.398 75.2781 124.649 76.1411 123.133V123.138Z" fill="#263238"/>
<path d="M97.0296 122.563C95.9309 121.492 95.0622 120.208 94.4766 118.789C94.9544 119.38 95.3894 120.003 95.7783 120.656C96.2423 121.26 96.6606 121.897 97.0296 122.563Z" fill="#263238"/>
<path d="M98.3823 122.684C98.2386 122.055 98.1792 121.41 98.2057 120.766C98.1456 120.123 98.1761 119.474 98.2966 118.839C98.44 119.467 98.4977 120.112 98.4681 120.756C98.5284 121.4 98.4995 122.048 98.3823 122.684Z" fill="#263238"/>
<path d="M100.328 122.684C100.379 121.947 100.549 121.222 100.833 120.54C101.028 119.822 101.338 119.14 101.751 118.521C101.581 119.234 101.356 119.932 101.08 120.61C100.883 121.32 100.631 122.013 100.328 122.684Z" fill="#263238"/>
<path d="M62.2806 119.847H65.6309V108.328H62.2806V119.847Z" fill="#6F4439"/>
<path d="M76.6601 108.289C76.6601 108.289 76.4936 108.183 76.8569 107.703C76.9053 107.647 76.9393 107.579 76.9558 107.506C76.9722 107.433 76.9707 107.358 76.9513 107.286C76.9319 107.214 76.8953 107.147 76.8445 107.093C76.7938 107.038 76.7305 106.996 76.6601 106.972C75.0758 107.89 72.8658 106.972 72.8658 106.972C72.8658 106.972 75.4744 106.169 75.8023 105.403C76.0496 104.827 75.6156 104.762 75.3785 104.767C75.6459 104.742 76.2211 104.646 76.3876 104.343C76.6197 103.939 75.7115 103.465 75.7115 103.465C75.7581 103.367 75.7823 103.26 75.7823 103.152C75.7823 103.044 75.7581 102.937 75.7115 102.839C75.5601 102.441 72.1796 101.855 72.1796 101.855C72.4694 101.874 72.7573 101.798 73.0009 101.64C73.2444 101.482 73.4306 101.25 73.5318 100.978C73.5318 100.978 75.212 101.013 75.6106 100.352C76.0092 99.6909 75.3432 99.5143 74.2231 98.9644C73.1029 98.4144 70.6256 96.3709 70.6256 96.3709C70.6256 96.3709 72.1796 96.2246 72.6085 95.8664C73.0374 95.5081 72.6388 95.4274 72.6388 95.4274C74.4854 95.6091 73.8598 94.6252 73.8598 94.6252C72.3928 94.1738 71.0796 93.3251 70.0655 92.173C70.6991 92.0319 71.2958 91.7586 71.8163 91.3708C72.4067 90.8208 71.3118 90.6745 71.3118 90.6745C71.3118 90.6745 73.4864 90.3818 72.2351 89.5745C71.2815 88.964 69.7577 88.1416 69.2835 87.8944C69.8458 87.9891 70.4209 87.9772 70.9788 87.859C72.3663 87.2384 70.9788 86.3201 70.9788 86.3201C69.3642 85.4069 66.9877 83.1061 66.9877 83.1061C66.9877 83.1061 68.1734 83.7267 68.7688 83.5451C69.3642 83.3634 68.1078 82.6268 68.1078 82.6268C68.1078 82.6268 68.7385 82.8135 69.0009 82.6268C69.2633 82.4401 68.3096 81.6177 68.3096 81.6177C66.8868 80.6943 65.1309 78.2725 64.3993 77.228C63.6677 78.2725 61.9119 80.6943 60.489 81.6177C60.489 81.6177 59.5303 82.4603 59.7978 82.6268C60.0652 82.7933 60.6858 82.6268 60.6858 82.6268C60.6858 82.6268 59.4345 83.3584 60.0299 83.5451C60.6253 83.7318 61.811 83.1061 61.811 83.1061C61.811 83.1061 59.4345 85.4069 57.8149 86.3201C57.8149 86.3201 56.4324 87.2384 57.8149 87.859C58.3744 87.9778 58.9513 87.9898 59.5152 87.8944C59.0409 88.1416 57.497 88.964 56.5635 89.5745C55.3072 90.3818 57.4869 90.6745 57.4869 90.6745C57.4869 90.6745 56.3971 90.8208 56.9823 91.3708C57.5029 91.7586 58.0995 92.0319 58.7332 92.173C57.7191 93.3251 56.4058 94.1738 54.9389 94.6252C54.9389 94.6252 54.3082 95.6091 56.1549 95.4274C56.1549 95.4274 55.7613 95.5031 56.1902 95.8664C56.6191 96.2297 58.1681 96.3709 58.1681 96.3709C58.1681 96.3709 55.6957 98.4144 54.5756 98.9644C53.4555 99.5143 52.7895 99.696 53.1881 100.352C53.5867 101.008 55.2921 100.988 55.2921 100.988C55.3933 101.26 55.5795 101.492 55.823 101.65C56.0666 101.808 56.3545 101.884 56.6443 101.866C56.6443 101.866 53.2436 102.451 53.1124 102.849C53.0658 102.947 53.0416 103.054 53.0416 103.162C53.0416 103.271 53.0658 103.377 53.1124 103.475C53.1124 103.475 52.2042 103.949 52.4363 104.353C52.6129 104.656 53.1881 104.752 53.4454 104.777C53.2082 104.777 52.7743 104.837 53.0216 105.413C53.3495 106.18 55.9581 106.982 55.9581 106.982C55.9581 106.982 53.7481 107.9 52.1638 106.982C52.0938 107.007 52.0308 107.049 51.9802 107.103C51.9297 107.158 51.8929 107.224 51.8732 107.295C51.8534 107.367 51.8511 107.442 51.8666 107.515C51.882 107.588 51.9148 107.656 51.962 107.713C52.3253 108.193 52.1638 108.299 52.1638 108.299C52.1638 108.299 51.3363 107.678 51.6996 108.632C52.0629 109.585 53.9752 110.145 53.9752 110.145C53.9752 110.145 52.8904 110.327 53.2183 110.912C53.5463 111.498 54.9338 112.194 56.4525 112.34C57.6533 112.38 58.8534 112.244 60.0147 111.937C60.0147 111.937 58.6272 112.668 59.5859 113.072C60.5445 113.475 61.6041 112.567 61.6041 112.567C61.6041 112.567 61.4073 113.506 62.1995 113.183C62.7311 112.948 63.2216 112.629 63.6526 112.239C63.6526 112.239 63.8998 113.617 64.3943 113.289C64.8988 113.617 65.136 112.239 65.136 112.239C65.5669 112.629 66.0575 112.948 66.5891 113.183C67.3813 113.506 67.1794 112.567 67.1794 112.567C67.1794 112.567 68.2693 113.48 69.2279 113.072C70.1866 112.663 68.7991 111.937 68.7991 111.937C69.9604 112.244 71.1605 112.38 72.3612 112.34C73.8749 112.194 75.2625 111.498 75.5955 110.912C75.9285 110.327 74.8336 110.145 74.8336 110.145C74.8336 110.145 76.7509 109.56 77.1142 108.632C77.4775 107.703 76.6601 108.289 76.6601 108.289Z" fill="#455A64"/>
<g opacity="0.3">
<path d="M76.6591 108.287C76.6591 108.287 76.4926 108.181 76.8559 107.702C76.9044 107.645 76.9383 107.577 76.9548 107.505C76.9712 107.432 76.9697 107.356 76.9503 107.284C76.9309 107.212 76.8943 107.146 76.8436 107.091C76.7928 107.036 76.7295 106.995 76.6591 106.97C75.0748 107.889 72.8648 106.97 72.8648 106.97C72.8648 106.97 75.4734 106.168 75.8014 105.401C76.0486 104.826 75.6147 104.76 75.3775 104.765C75.6449 104.74 76.2201 104.644 76.3866 104.341C76.6187 103.938 75.7105 103.464 75.7105 103.464C75.7571 103.366 75.7813 103.259 75.7813 103.151C75.7813 103.042 75.7571 102.936 75.7105 102.838C75.5592 102.439 72.1786 101.854 72.1786 101.854C72.4684 101.872 72.7564 101.797 72.9999 101.639C73.2434 101.48 73.4296 101.248 73.5308 100.976C73.5308 100.976 75.211 101.011 75.6096 100.35C76.0082 99.6895 75.3422 99.5129 74.2221 98.9629C73.102 98.4129 70.6246 96.3695 70.6246 96.3695C70.6246 96.3695 72.1786 96.2232 72.6075 95.8649C73.0364 95.5067 72.6378 95.4259 72.6378 95.4259C74.4845 95.6076 73.8588 94.6237 73.8588 94.6237C72.3919 94.1724 71.0786 93.3236 70.0645 92.1716C70.6981 92.0305 71.2948 91.7571 71.8154 91.3693C72.4057 90.8193 71.3108 90.673 71.3108 90.673C71.3108 90.673 73.4854 90.3804 72.2341 89.5731C71.2805 88.9626 69.7568 88.1401 69.2825 87.8929C69.8448 87.9877 70.4199 87.9757 70.9778 87.8576C72.3653 87.237 70.9778 86.3187 70.9778 86.3187C69.3632 85.4054 66.9867 83.1047 66.9867 83.1047C66.9867 83.1047 68.1724 83.7253 68.7678 83.5436C69.3632 83.362 68.1069 82.6253 68.1069 82.6253C68.1069 82.6253 68.7376 82.812 68.9999 82.6253C69.2623 82.4386 68.3087 81.6162 68.3087 81.6162C66.8858 80.6929 65.13 78.271 64.3984 77.2266C63.6667 78.271 61.9109 80.6929 60.488 81.6162C60.488 81.6162 59.5294 82.4588 59.7968 82.6253C60.0642 82.7918 60.6848 82.6253 60.6848 82.6253C60.6848 82.6253 59.4335 83.3569 60.0289 83.5436C60.6243 83.7303 61.81 83.1047 61.81 83.1047C61.81 83.1047 59.4335 85.4054 57.8139 86.3187C57.8139 86.3187 56.4314 87.237 57.8139 87.8576C58.3734 87.9763 58.9503 87.9883 59.5142 87.8929C59.04 88.1401 57.496 88.9626 56.5626 89.5731C55.3062 90.3804 57.4859 90.673 57.4859 90.673C57.4859 90.673 56.3961 90.8193 56.9814 91.3693C57.5019 91.7571 58.0986 92.0305 58.7322 92.1716C57.7181 93.3236 56.4048 94.1724 54.9379 94.6237C54.9379 94.6237 54.3072 95.6076 56.1539 95.4259C56.1539 95.4259 55.7603 95.5016 56.1892 95.8649C56.6181 96.2282 58.1671 96.3695 58.1671 96.3695C58.1671 96.3695 55.6947 98.4129 54.5746 98.9629C53.4545 99.5129 52.7885 99.6945 53.1871 100.35C53.5857 101.006 55.2911 100.986 55.2911 100.986C55.3924 101.258 55.5785 101.491 55.8221 101.649C56.0656 101.807 56.3535 101.882 56.6433 101.864C56.6433 101.864 53.2426 102.449 53.1114 102.848C53.0648 102.946 53.0406 103.053 53.0406 103.161C53.0406 103.269 53.0648 103.376 53.1114 103.474C53.1114 103.474 52.2032 103.948 52.4353 104.352C52.6119 104.654 53.1871 104.75 53.4444 104.775C53.2073 104.775 52.7734 104.836 53.0206 105.411C53.3485 106.178 55.9571 106.98 55.9571 106.98C55.9571 106.98 53.7471 107.899 52.1628 106.98C52.0928 107.005 52.0299 107.047 51.9793 107.102C51.9287 107.156 51.892 107.222 51.8722 107.294C51.8524 107.365 51.8501 107.441 51.8656 107.514C51.8811 107.586 51.9138 107.654 51.961 107.712C52.3243 108.191 52.1628 108.297 52.1628 108.297C52.1628 108.297 51.3354 107.677 51.6986 108.63C52.0619 109.584 53.9742 110.144 53.9742 110.144C53.9742 110.144 52.8894 110.326 53.2174 110.911C53.5453 111.496 54.9329 112.192 56.4516 112.339C57.6523 112.379 58.8525 112.243 60.0137 111.935C60.0137 111.935 58.6262 112.667 59.5849 113.07C60.5435 113.474 61.6031 112.566 61.6031 112.566C61.6031 112.566 61.4063 113.504 62.1985 113.181C62.7301 112.946 63.2207 112.628 63.6516 112.238C63.6516 112.238 63.8988 113.615 64.3933 113.287C64.8979 113.615 65.135 112.238 65.135 112.238C65.566 112.628 66.0565 112.946 66.5881 113.181C67.3803 113.504 67.1785 112.566 67.1785 112.566C67.1785 112.566 68.2683 113.479 69.227 113.07C70.1856 112.662 68.7981 111.935 68.7981 111.935C69.9594 112.243 71.1595 112.379 72.3603 112.339C73.8739 112.192 75.2615 111.496 75.5945 110.911C75.9275 110.326 74.8326 110.144 74.8326 110.144C74.8326 110.144 76.7499 109.559 77.1132 108.63C77.4765 107.702 76.6591 108.287 76.6591 108.287Z" fill="#008444"/>
</g>
<path d="M105.627 118.083H108.896V106.836H105.627V118.083Z" fill="#6F4439"/>
<path d="M119.668 106.801C119.668 106.801 119.512 106.695 119.865 106.231C119.911 106.175 119.944 106.108 119.959 106.037C119.974 105.966 119.972 105.892 119.953 105.821C119.933 105.751 119.897 105.687 119.848 105.633C119.798 105.58 119.737 105.539 119.668 105.514C118.124 106.407 115.965 105.514 115.965 105.514C115.965 105.514 118.513 104.727 118.831 104.001C119.073 103.441 118.649 103.38 118.417 103.385C118.679 103.355 119.239 103.264 119.426 102.966C119.653 102.573 118.77 102.109 118.77 102.109C118.815 102.014 118.838 101.911 118.838 101.806C118.838 101.701 118.815 101.598 118.77 101.503C118.624 101.11 115.304 100.539 115.304 100.539C115.587 100.558 115.869 100.485 116.107 100.33C116.345 100.175 116.527 99.948 116.626 99.6816C116.626 99.6816 118.271 99.717 118.644 99.0711C119.017 98.4253 118.387 98.2538 117.292 97.7189C116.054 96.9661 114.873 96.1229 113.76 95.1961C113.76 95.1961 115.273 95.0549 115.692 94.6916C116.111 94.3283 115.728 94.2627 115.728 94.2627C117.529 94.4443 116.918 93.4806 116.918 93.4806C115.486 93.0425 114.204 92.2144 113.215 91.089C113.833 90.9504 114.414 90.6821 114.92 90.3019C115.501 89.7671 114.416 89.6208 114.416 89.6208C114.416 89.6208 116.545 89.3382 115.319 88.5511C114.391 87.9557 112.902 87.1535 112.438 86.9113C112.987 87.0036 113.548 86.9916 114.093 86.876C115.45 86.2655 114.093 85.3623 114.093 85.3623C112.519 84.4743 110.198 82.224 110.198 82.224C110.198 82.224 111.358 82.8294 111.938 82.6528C112.519 82.4762 111.293 81.7598 111.293 81.7598C111.293 81.7598 111.903 81.9364 112.16 81.7598C112.418 81.5832 111.484 80.7507 111.484 80.7507C110.097 79.8475 108.386 77.4811 107.67 76.4619C106.953 77.471 105.243 79.8475 103.855 80.7507C103.855 80.7507 102.922 81.568 103.179 81.7598C103.437 81.9515 104.047 81.7598 104.047 81.7598C104.047 81.7598 102.821 82.4712 103.401 82.6528C103.981 82.8345 105.142 82.224 105.142 82.224C105.142 82.224 102.821 84.4743 101.247 85.3623C101.247 85.3623 99.8895 86.2554 101.247 86.876C101.791 86.9916 102.353 87.0036 102.902 86.9113C102.438 87.1535 100.949 87.9557 100.021 88.5511C98.7946 89.3382 100.924 89.6208 100.924 89.6208C100.924 89.6208 99.8593 89.7671 100.419 90.3019C100.926 90.6821 101.507 90.9504 102.125 91.089C101.136 92.2144 99.8537 93.0425 98.4213 93.4806C98.4213 93.4806 97.8108 94.4443 99.612 94.2627C99.612 94.2627 99.2286 94.3333 99.6473 94.6916C100.066 95.0498 101.58 95.1961 101.58 95.1961C100.466 96.1229 99.2857 96.9661 98.0479 97.7189C96.953 98.2538 96.3072 98.4303 96.6957 99.0711C97.0842 99.7119 98.7139 99.6816 98.7139 99.6816C98.8123 99.948 98.9942 100.175 99.2324 100.33C99.4707 100.485 99.7525 100.558 100.036 100.539C100.036 100.539 96.8016 101.089 96.6654 101.493C96.6191 101.587 96.595 101.691 96.595 101.796C96.595 101.901 96.6191 102.004 96.6654 102.098C96.6654 102.098 95.7774 102.563 96.0044 102.956C96.176 103.254 96.7361 103.345 97.0136 103.375C96.7815 103.375 96.3576 103.431 96.5998 103.991C96.9177 104.737 99.4657 105.504 99.4657 105.504C99.4657 105.504 97.3062 106.397 95.7622 105.504C95.6937 105.529 95.632 105.57 95.5825 105.623C95.533 105.677 95.4971 105.741 95.4778 105.811C95.4585 105.882 95.4564 105.956 95.4716 106.027C95.4869 106.098 95.5191 106.165 95.5655 106.221C95.9237 106.685 95.7622 106.791 95.7622 106.791C95.7622 106.791 94.955 106.185 95.3082 107.114C95.6613 108.042 97.5333 108.627 97.5333 108.627C97.5333 108.627 96.4686 108.804 96.7916 109.374C97.1145 109.944 98.4667 110.626 99.945 110.767C101.119 110.808 102.292 110.675 103.426 110.373C103.426 110.373 102.074 111.09 103.008 111.483C103.941 111.877 105.026 110.979 105.026 110.979C105.026 110.979 104.829 111.892 105.606 111.579C106.124 111.348 106.603 111.036 107.024 110.656C107.024 110.656 107.261 112.003 107.745 111.665C108.25 111.988 108.472 110.656 108.472 110.656C108.891 111.037 109.368 111.349 109.885 111.579C110.662 111.892 110.465 110.979 110.465 110.979C110.465 110.979 111.53 111.872 112.483 111.483C113.437 111.095 112.064 110.373 112.064 110.373C113.199 110.675 114.372 110.808 115.546 110.767C117.024 110.626 118.377 109.949 118.699 109.374C119.022 108.799 117.958 108.627 117.958 108.627C117.958 108.627 119.83 108.057 120.183 107.114C120.536 106.17 119.668 106.801 119.668 106.801Z" fill="#455A64"/>
<g opacity="0.3">
<path d="M119.67 106.801C119.67 106.801 119.514 106.695 119.867 106.231C119.913 106.175 119.945 106.108 119.961 106.037C119.976 105.966 119.974 105.892 119.955 105.821C119.935 105.751 119.899 105.687 119.85 105.633C119.8 105.58 119.739 105.539 119.67 105.514C118.126 106.407 115.967 105.514 115.967 105.514C115.967 105.514 118.515 104.727 118.833 104.001C119.075 103.441 118.651 103.38 118.419 103.385C118.681 103.355 119.241 103.264 119.428 102.966C119.655 102.573 118.772 102.109 118.772 102.109C118.817 102.014 118.84 101.911 118.84 101.806C118.84 101.701 118.817 101.598 118.772 101.503C118.626 101.11 115.306 100.539 115.306 100.539C115.589 100.558 115.871 100.485 116.109 100.33C116.347 100.175 116.529 99.948 116.628 99.6816C116.628 99.6816 118.273 99.717 118.646 99.0711C119.019 98.4253 118.389 98.2538 117.294 97.7189C116.056 96.9661 114.875 96.1229 113.762 95.1961C113.762 95.1961 115.275 95.0549 115.694 94.6916C116.113 94.3283 115.73 94.2627 115.73 94.2627C117.531 94.4443 116.92 93.4806 116.92 93.4806C115.488 93.0425 114.206 92.2144 113.217 91.089C113.835 90.9504 114.416 90.6821 114.922 90.3019C115.502 89.7671 114.418 89.6208 114.418 89.6208C114.418 89.6208 116.547 89.3382 115.321 88.5511C114.392 87.9557 112.904 87.1535 112.44 86.9113C112.989 87.0036 113.55 86.9916 114.095 86.876C115.452 86.2655 114.095 85.3623 114.095 85.3623C112.521 84.4743 110.2 82.224 110.2 82.224C110.2 82.224 111.36 82.8294 111.94 82.6528C112.521 82.4762 111.294 81.7598 111.294 81.7598C111.294 81.7598 111.905 81.9364 112.162 81.7598C112.42 81.5832 111.486 80.7507 111.486 80.7507C110.099 79.8475 108.388 77.4811 107.672 76.4619C106.955 77.471 105.245 79.8475 103.857 80.7507C103.857 80.7507 102.924 81.568 103.181 81.7598C103.439 81.9515 104.049 81.7598 104.049 81.7598C104.049 81.7598 102.823 82.4712 103.403 82.6528C103.983 82.8345 105.144 82.224 105.144 82.224C105.144 82.224 102.823 84.4743 101.249 85.3623C101.249 85.3623 99.8915 86.2554 101.249 86.876C101.793 86.9916 102.355 87.0036 102.904 86.9113C102.439 87.1535 100.951 87.9557 100.023 88.5511C98.7966 89.3382 100.926 89.6208 100.926 89.6208C100.926 89.6208 99.8612 89.7671 100.421 90.3019C100.928 90.6821 101.509 90.9504 102.127 91.089C101.138 92.2144 99.8557 93.0425 98.4232 93.4806C98.4232 93.4806 97.8127 94.4443 99.614 94.2627C99.614 94.2627 99.2305 94.3333 99.6493 94.6916C100.068 95.0498 101.582 95.1961 101.582 95.1961C100.468 96.1229 99.2877 96.9661 98.0498 97.7189C96.955 98.2538 96.3091 98.4303 96.6976 99.0711C97.0861 99.7119 98.7159 99.6816 98.7159 99.6816C98.8143 99.948 98.9961 100.175 99.2344 100.33C99.4726 100.485 99.7544 100.558 100.038 100.539C100.038 100.539 96.8036 101.089 96.6674 101.493C96.6211 101.587 96.597 101.691 96.597 101.796C96.597 101.901 96.6211 102.004 96.6674 102.098C96.6674 102.098 95.7793 102.563 96.0064 102.956C96.1779 103.254 96.738 103.345 97.0155 103.375C96.7834 103.375 96.3596 103.431 96.6018 103.991C96.9196 104.737 99.4677 105.504 99.4677 105.504C99.4677 105.504 97.3081 106.397 95.7642 105.504C95.6956 105.529 95.634 105.57 95.5845 105.623C95.535 105.677 95.499 105.741 95.4797 105.811C95.4604 105.882 95.4583 105.956 95.4736 106.027C95.4889 106.098 95.5211 106.165 95.5674 106.221C95.9257 106.685 95.7642 106.791 95.7642 106.791C95.7642 106.791 94.9569 106.185 95.3101 107.114C95.6633 108.042 97.5352 108.627 97.5352 108.627C97.5352 108.627 96.4706 108.804 96.7935 109.374C97.1164 109.944 98.4686 110.626 99.947 110.767C101.121 110.808 102.294 110.675 103.428 110.373C103.428 110.373 102.076 111.09 103.01 111.483C103.943 111.877 105.028 110.979 105.028 110.979C105.028 110.979 104.831 111.892 105.608 111.579C106.126 111.348 106.605 111.036 107.026 110.656C107.026 110.656 107.263 112.003 107.747 111.665C108.252 111.988 108.474 110.656 108.474 110.656C108.893 111.037 109.37 111.349 109.887 111.579C110.664 111.892 110.467 110.979 110.467 110.979C110.467 110.979 111.532 111.872 112.485 111.483C113.439 111.095 112.066 110.373 112.066 110.373C113.201 110.675 114.374 110.808 115.548 110.767C117.026 110.626 118.378 109.949 118.701 109.374C119.024 108.799 117.96 108.627 117.96 108.627C117.96 108.627 119.832 108.057 120.185 107.114C120.538 106.17 119.67 106.801 119.67 106.801Z" fill="#16A75C"/>
</g>
<path d="M82.5739 121.921H87.7002V104.292H82.5739V121.921Z" fill="#6F4439"/>
<path d="M104.581 104.237C104.581 104.237 104.328 104.07 104.883 103.344C104.957 103.257 105.008 103.153 105.033 103.042C105.057 102.93 105.055 102.815 105.025 102.705C104.995 102.595 104.939 102.493 104.862 102.41C104.785 102.326 104.688 102.262 104.581 102.224C102.154 103.621 98.7733 102.224 98.7733 102.224C98.7733 102.224 102.764 100.993 103.269 99.8171C103.642 98.9391 102.981 98.8433 102.618 98.8483C103.027 98.808 103.905 98.6616 104.177 98.1924C104.53 97.5768 103.143 96.8503 103.143 96.8503C103.215 96.7027 103.253 96.5404 103.253 96.376C103.253 96.2115 103.215 96.0493 103.143 95.9017C102.916 95.2861 97.7137 94.388 97.7137 94.388C99.2274 94.5545 99.7824 93.0459 99.7824 93.0459C99.7824 93.0459 102.356 93.1014 102.966 92.0973C103.577 91.0933 102.563 90.8057 100.842 89.9681C99.1214 89.1305 95.3423 85.9972 95.3423 85.9972C95.3423 85.9972 97.7137 85.7702 98.3696 85.2101C99.0256 84.6501 98.4201 84.5391 98.4201 84.5391C101.246 84.8216 100.287 83.308 100.287 83.308C98.0416 82.6226 96.0321 81.3243 94.4845 79.5591C94.4845 79.5591 96.2505 79.1706 97.1587 78.328C98.0669 77.4854 96.4019 77.2684 96.4019 77.2684C96.4019 77.2684 99.7319 76.8193 97.8146 75.5882C96.3564 74.6548 94.0254 73.3934 93.2988 73.015C94.091 73.3076 95.8973 72.9595 95.8973 72.9595C98.0164 72.0059 95.8973 70.6082 95.8973 70.6082C93.425 69.2106 89.7871 65.6838 89.7871 65.6838C89.7871 65.6838 91.6035 66.6374 92.5117 66.3548C93.4199 66.0723 91.5026 64.9572 91.5026 64.9572C91.5026 64.9572 92.4613 65.2347 92.8649 64.9572C93.2686 64.6797 91.8053 63.3931 91.8053 63.3931C89.6307 61.9753 86.9464 58.2668 85.8263 56.6724C84.7062 58.2668 82.022 61.9753 79.8423 63.3931C79.8423 63.3931 78.3791 64.6797 78.7827 64.9572C79.1864 65.2347 80.1501 64.9572 80.1501 64.9572C80.1501 64.9572 78.2277 66.0773 79.1409 66.3548C80.0542 66.6323 81.8706 65.6838 81.8706 65.6838C81.8706 65.6838 78.2327 69.2157 75.7604 70.6082C75.7604 70.6082 73.6413 72.0059 75.7604 72.9595C75.7604 72.9595 77.5617 73.3076 78.3589 73.015C77.6323 73.3934 75.3013 74.6548 73.8431 75.5882C71.9258 76.8193 75.2559 77.2684 75.2559 77.2684C75.2559 77.2684 73.5908 77.4904 74.499 78.328C75.4072 79.1655 77.1732 79.5591 77.1732 79.5591C75.6256 81.3243 73.6161 82.6226 71.3708 83.308C71.3708 83.308 70.4071 84.8216 73.2376 84.5391C73.2376 84.5391 72.6322 84.6551 73.2881 85.2101C73.944 85.7651 76.3154 85.9972 76.3154 85.9972C76.3154 85.9972 72.5312 89.1305 70.8157 89.9681C69.1002 90.8057 68.0861 91.0882 68.6916 92.0973C69.297 93.1065 71.8753 93.0459 71.8753 93.0459C71.8753 93.0459 72.4303 94.5596 73.944 94.388C73.944 94.388 68.742 95.2861 68.515 95.9017C68.4424 96.0493 68.4047 96.2115 68.4047 96.376C68.4047 96.5404 68.4424 96.7027 68.515 96.8503C68.515 96.8503 67.1274 97.5768 67.4806 98.1924C67.748 98.6616 68.631 98.808 69.0397 98.8483C68.6764 98.8483 68.0306 98.9391 68.3888 99.8171C68.8934 100.993 72.8844 102.224 72.8844 102.224C72.8844 102.224 69.4988 103.621 67.077 102.224C66.9696 102.262 66.8731 102.326 66.7958 102.41C66.7184 102.493 66.6625 102.595 66.6327 102.705C66.603 102.815 66.6003 102.93 66.625 103.042C66.6496 103.153 66.7008 103.257 66.7743 103.344C67.3293 104.07 67.077 104.237 67.077 104.237C67.077 104.237 65.8156 103.283 66.3706 104.742C66.9256 106.2 69.852 107.093 69.852 107.093C69.852 107.093 68.187 107.37 68.6916 108.263C69.1961 109.156 71.3203 110.226 73.6413 110.448C75.9622 110.67 79.0905 109.833 79.0905 109.833C79.0905 109.833 76.9713 110.953 78.4346 111.568C79.8978 112.184 81.5679 110.781 81.5679 110.781C81.5679 110.781 81.2651 112.214 82.4761 111.725C83.2883 111.365 84.0378 110.878 84.6961 110.282C84.6961 110.282 85.0745 112.391 85.8314 111.886C86.5882 112.391 86.9666 110.282 86.9666 110.282C87.6249 110.878 88.3744 111.365 89.1867 111.725C90.3976 112.229 90.0949 110.781 90.0949 110.781C90.0949 110.781 91.7599 112.184 93.2282 111.568C94.6965 110.953 92.5672 109.833 92.5672 109.833C92.5672 109.833 95.7005 110.67 98.0215 110.448C100.342 110.226 102.467 109.161 102.971 108.263C103.476 107.365 101.806 107.093 101.806 107.093C101.806 107.093 104.737 106.195 105.292 104.742C105.847 103.288 104.581 104.237 104.581 104.237Z" fill="#16A75C"/>
<path d="M93.2058 70.7806L93.124 70.7397C93.1527 70.7503 93.1802 70.764 93.2058 70.7806Z" fill="black"/>
<g opacity="0.1">
<path d="M89.4029 65.0423L88.202 64.568C87.9844 64.8578 87.6646 65.054 87.3076 65.1168C86.9507 65.1796 86.5832 65.1042 86.2797 64.9061C85.4712 64.4499 84.8043 63.7794 84.3523 62.9686C84.3523 62.9686 82.5863 64.1392 82.4047 63.3975C82.3653 63.191 82.3992 62.9772 82.5005 62.793C82.6018 62.6088 82.7642 62.4657 82.9597 62.3883C82.9197 62.4487 82.8947 62.5177 82.8868 62.5897C82.8789 62.6617 82.8883 62.7345 82.9143 62.8021C82.99 62.9333 83.1666 62.9282 83.3028 62.898C83.7786 62.7744 84.2006 62.4979 84.5036 62.1108C84.8889 62.9111 85.5273 63.562 86.32 63.9626C86.4685 64.0738 86.6384 64.1532 86.819 64.1958C86.9996 64.2383 87.187 64.2431 87.3695 64.2098C87.4594 64.1771 87.5408 64.1246 87.6077 64.0564C87.6747 63.9881 87.7255 63.9057 87.7565 63.8152C87.7874 63.7247 87.7977 63.6285 87.7867 63.5335C87.7756 63.4385 87.7434 63.3472 87.6924 63.2663C87.9565 63.6219 88.2925 63.9179 88.6784 64.1352C89.0643 64.3525 89.4917 64.4862 89.9327 64.5277C90.1193 64.5277 90.3565 64.4974 90.3918 64.2956C90.3975 64.1762 90.3578 64.059 90.2808 63.9676C90.0249 63.5924 89.7056 63.2646 89.3373 62.9989C90.1358 63.5904 91.0821 63.9501 92.072 64.0382L92.9247 64.1543C92.9443 64.1941 92.9496 64.2396 92.9394 64.2828C92.9293 64.3261 92.9045 64.3645 92.8692 64.3914C92.4655 64.6689 91.5069 64.3914 91.5069 64.3914C91.5069 64.3914 93.4292 65.5065 92.516 65.7891C91.6027 66.0716 89.7914 65.118 89.7914 65.118L90.0184 65.3299L89.4029 65.0423Z" fill="black"/>
</g>
<g opacity="0.1">
<path d="M78.6683 72.5618L81.0246 71.7243C81.0961 72.1151 81.3067 72.4668 81.6174 72.7145C81.9281 72.9621 82.3179 73.0889 82.7149 73.0715C82.8936 73.0811 83.0724 73.0528 83.2394 72.9883C83.4064 72.9238 83.5578 72.8246 83.6837 72.6973C83.8096 72.57 83.907 72.4174 83.9696 72.2497C84.0322 72.082 84.0586 71.9029 84.0469 71.7243C84.0469 71.7243 85.2377 72.8848 87.6393 72.5417C87.6393 72.5417 88.043 72.4912 87.9471 71.8302C88.1615 72.0706 88.4546 72.2265 88.7737 72.27C89.0929 72.3135 89.417 72.2416 89.6879 72.0674C90.7828 71.4871 89.8291 70.5133 89.8291 70.5133L89.6828 70.4326C89.7459 70.5234 89.7889 70.6267 89.8089 70.7354C89.829 70.8442 89.8255 70.956 89.7989 71.0633C89.6727 71.356 89.2943 71.3358 89.0218 71.245C88.2434 70.9962 87.524 70.591 86.9078 70.0542C87.0906 70.2507 87.2375 70.4779 87.3417 70.7253C87.3947 70.8523 87.416 70.9904 87.4037 71.1276C87.3914 71.2647 87.3459 71.3968 87.271 71.5124C87.184 71.6012 87.0793 71.6709 86.9637 71.717C86.8482 71.763 86.7243 71.7844 86.6 71.7798C85.9804 71.8015 85.3643 71.6788 84.8003 71.4213C84.2364 71.1639 83.74 70.7787 83.3506 70.2964C83.3506 70.6698 83.4313 71.0431 83.4162 71.4165C83.4273 71.5995 83.3856 71.7819 83.2962 71.942C83.2068 72.1021 83.0733 72.2331 82.9116 72.3197C82.5282 72.4508 82.1346 72.0926 81.9681 71.689C81.8016 71.2853 81.7613 70.8211 81.5796 70.4225C81.0219 70.9834 80.3387 71.4036 79.5866 71.6486C79.3829 71.7279 79.1628 71.7556 78.9458 71.7293C78.8335 71.7128 78.7276 71.6667 78.639 71.5958C78.5503 71.5248 78.4821 71.4316 78.4413 71.3257C78.412 71.2294 78.4122 71.1265 78.4419 71.0303C78.4716 70.934 78.5293 70.8489 78.6078 70.7858C77.6693 71.2096 75.5047 71.9665 75.0759 70.9069C74.8488 71.366 74.8993 71.916 75.9084 72.3701C75.9084 72.3701 77.7097 72.7233 78.5069 72.4307L77.9418 72.7284L78.6683 72.5618Z" fill="black"/>
</g>
<g opacity="0.1">
<path d="M94.9101 79.4434C94.3021 79.3462 93.7212 79.1227 93.2047 78.7874C93.1173 79.0016 92.9568 79.1779 92.7518 79.2851C92.5467 79.3922 92.3104 79.4233 92.0846 79.3727C91.6422 79.2487 91.2368 79.0183 90.9039 78.7017C90.7528 78.9294 90.5514 79.1192 90.3152 79.2566C90.0789 79.394 89.8143 79.4751 89.5416 79.4938C89.2699 79.4997 89.0005 79.4427 88.7546 79.3271C88.5086 79.2116 88.2927 79.0407 88.1238 78.8278C86.6505 79.9176 84.8997 80.7199 83.1388 80.4827C82.9722 80.4763 82.8086 80.4363 82.6577 80.3652C82.5069 80.2942 82.3719 80.1934 82.2609 80.069C82.049 79.7865 82.0792 79.2769 82.387 79.1457C81.3123 79.3778 80.1972 79.6048 79.1326 79.3122C78.5713 79.192 78.0799 78.8557 77.7645 78.3761C77.4492 77.8965 77.3352 77.312 77.4474 76.749C77.5007 77.0188 77.5942 77.279 77.7249 77.521C77.8719 77.7193 78.0848 77.8588 78.3253 77.9145C79.2085 78.2103 80.1427 78.323 81.0709 78.2458C81.9991 78.1686 82.9019 77.9031 83.7241 77.4655C83.6517 77.5763 83.6028 77.7007 83.5804 77.8311C83.558 77.9615 83.5625 78.0951 83.5937 78.2237C83.6249 78.3523 83.6821 78.4732 83.7618 78.5788C83.8415 78.6844 83.942 78.7726 84.0571 78.8379C84.5207 79.0414 85.0423 79.0701 85.5254 78.9186C86.0703 78.8333 86.6015 78.6755 87.1046 78.4494C87.6287 78.2045 88.0552 77.7904 88.3156 77.2738C88.4931 77.642 88.7378 77.974 89.0371 78.2526C89.1796 78.3862 89.3605 78.4717 89.5542 78.497C89.7479 78.5224 89.9447 78.4863 90.1168 78.3939C90.2005 78.3356 90.2712 78.2607 90.3244 78.1737C90.3776 78.0867 90.4121 77.9897 90.4259 77.8886C90.4396 77.7876 90.4323 77.6849 90.4043 77.5868C90.3763 77.4888 90.3282 77.3977 90.2631 77.3192C90.9677 77.7614 91.7449 78.0757 92.5589 78.2476C92.6556 78.2851 92.7608 78.2956 92.863 78.2778C92.9653 78.26 93.0608 78.2147 93.1391 78.1466C93.1998 78.0519 93.229 77.9404 93.2227 77.8281C93.2163 77.7158 93.1747 77.6083 93.1038 77.521C93.0539 77.4567 92.9943 77.4005 92.9272 77.3545C94.0461 77.9055 95.3033 78.1127 96.5398 77.9499V78.1769C95.8879 78.5303 95.1924 78.7966 94.4711 78.9691C94.4711 78.9691 94.6477 79.1507 94.9101 79.4434Z" fill="black"/>
</g>
<g opacity="0.1">
<path d="M75.3368 87.1274C76.454 87.0114 77.5457 86.7185 78.571 86.2596C79.4597 86.8947 80.526 87.2336 81.6183 87.2282C82.7107 87.2227 83.7735 86.8732 84.6559 86.2293C85.3317 86.8573 86.2051 87.2301 87.1261 87.2835C88.047 87.3369 88.9577 87.0676 89.7015 86.522C90.4684 86.9504 91.3542 87.1169 92.2243 86.9963C92.6733 86.9035 93.0774 86.6605 93.37 86.3074C93.6625 85.9544 93.8261 85.5122 93.8338 85.0537C93.5935 85.3591 93.287 85.606 92.9374 85.7758C92.5878 85.9455 92.2042 86.0337 91.8156 86.0337C91.427 86.0337 91.0434 85.9455 90.6938 85.7758C90.3442 85.606 90.0377 85.3591 89.7974 85.0537C89.5183 85.4331 89.1498 85.7376 88.7246 85.94C88.2994 86.1425 87.8308 86.2367 87.3604 86.2142C86.8866 86.1699 86.4305 86.0119 86.0308 85.7537C85.6311 85.4954 85.2997 85.1445 85.0646 84.7308C84.5031 85.2089 83.8471 85.5633 83.1395 85.7711C82.4319 85.9789 81.6884 86.0353 80.9575 85.9367C80.5319 85.8941 80.1309 85.7174 79.8122 85.4321C79.6472 85.2766 79.5312 85.0764 79.4783 84.8559C79.4255 84.6354 79.438 84.4043 79.5145 84.1909C78.5857 84.8997 77.4511 85.2861 76.2828 85.2915C75.1146 85.297 73.9764 84.9212 73.041 84.2212V84.2616C73.11 84.396 73.2083 84.5133 73.3286 84.6047C73.9845 85.1647 76.356 85.3867 76.356 85.3867C76.356 85.3867 75.4124 86.1688 74.252 87.0568C74.61 87.1188 74.9737 87.1424 75.3368 87.1274Z" fill="black"/>
</g>
<g opacity="0.1">
<path d="M101.486 92.2939C100.926 92.4033 100.356 92.4574 99.7857 92.4554C99.7857 92.4554 99.2306 93.9691 97.717 93.7975C97.717 93.7975 98.4688 93.9287 99.4173 94.1204C98.8433 94.3403 98.224 94.4153 97.6141 94.3388C97.0042 94.2622 96.4226 94.0364 95.9207 93.6815C95.0168 94.5818 93.8054 95.1063 92.5304 95.1494C91.2553 95.1924 90.0113 94.7509 89.0487 93.9136C88.1279 94.729 86.944 95.185 85.7141 95.1979C84.4843 95.2109 83.291 94.78 82.3532 93.9842C81.8662 94.4578 81.2814 94.819 80.6398 95.0421C79.9982 95.2653 79.3154 95.3451 78.6397 95.2759C77.9481 95.1678 77.3006 94.8679 76.7709 94.4104C76.2411 93.9529 75.8502 93.356 75.6426 92.6875C76.6702 93.4022 77.9121 93.7421 79.1605 93.6503C80.4088 93.5584 81.5876 93.0404 82.4995 92.1829C82.5208 92.3948 82.6005 92.5966 82.7296 92.7658C82.8588 92.9351 83.0324 93.0652 83.2311 93.1416C83.6102 93.2718 84.0138 93.3149 84.4118 93.2677C86.0415 93.182 87.7671 92.9297 89.0335 91.7843C89.4142 92.3001 89.9205 92.7099 90.5043 92.9748C91.088 93.2398 91.7298 93.351 92.3687 93.298C93.0128 93.2114 93.6258 92.9677 94.1537 92.5885C94.6816 92.2093 95.1082 91.7062 95.396 91.1234C96.5346 91.7085 97.8018 91.999 99.0816 91.9681C100.361 91.9373 101.613 91.5861 102.722 90.9468L101.486 92.2939Z" fill="black"/>
</g>
<g opacity="0.1">
<path d="M91.2915 99.6961C91.2961 99.9514 91.2361 100.204 91.117 100.43C90.9979 100.655 90.8236 100.847 90.6104 100.988C90.2005 101.238 89.7279 101.365 89.2481 101.356C87.7789 101.393 86.3499 100.874 85.2469 99.903C84.8476 100.432 84.331 100.861 83.7379 101.156C83.1447 101.451 82.4912 101.605 81.8285 101.605C81.1659 101.605 80.5123 101.451 79.9192 101.156C79.326 100.861 78.8095 100.432 78.4102 99.903C76.8035 100.341 75.1241 100.446 73.4755 100.211C71.8268 99.9756 70.2437 99.4055 68.8236 98.5356L68.3896 98.7778C68.3946 98.9353 68.4324 99.09 68.5007 99.2319C69.0052 100.408 72.9963 101.639 72.9963 101.639C72.6584 101.769 72.313 101.878 71.9619 101.967C72.6481 102.179 73.2435 102.35 73.6219 102.471C74.326 102.716 75.0847 102.759 75.8117 102.594C76.5387 102.429 77.2048 102.063 77.7341 101.538C78.1918 102.104 78.7716 102.559 79.4301 102.869C80.0886 103.179 80.8087 103.337 81.5365 103.329C82.2644 103.322 82.9812 103.15 83.6333 102.827C84.2855 102.504 84.8561 102.037 85.3024 101.462C86.2207 102.501 87.4316 103.319 88.7435 103.364C89.4289 103.387 90.1023 103.18 90.6564 102.776C91.2105 102.372 91.6134 101.794 91.8011 101.134C92.6403 101.406 93.5472 101.385 94.3725 101.073C95.1978 100.761 95.8925 100.178 96.3421 99.4186C95.5932 99.8903 94.7365 100.163 93.8528 100.212C92.9691 100.26 92.0876 100.083 91.2915 99.6961Z" fill="black"/>
</g>
<path d="M81.9211 123.147C81.7091 122.289 81.4972 121.426 81.2803 120.569C82.3254 120.988 83.3205 121.523 84.2471 122.163C84.1219 121.054 83.8783 119.961 83.5205 118.904C84.1935 119.999 84.9474 121.043 85.7759 122.027C85.717 120.912 86.0062 119.807 86.6033 118.863C86.7009 119.909 86.9685 120.931 87.3955 121.891C87.9109 120.698 88.7608 119.679 89.8426 118.959C88.964 120.321 88.4434 121.883 88.3289 123.5" fill="#455A64"/>
<path d="M63.2666 147.897C63.5667 148.832 63.667 149.82 63.5612 150.796C63.5196 151.992 63.0232 153.127 62.1733 153.969L61.9299 153.871C60.8849 152.586 60.3001 150.988 60.2687 149.332C60.2388 147.688 60.794 146.526 61.7933 145.219C62.4515 146.009 62.9517 146.918 63.2666 147.897Z" fill="#008444"/>
<path d="M67.6864 152.68C67.2562 153.22 66.7181 153.665 66.1064 153.986C65.3906 154.431 64.5316 154.584 63.7064 154.413L63.668 154.234C64.0093 153.119 64.7145 152.151 65.6708 151.484C66.5447 150.884 67.6088 150.627 68.6601 150.762C68.4603 151.457 68.1299 152.108 67.6864 152.68Z" fill="#008444"/>
<path d="M61.7689 149.771C61.8287 149.771 62.0636 152.095 62.2942 154.969C62.5248 157.843 62.6572 160.174 62.5931 160.183C62.5291 160.191 62.2985 157.86 62.0721 154.986C61.8458 152.112 61.7091 149.78 61.7689 149.771Z" fill="#6F4439"/>
<path d="M62.2285 155.242C62.7998 154.801 63.3974 154.394 64.0178 154.025C64.5985 153.595 65.2062 153.203 65.837 152.851C64.7909 153.862 63.5678 154.673 62.2285 155.242Z" fill="#6F4439"/>
<path d="M64.5693 159.999C64.3229 160.068 64.061 160.056 63.8219 159.965C63.523 159.794 63.4974 159.384 63.3949 159.051C63.2847 158.684 63.0471 158.368 62.7248 158.16C62.4024 157.953 62.0166 157.867 61.6367 157.918C61.2568 157.97 60.9077 158.155 60.6523 158.441C60.3968 158.727 60.2518 159.095 60.2433 159.478C59.9655 159.47 59.689 159.52 59.4309 159.622C59.1728 159.725 58.9383 159.88 58.742 160.077C58.5457 160.273 58.3916 160.508 58.2892 160.766C58.1868 161.025 58.1383 161.301 58.1465 161.579C57.6289 161.572 57.1201 161.713 56.6798 161.986C56.2396 162.258 55.8862 162.65 55.6611 163.116H67.7379C68.0112 161.455 66.0084 159.828 64.5693 159.999Z" fill="#AE7461"/>
<path d="M76.0791 148.32C76.379 149.257 76.4793 150.246 76.3738 151.224C76.331 152.42 75.833 153.555 74.9816 154.397L74.7425 154.298C73.6973 153.013 73.1112 151.415 73.077 149.759C73.0514 148.115 73.6065 146.953 74.6016 145.646C75.2589 146.436 75.7603 147.343 76.0791 148.32Z" fill="#008444"/>
<path d="M80.5149 153.099C80.0845 153.642 79.5447 154.089 78.9306 154.41C78.2149 154.854 77.3558 155.007 76.5306 154.837L76.4922 154.657C76.836 153.543 77.5405 152.574 78.495 151.903C79.3705 151.307 80.4337 151.052 81.4843 151.186C81.2861 151.879 80.9571 152.529 80.5149 153.099Z" fill="#008444"/>
<path d="M74.5796 150.195C74.6394 150.195 74.8743 152.518 75.1006 155.392C75.3269 158.266 75.4636 160.598 75.4038 160.602C75.344 160.606 75.1091 158.283 74.8785 155.409C74.6479 152.535 74.5155 150.199 74.5796 150.195Z" fill="#6F4439"/>
<path d="M75.0361 155.665C75.6085 155.223 76.2075 154.817 76.8297 154.448C77.4097 154.017 78.0174 153.625 78.6489 153.274C77.6003 154.284 76.376 155.095 75.0361 155.665Z" fill="#6F4439"/>
<path d="M77.3765 160.423C77.1315 160.492 76.8711 160.48 76.6334 160.389C76.3302 160.214 76.3089 159.804 76.2064 159.475C76.0962 159.108 75.8586 158.792 75.5363 158.585C75.214 158.377 74.8281 158.291 74.4482 158.343C74.0683 158.394 73.7192 158.58 73.4638 158.865C73.2083 159.151 73.0633 159.519 73.0548 159.902C72.777 159.894 72.5005 159.943 72.2423 160.046C71.9841 160.148 71.7497 160.303 71.5536 160.5C71.3575 160.697 71.2038 160.932 71.1021 161.19C71.0004 161.449 70.9528 161.726 70.9623 162.003C70.4442 161.997 69.9349 162.138 69.494 162.41C69.0531 162.682 68.6989 163.075 68.4727 163.541H80.5537C80.8227 161.88 78.8199 160.253 77.3765 160.423Z" fill="#AE7461"/>
<g clip-path="url(#clip1_5404_199284)">
<path d="M114.37 109.762C113.724 109.697 113.072 109.744 112.443 109.902C111.807 110.068 111.259 110.472 110.912 111.03L110.991 111.147C111.799 111.556 112.72 111.681 113.607 111.502C114.495 111.323 115.296 110.851 115.882 110.161C115.418 109.907 114.899 109.77 114.37 109.762Z" fill="#008444"/>
<path d="M111.134 105.981C110.509 106.44 109.985 107.023 109.595 107.693C109.064 108.472 108.852 109.426 109.004 110.357L109.2 110.409C110.464 110.077 111.581 109.333 112.375 108.295C113.158 107.264 113.346 106.263 113.319 104.969C112.533 105.165 111.791 105.509 111.134 105.981Z" fill="#008444"/>
<path d="M102.857 104.428C102.862 105.284 103.046 106.129 103.399 106.908C103.753 107.89 104.471 108.698 105.404 109.165L105.577 109.018C106.095 107.672 106.148 106.192 105.728 104.812C105.31 103.443 104.535 102.634 103.358 101.821C103.027 102.651 102.857 103.536 102.857 104.428Z" fill="#008444"/>
<path d="M100.14 109.322C100.498 109.844 100.962 110.285 101.502 110.616C102.126 111.068 102.899 111.263 103.662 111.162L103.707 111C103.466 109.962 102.884 109.035 102.055 108.366C101.293 107.764 100.335 107.463 99.3652 107.52C99.507 108.164 99.77 108.776 100.14 109.322Z" fill="#008444"/>
<path d="M101.116 114.672C101.418 115.417 101.873 116.09 102.451 116.648C103.103 117.379 104.011 117.833 104.987 117.915L105.088 117.727C105.071 116.372 104.601 115.061 103.753 114.003C102.91 112.957 101.951 112.498 100.642 112.216C100.643 113.057 100.804 113.891 101.116 114.672Z" fill="#008444"/>
<path d="M100.833 120.003C101.387 120.119 101.96 120.119 102.514 120.003C103.2 119.903 103.821 119.543 104.249 118.998L104.177 118.863C103.378 118.342 102.427 118.104 101.476 118.186C100.611 118.274 99.808 118.675 99.2188 119.314C99.708 119.645 100.256 119.878 100.833 120.003Z" fill="#008444"/>
<path d="M104.249 104.969C104.265 104.997 104.277 105.026 104.287 105.056C104.309 105.127 104.339 105.214 104.373 105.323C104.452 105.571 104.561 105.91 104.697 106.342C104.96 107.234 105.412 108.506 105.773 110.135C106.563 113.366 107.503 117.87 108.248 122.892C108.993 127.915 109.377 132.501 109.565 135.823C109.663 137.485 109.704 138.832 109.727 139.761C109.727 140.213 109.727 140.57 109.727 140.83V141.108C109.732 141.141 109.732 141.174 109.727 141.206C109.722 141.174 109.722 141.141 109.727 141.108C109.727 141.037 109.727 140.947 109.708 140.834L109.655 139.761C109.61 138.836 109.546 137.504 109.433 135.834C109.219 132.516 108.797 127.933 108.056 122.922C107.315 117.911 106.397 113.4 105.641 110.165C105.299 108.54 104.866 107.264 104.629 106.365C104.505 105.929 104.411 105.582 104.339 105.334C104.314 105.224 104.292 105.134 104.272 105.063C104.26 105.033 104.252 105.001 104.249 104.969Z" fill="#AE7461"/>
<path d="M103.041 115.063C103.086 115.033 104.226 116.568 105.592 118.494C106.958 120.421 108.022 122.008 107.981 122.038C107.94 122.069 106.796 120.534 105.43 118.607C104.065 116.681 103 115.097 103.041 115.063Z" fill="#AE7461"/>
<path d="M110.411 108.088C110.434 108.088 110.185 108.506 109.809 109.172C109.433 109.838 108.936 110.763 108.451 111.805C107.966 112.847 107.593 113.852 107.341 114.574C107.224 114.97 107.083 115.358 106.92 115.737C106.923 115.625 106.94 115.513 106.973 115.406C107.022 115.199 107.101 114.898 107.21 114.529C107.504 113.573 107.86 112.637 108.274 111.726C108.687 110.818 109.159 109.938 109.689 109.093C109.896 108.766 110.065 108.51 110.197 108.34C110.328 108.171 110.4 108.088 110.411 108.088Z" fill="#AE7461"/>
<path d="M113.391 110.568C113.391 110.624 112.262 110.869 110.836 111.215C109.411 111.561 108.289 111.884 108.274 111.832C108.499 111.702 108.741 111.604 108.993 111.542C109.448 111.388 110.08 111.2 110.791 111.027C111.502 110.854 112.146 110.722 112.62 110.65C112.872 110.592 113.131 110.564 113.391 110.568Z" fill="#AE7461"/>
<path d="M101.292 109.217C101.573 109.339 101.839 109.494 102.082 109.68C102.552 109.989 103.192 110.432 103.884 110.944L105.649 112.257C105.904 112.425 106.142 112.618 106.36 112.833C106.079 112.71 105.814 112.555 105.57 112.37C105.099 112.061 104.463 111.618 103.767 111.102L102.003 109.793C101.748 109.625 101.509 109.432 101.292 109.217Z" fill="#AE7461"/>
<path d="M105.623 118.743C105.063 118.956 104.475 119.083 103.877 119.119C103.288 119.215 102.689 119.225 102.098 119.149C102.678 119.032 103.267 118.958 103.858 118.928C104.441 118.822 105.031 118.761 105.623 118.743Z" fill="#AE7461"/>
<path d="M112.495 114.834C112.278 115.365 111.952 115.846 111.539 116.245C111.074 116.765 110.426 117.087 109.73 117.144L109.658 117.012C109.673 116.046 110.007 115.111 110.61 114.356C111.168 113.673 111.958 113.219 112.83 113.081C112.831 113.681 112.718 114.276 112.495 114.834Z" fill="#008444"/>
<path d="M112.695 118.622C112.299 118.707 111.89 118.707 111.495 118.622C111.008 118.553 110.565 118.302 110.257 117.918L110.309 117.824C110.879 117.451 111.557 117.28 112.236 117.339C112.853 117.398 113.428 117.681 113.85 118.137C113.5 118.371 113.107 118.536 112.695 118.622Z" fill="#008444"/>
<path d="M111.133 115.113C110.629 115.997 110.067 116.846 109.451 117.656C108.892 118.506 108.277 119.318 107.611 120.086C108.678 118.355 109.854 116.694 111.133 115.113Z" fill="#AE7461"/>
<path d="M109.278 117.735C109.702 117.72 110.126 117.752 110.542 117.829C110.964 117.844 111.383 117.905 111.791 118.013C110.944 118.122 110.082 118.027 109.278 117.735Z" fill="#AE7461"/>
<path d="M105.362 136.752L106.374 141.906C106.438 142.241 106.578 142.558 106.782 142.831C106.986 143.105 107.249 143.329 107.552 143.486C108.135 143.78 108.78 143.931 109.433 143.926C110.075 143.941 110.714 143.831 111.314 143.603C111.668 143.455 111.979 143.219 112.216 142.917C112.454 142.616 112.611 142.259 112.672 141.88L113.515 136.752H105.362Z" fill="#6F4439"/>
<path d="M109.425 137.396C111.669 137.396 113.489 137.108 113.489 136.752C113.489 136.397 111.669 136.109 109.425 136.109C107.181 136.109 105.362 136.397 105.362 136.752C105.362 137.108 107.181 137.396 109.425 137.396Z" fill="#AE7461"/>
<path d="M105.456 144.781C105.881 144.563 106.293 144.32 106.69 144.055C107.05 143.738 107.391 143.402 107.713 143.047C107.544 143.521 107.228 143.928 106.81 144.209C106.433 144.542 105.958 144.743 105.456 144.781Z" fill="#6F4439"/>
<path d="M107.992 146.786C107.887 146.203 107.887 145.605 107.992 145.021C108.034 144.431 108.181 143.853 108.425 143.313C108.478 143.313 108.304 144.092 108.188 145.048C108.071 146.003 108.049 146.786 107.992 146.786Z" fill="#6F4439"/>
<path d="M109.192 146.131C109.154 146.172 108.872 145.977 108.563 145.698C108.255 145.42 108.033 145.164 108.071 145.123C108.108 145.081 108.387 145.277 108.695 145.555C109.004 145.834 109.226 146.086 109.192 146.131Z" fill="#6F4439"/>
<path d="M111.816 144.886C111.517 144.688 111.271 144.421 111.097 144.107C110.873 143.826 110.72 143.496 110.649 143.144C110.89 143.4 111.095 143.687 111.259 143.998C111.481 144.269 111.668 144.568 111.816 144.886Z" fill="#6F4439"/>
<path d="M114.197 143.479C113.784 143.533 113.364 143.489 112.972 143.35C112.579 143.211 112.226 142.98 111.939 142.678C111.973 142.633 112.417 142.949 113.042 143.167C113.666 143.385 114.197 143.423 114.197 143.479Z" fill="#6F4439"/>
<path d="M129.301 97.5093C128.829 96.1812 128.241 94.8972 127.544 93.6719C126.841 92.4452 125.846 91.4113 124.647 90.6622C124.463 90.5531 123.124 89.9098 122.969 90.0678C122.815 90.2258 123.959 90.8992 123.981 91.0497C124.262 92.4905 124.975 93.8117 126.024 94.8382C127.014 95.8505 128.113 96.7501 129.301 97.5206" fill="#263238"/>
<path d="M133.913 103.446L125.862 93.4991C123.717 90.6887 120.444 89.3607 117.694 91.5766L117.412 91.8324C116.246 92.8885 115.522 94.3452 115.382 95.912C115.243 97.4788 115.699 99.0406 116.66 100.286C118.541 102.724 120.659 105.402 121.784 106.61C124.097 109.089 126.96 107.197 126.96 107.197C126.96 107.197 128.465 109.138 129.109 109.902C129.109 109.902 129.553 109.864 131.998 107.863C134.443 105.861 133.913 103.446 133.913 103.446Z" fill="#AE7461"/>
<path d="M126.969 107.197C128.125 106.14 128.954 104.775 129.358 103.262C129.358 103.262 130.219 105.809 127.51 107.859L126.969 107.197Z" fill="#6F4439"/>
<path d="M119.816 101.983C119.9 102.077 120.017 102.134 120.143 102.143C120.269 102.152 120.393 102.112 120.49 102.032C120.538 101.993 120.579 101.946 120.61 101.892C120.64 101.838 120.659 101.778 120.666 101.716C120.673 101.655 120.668 101.592 120.65 101.533C120.633 101.473 120.604 101.418 120.565 101.369C120.481 101.275 120.363 101.218 120.237 101.209C120.111 101.201 119.987 101.242 119.891 101.324C119.843 101.362 119.802 101.409 119.771 101.463C119.741 101.517 119.722 101.576 119.715 101.638C119.708 101.699 119.713 101.761 119.731 101.82C119.748 101.88 119.777 101.935 119.816 101.983Z" fill="#263238"/>
<path d="M118.545 101.124C118.632 101.124 118.718 100.684 119.106 100.334C119.493 99.9845 119.952 99.9206 119.949 99.8378C119.945 99.755 119.828 99.755 119.625 99.7739C119.353 99.8115 119.098 99.9309 118.895 100.116C118.701 100.301 118.57 100.542 118.519 100.805C118.466 101.004 118.504 101.124 118.545 101.124Z" fill="#263238"/>
<path d="M123.067 99.0591C123.151 99.1542 123.269 99.2126 123.396 99.2217C123.522 99.2308 123.647 99.19 123.744 99.108C123.793 99.0696 123.833 99.0219 123.863 98.9678C123.893 98.9136 123.912 98.8541 123.919 98.7926C123.926 98.7311 123.921 98.6688 123.904 98.6093C123.887 98.5498 123.858 98.4942 123.819 98.4459C123.734 98.3522 123.616 98.2951 123.49 98.2867C123.364 98.2783 123.239 98.3192 123.142 98.4007C123.093 98.4385 123.053 98.4858 123.022 98.5396C122.992 98.5934 122.973 98.6527 122.966 98.7141C122.959 98.7754 122.964 98.8376 122.982 98.8968C122.999 98.9561 123.028 99.0113 123.067 99.0591Z" fill="#263238"/>
<path d="M122.175 98.0436C122.262 98.0436 122.348 97.5997 122.736 97.2498C123.123 96.8999 123.578 96.836 123.578 96.7532C123.578 96.6704 123.458 96.6704 123.255 96.693C122.982 96.7274 122.727 96.8458 122.525 97.0316C122.332 97.2169 122.2 97.4574 122.149 97.7201C122.096 97.9308 122.134 98.0399 122.175 98.0436Z" fill="#263238"/>
<path d="M123.639 102.114C123.378 102.237 123.133 102.391 122.909 102.573C122.803 102.652 122.691 102.716 122.615 102.663C122.54 102.611 122.472 102.471 122.416 102.313L122.04 101.298C121.73 100.418 121.353 99.564 120.911 98.7432C120.851 98.7657 121.265 99.947 121.829 101.377L122.239 102.385C122.283 102.56 122.389 102.714 122.536 102.818C122.582 102.839 122.632 102.85 122.683 102.85C122.734 102.85 122.784 102.839 122.83 102.818C122.898 102.784 122.962 102.741 123.018 102.69C123.248 102.524 123.457 102.331 123.639 102.114Z" fill="#263238"/>
<path d="M121.135 96.7682C121.267 96.8396 121.61 96.4409 122.114 96.0872C122.618 95.7336 123.096 95.5229 123.069 95.3762C123.069 95.3047 122.904 95.2633 122.663 95.2972C122.35 95.3504 122.056 95.4796 121.805 95.6734C121.547 95.8542 121.335 96.0941 121.188 96.3731C121.083 96.5763 121.075 96.7343 121.135 96.7682Z" fill="#263238"/>
<path d="M117.225 99.9097C117.379 99.936 117.635 99.5823 118.026 99.2701C118.418 98.9578 118.805 98.7622 118.809 98.6042C118.809 98.529 118.677 98.48 118.463 98.5026C118.175 98.5547 117.907 98.6849 117.688 98.8788C117.46 99.0588 117.287 99.2985 117.187 99.5711C117.123 99.7592 117.154 99.8908 117.225 99.9097Z" fill="#263238"/>
<path d="M127.334 95.5224C127.357 95.466 128.591 93.4457 130.099 95.2101C131.608 96.9746 129.52 98.1221 129.475 98.0731C129.429 98.0242 127.334 95.5224 127.334 95.5224Z" fill="#AE7461"/>
<path d="M129.477 96.9262C129.477 96.9262 129.526 96.9262 129.598 96.8999C129.647 96.8862 129.694 96.8624 129.734 96.83C129.774 96.7977 129.807 96.7574 129.831 96.7118C129.883 96.5419 129.89 96.3611 129.849 96.1879C129.809 96.0147 129.724 95.8554 129.601 95.7261C129.477 95.568 129.319 95.4396 129.139 95.3499C129.076 95.309 129.004 95.2842 128.929 95.2776C128.854 95.2711 128.779 95.283 128.71 95.3123C128.667 95.3326 128.632 95.3673 128.611 95.4106C128.59 95.4538 128.585 95.5028 128.597 95.5493C128.616 95.6207 128.657 95.6433 128.65 95.6546C128.642 95.6659 128.589 95.6546 128.541 95.5718C128.513 95.5201 128.503 95.4603 128.514 95.4025C128.533 95.3257 128.58 95.2587 128.646 95.2144C128.731 95.167 128.827 95.1421 128.924 95.1421C129.022 95.1421 129.118 95.167 129.203 95.2144C129.408 95.3028 129.589 95.4396 129.729 95.6132C129.871 95.7639 129.966 95.953 130.001 96.157C130.037 96.361 130.012 96.5709 129.929 96.7607C129.893 96.8143 129.846 96.8593 129.79 96.8925C129.735 96.9257 129.673 96.9462 129.609 96.9525C129.515 96.9676 129.474 96.9337 129.477 96.9262Z" fill="#6F4439"/>
<path d="M115.384 96.426C114.963 96.5088 115.046 94.8535 115.486 93.9393C116.148 92.5586 117.529 90.8919 118.748 90.3464C120.219 89.6881 121.697 89.4548 123.198 90.0342C124.687 90.6567 125.985 91.6612 126.96 92.9461C127.292 93.3124 127.519 93.7605 127.619 94.244C127.702 94.846 127.431 95.493 127.905 96.016C127.995 96.1084 128.065 96.218 128.111 96.3383C128.158 96.4585 128.18 96.5869 128.176 96.7157C128.142 97.3327 127.472 97.3402 127.013 97.1672C126.039 96.791 125.301 96.0047 124.598 95.2372C124.069 94.7161 123.628 94.1126 123.292 93.4502C123.131 93.074 123.037 92.6978 122.856 92.3215C122.777 92.1356 122.658 91.9692 122.508 91.834C122.358 91.6988 122.18 91.5982 121.987 91.539C121.899 91.5223 121.809 91.5135 121.72 91.5127C121.29 91.5046 120.867 91.6108 120.492 91.8203C120.117 92.0299 119.805 92.3353 119.587 92.7053C118.879 93.8979 117.615 95.858 116.882 95.8918C116.387 95.9475 115.886 95.9001 115.411 95.7526L115.384 96.426Z" fill="#263238"/>
<path d="M124.97 103.036C124.996 103.066 125.132 103.006 125.29 102.829C125.489 102.597 125.62 102.312 125.666 102.009C125.719 101.707 125.687 101.396 125.576 101.11C125.482 100.896 125.376 100.794 125.342 100.813C125.309 100.832 125.478 101.343 125.365 101.941C125.252 102.54 124.91 102.972 124.97 103.036Z" fill="#263238"/>
<path d="M124.455 151.669L124.767 159.697C124.767 159.697 116.716 162.707 116.63 164.212L132.201 164.144L132.224 151.616L124.455 151.669Z" fill="#263238"/>
<path d="M129.588 159.005C129.737 159.052 129.865 159.151 129.947 159.285C130.028 159.418 130.059 159.577 130.031 159.731C129.991 159.883 129.895 160.013 129.762 160.095C129.629 160.178 129.47 160.207 129.317 160.175C129.161 160.128 129.027 160.026 128.941 159.887C128.855 159.749 128.823 159.584 128.85 159.423C128.908 159.27 129.023 159.145 129.171 159.074C129.319 159.004 129.489 158.994 129.644 159.047" fill="#E0E0E0"/>
<g opacity="0.6">
<path d="M132.203 164.144L132.154 162.88L117.229 163.403C117.229 163.403 116.533 163.708 116.616 164.197L132.203 164.144Z" fill="white"/>
</g>
<path d="M124.516 159.63C124.516 159.709 124.892 159.739 125.268 159.984C125.645 160.228 125.844 160.548 125.916 160.518C125.987 160.488 125.87 160.048 125.408 159.765C124.945 159.483 124.501 159.551 124.516 159.63Z" fill="#E0E0E0"/>
<path d="M122.883 160.304C122.883 160.375 123.195 160.503 123.455 160.826C123.714 161.15 123.793 161.485 123.868 161.485C123.944 161.485 123.989 161.048 123.662 160.657C123.334 160.266 122.887 160.228 122.883 160.304Z" fill="#E0E0E0"/>
<path d="M121.962 162.263C122.033 162.263 122.135 161.887 121.939 161.481C121.743 161.074 121.386 160.901 121.352 160.961C121.318 161.022 121.544 161.247 121.698 161.593C121.852 161.94 121.886 162.263 121.962 162.263Z" fill="#E0E0E0"/>
<path d="M124.648 157.782C124.682 157.85 125.024 157.745 125.461 157.782C125.897 157.82 126.213 157.944 126.266 157.876C126.319 157.808 125.98 157.541 125.472 157.5C124.964 157.459 124.611 157.722 124.648 157.782Z" fill="#E0E0E0"/>
<path d="M166.583 162.17L174.528 160.981C174.528 160.981 178.403 168.656 179.893 168.581L178.144 153.092L165.684 154.435L166.583 162.17Z" fill="#263238"/>
<path d="M129.493 105.35C129.493 105.35 130.543 102.092 132.503 101.821C134.463 101.55 136.792 101.644 138.383 102.227C140.264 102.912 143.887 104.804 147.01 109.187C149.771 113.07 154.579 119.311 156.389 123.054C157.431 125.206 159.319 128.859 157.45 129.281L155.283 128.701L138.169 128.765L131.521 117.479C131.314 117.603 129.493 105.35 129.493 105.35Z" fill="#069550"/>
<path d="M128.081 113.641C128.397 113.682 125.609 122.362 125.609 122.362L112.502 127.324L113.868 131.086C113.868 131.086 129.142 129.269 130.18 128.712C131.219 128.155 132.859 125.296 133.626 123.551C134.394 121.805 136.911 114.935 136.911 114.935L128.081 113.641Z" fill="#AE7461"/>
<path d="M112.977 126.147C112.977 126.147 111.251 125.184 110.344 125.019C109.437 124.853 105.765 124.266 105.765 124.266C105.765 124.266 105.25 124.906 106.172 125.5C106.947 125.953 107.763 126.331 108.61 126.629C108.61 126.629 105.148 127.803 104.923 127.942C104.783 128.032 104.215 128.611 104.742 129.112C105.1 129.45 106.16 129.164 106.16 129.164C106.16 129.164 105.92 130.018 106.202 130.349C106.484 130.681 106.744 130.959 106.744 130.959C106.94 131.357 107.207 131.716 107.53 132.02C107.887 132.246 108.617 132.622 108.617 132.622L109.78 132.949L113.67 131.181L116.54 131.362L116.296 125.636L112.977 126.147Z" fill="#455A64"/>
<path d="M108.217 129.085C107.888 129.195 107.541 129.246 107.194 129.236C106.849 129.266 106.502 129.236 106.167 129.149C106.507 129.118 106.849 129.107 107.19 129.116C107.532 129.086 107.875 129.076 108.217 129.085Z" fill="#263238"/>
<path d="M114.301 128.381C114.215 128.866 114.097 129.345 113.948 129.815C113.836 130.295 113.694 130.767 113.522 131.229C113.668 130.252 113.929 129.296 114.301 128.381Z" fill="#263238"/>
<path d="M114.553 125.876L114.835 131.218L116.035 131.293L115.531 125.718L114.553 125.876Z" fill="white"/>
<path d="M134.083 102.75C134.083 102.75 130.181 103.777 129.414 105.503C128.646 107.23 126.246 115.695 126.246 115.695L136.69 119.382C136.69 119.382 138.037 113.363 138.612 111.068C139.188 108.773 140.994 104.352 134.083 102.75Z" fill="#069550"/>
<path d="M126.249 115.695C126.249 115.695 126.268 115.695 126.305 115.695L126.467 115.748L127.092 115.951L129.383 116.726L136.941 119.33L136.862 119.379L136.892 119.183C137.408 116.057 137.87 113.224 138.209 111.162C138.382 110.142 138.525 109.319 138.623 108.735C138.672 108.453 138.713 108.235 138.743 108.073C138.743 108.006 138.754 107.949 138.777 107.904C138.777 107.866 138.777 107.844 138.777 107.848C138.777 107.851 138.777 107.866 138.777 107.904C138.777 107.942 138.777 108.009 138.754 108.077C138.732 108.239 138.698 108.453 138.657 108.743C138.57 109.326 138.442 110.154 138.28 111.177C137.949 113.239 137.498 116.068 136.997 119.202C136.997 119.269 136.975 119.337 136.964 119.397V119.469L136.896 119.446L129.349 116.813L127.073 116.004L126.456 115.778L126.298 115.714L126.249 115.695Z" fill="#263238"/>
<path d="M139.406 109.089C139.406 109.089 139.406 109.164 139.406 109.296C139.406 109.427 139.365 109.623 139.319 109.86C139.205 110.474 139.048 111.078 138.849 111.67C138.648 112.264 138.407 112.843 138.127 113.404C138.021 113.615 137.927 113.78 137.856 113.901C137.827 113.964 137.787 114.023 137.739 114.074C137.831 113.833 137.935 113.597 138.052 113.366C138.247 112.93 138.499 112.321 138.732 111.632C138.966 110.944 139.131 110.304 139.237 109.841C139.342 109.379 139.391 109.085 139.406 109.089Z" fill="#263238"/>
<path d="M142.107 138.517C142.107 138.517 144.256 158.219 144.948 159.897C145.64 161.575 146.528 162.854 149.485 163.448C152.442 164.043 172.791 163.072 172.791 163.072L171.704 153.121L155.715 152.704C155.715 152.704 155.817 147.2 155.914 145.127C156.012 143.054 155.719 139.694 156.648 134.216C157.408 129.645 142.107 138.517 142.107 138.517Z" fill="#263238"/>
<g opacity="0.3">
<path d="M142.704 141.948V142.031C144.405 143.336 147.52 144.04 149.657 143.912C151.793 143.784 154.107 142.091 154.66 140.56C150.783 141.698 146.739 142.168 142.704 141.948Z" fill="black"/>
</g>
<path d="M158.071 128.859C156.886 127.478 140.979 128.693 140.979 128.693C140.979 128.693 127.06 129.009 124.708 129.404C122.357 129.799 121.349 133.415 121.349 135.883C121.349 138.351 122.884 158.979 122.884 158.979H132.755C132.658 157.203 132.537 141.477 132.537 141.477C132.537 141.477 137.409 141.65 142.21 141.929C143.715 142.019 149.617 141.872 150.366 141.778C153.526 141.383 156.318 140.085 157.138 138.204C158.421 135.264 158.747 131.995 158.071 128.859Z" fill="#263238"/>
<path d="M151.722 141.722C151.658 141.74 151.593 141.75 151.527 141.752L150.974 141.794C150.488 141.828 149.789 141.861 148.923 141.891C147.193 141.955 144.785 141.986 142.151 141.929C139.518 141.873 137.118 141.741 135.38 141.613C134.518 141.549 133.818 141.493 133.337 141.444L132.784 141.384C132.719 141.38 132.654 141.368 132.592 141.35C132.657 141.339 132.723 141.339 132.787 141.35L133.344 141.372L135.391 141.478C137.118 141.564 139.507 141.673 142.163 141.73C144.819 141.786 147.189 141.782 148.935 141.756L150.985 141.722H151.542C151.602 141.714 151.662 141.714 151.722 141.722Z" fill="#455A64"/>
<path d="M153.27 156.944C153.725 155.296 154.593 153.79 155.79 152.569C155.839 152.61 155.124 153.491 154.432 154.702C153.74 155.913 153.341 156.967 153.27 156.944Z" fill="#455A64"/>
<path d="M128.562 138.186C129.324 138.556 130.019 139.049 130.62 139.645C131.269 140.191 131.822 140.84 132.257 141.568C132.208 141.605 131.504 140.725 130.481 139.796C129.458 138.866 128.529 138.231 128.562 138.186Z" fill="#455A64"/>
</g>
<path d="M43.755 149.641L44.6906 158.158C44.6906 158.158 53.269 159.552 53.6733 161.08L38.3223 164.395L36.7822 151.131L43.755 149.641Z" fill="#263238"/>
<path d="M39.7963 158.477C39.6552 158.562 39.5491 158.694 39.4975 158.851C39.4459 159.007 39.4522 159.176 39.5153 159.328C39.5802 159.475 39.7006 159.589 39.85 159.647C39.9995 159.705 40.1657 159.701 40.3123 159.636C40.4613 159.546 40.5731 159.406 40.6275 159.241C40.6819 159.075 40.6752 158.896 40.6088 158.735C40.567 158.663 40.5114 158.6 40.445 158.55C40.3787 158.5 40.303 158.463 40.2224 158.442C40.1417 158.421 40.0578 158.417 39.9754 158.429C39.893 158.441 39.8138 158.469 39.7424 158.512" fill="#E0E0E0"/>
<path d="M38.3219 164.395L38.0986 163.075L52.9183 160.379C52.9183 160.379 53.6652 160.545 53.6883 161.069L38.3219 164.395Z" fill="#455A64"/>
<path d="M44.9203 158.02C44.9203 158.101 44.5661 158.216 44.2503 158.551C43.9346 158.886 43.8037 159.26 43.7267 159.244C43.6497 159.229 43.6728 158.748 44.0617 158.351C44.4506 157.954 44.9241 157.935 44.9203 158.02Z" fill="white"/>
<path d="M46.6763 158.377C46.7071 158.45 46.4106 158.654 46.2258 159.043C46.041 159.432 46.0333 159.813 45.9601 159.813C45.887 159.813 45.7445 159.386 45.9871 158.909C46.2297 158.431 46.6609 158.319 46.6763 158.377Z" fill="white"/>
<path d="M48.0045 160.214C47.9391 160.244 47.7543 159.871 47.8582 159.397C47.9622 158.924 48.2817 158.674 48.3241 158.731C48.3664 158.789 48.2009 159.07 48.12 159.463C48.0392 159.856 48.0777 160.191 48.0045 160.214Z" fill="white"/>
<path d="M44.4013 156.136C44.4013 156.217 44.0162 156.183 43.6004 156.306C43.1846 156.429 42.8804 156.637 42.8304 156.579C42.7803 156.522 43.0383 156.167 43.5311 156.033C44.0239 155.898 44.4244 156.067 44.4013 156.136Z" fill="white"/>
<path d="M25.824 146.992L20.0872 153.353C20.0872 153.353 24.7537 160.668 23.8797 162.008L11.1738 152.737L20.0487 142.757L25.824 146.992Z" fill="#263238"/>
<path d="M16.5912 149.915C16.4347 149.866 16.266 149.875 16.1155 149.94C15.9651 150.005 15.8429 150.122 15.7711 150.269C15.7382 150.341 15.7199 150.419 15.7172 150.499C15.7144 150.578 15.7274 150.657 15.7553 150.732C15.7832 150.806 15.8255 150.874 15.8797 150.932C15.9339 150.99 15.9991 151.037 16.0714 151.07C16.238 151.122 16.4176 151.111 16.5769 151.04C16.7362 150.969 16.8644 150.843 16.9377 150.685C16.964 150.606 16.9742 150.523 16.9678 150.44C16.9615 150.357 16.9386 150.276 16.9006 150.202C16.8625 150.129 16.8101 150.063 16.7464 150.01C16.6827 149.956 16.609 149.916 16.5296 149.892" fill="#E0E0E0"/>
<path d="M11.1807 152.737L12.02 151.69L23.8788 160.969C23.8788 160.969 24.2638 161.639 23.8788 162.009L11.1807 152.737Z" fill="#455A64"/>
<path d="M20.345 153.438C20.295 153.5 19.96 153.303 19.5018 153.288C19.0437 153.272 18.674 153.426 18.6355 153.361C18.597 153.296 18.9705 152.976 19.5288 153.014C20.0871 153.053 20.4028 153.388 20.345 153.438Z" fill="white"/>
<path d="M21.2468 154.982C21.2122 155.055 20.8618 154.982 20.446 155.089C20.0302 155.197 19.7529 155.455 19.6952 155.405C19.6374 155.355 19.8684 154.962 20.3882 154.824C20.908 154.685 21.2892 154.92 21.2468 154.982Z" fill="white"/>
<path d="M20.756 157.196C20.6867 157.169 20.8445 156.784 21.268 156.545C21.6916 156.306 22.0881 156.38 22.0727 156.453C22.0573 156.526 21.7378 156.584 21.3913 156.784C21.0447 156.984 20.8214 157.234 20.756 157.196Z" fill="white"/>
<path d="M26.2431 96.0305C26.2431 96.0305 24.5336 101.883 24.7646 103.477C24.9956 105.071 35.3259 158.193 35.9304 158.193C36.5349 158.193 45.8871 156.976 45.8871 156.599C45.8871 156.221 41.0166 125.516 40.6315 121.357C40.2465 117.199 39.3378 102.815 39.3378 102.815L41.7712 99.7729L42.3795 94.7676L26.2431 96.0305Z" fill="#263238"/>
<path d="M46.6827 98.8874C46.5056 99.0992 48.3884 115.636 48.0919 119.121C47.7955 122.605 44.9694 126.886 44.9694 126.886L23.2655 153.411C23.2655 153.411 15.692 146.946 15.7267 146.611L31.3279 125.82C31.3279 125.82 35.0242 120.561 35.0473 120.333C35.0704 120.106 37.9735 93.7666 37.9735 93.7666L46.6827 98.8874Z" fill="#263238"/>
<path d="M38.1947 110.519C38.2243 110.598 38.2462 110.679 38.2601 110.762L38.4103 111.459C38.5373 112.067 38.7068 112.949 38.907 114.038C39.292 116.221 39.8079 119.244 40.3701 122.578C40.9322 125.912 41.502 128.923 41.9602 131.091C42.1912 132.177 42.3837 133.051 42.5224 133.655L42.6725 134.352C42.6964 134.432 42.7093 134.515 42.711 134.599C42.6789 134.523 42.6532 134.444 42.634 134.364C42.584 134.187 42.5224 133.956 42.4454 133.674C42.2836 133.074 42.0603 132.204 41.8216 131.122C41.3249 128.958 40.7397 125.951 40.1737 122.613C39.6077 119.275 39.1303 116.271 38.7645 114.061C38.5874 112.987 38.4372 112.109 38.3333 111.474C38.2871 111.185 38.2486 110.95 38.2216 110.769C38.2015 110.687 38.1924 110.603 38.1947 110.519Z" fill="#455A64"/>
<path d="M33.7402 149.183C33.6863 149.183 32.8046 144.563 31.7688 138.787C30.7331 133.012 29.9438 128.392 29.9977 128.365C30.0516 128.338 30.9333 133.004 31.9691 138.761C33.0048 144.517 33.7941 149.175 33.7402 149.183Z" fill="#455A64"/>
<path d="M53.234 100.624V95.946L55.3516 86.0624L51.3089 83.1709C51.3089 83.1709 46.8503 91.988 46.4037 93.4819C45.957 94.9758 46.9273 101.182 46.9273 101.182H46.9966L49.4069 112.637L53.2571 112.891L53.2263 100.64L53.234 100.624Z" fill="#FFBF9D"/>
<path d="M35.8807 64.6353L43.535 65.1435L50.5809 68.936L55.517 73.6718L47.5931 95.5258C47.5931 95.5258 47.1658 103.045 47.1542 103.677C47.1427 104.308 42.8342 107.065 36.5891 105.848C32.9089 105.151 29.3387 103.964 25.974 102.318L24.6533 99.7765L25.974 96.4653C25.974 96.4653 31.168 78.5385 31.5337 78.3961C31.8995 78.2536 35.8807 64.6353 35.8807 64.6353Z" fill="#069550"/>
<path d="M30.7177 68.1816C30.7177 68.1816 20.6608 76.6291 19.602 77.8073C18.5432 78.9855 17.0146 94.6252 17.0146 94.6252L21.2499 95.4491L25.3658 81.3957L35.1262 73.9262L30.7177 68.1816Z" fill="#FFBF9D"/>
<path d="M35.8884 64.7049C35.6304 64.4238 34.0903 65.036 31.5068 66.707C29.4777 68.0199 22.8438 73.8492 22.8438 73.8492L27.9261 81.4997C27.7105 81.5382 34.0018 76.1517 35.1607 75.0967C39.6501 71.027 36.9049 65.8214 35.8884 64.7049Z" fill="#069550"/>
<path d="M55.517 73.6606C56.2359 74.5309 56.7506 75.5513 57.0231 76.6467C57.2957 77.7422 57.3191 78.8848 57.0917 79.9905C56.5373 82.5663 55.0164 89.7971 55.0164 89.7971L48.625 85.9892L55.517 73.6606Z" fill="#069550"/>
<path d="M35.126 75.0689C35.1841 74.9325 35.2577 74.8033 35.3454 74.6839L35.9923 73.6943C36.7239 72.6294 37.2742 71.4507 37.6209 70.206C37.935 68.9519 37.7987 67.6274 37.2359 66.4636C36.9768 65.9969 36.6498 65.5713 36.2657 65.2007C36.3951 65.2699 36.5143 65.3567 36.6199 65.4587C36.9188 65.7261 37.1701 66.0425 37.363 66.3943C37.9748 67.5809 38.131 68.9506 37.8019 70.2445C37.4503 71.5109 36.8724 72.7031 36.0962 73.7637C35.8113 74.1756 35.5688 74.4991 35.3955 74.7224C35.3192 74.8478 35.2287 74.964 35.126 75.0689Z" fill="#263238"/>
<path d="M53.1479 79.7749C53.0666 80.1832 52.9547 80.5847 52.813 80.9762C52.5819 81.7077 52.247 82.7165 51.8696 83.8254C51.4923 84.9342 51.0996 85.9315 50.7954 86.6361C50.6459 87.0251 50.4548 87.3969 50.2256 87.7449C50.35 87.352 50.4966 86.9663 50.6645 86.5899C50.9456 85.8737 51.2998 84.8765 51.681 83.7676C52.0622 82.6587 52.4125 81.6577 52.6782 80.9377C52.8021 80.5377 52.9592 80.1487 53.1479 79.7749Z" fill="#263238"/>
<path d="M58.581 57.6053C59.0521 56.0192 58.9083 54.3138 58.1784 52.8289C57.4484 51.344 56.1858 50.1886 54.6422 49.593L54.3226 49.4697C50.815 48.3416 47.9004 50.6903 46.8685 54.2287L43.2646 66.0143C43.5072 71.1505 48.3239 72.1747 50.3299 70.9195C50.661 69.9339 51.1692 68.1396 51.1769 68.1435C51.1846 68.1473 54.673 68.9135 55.9897 65.6254C56.625 64.0391 57.6685 60.6663 58.581 57.6053Z" fill="#FFBF9D"/>
<path d="M51.1781 68.1429C49.6573 67.5477 48.3387 66.5296 47.3779 65.209C47.3779 65.209 47.4511 68.089 50.8432 69.0592L51.1781 68.1429Z" fill="#FF9A6C"/>
<path d="M56.3248 60.1921C56.278 60.3152 56.1851 60.4154 56.0659 60.4714C55.9467 60.5274 55.8103 60.535 55.6857 60.4924C55.6239 60.474 55.5665 60.4435 55.5169 60.4025C55.4672 60.3615 55.4262 60.311 55.3964 60.2539C55.3666 60.1968 55.3486 60.1343 55.3434 60.0701C55.3382 60.006 55.3459 59.9414 55.3661 59.8802C55.3881 59.8188 55.4219 59.7623 55.4657 59.7139C55.5096 59.6656 55.5625 59.6263 55.6215 59.5984C55.6805 59.5705 55.7444 59.5545 55.8096 59.5514C55.8748 59.5482 55.9399 59.5579 56.0014 59.5799C56.0631 59.5984 56.1206 59.6289 56.1704 59.6698C56.2203 59.7107 56.2614 59.7612 56.2915 59.8182C56.3216 59.8752 56.3401 59.9376 56.3458 60.0018C56.3515 60.066 56.3444 60.1307 56.3248 60.1921Z" fill="#263238"/>
<path d="M57.3158 58.7948C57.2349 58.8333 56.9808 58.429 56.4726 58.2365C55.9643 58.044 55.4946 58.1518 55.4638 58.0671C55.433 57.9824 55.5524 57.9401 55.7564 57.8862C56.0343 57.8196 56.3259 57.8397 56.5919 57.9439C56.8569 58.0449 57.0824 58.2285 57.2349 58.4676C57.3466 58.6447 57.3543 58.7756 57.3158 58.7948Z" fill="#263238"/>
<path d="M51.9771 58.5982C51.9311 58.722 51.8384 58.8228 51.7189 58.8789C51.5994 58.9351 51.4626 58.9421 51.338 58.8986C51.2763 58.8802 51.2189 58.8496 51.1692 58.8086C51.1195 58.7676 51.0786 58.7171 51.0488 58.66C51.019 58.6029 51.0009 58.5405 50.9957 58.4763C50.9905 58.4121 50.9982 58.3475 51.0184 58.2864C51.0645 58.1635 51.1566 58.0634 51.2752 58.0074C51.3938 57.9513 51.5296 57.9437 51.6537 57.986C51.7155 58.0045 51.773 58.0351 51.8228 58.076C51.8726 58.1169 51.9138 58.1673 51.9439 58.2243C51.974 58.2813 51.9924 58.3437 51.9981 58.4079C52.0039 58.4721 51.9967 58.5368 51.9771 58.5982Z" fill="#263238"/>
<path d="M52.3013 56.9888C52.2204 57.0273 51.9663 56.6269 51.4581 56.4305C50.9499 56.2341 50.484 56.3458 50.4532 56.2611C50.4224 56.1764 50.5379 56.1379 50.7458 56.0801C51.0239 56.0132 51.316 56.0347 51.5813 56.1417C51.8452 56.2426 52.0703 56.4246 52.2243 56.6615C52.3321 56.8386 52.3436 56.9734 52.3013 56.9888Z" fill="#263238"/>
<path d="M52.6123 61.5862C52.9124 61.6032 53.209 61.6602 53.494 61.7556C53.6288 61.7903 53.7597 61.8134 53.8136 61.7325C53.8785 61.6042 53.9014 61.4587 53.879 61.3167C53.879 60.9548 53.879 60.5774 53.879 60.1847C53.879 58.5753 53.9522 57.2739 54.0177 57.2739C54.0831 57.2739 54.1255 58.5792 54.1139 60.1886C54.1139 60.5736 54.1139 60.9586 54.1139 61.3205C54.1349 61.5088 54.0886 61.6984 53.983 61.8557C53.9465 61.8935 53.9019 61.9225 53.8525 61.9405C53.8032 61.9585 53.7503 61.9651 53.6981 61.9597C53.6188 61.9538 53.5408 61.9356 53.4671 61.9058C53.1701 61.8347 52.8831 61.7273 52.6123 61.5862Z" fill="#263238"/>
<path d="M53.0807 55.468C52.9613 55.5719 52.5224 55.2447 51.9256 54.9983C51.3288 54.7518 50.7975 54.6556 50.7705 54.4977C50.7705 54.4246 50.913 54.3476 51.1555 54.3245C51.4826 54.3011 51.8103 54.3579 52.1104 54.49C52.4083 54.6187 52.6719 54.8151 52.8804 55.0637C53.0922 55.2601 53.1346 55.4179 53.0807 55.468Z" fill="#263238"/>
<path d="M57.916 57.3121C57.7659 57.3891 57.3962 57.1157 56.8996 56.927C56.4029 56.7384 55.9485 56.6614 55.8985 56.5035C55.8754 56.4304 55.9871 56.3379 56.2104 56.2994C56.5156 56.2566 56.8268 56.2965 57.1113 56.415C57.3979 56.5222 57.6487 56.7076 57.8352 56.9501C57.9584 57.135 57.9815 57.2736 57.916 57.3121Z" fill="#263238"/>
<path d="M46.1948 56.7729C46.1486 56.7267 44.1888 55.2328 43.388 57.5083C42.5871 59.7838 45.0436 60.1227 45.0705 60.0572C45.0975 59.9917 46.1948 56.7729 46.1948 56.7729Z" fill="#FFBF9D"/>
<path d="M44.6781 58.9484C44.6781 58.9484 44.6281 58.9484 44.5511 58.9677C44.4423 58.9755 44.3348 58.941 44.2508 58.8714C44.134 58.7273 44.0581 58.5543 44.031 58.3708C44.0039 58.1872 44.0266 57.9998 44.0968 57.828C44.1599 57.6311 44.2665 57.4508 44.4086 57.3005C44.4524 57.2391 44.5102 57.189 44.5771 57.1541C44.644 57.1193 44.7182 57.1009 44.7937 57.1003C44.8436 57.1029 44.891 57.1234 44.927 57.158C44.9631 57.1927 44.9855 57.2392 44.99 57.289C44.99 57.366 44.9669 57.4045 44.99 57.4122C45.0131 57.4199 45.0516 57.4122 45.067 57.2928C45.0754 57.2311 45.0617 57.1684 45.0285 57.1157C44.9808 57.0475 44.9095 56.9994 44.8283 56.981C44.7282 56.9668 44.6261 56.9784 44.5318 57.0148C44.4374 57.0512 44.3539 57.1111 44.2893 57.1889C44.1234 57.3536 43.9993 57.5556 43.9274 57.778C43.8452 57.9774 43.8237 58.1966 43.8655 58.4082C43.9073 58.6198 44.0105 58.8144 44.1622 58.9677C44.2175 59.0065 44.2807 59.0326 44.3473 59.0439C44.4139 59.0552 44.4822 59.0516 44.5472 59.0331C44.655 59.0023 44.682 58.9561 44.6781 58.9484Z" fill="#FF9A6C"/>
<path d="M50.8931 61.355C50.974 61.3742 50.7969 61.9017 51.1203 62.4253C51.4437 62.949 52.0289 63.0799 52.0058 63.1569C51.9827 63.2339 51.848 63.2185 51.6208 63.1569C51.3113 63.0549 51.0462 62.8497 50.87 62.5755C50.7048 62.3104 50.6483 61.9918 50.7122 61.6861C50.7545 61.4474 50.8585 61.3396 50.8931 61.355Z" fill="#263238"/>
<path d="M64.2224 56.1688C64.2293 56.0206 64.1782 55.8756 64.0799 55.7645C63.8567 55.5496 63.5803 55.3981 63.2791 55.3256C62.5575 55.056 61.907 54.6254 61.377 54.0665C61.6435 54.036 61.9035 53.9632 62.1471 53.8509C62.4013 53.7414 62.6208 53.5644 62.7816 53.339C62.9425 53.1137 63.0386 52.8487 63.0596 52.5726C63.0649 52.5213 63.0587 52.4694 63.0413 52.4208C63.024 52.3721 62.9961 52.328 62.9595 52.2915C62.8247 52.1953 62.6438 52.2916 62.5013 52.3724C62.3074 52.5053 62.081 52.583 61.8464 52.5972C61.6118 52.6115 61.3777 52.5617 61.1691 52.4533C60.8731 52.3267 60.6098 52.1345 60.3991 51.8911C60.3991 51.8911 60.3991 51.8642 60.3991 51.8488C60.3221 51.6871 60.2489 51.5292 60.1719 51.3752C59.7683 50.4095 59.1782 49.5329 58.4354 48.7955C57.2823 47.8473 55.8927 47.231 54.4158 47.0129C53.1452 46.905 51.7706 47.4787 51.1893 48.6107C50.7349 47.8407 49.757 47.4903 48.8483 47.5288C47.8549 47.5288 47.0233 48.2988 46.4457 49.0958L46.3533 49.2306C45.888 49.6028 45.34 49.8577 44.7555 49.9737C44.6515 49.993 44.5322 50.0161 44.486 50.1123C44.4729 50.1624 44.4725 50.215 44.4845 50.2653C44.4966 50.3157 44.5209 50.3623 44.5553 50.4011C44.7158 50.6279 44.925 50.816 45.1675 50.9517C45.0106 51.1368 44.8394 51.3093 44.6554 51.4676C44.4937 51.6024 44.305 51.7602 44.3281 51.9681C44.3437 52.0478 44.3842 52.1206 44.4437 52.1759C44.5031 52.2312 44.5786 52.2663 44.6592 52.2761C44.8196 52.2947 44.9821 52.2803 45.1367 52.2338L44.5476 52.8229C44.8508 52.9885 45.188 53.0821 45.5332 53.0963C45.4216 54.0049 45.0134 55.6143 45.0288 56.2612C45.6295 56.4845 45.7989 56.4729 46.0684 56.6808C46.4188 56.9504 46.0184 57.5972 46.6036 57.578C46.9001 57.578 47.6509 56.7193 47.8357 56.4845C49.0423 54.9149 49.8971 53.1041 50.3422 51.175C50.8483 50.9133 51.3998 50.7512 51.967 50.6975L51.9131 50.7206C52.9604 50.7206 54.127 50.7784 54.8585 51.5292C55.4245 52.1106 55.5747 52.9653 55.8866 53.7123C56.1364 54.3839 56.5257 54.995 57.0287 55.5053C57.5317 56.0156 58.1371 56.4136 58.8051 56.6731C58.5779 57.7243 58.035 59.3683 57.7539 60.3424L59.2209 58.7446C59.3248 58.656 59.4172 58.5636 59.5097 58.4712L59.5405 58.4443C59.6843 58.289 59.8359 58.1412 59.9948 58.0015C60.0586 58.1546 60.1807 58.2762 60.3341 58.3394C60.4875 58.4026 60.6598 58.4022 60.813 58.3384C60.9661 58.2746 61.0877 58.1525 61.1509 57.9991C61.214 57.8456 61.2137 57.6734 61.1499 57.5202C61.1072 57.3836 61.045 57.2539 60.9651 57.1352C61.0415 57.2869 61.1557 57.4165 61.2966 57.5116C61.4375 57.6066 61.6004 57.664 61.7698 57.6781C61.9396 57.6858 62.1073 57.6372 62.2466 57.5397C62.3859 57.4421 62.489 57.3013 62.5398 57.139C62.5654 57.0267 62.5611 56.9097 62.5273 56.7995C62.4936 56.6894 62.4315 56.5901 62.3473 56.5114C62.7495 56.6901 63.1959 56.7451 63.6294 56.6693C63.8912 56.6346 64.1993 56.4922 64.2224 56.1688Z" fill="#263238"/>
<path d="M52.0786 49.3579C51.9264 49.4094 51.7784 49.4725 51.6358 49.5466C51.2598 49.7733 50.9482 50.0928 50.731 50.4745C50.5747 50.7325 50.4457 51.006 50.346 51.2907C50.2382 51.5988 50.1458 51.9376 50.0457 52.2918C49.9484 52.6661 49.8275 53.0339 49.6838 53.393C49.6061 53.5836 49.5134 53.7677 49.4065 53.9436C49.3067 54.1387 49.1565 54.3035 48.9715 54.421C48.8917 54.4666 48.8015 54.4906 48.7096 54.4906C48.6178 54.4906 48.5276 54.4666 48.4478 54.421C48.2954 54.3337 48.1762 54.1983 48.109 54.036C48.0151 53.723 48.0071 53.3905 48.0859 53.0734L48.1514 53.1081C47.9626 53.3235 47.7434 53.5103 47.5007 53.6625C47.2693 53.8008 46.9936 53.8449 46.7306 53.7857C46.6067 53.7536 46.4945 53.6868 46.4072 53.5932C46.3246 53.5078 46.2708 53.3988 46.2532 53.2813C46.2372 53.1736 46.2491 53.0635 46.2878 52.9617C46.3263 52.8661 46.3972 52.7871 46.4881 52.7384L46.5112 52.7808C46.2322 52.9399 45.9223 53.0371 45.6025 53.0657C45.5192 53.0728 45.4355 53.0728 45.3522 53.0657C45.323 53.0714 45.2929 53.0714 45.2637 53.0657H45.3522C45.41 53.0657 45.4947 53.0657 45.6025 53.0426C45.9139 53.0043 46.2141 52.902 46.4842 52.7423L46.5112 52.7885C46.4316 52.8384 46.3697 52.9122 46.3345 52.9993C46.2992 53.0864 46.2923 53.1824 46.3148 53.2736C46.3321 53.379 46.3804 53.4768 46.4534 53.5547C46.5341 53.6338 46.6356 53.6885 46.746 53.7125C46.9929 53.7668 47.2512 53.7226 47.466 53.5893C47.7024 53.4393 47.9163 53.2565 48.1013 53.0465L48.186 52.954L48.1668 53.0773C48.0922 53.3804 48.0988 53.6978 48.186 53.9975C48.2454 54.144 48.3526 54.2661 48.4902 54.344C48.558 54.3836 48.635 54.4044 48.7135 54.4044C48.792 54.4044 48.8691 54.3836 48.9368 54.344C49.1075 54.2321 49.2467 54.0784 49.3411 53.8974C49.4466 53.7254 49.5381 53.5451 49.6145 53.3583C49.7576 53.0017 49.8784 52.6365 49.9764 52.2649C50.0765 51.9106 50.1727 51.5718 50.2883 51.2638C50.388 50.9767 50.517 50.7006 50.6733 50.4398C50.8983 50.0534 51.2227 49.7343 51.6127 49.5158C51.7582 49.4378 51.9157 49.3844 52.0786 49.3579Z" fill="#455A64"/>
<path d="M61.2535 56.257H61.2188L61.1149 56.2878C61.0687 56.2878 61.0109 56.3147 60.9416 56.3263C60.862 56.3451 60.7808 56.3567 60.6991 56.3609C60.1807 56.4083 59.6588 56.3235 59.1821 56.1145C58.4691 55.8099 57.8603 55.3042 57.4302 54.6591C56.9155 53.8701 56.567 52.9845 56.406 52.0563C56.3059 51.5674 56.252 51.0822 56.1712 50.6202C56.1035 50.1781 55.9739 49.7478 55.7861 49.3419C55.6106 48.9755 55.3458 48.6591 55.0161 48.4217C54.868 48.3171 54.7042 48.2365 54.5309 48.183C54.3695 48.1355 54.2025 48.1096 54.0343 48.106C53.7442 48.1039 53.4569 48.163 53.1911 48.2792C52.9893 48.368 52.8034 48.4889 52.6405 48.6373C52.5068 48.7683 52.3904 48.9158 52.2939 49.0762C52.2939 49.0762 52.2939 49.0762 52.2939 49.0416L52.3478 48.9453C52.4192 48.8243 52.5059 48.713 52.6058 48.6142C52.7687 48.4568 52.9559 48.3268 53.1603 48.2292C53.4309 48.1053 53.725 48.0409 54.0227 48.0405C54.1958 48.0427 54.368 48.0673 54.5348 48.1137C54.7165 48.1659 54.8882 48.2479 55.043 48.3562C55.3753 48.6006 55.6402 48.9251 55.8131 49.2996C56.0031 49.7127 56.1328 50.1509 56.1981 50.6009C56.2828 51.063 56.3367 51.5481 56.4368 52.0332C56.5945 52.9509 56.9363 53.8271 57.4417 54.6091C57.8625 55.2447 58.4573 55.7459 59.1551 56.0529C59.6242 56.2614 60.1366 56.3539 60.649 56.3224C60.8517 56.3141 61.0537 56.2922 61.2535 56.257Z" fill="#455A64"/>
<path d="M62.0738 54.8983C62.0738 54.8983 62.0237 54.9175 61.9275 54.9406C61.7892 54.9695 61.6489 54.9876 61.5078 54.9945C61.3004 55.0151 61.0915 55.0151 60.8841 54.9945C60.623 54.9661 60.3652 54.9132 60.114 54.8367C59.8695 54.7592 59.6334 54.6573 59.4094 54.5325C59.2272 54.431 59.0534 54.3151 58.8896 54.186C58.7804 54.097 58.6774 54.0005 58.5816 53.8972C58.5444 53.8618 58.512 53.8217 58.4854 53.7778C58.4854 53.7778 58.6471 53.928 58.9281 54.1359C59.0925 54.2596 59.2663 54.3703 59.4479 54.467C59.6706 54.5832 59.9024 54.6811 60.141 54.7596C60.3809 54.8349 60.627 54.889 60.8764 54.9214C61.0808 54.9457 61.2866 54.956 61.4924 54.9522C61.8582 54.9252 62.0738 54.8829 62.0738 54.8983Z" fill="#455A64"/>
<path d="M54.693 119.19C54.7353 119.171 55.1897 116.853 55.3822 116.294C55.5904 115.555 55.5607 114.768 55.2975 114.046C55.0241 113.557 54.1924 112.121 53.869 111.643C53.753 111.496 53.6979 111.31 53.715 111.124L53.9807 108.54L48.0859 109.961C48.0859 109.961 49.114 113.176 48.9638 113.942C48.8136 114.708 48.702 115.748 48.6057 116.152C48.5095 116.556 48.6712 117.057 49.4027 116.999C49.4027 116.999 49.3411 117.646 50.1189 117.654C50.1183 117.733 50.1338 117.811 50.1644 117.884C50.195 117.957 50.2401 118.023 50.297 118.078C50.3538 118.133 50.4213 118.176 50.4952 118.205C50.5692 118.233 50.6481 118.246 50.7272 118.243C51.3433 118.266 53.0027 118.628 53.2876 118.551C53.4823 118.477 53.6584 118.361 53.8036 118.212C53.8036 118.212 53.7227 119.613 54.693 119.19Z" fill="#E0E0E0"/>
<path d="M81.0594 127.063L1.84425 93.8358C1.51149 93.6952 1.24699 93.4299 1.10739 93.0967C0.967783 92.7635 0.964161 92.3889 1.0973 92.0531L1.25901 91.6411C1.32624 91.4692 1.42725 91.3124 1.55606 91.1801C1.68488 91.0478 1.83889 90.9427 2.009 90.8709C2.17912 90.7992 2.36189 90.7622 2.54653 90.7622C2.73117 90.7622 2.91393 90.7992 3.08403 90.8711L82.1221 124.511C82.3439 124.604 82.5374 124.754 82.6832 124.946C82.829 125.137 82.9222 125.364 82.9533 125.602C82.9845 125.841 82.9526 126.084 82.8608 126.306C82.769 126.529 82.6205 126.724 82.4301 126.871C82.2389 127.021 82.0114 127.118 81.7707 127.152C81.5299 127.186 81.2846 127.155 81.0594 127.063Z" fill="#AE7461"/>
<path d="M52.7383 118.539C53.1645 118.506 53.5723 118.351 53.9126 118.093C54.0516 117.889 54.152 117.662 54.2091 117.423C54.3361 117.003 54.4516 116.583 54.5594 116.156C54.673 115.841 54.6838 115.499 54.5903 115.178C54.5118 115.004 54.3762 114.862 54.206 114.776C54.0358 114.69 53.8412 114.665 53.6546 114.704" fill="#E0E0E0"/>
<path d="M53.6546 114.704C53.6546 114.704 53.6739 114.704 53.7085 114.685C53.7623 114.679 53.8165 114.679 53.8703 114.685C54.0725 114.689 54.2665 114.765 54.417 114.901C54.5222 114.994 54.6006 115.113 54.6442 115.247C54.691 115.4 54.7054 115.562 54.6865 115.721C54.6302 116.073 54.5478 116.42 54.4401 116.76C54.3361 117.122 54.2553 117.472 54.1359 117.781C54.0803 117.932 53.9937 118.069 53.8818 118.185C53.7705 118.266 53.6488 118.332 53.5199 118.381C53.3382 118.46 53.1483 118.518 52.9539 118.554C52.8835 118.575 52.8087 118.575 52.7383 118.554C52.8097 118.549 52.8805 118.537 52.95 118.52C53.1378 118.474 53.3209 118.411 53.4968 118.331C53.6165 118.278 53.7302 118.212 53.8356 118.135C53.9393 118.025 54.0169 117.893 54.0628 117.75C54.1783 117.449 54.2553 117.095 54.3631 116.733C54.4677 116.398 54.55 116.056 54.6095 115.709C54.631 115.561 54.6205 115.41 54.5787 115.266C54.5419 115.141 54.4729 115.029 54.3785 114.939C54.2382 114.808 54.0578 114.728 53.8664 114.712C53.7239 114.693 53.6585 114.712 53.6546 114.704Z" fill="#263238"/>
<path d="M51.2012 117.826C51.5299 117.869 51.8639 117.816 52.1631 117.673C52.4623 117.53 52.7138 117.304 52.8876 117.022C53.2269 116.451 53.464 115.826 53.5883 115.174C53.6532 115.015 53.685 114.845 53.6817 114.673C53.6784 114.502 53.64 114.333 53.5691 114.176C53.4936 114.077 53.3965 113.996 53.2851 113.939C53.1738 113.882 53.051 113.852 52.9261 113.849C52.7661 113.835 52.6049 113.856 52.4543 113.912C52.3037 113.968 52.1676 114.057 52.0559 114.173" fill="#E0E0E0"/>
<path d="M52.0559 114.173C52.0559 114.173 52.0559 114.173 52.0944 114.119C52.1397 114.07 52.1915 114.027 52.2484 113.992C52.458 113.862 52.7035 113.803 52.9492 113.823C53.1202 113.832 53.2854 113.888 53.4266 113.984C53.5088 114.042 53.5772 114.117 53.6271 114.204C53.677 114.292 53.7072 114.389 53.7154 114.489C53.727 114.703 53.7023 114.918 53.6422 115.124C53.5883 115.336 53.5306 115.555 53.469 115.778C53.3645 116.206 53.1916 116.615 52.9569 116.987C52.7582 117.29 52.4851 117.537 52.1637 117.704C51.9476 117.816 51.7067 117.873 51.463 117.869C51.3969 117.868 51.3311 117.86 51.2666 117.846C51.2204 117.846 51.2012 117.846 51.2012 117.827C51.2012 117.808 51.2936 117.827 51.463 117.827C51.6987 117.817 51.9291 117.754 52.1368 117.642C52.449 117.474 52.7138 117.231 52.9068 116.934C53.1308 116.564 53.2982 116.163 53.4035 115.744C53.4651 115.524 53.519 115.305 53.5768 115.093C53.6343 114.896 53.659 114.69 53.6499 114.485C53.6438 114.395 53.6182 114.307 53.575 114.228C53.5318 114.149 53.472 114.08 53.3997 114.027C53.2671 113.936 53.1131 113.882 52.953 113.869C52.7183 113.845 52.4818 113.893 52.2754 114.007C52.1977 114.056 52.1242 114.112 52.0559 114.173Z" fill="#263238"/>
<path d="M50.0536 116.845C50.5541 116.776 51.1086 116.672 51.4128 116.267C51.5465 116.056 51.6465 115.824 51.7092 115.582C51.8016 115.324 51.9133 115.078 51.9864 114.812C52.0726 114.552 52.0846 114.273 52.0211 114.007C51.9896 113.874 51.9246 113.752 51.8323 113.651C51.7399 113.551 51.6233 113.476 51.4936 113.433C51.3627 113.396 51.2224 113.407 51.0996 113.466C50.9767 113.525 50.8799 113.627 50.8275 113.753C50.789 113.869 50.7967 113.999 50.7659 114.119C50.6697 114.504 50.1845 114.743 50.1383 115.147C50.0155 115.043 49.8644 114.978 49.7045 114.961C49.5446 114.944 49.3832 114.975 49.2412 115.051" fill="#E0E0E0"/>
<path d="M49.2412 115.055C49.2593 115.041 49.2787 115.03 49.299 115.02C49.3547 114.991 49.4144 114.97 49.4761 114.958C49.5948 114.935 49.7173 114.938 49.8345 114.968C49.9517 114.998 50.0608 115.054 50.1537 115.132H50.1114C50.1547 114.925 50.261 114.737 50.4155 114.593C50.5944 114.433 50.7127 114.217 50.7505 113.98C50.7526 113.843 50.7955 113.709 50.8737 113.595C50.9699 113.478 51.1079 113.402 51.2587 113.384C51.4176 113.362 51.5787 113.402 51.7092 113.495C51.8411 113.587 51.945 113.714 52.0095 113.861C52.1126 114.124 52.1288 114.412 52.0557 114.685C51.994 114.933 51.9116 115.175 51.8093 115.409C51.7208 115.632 51.663 115.852 51.5706 116.052C51.489 116.241 51.3556 116.404 51.1856 116.521C50.9359 116.675 50.6563 116.774 50.3655 116.81L50.1345 116.841C50.1063 116.844 50.0779 116.844 50.0498 116.841C50.0498 116.841 50.1614 116.818 50.3616 116.776C50.6426 116.729 50.9112 116.625 51.1509 116.471C51.3097 116.357 51.4337 116.201 51.509 116.021C51.5937 115.828 51.6515 115.605 51.74 115.378C51.8373 115.147 51.9171 114.909 51.9787 114.666C52.0456 114.411 52.0294 114.141 51.9325 113.896C51.8833 113.762 51.7924 113.647 51.6731 113.569C51.5539 113.491 51.4127 113.453 51.2703 113.461C51.137 113.477 51.0148 113.543 50.9276 113.645C50.8543 113.75 50.8165 113.876 50.8198 114.003C50.8103 114.142 50.7638 114.275 50.6851 114.388C50.6165 114.486 50.5405 114.579 50.4579 114.666C50.3091 114.799 50.2055 114.975 50.1614 115.17V115.22L50.1229 115.185C50.0359 115.112 49.9344 115.057 49.8249 115.025C49.7155 114.994 49.6006 114.985 49.4876 115.001C49.4042 115.012 49.3218 115.03 49.2412 115.055Z" fill="#263238"/>
<path d="M23.155 99.654C23.1077 99.3464 23.029 99.0446 22.9201 98.7531C22.5451 98.0322 22.1299 97.3329 21.6765 96.6585C21.6765 96.6585 22.4235 94.4754 22.3388 94.3253C22.254 94.1751 16.3978 92.7852 16.3978 92.7852V95.6651C16.3978 95.6651 15.185 99.4114 15.3351 99.9967C15.4853 100.582 16.2746 100.844 16.2746 100.844C16.2746 100.844 16.0012 101.814 16.6596 101.937C16.9783 102.016 17.3112 102.016 17.6299 101.937C17.6299 101.937 17.5683 102.846 18.1766 102.846H18.9659C18.9659 102.846 18.6618 103.574 19.632 103.697C20.6023 103.82 21.8267 102.484 21.8267 102.484C21.4589 102.343 21.1088 102.159 20.7832 101.937C20.6947 101.787 20.0556 101.552 20.4521 100.905C20.6971 100.514 21.004 100.166 21.3608 99.8735L23.155 99.654Z" fill="#E0E0E0"/>
<path d="M88.1664 123.895C87.2654 124.445 85.3172 125.72 85.3172 125.72L75.1448 121.458C75.1448 121.458 73.7318 122.024 73.4199 124.018L81.9675 127.791C81.9675 127.791 77.1662 131.002 77.197 131.591C77.2278 132.18 92.6827 138.356 98.7007 134.96C104.457 131.711 94.6156 125.469 89.4293 123.752C89.221 123.683 89.0002 123.66 88.7822 123.685C88.5642 123.709 88.3541 123.781 88.1664 123.895Z" fill="#E0E0E0"/>
<path d="M88.1679 123.895C88.2193 123.856 88.2748 123.822 88.3334 123.795C88.5065 123.714 88.6934 123.667 88.884 123.656C89.025 123.649 89.1664 123.662 89.3037 123.695C89.4577 123.729 89.6117 123.791 89.785 123.849C90.1315 123.964 90.5242 124.114 90.9401 124.295C91.9959 124.738 93.0244 125.243 94.0203 125.808C95.3544 126.546 96.6164 127.407 97.7897 128.38C98.4745 128.95 99.092 129.596 99.6301 130.306C99.9167 130.688 100.147 131.109 100.315 131.557C100.512 132.034 100.554 132.561 100.436 133.064C100.318 133.567 100.045 134.02 99.657 134.36C99.2752 134.703 98.8476 134.992 98.3865 135.218C97.3792 135.662 96.301 135.923 95.2023 135.989C92.8607 136.12 90.5122 135.931 88.2218 135.426C85.7605 134.924 83.3388 134.245 80.9756 133.393C80.1285 133.089 79.2969 132.77 78.4883 132.412C78.0779 132.238 77.6814 132.034 77.3025 131.799C77.2472 131.765 77.1978 131.722 77.1561 131.672C77.1372 131.65 77.1239 131.624 77.1176 131.595C77.1135 131.571 77.1135 131.546 77.1176 131.522C77.1245 131.486 77.1375 131.45 77.1561 131.418C77.2131 131.315 77.2844 131.22 77.3679 131.137C77.5175 130.976 77.6769 130.824 77.8453 130.683C79.155 129.619 80.5171 128.622 81.9266 127.695V127.861L73.3829 124.076L73.3213 124.049V123.987C73.3852 123.439 73.5802 122.915 73.8899 122.459C74.1995 122.002 74.6147 121.627 75.1001 121.365H75.1309H75.1617L85.3187 125.662H85.2956L87.4286 124.322L87.9792 123.98L88.1679 123.872C88.1679 123.872 88.1101 123.918 87.9908 123.999L87.4479 124.357L85.3418 125.731H85.3225L75.1348 121.496H75.1964C74.7401 121.724 74.3542 122.071 74.0798 122.501C73.7915 122.954 73.6025 123.463 73.5254 123.995L73.4753 123.906L82.0267 127.672L82.1884 127.741L82.0421 127.838C80.6945 128.762 79.2969 129.713 77.9839 130.818C77.8217 130.955 77.6674 131.101 77.5219 131.257C77.4513 131.326 77.3904 131.405 77.341 131.491C77.341 131.491 77.3179 131.53 77.341 131.538H77.2909C77.3058 131.543 77.3222 131.543 77.3371 131.538C77.367 131.571 77.4021 131.6 77.4411 131.622C77.8093 131.85 78.1956 132.047 78.5961 132.211C79.397 132.569 80.2287 132.889 81.068 133.189C83.4229 134.037 85.8354 134.715 88.2872 135.218C90.5611 135.72 92.8923 135.913 95.2177 135.792C96.2957 135.721 97.3528 135.461 98.3403 135.022C98.8043 134.803 99.2347 134.519 99.6185 134.179C99.9815 133.85 100.239 133.422 100.358 132.947C100.451 132.482 100.411 132 100.242 131.557C100.08 131.122 99.8567 130.713 99.58 130.34C99.0525 129.639 98.4467 129.001 97.7743 128.438C96.6117 127.465 95.3629 126.601 94.0434 125.855C93.0466 125.283 92.0182 124.769 90.9632 124.315C90.5294 124.13 90.1443 123.976 89.8081 123.853C89.6387 123.795 89.4808 123.729 89.3345 123.691C89.2022 123.659 89.0663 123.645 88.9302 123.648C88.6595 123.665 88.3973 123.75 88.1679 123.895Z" fill="#263238"/>
<path d="M86.5888 126.648C86.6599 126.663 86.7285 126.688 86.7929 126.721L87.355 126.964L89.4149 127.888L92.4566 129.285C92.7415 129.42 93.0342 129.539 93.3345 129.701C93.4879 129.786 93.6301 129.889 93.758 130.009C93.9008 130.138 93.9981 130.31 94.0352 130.498C94.0512 130.597 94.0465 130.698 94.0213 130.795C93.9961 130.891 93.951 130.982 93.8889 131.06C93.7681 131.214 93.6067 131.33 93.423 131.395C93.0632 131.492 92.6891 131.525 92.318 131.492C90.9415 131.454 89.578 131.214 88.2714 130.779C87.2073 130.433 86.1679 130.015 85.1604 129.528C84.2979 129.12 83.6203 128.758 83.1429 128.511L82.6038 128.219C82.538 128.19 82.477 128.151 82.4229 128.103C82.4929 128.12 82.5602 128.145 82.6231 128.18L83.1775 128.442C83.6588 128.673 84.3518 129.008 85.2181 129.401C86.2287 129.864 87.2663 130.265 88.3253 130.602C89.6178 131.021 90.9636 131.253 92.3219 131.291C92.6681 131.323 93.0173 131.294 93.3537 131.207C93.5018 131.169 93.632 131.081 93.7214 130.957C93.8108 130.833 93.8537 130.681 93.8427 130.529C93.7938 130.384 93.7151 130.25 93.6117 130.137C93.5083 130.023 93.3824 129.933 93.2421 129.871C92.961 129.717 92.6568 129.59 92.3758 129.451L89.3533 128.015L87.3242 127.033L86.7775 126.756C86.7116 126.725 86.6485 126.689 86.5888 126.648Z" fill="#263238"/>
<path d="M96.2101 131.857C96.5945 131.298 96.7539 130.614 96.6565 129.943C96.5591 129.272 96.2121 128.662 95.6847 128.235C95.1572 127.808 94.4883 127.596 93.8113 127.641C93.1343 127.685 92.4991 127.984 92.0325 128.476C92.1394 128.037 92.1108 127.576 91.9504 127.154C91.79 126.731 91.5053 126.367 91.1339 126.109C90.7625 125.852 90.3218 125.713 89.8698 125.71C89.4179 125.708 88.9758 125.843 88.602 126.097C88.1418 126.522 87.745 127.011 87.4238 127.549C87.0243 127.444 86.6077 127.422 86.1994 127.483C85.2407 127.795 84.6593 129.193 84.9134 130.178L84.8711 130.198C84.5829 130.317 84.3427 130.529 84.1882 130.8C84.0338 131.071 83.9739 131.386 84.018 131.695C84.0621 132.003 84.2077 132.289 84.4319 132.506C84.656 132.723 84.946 132.859 85.2561 132.893C85.9102 132.993 86.578 132.953 87.2159 132.777C87.52 133.682 88.5096 134.206 89.4606 134.263C90.4171 134.256 91.3628 134.061 92.2443 133.69C93.2247 134.177 94.3386 134.327 95.4131 134.117C95.715 134.084 96.0054 133.983 96.2623 133.821C96.5192 133.658 96.7357 133.44 96.8954 133.182C97.1611 132.662 96.8146 131.842 96.2101 131.857Z" fill="#AE7461"/>
<path d="M92.768 131.865C92.6895 131.934 92.5996 131.988 92.5023 132.026C92.2547 132.154 91.9972 132.261 91.7322 132.346C91.3277 132.477 90.9008 132.526 90.4771 132.488C89.9444 132.436 89.4496 132.189 89.0871 131.795C88.9556 131.648 88.8536 131.477 88.7868 131.291L88.9139 131.349C88.132 131.615 87.2767 131.561 86.5344 131.199C86.3198 131.096 86.1192 130.967 85.9376 130.814C85.8144 130.698 85.7567 130.629 85.7644 130.621C86.0307 130.791 86.3057 130.946 86.5883 131.087C87.3045 131.396 88.1102 131.428 88.8484 131.176L88.9408 131.141L88.9755 131.233C89.0341 131.396 89.1229 131.546 89.2373 131.676C89.5685 132.033 90.0164 132.26 90.5002 132.315C90.9005 132.359 91.3055 132.326 91.6937 132.219C92.356 132.03 92.7526 131.83 92.768 131.865Z" fill="#263238"/>
</g>
<path d="M135.286 54.7665C135.21 53.8666 135.067 52.9736 134.859 52.0949C134.742 51.3946 134.437 50.739 133.977 50.1981C133.435 49.6996 132.735 49.4066 132 49.3699C132.48 49.2001 132.911 48.9159 133.256 48.5417C133.797 47.9062 134.141 47.1261 134.244 46.2976C134.429 45.5466 134.501 44.7722 134.458 44C134.544 45.3736 135.1 46.6757 136.034 47.6868C136.615 48.1567 137.321 48.4448 138.064 48.515C137.315 48.7217 136.663 49.185 136.221 49.824C135.911 50.2931 135.735 50.8383 135.713 51.4003C135.446 53.3505 135.366 54.7665 135.286 54.7665Z" fill="#E3F2FD"/>
<path d="M84.185 31.7686C84.0186 30.378 83.7792 28.9971 83.4679 27.6316C83.2965 26.5426 82.829 25.5217 82.1165 24.6805C81.2676 23.891 80.159 23.4397 79 23.4119C79.7506 23.1208 80.4284 22.6689 80.9858 22.088C81.8321 21.0937 82.3775 19.8786 82.5578 18.5854C82.8277 17.4106 82.9298 16.2035 82.8612 15C82.9894 17.139 83.8571 19.1669 85.3158 20.7366C86.2148 21.4886 87.3207 21.9502 88.4875 22.0604C87.4437 22.2802 86.5028 22.8415 85.8136 23.6556C85.1243 24.4697 84.726 25.4902 84.6814 26.556C84.3781 29.5622 84.2954 31.7686 84.185 31.7686Z" fill="#E3F2FD"/>
<path d="M34.8468 53.4408C34.7234 52.4091 34.5458 51.3846 34.3148 50.3715C34.1876 49.5636 33.8408 48.8062 33.3122 48.1821C32.6824 47.5963 31.8598 47.2615 31 47.2408C31.5569 47.0249 32.0597 46.6897 32.4733 46.2587C33.1012 45.521 33.5058 44.6195 33.6396 43.66C33.8398 42.7884 33.9155 41.8929 33.8646 41C33.9598 42.5869 34.6036 44.0915 35.6858 45.256C36.3527 45.814 37.1732 46.1565 38.0389 46.2382C37.2645 46.4013 36.5664 46.8177 36.0551 47.4217C35.5437 48.0257 35.2482 48.7828 35.2151 49.5735C34.99 51.8038 34.9287 53.4408 34.8468 53.4408Z" fill="#E3F2FD"/>
<defs>
<linearGradient id="paint0_linear_5404_199284" x1="87.75" y1="112.829" x2="87.75" y2="141.671" gradientUnits="userSpaceOnUse">
<stop stop-color="#2196F3"/>
<stop offset="1" stop-color="#004798"/>
</linearGradient>
<clipPath id="clip0_5404_199284">
<rect width="168" height="168" fill="white"/>
</clipPath>
<clipPath id="clip1_5404_199284">
<path d="M99 90H169V151C169 160.941 160.941 169 151 169H99V90Z" fill="white"/>
</clipPath>
</defs>
</svg>
