<svg width="148" height="44" viewBox="0 0 148 44" fill="none" xmlns="http://www.w3.org/2000/svg">
    <path d="M1 15C1 7.26801 7.26801 1 15 1H29V32L26 29H15C7.26801 29 1 22.732 1 15Z" fill="#FFCD2A"/>
    <path d="M15 15H43V29C43 36.732 36.732 43 29 43C21.268 43 15 36.732 15 29V15Z" fill="#24B8EB"/>
    <path d="M29 15V32L26 29H15V15H29Z" fill="#0D8E45"/>
    <path d="M58.942 5.2H55.246V15H58.942C65.326 14.972 65.326 5.228 58.942 5.2ZM57.752 7.482H58.942C62.064 7.482 62.064 12.718 58.942 12.718H57.752V7.482ZM72.116 15H74.566V14.636L70.142 5.074H69.064L64.654 14.636V15H67.104L67.678 13.768H71.542L72.116 15ZM70.73 11.626H68.49L69.596 9.05L70.73 11.626ZM77.7288 12.004C76.8748 12.004 76.1468 12.004 75.3068 12.004C75.2508 16.316 83.2308 16.246 83.2308 12.13C83.2308 9.68 81.3268 9.386 79.3808 9.176C78.4988 9.078 77.7708 8.924 77.8268 8.182C77.9108 7.02 80.5428 6.908 80.5428 8.21C81.3968 8.21 82.0408 8.21 82.9228 8.21C82.9788 3.982 75.3628 3.982 75.4468 8.21C75.4748 10.338 76.8748 11.066 79.0028 11.22C79.9828 11.276 80.7948 11.43 80.7948 12.116C80.7948 13.264 77.7288 13.25 77.7288 12.004ZM93.3729 5.2C92.5189 5.2 91.6649 5.2 90.8109 5.2V8.756H87.7869V5.2C86.9329 5.2 86.0649 5.2 85.2249 5.2V15C86.0649 15 86.9329 15 87.7869 15V11.066H90.8109V15C91.6649 15 92.5189 15 93.3729 15V5.2ZM103.253 8.21C103.253 6.516 101.895 5.2 100.201 5.2H96.015V15H100.607C102.609 15 103.645 13.614 103.659 11.906C103.659 11.038 103.281 10.31 102.483 9.904C102.959 9.512 103.253 8.798 103.253 8.21ZM100.425 11.108C101.433 11.108 101.447 12.774 100.439 12.774H98.437V11.108H100.425ZM100.005 7.44C101.013 7.44 101.013 9.022 100.019 9.022H98.437V7.44H100.005ZM115.203 10.114C115.203 3.338 105.151 3.338 105.151 10.114C105.151 16.904 115.203 16.904 115.203 10.114ZM107.727 10.114C107.727 6.586 112.641 6.586 112.641 10.114C112.641 13.67 107.727 13.67 107.727 10.114ZM123.566 15H126.016V14.636L121.592 5.074H120.514L116.104 14.636V15H118.554L119.128 13.768H122.992L123.566 15ZM122.18 11.626H119.94L121.046 9.05L122.18 11.626ZM133.799 11.528C136.277 9.848 135.577 5.214 131.727 5.2C130.299 5.2 128.843 5.2 127.429 5.2C127.429 8.476 127.429 11.738 127.429 15C128.241 15 129.095 15 129.935 15V12.116H131.237L132.917 15H135.717V14.636L133.799 11.528ZM131.727 9.89H129.935C129.935 9.106 129.935 8.238 129.935 7.44C130.523 7.44 131.139 7.426 131.727 7.44C133.155 7.454 133.085 9.89 131.727 9.89ZM141.068 5.2H137.372V15H141.068C147.452 14.972 147.452 5.228 141.068 5.2ZM139.878 7.482H141.068C144.19 7.482 144.19 12.718 141.068 12.718H139.878V7.482Z" fill="#FFFFFF"/>
    <path d="M68.45 21.5H61.325C61.325 22.8 61.325 24.1 61.325 25.475H63.875V33.1C63.875 34.5 63 35.2 61.7 35.2C60.4 35.2 59.375 34.475 59.375 33.1V30.9C57.975 30.9 56.525 30.9 55.15 30.9V33.175C55.15 37 58.1 39.2 61.7 39.2C65.3 39.2 68.45 37 68.45 33.175V21.5ZM85.4027 39H89.7777V38.35L81.8777 21.275H79.9527L72.0777 38.35V39H76.4527L77.4777 36.8H84.3777L85.4027 39ZM82.9277 32.975H78.9277L80.9027 28.375L82.9277 32.975ZM106.501 26.875C106.501 23.85 104.076 21.5 101.051 21.5H93.5756V39H101.776C105.351 39 107.201 36.525 107.226 33.475C107.226 31.925 106.551 30.625 105.126 29.9C105.976 29.2 106.501 27.925 106.501 26.875ZM101.451 32.05C103.251 32.05 103.276 35.025 101.476 35.025H97.9006V32.05H101.451ZM100.701 25.5C102.501 25.5 102.501 28.325 100.726 28.325H97.9006V25.5H100.701ZM123.339 39H127.714V38.35L119.814 21.275H117.889L110.014 38.35V39H114.389L115.414 36.8H122.314L123.339 39ZM120.864 32.975H116.864L118.839 28.375L120.864 32.975ZM142.862 32.8C147.287 29.8 146.037 21.525 139.162 21.5C136.612 21.5 134.012 21.5 131.487 21.5C131.487 27.35 131.487 33.175 131.487 39C132.937 39 134.462 39 135.962 39V33.85H138.287L141.287 39H146.287V38.35L142.862 32.8ZM139.162 29.875H135.962C135.962 28.475 135.962 26.925 135.962 25.5C137.012 25.5 138.112 25.475 139.162 25.5C141.712 25.525 141.587 29.875 139.162 29.875Z" fill="#FFFFFF"/>
</svg>
