<svg width="159" height="159" viewBox="0 0 159 159" fill="none" xmlns="http://www.w3.org/2000/svg">
<rect width="158.525" height="158.525" rx="14.1962" fill="#1565C0"/>
<mask id="mask0_4236_16204" style="mask-type:alpha" maskUnits="userSpaceOnUse" x="0" y="0" width="159" height="159">
<rect width="158.525" height="158.525" rx="9.46416" fill="#E3F2FD"/>
</mask>
<g mask="url(#mask0_4236_16204)">
<path d="M0 -26.0271H158.525V53.2352C158.525 97.0106 123.038 132.498 79.2623 132.498C35.4869 132.498 0 97.0106 0 53.2352V-26.0271Z" fill="#2196F3"/>
</g>
<path d="M52.2187 60.2386C52.1737 59.7058 52.0891 59.177 51.9656 58.6567C51.8963 58.242 51.7159 57.8539 51.4435 57.5335C51.1226 57.2384 50.7085 57.0649 50.2729 57.0432C50.557 56.9427 50.8122 56.7743 51.0164 56.5528C51.3371 56.1765 51.5406 55.7146 51.6017 55.224C51.7114 54.7793 51.754 54.3208 51.7283 53.8635C51.7791 54.6769 52.1087 55.4479 52.6616 56.0466C53.0053 56.3248 53.4236 56.4954 53.8639 56.537C53.4204 56.6593 53.034 56.9337 52.7723 57.3121C52.5886 57.5898 52.4846 57.9126 52.4718 58.2454C52.3136 59.4002 52.2661 60.2386 52.2187 60.2386Z" fill="#E3F2FD"/>
<path d="M102.491 24.3297C102.446 23.7968 102.362 23.2681 102.238 22.7478C102.169 22.3331 101.988 21.9449 101.716 21.6246C101.395 21.3294 100.981 21.1559 100.545 21.1342C100.829 21.0337 101.085 20.8654 101.289 20.6438C101.61 20.2676 101.813 19.8056 101.874 19.315C101.984 18.8704 102.026 18.4118 102.001 17.9546C102.052 18.7679 102.381 19.5389 102.934 20.1376C103.278 20.4159 103.696 20.5865 104.136 20.628C103.693 20.7504 103.306 21.0248 103.045 21.4031C102.861 21.6809 102.757 22.0037 102.744 22.3365C102.586 23.4913 102.539 24.3297 102.491 24.3297Z" fill="#E3F2FD"/>
<path d="M139.819 30.5227C139.711 29.6294 139.556 28.7422 139.354 27.865C139.242 27.1654 138.939 26.5095 138.477 25.9691C137.926 25.4619 137.207 25.172 136.455 25.1541C136.942 24.9671 137.381 24.6768 137.743 24.3036C138.292 23.6648 138.646 22.8842 138.763 22.0534C138.938 21.2986 139.004 20.5231 138.96 19.75C139.043 21.1242 139.606 22.427 140.553 23.4354C141.136 23.9185 141.853 24.2151 142.61 24.2859C141.933 24.4271 141.323 24.7876 140.876 25.3107C140.428 25.8337 140.17 26.4893 140.141 27.174C139.944 29.1053 139.89 30.5227 139.819 30.5227Z" fill="#E3F2FD"/>
<path d="M32.2001 39.8484C32.0886 38.9261 31.9283 38.0103 31.7198 37.1047C31.6049 36.3825 31.2918 35.7054 30.8146 35.1475C30.2459 34.6239 29.5033 34.3246 28.7271 34.3061C29.2298 34.1131 29.6838 33.8134 30.0572 33.4282C30.6241 32.7687 30.9893 31.9629 31.1102 31.1052C31.2909 30.326 31.3593 29.5254 31.3133 28.7273C31.3992 30.1459 31.9805 31.4908 32.9575 32.5319C33.5596 33.0306 34.3004 33.3368 35.082 33.4099C34.3828 33.5556 33.7526 33.9279 33.2909 34.4678C32.8293 35.0077 32.5624 35.6845 32.5326 36.3913C32.3294 38.3851 32.274 39.8484 32.2001 39.8484Z" fill="#E3F2FD"/>
<g clip-path="url(#clip0_4236_16204)">
<path d="M136.386 158.51C136.386 158.544 112.285 158.572 82.5586 158.572C52.8321 158.572 28.7266 158.544 28.7266 158.51C28.7266 158.476 52.8229 158.448 82.5586 158.448C112.294 158.448 136.386 158.476 136.386 158.51Z" fill="#263238"/>
<path d="M31.8052 62.026L44.7817 136.333L99.501 127.74L102.037 121.615L87.2324 52.9031L35.9419 55.9656L31.8052 62.026Z" fill="#E0E0E0"/>
<path opacity="0.3" d="M44.7817 136.333L48.6691 130.374L35.6926 56.0671L31.8052 62.026L44.7817 136.333Z" fill="black"/>
<path d="M35.6943 56.0668L48.6709 130.374L102.039 121.614L88.5576 48.5259L35.6943 56.0668Z" fill="#FAFAFA"/>
<path d="M35.7046 56.0669L88.5433 48.4521H88.6079V48.5168C92.3784 68.9388 97.0507 94.2362 102.105 121.599L102.12 121.682H102.037L101.157 121.827L48.6688 130.445H48.5949V130.371C40.974 86.4953 35.8062 56.7225 35.7046 56.0669C35.8185 56.7225 41.0479 86.486 48.755 130.362L48.6688 130.3L101.154 121.682L102.034 121.537L101.966 121.636C96.9245 94.2701 92.2645 68.9696 88.5002 48.5445L88.5771 48.5999L35.7046 56.0669Z" fill="#263238"/>
<path d="M78.4792 91.2566C79.1409 86.2772 75.6408 81.7042 70.6614 81.0424C65.682 80.3807 61.1089 83.8808 60.4472 88.8602C59.7855 93.8396 63.2856 98.4127 68.265 99.0744C73.2444 99.7361 77.8175 96.236 78.4792 91.2566Z" fill="#FFD026"/>
<path d="M65.2933 92.4419L64.8809 89.8257L73.9515 88.3914L74.3393 90.8537C74.3393 90.8537 73.7884 92.9713 70.1164 93.55C66.4444 94.1286 65.2933 92.4419 65.2933 92.4419Z" fill="#008444"/>
<path d="M63.4482 89.8416L69.9211 90.9896L75.5352 87.8317L69.0531 86.8098L63.4482 89.8416Z" fill="#008444"/>
<path d="M81.5583 64.433L49.3961 69.5155C49.0015 69.5779 48.7322 69.9483 48.7945 70.3429L48.9031 71.0299C48.9655 71.4245 49.3359 71.6938 49.7305 71.6315L81.8927 66.549C82.2873 66.4866 82.5566 66.1162 82.4942 65.7217L82.3857 65.0346C82.3233 64.64 81.9529 64.3707 81.5583 64.433Z" fill="#E0E0E0"/>
<path d="M76.4729 69.7852L56.0763 73.0084C55.6817 73.0708 55.4124 73.4412 55.4747 73.8358L55.5833 74.5229C55.6456 74.9174 56.0161 75.1868 56.4106 75.1244L76.8073 71.9012C77.2019 71.8388 77.4712 71.4684 77.4089 71.0738L77.3003 70.3868C77.2379 69.9922 76.8675 69.7229 76.4729 69.7852Z" fill="#E0E0E0"/>
<path d="M83.8177 115.376L63.421 118.6C63.0264 118.662 62.7571 119.032 62.8194 119.427L62.928 120.114C62.9904 120.509 63.3608 120.778 63.7554 120.715L84.152 117.492C84.5466 117.43 84.8159 117.059 84.7536 116.665L84.645 115.978C84.5827 115.583 84.2122 115.314 83.8177 115.376Z" fill="#E0E0E0"/>
<path d="M99.2868 123.68L99.0282 123.73L98.2649 123.859L95.3132 124.351L84.3527 126.149L47.3253 132.172H47.2452V132.092C46.7128 129.165 46.168 126.084 45.6139 122.939C42.6499 106.09 39.966 90.836 38.0238 79.7924C37.0604 74.2737 36.2817 69.8045 35.743 66.7143C35.4753 65.1753 35.269 63.9749 35.1275 63.1562C35.0597 62.7458 35.0074 62.438 34.9705 62.2328C34.9366 62.0235 34.9243 61.925 34.9243 61.925C34.9243 61.925 34.9489 62.0297 34.989 62.2328C35.029 62.436 35.0844 62.753 35.1582 63.1562C35.306 63.9749 35.5245 65.1692 35.8015 66.7081C36.3525 69.7861 37.1497 74.2644 38.1346 79.7801C40.0921 90.8237 42.7823 106.075 45.7771 122.92C46.3311 126.057 46.8728 129.138 47.393 132.074L47.2976 132.009L84.3342 126.044L95.3008 124.293L98.2587 123.831L99.022 123.714L99.2868 123.68Z" fill="#263238"/>
<path d="M95.2194 126.475C95.2194 126.475 95.1394 126.493 94.9763 126.521L94.256 126.647L91.4674 127.121L81.101 128.854L45.9296 134.675L45.8496 134.69V134.61L43.8458 123.619L36.1172 81.0787C35.1384 75.637 34.3474 71.2294 33.7964 68.1853C33.5286 66.6648 33.3193 65.4829 33.1808 64.6765C33.1131 64.2794 33.0608 63.9716 33.0239 63.7531C32.9869 63.5346 32.9746 63.4453 32.9746 63.4453C32.9746 63.4453 32.9992 63.55 33.0392 63.7531L33.2147 64.6765C33.3624 65.4798 33.584 66.6617 33.8672 68.1792L36.2372 81.0664C38.2255 91.953 40.9711 106.989 44.0028 123.603C44.6892 127.368 45.3571 131.052 46.0004 134.595L45.908 134.527L81.0918 128.762L91.4644 127.078L94.256 126.632L94.9794 126.521L95.2194 126.475Z" fill="#263238"/>
<path d="M36.9821 87.5332L35.7817 89.2353L38.6996 106.743L40.4386 107.333L36.9821 87.5332Z" fill="#263238"/>
<path d="M45.3148 86.0756L36.9829 87.5312L40.4419 107.33L48.7739 105.875L45.3148 86.0756Z" fill="#263238"/>
<path d="M45.5841 85.3101L45.0414 85.4048C44.7316 85.4589 44.5243 85.7538 44.5784 86.0636L48.0784 106.118C48.1325 106.428 48.4274 106.635 48.7372 106.581L49.28 106.486C49.5898 106.432 49.7971 106.137 49.743 105.827L46.243 85.7731C46.1889 85.4633 45.8939 85.256 45.5841 85.3101Z" fill="#263238"/>
<path d="M43.5213 92.5737L38.1134 95.6517C37.726 95.2362 37.2435 94.921 36.7073 94.7334C36.1711 94.5457 35.5974 94.4911 35.0355 94.5744C34.1258 94.7183 33.3076 95.2099 32.7535 95.9455C32.1994 96.6811 31.9526 97.6032 32.0653 98.5172C32.1679 99.2812 32.5193 99.9901 33.0652 100.534C33.611 101.079 34.321 101.428 35.0853 101.529C35.8496 101.629 36.6257 101.475 37.2937 101.091C37.9618 100.706 38.4846 100.112 38.7813 99.4006L44.8848 100.373C44.9485 100.383 45.0136 100.377 45.0747 100.357C45.1358 100.337 45.1912 100.302 45.2363 100.256C45.2814 100.21 45.3149 100.154 45.3341 100.092C45.3532 100.031 45.3575 99.9657 45.3465 99.9023L44.1153 92.8569C44.1037 92.7937 44.0773 92.7342 44.0382 92.6833C43.9991 92.6323 43.9485 92.5913 43.8906 92.5637C43.8326 92.5361 43.7689 92.5226 43.7047 92.5243C43.6405 92.5261 43.5777 92.543 43.5213 92.5737Z" stroke="#455A64" stroke-width="0.615584" stroke-miterlimit="10"/>
<path d="M48.0392 105.856C48.0209 105.79 48.0065 105.723 47.9961 105.656C47.9684 105.511 47.9345 105.323 47.8914 105.089C47.796 104.575 47.6667 103.858 47.5067 103C47.1989 101.214 46.7557 98.7828 46.2755 96.0957C45.7953 93.4087 45.3891 90.971 45.0782 89.1858C44.9335 88.3148 44.8166 87.6038 44.7335 87.0897C44.6965 86.8527 44.6688 86.665 44.6473 86.5173C44.6336 86.4494 44.6284 86.3801 44.6319 86.311C44.6549 86.3749 44.6714 86.4409 44.6811 86.508C44.7119 86.6558 44.7519 86.8435 44.7981 87.0744C44.8966 87.5884 45.032 88.3055 45.1952 89.1612C45.5245 90.9279 45.9646 93.3656 46.4417 96.065C46.9188 98.7643 47.3343 101.205 47.6267 102.978C47.7714 103.861 47.8853 104.579 47.956 105.077C47.9899 105.326 48.0207 105.517 48.033 105.65C48.0435 105.718 48.0455 105.787 48.0392 105.856Z" fill="#455A64"/>
<path d="M40.2742 107.401C40.2516 107.337 40.2361 107.271 40.228 107.204L40.1234 106.625C40.0279 106.111 39.8987 105.394 39.7386 104.532C39.4308 102.75 38.9876 100.318 38.5075 97.6312C38.0273 94.9442 37.621 92.5065 37.3101 90.7182C37.1686 89.8503 37.0516 89.1393 36.9654 88.6222C36.9285 88.3882 36.9008 88.1974 36.8792 88.0497C36.8648 87.984 36.8586 87.9168 36.8608 87.8496C36.8839 87.9126 36.9014 87.9775 36.9131 88.0435C36.9408 88.1913 36.9808 88.379 37.027 88.6099C37.1255 89.1239 37.2609 89.841 37.424 90.6998C37.7534 92.4634 38.1935 94.9042 38.6552 97.6005C39.1169 100.297 39.5478 102.744 39.8402 104.513C39.9849 105.4 40.0987 106.117 40.1695 106.613C40.2065 106.862 40.2342 107.053 40.2465 107.188C40.2611 107.258 40.2704 107.329 40.2742 107.401Z" fill="#455A64"/>
<path d="M74.9268 87.9775C74.7935 88.0819 74.6514 88.1746 74.5021 88.2546L73.314 88.9532C72.3045 89.535 70.904 90.3352 69.3527 91.2094H69.325H69.2973H69.2327C67.4629 90.9016 65.8654 90.5938 64.7081 90.3814L63.3385 90.1105C63.1692 90.0843 63.0025 90.0442 62.8398 89.9905C63.0116 89.9942 63.1826 90.0138 63.3508 90.049L64.7266 90.2675C65.8901 90.4583 67.4967 90.7323 69.2635 91.0462H69.325H69.2727C70.8117 90.1721 72.2337 89.3903 73.2555 88.8332L74.4867 88.1807C74.6275 88.1007 74.7747 88.0328 74.9268 87.9775Z" fill="#FFF9E1"/>
<path d="M51.3036 65.6366L50.7778 62.3833L52.7412 62.066L52.7977 62.4155L51.2283 62.6691L51.4059 63.7684L52.8737 63.5311L52.9302 63.8806L51.4624 64.1178L51.6411 65.2234L53.2359 64.9657L53.2924 65.3151L51.3036 65.6366ZM54.981 65.0422L53.9771 65.2045L53.4513 61.9512L54.4997 61.7818C54.8153 61.7308 55.0958 61.7523 55.3414 61.8463C55.5868 61.9392 55.7889 62.0972 55.9478 62.3204C56.1065 62.5425 56.213 62.8219 56.2674 63.1587C56.3222 63.4976 56.309 63.7991 56.2278 64.0632C56.1464 64.3263 56.0009 64.5422 55.7913 64.7108C55.5815 64.8784 55.3114 64.9888 54.981 65.0422ZM54.3145 64.7913L54.8991 64.6969C55.1681 64.6534 55.3826 64.5655 55.5427 64.4331C55.7028 64.3008 55.8107 64.1317 55.8666 63.926C55.9225 63.7203 55.929 63.4851 55.8862 63.2203C55.8438 62.9577 55.7643 62.7385 55.6479 62.5628C55.5313 62.3861 55.3796 62.2606 55.1926 62.1865C55.0055 62.1114 54.7849 62.0943 54.5308 62.1354L53.9017 62.237L54.3145 64.7913ZM58.8013 61.0866L59.1953 61.0229L59.5434 63.1769C59.5793 63.3993 59.559 63.6063 59.4824 63.798C59.4067 63.9885 59.2822 64.1493 59.1089 64.2806C58.9354 64.4107 58.7211 64.4965 58.4659 64.5377C58.2106 64.579 57.9802 64.5651 57.7746 64.4962C57.5687 64.4262 57.3994 64.3129 57.2665 64.1562C57.1344 63.9982 57.0505 63.808 57.0145 63.5856L56.6664 61.4316L57.0603 61.368L57.4033 63.4902C57.429 63.649 57.4868 63.7848 57.5767 63.8974C57.6665 64.0089 57.7817 64.0897 57.9223 64.1398C58.0639 64.1887 58.2252 64.1984 58.4063 64.1692C58.5874 64.1399 58.7374 64.0798 58.8564 63.9889C58.9752 63.8968 59.059 63.7839 59.108 63.6499C59.1579 63.5147 59.17 63.3677 59.1443 63.2088L58.8013 61.0866ZM62.7641 61.4893L62.3702 61.553C62.3286 61.4435 62.2717 61.3505 62.1996 61.2741C62.1286 61.1976 62.047 61.1369 61.955 61.092C61.8639 61.0459 61.7662 61.016 61.6618 61.0024C61.5575 60.9889 61.4513 60.9908 61.3433 61.0083C61.1463 61.0401 60.9759 61.1187 60.8321 61.2441C60.6893 61.3693 60.5865 61.5365 60.5236 61.7455C60.4617 61.9544 60.4535 62.1996 60.499 62.4813C60.5446 62.763 60.6296 62.9932 60.7541 63.172C60.8797 63.3505 61.0299 63.4767 61.2049 63.5506C61.3809 63.6243 61.5673 63.6453 61.7643 63.6134C61.8723 63.596 61.9737 63.5644 62.0685 63.5186C62.1632 63.4729 62.2467 63.4143 62.3188 63.3429C62.3918 63.2702 62.45 63.1864 62.4933 63.0914C62.5375 62.9951 62.5622 62.889 62.5674 62.773L62.9613 62.7093C62.9585 62.8804 62.9286 63.0379 62.8714 63.1818C62.8143 63.3258 62.7349 63.4533 62.6333 63.5643C62.5315 63.6742 62.412 63.7647 62.2746 63.8358C62.1382 63.9067 61.988 63.9554 61.8239 63.982C61.5464 64.0268 61.2887 63.9989 61.0508 63.8983C60.8128 63.7976 60.6117 63.6324 60.4474 63.4025C60.2831 63.1726 60.1732 62.8861 60.1178 62.5429C60.0623 62.1998 60.0764 61.8933 60.1599 61.6233C60.2434 61.3534 60.3822 61.1332 60.5763 60.9627C60.7705 60.7923 61.0063 60.6846 61.2837 60.6398C61.4479 60.6132 61.6058 60.6122 61.7575 60.6365C61.9103 60.6607 62.0524 60.7095 62.1838 60.7828C62.315 60.855 62.4304 60.9505 62.53 61.0691C62.6294 61.1867 62.7074 61.3268 62.7641 61.4893ZM63.8956 63.6015L63.4826 63.6682L64.1514 60.2219L64.558 60.1562L66.2784 63.2164L65.8654 63.2831L64.4506 60.7017L64.4252 60.7058L63.8956 63.6015ZM63.8427 62.306L65.5075 62.037L65.564 62.3865L63.8992 62.6555L63.8427 62.306ZM65.7578 60.3209L65.7014 59.9714L68.1413 59.5771L68.1978 59.9266L67.1748 60.0919L67.6441 62.9957L67.2501 63.0593L66.7808 60.1556L65.7578 60.3209ZM69.1432 59.4152L69.669 62.6684L69.2751 62.7321L68.7493 59.4788L69.1432 59.4152ZM72.9409 60.4705C72.9964 60.8136 72.9824 61.1202 72.8988 61.3901C72.8153 61.6601 72.6765 61.8803 72.4824 62.0507C72.2883 62.2212 72.0525 62.3288 71.775 62.3737C71.4976 62.4185 71.2399 62.3906 71.0019 62.29C70.764 62.1894 70.5628 62.0241 70.3986 61.7942C70.2343 61.5643 70.1244 61.2778 70.0689 60.9347C70.0135 60.5916 70.0275 60.285 70.111 60.0151C70.1945 59.7451 70.3333 59.5249 70.5275 59.3545C70.7216 59.184 70.9574 59.0763 71.2349 59.0315C71.5123 58.9867 71.77 59.0145 72.008 59.1152C72.2459 59.2158 72.447 59.3811 72.6113 59.611C72.7756 59.8409 72.8855 60.1274 72.9409 60.4705ZM72.5597 60.5321C72.5142 60.2504 72.4286 60.0203 72.303 59.8417C72.1785 59.663 72.0283 59.5368 71.8523 59.4631C71.6773 59.3892 71.4914 59.3682 71.2944 59.4C71.0974 59.4319 70.927 59.5105 70.7832 59.6359C70.6405 59.7611 70.5376 59.9282 70.4747 60.1372C70.4128 60.3461 70.4046 60.5914 70.4502 60.8731C70.4957 61.1548 70.5807 61.385 70.7052 61.5637C70.8308 61.7423 70.9811 61.8685 71.156 61.9424C71.332 62.0161 71.5185 62.037 71.7154 62.0052C71.9124 61.9733 72.0823 61.8948 72.2251 61.7696C72.3689 61.6442 72.4717 61.4771 72.5336 61.2682C72.5965 61.0592 72.6052 60.8138 72.5597 60.5321ZM75.9202 58.3199L76.4459 61.5732L76.0647 61.6348L73.8791 59.367L73.8474 59.3721L74.2602 61.9264L73.8662 61.9901L73.3404 58.7368L73.7217 58.6752L75.9146 60.9483L75.9464 60.9432L75.5326 58.3826L75.9202 58.3199Z" fill="#1565C0"/>
<path d="M48.6034 117.256H74.8458V131.026H48.6034C47.1626 131.026 45.7808 130.454 44.7621 129.435C43.7433 128.416 43.1709 127.034 43.1709 125.594V122.685C43.1709 121.244 43.7433 119.862 44.7621 118.844C45.7808 117.825 47.1626 117.252 48.6034 117.252V117.256Z" fill="#069550"/>
<path d="M67.9844 117.256H123.332C123.571 117.256 123.8 117.351 123.969 117.52C124.138 117.689 124.233 117.919 124.233 118.158V118.629C124.233 118.868 124.138 119.097 123.969 119.266C123.8 119.436 123.571 119.531 123.332 119.531H67.9844V117.244V117.256Z" fill="#069550"/>
<path d="M67.9844 128.74H123.332C123.571 128.74 123.8 128.835 123.969 129.004C124.138 129.173 124.233 129.402 124.233 129.642V130.125C124.233 130.364 124.138 130.593 123.969 130.762C123.8 130.932 123.571 131.027 123.332 131.027H67.9844V128.74Z" fill="#069550"/>
<path d="M122.555 128.74H74.2591C73.0395 128.74 71.8699 128.255 71.0075 127.393C70.1451 126.53 69.6606 125.361 69.6606 124.141C69.6631 122.923 70.1486 121.756 71.0107 120.896C71.8729 120.035 73.0411 119.552 74.2591 119.552H122.555C121.917 120.999 121.587 122.564 121.587 124.146C121.587 125.728 121.917 127.292 122.555 128.74Z" fill="#F5F5F5"/>
<path opacity="0.3" d="M69.6603 131.026H48.7058C47.2364 131.026 45.8272 130.443 44.7882 129.404C43.7492 128.365 43.1655 126.956 43.1655 125.486V122.753C43.1655 121.295 43.7447 119.897 44.7756 118.866C45.8065 117.835 47.2048 117.256 48.6627 117.256H70.1835C65.1973 120.275 65.5697 127.508 69.6603 131.026Z" fill="black"/>
<path d="M116.687 124.568C116.687 124.614 106.773 124.648 94.5477 124.648C82.3222 124.648 72.4082 124.614 72.4082 124.568C72.4082 124.522 82.3191 124.485 94.5477 124.485C106.776 124.485 116.687 124.522 116.687 124.568Z" fill="#263238"/>
<path d="M121.244 126.613C121.244 126.66 111.333 126.696 99.1079 126.696C86.8824 126.696 76.9653 126.66 76.9653 126.613C76.9653 126.567 86.8762 126.53 99.1079 126.53C111.34 126.53 121.244 126.567 121.244 126.613Z" fill="#263238"/>
<path d="M119.901 121.67C119.901 121.713 109.987 121.75 97.7616 121.75C85.5361 121.75 75.6221 121.713 75.6221 121.67C75.6221 121.627 85.533 121.587 97.7616 121.587C109.99 121.587 119.901 121.624 119.901 121.67Z" fill="#263238"/>
<path d="M67.238 130.063C67.238 130.106 62.5965 130.143 56.8746 130.143C51.1527 130.143 46.5112 130.106 46.5112 130.063C46.5112 130.02 51.1497 129.98 56.8746 129.98C62.5995 129.98 67.238 130.017 67.238 130.063Z" fill="#263238"/>
<path d="M67.238 118.398C67.238 118.444 62.5965 118.481 56.8746 118.481C51.1527 118.481 46.5112 118.444 46.5112 118.398C46.5112 118.351 51.1497 118.318 56.8746 118.318C62.5995 118.318 67.238 118.355 67.238 118.398Z" fill="#263238"/>
<path d="M37.0136 140.694H72.3758V158.429H37.0136C35.5728 158.429 34.191 157.857 33.1722 156.838C32.1534 155.82 31.5811 154.438 31.5811 152.997V146.124C31.5811 144.683 32.1534 143.301 33.1722 142.283C34.191 141.264 35.5728 140.691 37.0136 140.691V140.694Z" fill="#069550"/>
<path d="M63.54 140.694H135.083C135.322 140.694 135.552 140.789 135.721 140.958C135.89 141.127 135.985 141.357 135.985 141.596V142.738C135.985 142.977 135.89 143.206 135.721 143.376C135.552 143.545 135.322 143.64 135.083 143.64H63.54V140.694Z" fill="#069550"/>
<path d="M63.54 155.484H135.083C135.322 155.484 135.552 155.579 135.721 155.748C135.89 155.917 135.985 156.147 135.985 156.386V157.528C135.985 157.767 135.89 157.996 135.721 158.165C135.552 158.334 135.322 158.429 135.083 158.429H63.54V155.484Z" fill="#069550"/>
<path d="M133.822 155.484H71.6267C70.8487 155.485 70.0783 155.332 69.3595 155.034C68.6407 154.737 67.9875 154.301 67.4372 153.751C66.887 153.201 66.4505 152.548 66.1527 151.829C65.8549 151.11 65.7017 150.34 65.7017 149.562C65.7017 147.991 66.3259 146.484 67.437 145.373C68.5482 144.261 70.0553 143.637 71.6267 143.637H133.822C132.999 145.503 132.573 147.521 132.573 149.561C132.573 151.6 132.999 153.618 133.822 155.484Z" fill="#F5F5F5"/>
<path opacity="0.3" d="M65.7002 158.43H36.9462C35.5242 158.43 34.1604 157.865 33.1549 156.859C32.1494 155.854 31.5845 154.49 31.5845 153.068V146.244C31.5845 144.775 32.1682 143.366 33.2072 142.327C34.2462 141.288 35.6554 140.704 37.1247 140.704H66.365C59.9537 144.585 60.4277 153.899 65.7002 158.43Z" fill="black"/>
<path d="M126.265 150.109C126.265 150.155 113.498 150.192 97.7541 150.192C82.0105 150.192 69.2402 150.155 69.2402 150.109C69.2402 150.063 82.0044 150.029 97.7541 150.029C113.504 150.029 126.265 150.066 126.265 150.109Z" fill="#263238"/>
<path d="M132.142 152.745C132.142 152.791 119.375 152.828 103.631 152.828C87.8875 152.828 75.1172 152.791 75.1172 152.745C75.1172 152.699 87.8782 152.662 103.631 152.662C119.384 152.662 132.142 152.699 132.142 152.745Z" fill="#263238"/>
<path d="M130.402 147.669C130.402 147.712 117.635 147.749 101.888 147.749C86.1417 147.749 73.3745 147.712 73.3745 147.669C73.3745 147.626 86.1387 147.586 101.888 147.586C117.638 147.586 130.402 147.623 130.402 147.669Z" fill="#263238"/>
<path d="M62.582 157.186C62.582 157.232 56.6047 157.269 49.2362 157.269C41.8676 157.269 35.8872 157.232 35.8872 157.186C35.8872 157.14 41.8615 157.103 49.2362 157.103C56.6109 157.103 62.582 157.14 62.582 157.186Z" fill="#263238"/>
<path d="M62.582 142.166C62.582 142.212 56.6047 142.249 49.2362 142.249C41.8676 142.249 35.8872 142.212 35.8872 142.166C35.8872 142.12 41.8615 142.083 49.2362 142.083C56.6109 142.083 62.582 142.12 62.582 142.166Z" fill="#263238"/>
<path d="M53.8314 130.605H82.967V140.762H53.8314C52.7702 140.762 51.7524 140.341 51.002 139.59C50.2516 138.84 49.8301 137.822 49.8301 136.761V134.607C49.8301 133.545 50.2516 132.528 51.002 131.777C51.7524 131.027 52.7702 130.605 53.8314 130.605Z" fill="#455A64"/>
<path d="M75.7891 130.605H133.703C133.954 130.605 134.194 130.705 134.371 130.882C134.549 131.059 134.648 131.3 134.648 131.55V132.055C134.648 132.306 134.549 132.546 134.371 132.723C134.194 132.9 133.954 133 133.703 133H75.7891V130.608V130.605Z" fill="#455A64"/>
<path d="M75.7891 138.367H133.703C133.954 138.367 134.194 138.467 134.371 138.644C134.549 138.821 134.648 139.062 134.648 139.312V139.817C134.648 140.068 134.549 140.308 134.371 140.485C134.194 140.662 133.954 140.762 133.703 140.762H75.7891V138.371V138.367Z" fill="#455A64"/>
<path d="M132.893 138.367H80.2329C79.5203 138.367 78.8368 138.084 78.3329 137.58C77.829 137.076 77.5459 136.392 77.5459 135.68C77.5459 135.327 77.6154 134.978 77.7505 134.652C77.8856 134.326 78.0835 134.03 78.3331 133.781C78.5827 133.532 78.8789 133.334 79.2049 133.199C79.5309 133.065 79.8802 132.995 80.2329 132.996H132.893C131.539 134.785 131.539 136.575 132.893 138.367Z" fill="#F5F5F5"/>
<path opacity="0.3" d="M77.5431 140.759H53.8431C53.3136 140.759 52.7893 140.655 52.3001 140.452C51.8109 140.25 51.3664 139.953 50.992 139.578C50.6176 139.204 50.3206 138.759 50.118 138.27C49.9153 137.781 49.811 137.257 49.811 136.727V134.717C49.811 133.627 50.2443 132.581 51.0154 131.81C51.7866 131.038 52.8325 130.605 53.9231 130.605H78.0941C72.877 132.831 73.2648 138.165 77.5431 140.759Z" fill="black"/>
<path d="M126.753 135.25C126.753 135.296 116.381 135.333 103.586 135.333C90.7908 135.333 80.4336 135.305 80.4336 135.25C80.4336 135.194 90.8031 135.167 103.598 135.167C116.393 135.167 126.753 135.213 126.753 135.25Z" fill="#263238"/>
<path d="M131.526 136.702C131.526 136.748 121.157 136.785 108.362 136.785C95.5668 136.785 85.1973 136.748 85.1973 136.702C85.1973 136.656 95.5668 136.622 108.362 136.622C121.157 136.622 131.526 136.659 131.526 136.702Z" fill="#263238"/>
<path d="M75.0064 139.749C75.0064 139.792 70.1525 139.829 64.1629 139.829C58.1732 139.829 53.3193 139.792 53.3193 139.749C53.3193 139.706 58.1732 139.666 64.1629 139.666C70.1525 139.666 75.0064 139.703 75.0064 139.749Z" fill="#263238"/>
<path d="M75.0064 131.8C75.0064 131.846 70.1525 131.883 64.1629 131.883C58.1732 131.883 53.3193 131.846 53.3193 131.8C53.3193 131.753 58.1732 131.719 64.1629 131.719C70.1525 131.719 75.0064 131.753 75.0064 131.8Z" fill="#263238"/>
<path d="M133.956 130.605C133.956 130.648 116.148 130.685 94.1804 130.685C72.2133 130.685 54.4014 130.648 54.4014 130.605C54.4014 130.562 72.2071 130.522 94.1804 130.522C116.154 130.522 133.956 130.559 133.956 130.605Z" fill="#263238"/>
<path d="M102.018 121.518V127.034L103.929 125.806L106.059 127.034V121.518H102.018Z" fill="#FF9500"/>
<path d="M121.218 66.4319L111.593 74.4468L96.9546 103.37L106.081 107.494L120.319 79.1283L121.218 66.4319Z" fill="#1A4373"/>
<g opacity="0.7">
<path d="M120.547 79.4684C120.436 79.4945 120.321 79.4948 120.21 79.4691C120.1 79.4435 119.996 79.3927 119.909 79.3206C119.821 79.2485 119.751 79.1572 119.704 79.0536C119.657 78.9501 119.635 78.8371 119.639 78.7235C119.336 79.0782 118.929 79.3288 118.475 79.4397C118.022 79.5507 117.545 79.5166 117.112 79.3422C116.679 79.1677 116.312 78.8618 116.063 78.4675C115.813 78.0732 115.693 77.6105 115.721 77.1446C115.315 77.3628 114.859 77.4693 114.399 77.4533C113.939 77.4373 113.491 77.2994 113.102 77.0536C112.713 76.8077 112.396 76.4629 112.184 76.0544C111.972 75.6458 111.872 75.1882 111.895 74.7284L121.436 66.772L120.547 79.4684Z" fill="white"/>
</g>
<path d="M117.574 69.9972C117.574 69.9972 117.722 72.3919 121.077 71.9763L121.446 66.7747L117.574 69.9972Z" fill="#0D47A1"/>
<path d="M115.721 77.1443L101.609 105.554L97.1826 103.707L111.821 74.7743L111.895 74.7158C111.873 75.1015 111.941 75.487 112.092 75.8423C112.295 76.3083 112.623 76.7089 113.04 76.9996C113.554 77.3477 114.176 77.4985 114.791 77.4244C115.116 77.3902 115.431 77.2952 115.721 77.1443Z" fill="#083461"/>
<path d="M119.638 78.7239L105.138 107.305L106.307 107.835L120.546 79.4687C120.353 79.504 120.154 79.4665 119.988 79.3636C119.821 79.2607 119.699 79.0996 119.644 78.9116C119.634 78.8496 119.632 78.7865 119.638 78.7239Z" fill="#083461"/>
<path d="M115.648 74.3861C115.618 74.4224 115.6 74.468 115.599 74.5154C115.599 74.5823 115.625 74.6466 115.671 74.6956C115.716 74.7446 115.778 74.7747 115.845 74.7801C116.063 74.7894 116.278 74.7302 116.461 74.6108C116.575 74.5427 116.666 74.4419 116.722 74.3215C116.753 74.2554 116.766 74.1828 116.761 74.1102C116.756 74.0377 116.734 73.9674 116.695 73.906C116.644 73.8438 116.581 73.793 116.509 73.7569C116.438 73.7209 116.359 73.7003 116.279 73.6967C116.1 73.6816 115.92 73.6909 115.744 73.7244C115.352 73.7907 114.977 73.9374 114.645 74.1553C114.556 74.2095 114.48 74.282 114.422 74.368C114.363 74.454 114.324 74.5515 114.306 74.6539C114.301 74.7617 114.323 74.8691 114.37 74.9663C114.416 75.0636 114.487 75.1477 114.574 75.211C114.776 75.3278 114.999 75.4029 115.231 75.432C115.462 75.461 115.697 75.4435 115.922 75.3803C116.368 75.2865 116.779 75.0721 117.111 74.7606C117.443 74.4491 117.684 74.0523 117.806 73.6136C117.825 73.5163 117.822 73.4159 117.797 73.3199C117.772 73.224 117.726 73.1349 117.661 73.0595C117.53 72.922 117.369 72.8166 117.19 72.7517C116.864 72.6343 116.521 72.5658 116.175 72.5486C115.67 72.522 115.166 72.5974 114.691 72.7702C114.525 72.8348 114.399 72.8902 114.312 72.9333L114.183 72.9949C114.34 72.8951 114.507 72.8116 114.682 72.7456C115.158 72.561 115.667 72.4771 116.178 72.4994C116.53 72.5126 116.877 72.5801 117.209 72.6994C117.397 72.7604 117.568 72.866 117.707 73.0072C117.78 73.0903 117.832 73.1893 117.86 73.2961C117.888 73.403 117.89 73.5148 117.867 73.6228C117.711 74.1956 117.36 74.696 116.875 75.0381C116.389 75.3802 115.8 75.5425 115.208 75.4972C114.966 75.486 114.732 75.4059 114.534 75.2664C114.436 75.197 114.357 75.1046 114.303 74.9972C114.249 74.8898 114.223 74.7708 114.226 74.6508C114.245 74.5389 114.288 74.4323 114.352 74.3384C114.415 74.2444 114.499 74.1652 114.596 74.106C114.936 73.8834 115.32 73.7355 115.722 73.672C115.903 73.6353 116.089 73.6259 116.273 73.6443C116.36 73.6496 116.446 73.6734 116.523 73.7143C116.601 73.7552 116.669 73.8121 116.722 73.8813C116.766 73.9491 116.791 74.0268 116.796 74.107C116.801 74.1873 116.785 74.2675 116.75 74.3399C116.691 74.4694 116.593 74.5771 116.47 74.6477C116.282 74.7678 116.062 74.8259 115.839 74.8139C115.767 74.8063 115.701 74.772 115.653 74.7179C115.605 74.6638 115.579 74.5938 115.58 74.5215C115.58 74.4952 115.586 74.4691 115.598 74.4455C115.609 74.4219 115.627 74.4015 115.648 74.3861Z" fill="white"/>
<path d="M120.812 74.2139C120.68 74.2048 120.549 74.2048 120.418 74.2139C120.058 74.2345 119.706 74.3288 119.383 74.491C118.907 74.7325 118.46 75.0301 118.054 75.3774C117.557 75.8135 116.991 76.164 116.379 76.4147C115.749 76.6327 115.068 76.6594 114.422 76.4916C113.983 76.3756 113.573 76.1707 113.218 75.8895C112.862 75.6083 112.568 75.257 112.353 74.8572C112.289 74.7403 112.235 74.6177 112.193 74.491C112.212 74.5201 112.227 74.551 112.24 74.5833C112.268 74.6449 112.314 74.731 112.378 74.8418C112.556 75.1546 112.783 75.4372 113.049 75.679C113.445 76.0373 113.921 76.2949 114.437 76.43C115.072 76.5895 115.739 76.5617 116.358 76.35C116.962 76.0987 117.522 75.7527 118.017 75.3251C118.43 74.9791 118.882 74.6836 119.365 74.4448C119.693 74.2871 120.051 74.199 120.414 74.1862C120.547 74.1767 120.681 74.186 120.812 74.2139Z" fill="white"/>
<path d="M120.759 77.1133C120.583 76.9335 120.348 76.824 120.097 76.8055C119.489 76.7989 118.883 76.8872 118.303 77.0671C117.714 77.2266 117.141 77.4399 116.591 77.7043C116.382 77.8028 116.213 77.892 116.096 77.9536C116.037 77.9886 115.977 78.0194 115.914 78.0459C115.966 78.0009 116.023 77.9617 116.083 77.929C116.197 77.8612 116.36 77.7658 116.57 77.6581C117.117 77.3802 117.691 77.1594 118.284 76.9994C118.61 76.9116 118.941 76.8418 119.275 76.7901C119.548 76.7402 119.827 76.7288 120.103 76.7563C120.293 76.7767 120.473 76.8503 120.623 76.9686C120.676 77.0096 120.721 77.0584 120.759 77.1133Z" fill="white"/>
<path d="M116.757 79.1484C116.851 79.0516 116.954 78.965 117.065 78.8899C117.339 78.6866 117.654 78.5468 117.988 78.4805C118.156 78.4466 118.329 78.4503 118.495 78.4912C118.661 78.5322 118.816 78.6095 118.949 78.7175C119.026 78.7859 119.09 78.8671 119.14 78.9576C119.16 78.989 119.173 79.0249 119.177 79.0622C119.107 78.9459 119.019 78.8419 118.915 78.7544C118.784 78.6575 118.634 78.5893 118.475 78.5543C118.316 78.5193 118.151 78.5182 117.992 78.5513C117.671 78.6167 117.366 78.7454 117.096 78.9299C116.988 79.0105 116.875 79.0836 116.757 79.1484Z" fill="white"/>
<path d="M121.067 72.4908C121.052 72.5043 121.037 72.5167 121.021 72.5278C120.975 72.5634 120.928 72.5963 120.879 72.6262C120.804 72.6793 120.719 72.7169 120.63 72.7371C120.509 72.757 120.384 72.7496 120.267 72.7155C119.968 72.6278 119.674 72.5251 119.386 72.4077C119.031 72.2922 118.666 72.2067 118.297 72.1522C117.615 72.0502 116.927 72.0039 116.238 72.0137H115.622C115.545 72.0183 115.468 72.0183 115.391 72.0137C115.467 72 115.545 71.9938 115.622 71.9953C115.77 71.9953 115.985 71.9768 116.238 71.9737C116.929 71.9506 117.621 71.9898 118.306 72.0907C118.684 72.1518 119.056 72.2466 119.417 72.3739C119.746 72.4939 120.033 72.6293 120.288 72.6817C120.385 72.7165 120.488 72.7288 120.59 72.7176C120.691 72.7064 120.789 72.672 120.876 72.617C120.936 72.5694 121 72.5272 121.067 72.4908Z" fill="white"/>
<path d="M131.263 98.6211V123.832C131.269 123.881 131.292 123.925 131.329 123.958C131.365 123.99 131.412 124.008 131.461 124.008C131.51 124.008 131.557 123.99 131.594 123.958C131.63 123.925 131.654 123.881 131.66 123.832V98.6211C131.654 98.5727 131.63 98.5282 131.594 98.4959C131.557 98.4636 131.51 98.4458 131.461 98.4458C131.412 98.4458 131.365 98.4636 131.329 98.4959C131.292 98.5282 131.269 98.5727 131.263 98.6211Z" fill="#FFB900"/>
<path d="M132.886 118.283C132.886 118.564 132.803 118.839 132.647 119.073C132.491 119.306 132.268 119.489 132.009 119.596C131.749 119.704 131.463 119.732 131.187 119.677C130.911 119.622 130.658 119.487 130.459 119.288C130.26 119.089 130.125 118.836 130.07 118.56C130.015 118.284 130.043 117.998 130.151 117.738C130.258 117.479 130.441 117.256 130.674 117.1C130.908 116.944 131.183 116.861 131.464 116.861C131.842 116.861 132.203 117.01 132.47 117.277C132.737 117.544 132.886 117.905 132.886 118.283Z" fill="#FF7500"/>
<path d="M131.064 119.019C131.064 119.019 130.027 120.053 129.719 123.091C129.411 126.129 129.337 127.649 129.337 127.649L132.135 127.822V125.646C132.135 125.75 132.686 127.268 132.686 127.268L134.896 126.544C134.896 126.544 134.102 118.468 131.064 119.019Z" fill="#FFB900"/>
<path d="M116.529 100.689H69.0674V117.799H116.529V100.689Z" fill="#263238"/>
<path d="M133.198 97.7437H52.0176V100.689H133.198V97.7437Z" fill="#263238"/>
<path opacity="0.3" d="M69.0674 112.945C69.0674 112.945 83.4844 107.772 92.7982 105.866C102.112 103.961 116.529 104.592 116.529 104.592V100.689H69.0674V112.945Z" fill="black"/>
<path opacity="0.3" d="M81.381 97.7437H52.0176V100.689H81.381V97.7437Z" fill="black"/>
<path d="M132.61 100.689C132.61 100.735 114.561 100.772 92.289 100.772C70.0172 100.772 51.9683 100.735 51.9683 100.689C51.9683 100.643 70.0172 100.606 92.289 100.606C114.561 100.606 132.61 100.643 132.61 100.689Z" fill="#455A64"/>
<path d="M81.3341 100.715C81.2514 100.221 81.2235 99.7191 81.251 99.2189C81.2234 98.7177 81.2513 98.215 81.3341 97.72C81.417 98.215 81.4449 98.7177 81.4172 99.2189C81.4448 99.7191 81.4169 100.221 81.3341 100.715Z" fill="#455A64"/>
<path d="M88.1075 117.8C88.0614 117.8 88.0244 114.463 88.0244 110.345C88.0244 106.227 88.0614 102.887 88.1075 102.887C88.1537 102.887 88.1875 106.227 88.1875 110.345C88.1875 114.463 88.1506 117.8 88.1075 117.8Z" fill="#455A64"/>
</g>
<defs>
<clipPath id="clip0_4236_16204">
<rect width="107.727" height="112.344" fill="white" transform="translate(28.7271 46.2969)"/>
</clipPath>
</defs>
</svg>
