<svg width="67" height="67" viewBox="0 0 67 67" fill="none" xmlns="http://www.w3.org/2000/svg">
<rect width="67" height="67" rx="6" fill="#1565C0"/>
<mask id="mask0_1725_66008" style="mask-type:alpha" maskUnits="userSpaceOnUse" x="0" y="0" width="67" height="67">
<rect width="67" height="67" rx="4" fill="#E3F2FD"/>
</mask>
<g mask="url(#mask0_1725_66008)">
<path d="M0 -11H67V22.5C67 41.0015 52.0015 56 33.5 56C14.9985 56 0 41.0015 0 22.5V-11Z" fill="#2196F3"/>
</g>
<path d="M54.4313 23.9081C54.3625 23.2567 54.2542 22.61 54.1071 21.9716C54.0281 21.4574 53.8065 20.9756 53.4673 20.5811C53.0688 20.2064 52.5467 19.9909 52 19.9754C52.3528 19.8394 52.6726 19.63 52.9384 19.3612C53.3308 18.8877 53.5847 18.3149 53.672 17.7062C53.7962 17.1465 53.845 16.5726 53.8171 16C53.8798 17.0068 54.2863 17.9614 54.9687 18.7043C55.3933 19.0544 55.9136 19.2684 56.4616 19.3185C55.9876 19.441 55.5657 19.7129 55.2584 20.094C54.9511 20.475 54.7747 20.945 54.7555 21.4342C54.5337 22.8503 54.491 23.9081 54.4313 23.9081Z" fill="#E3F2FD"/>
<path d="M16.764 32.1518C16.7398 31.8645 16.6941 31.5793 16.6275 31.2987C16.5901 31.0751 16.4929 30.8658 16.346 30.693C16.1729 30.5338 15.9496 30.4403 15.7147 30.4286C15.8679 30.3744 16.0055 30.2836 16.1157 30.1641C16.2886 29.9612 16.3983 29.7121 16.4313 29.4475C16.4904 29.2077 16.5134 28.9605 16.4995 28.7139C16.527 29.1525 16.7047 29.5683 17.0029 29.8911C17.1882 30.0412 17.4138 30.1332 17.6512 30.1556C17.4121 30.2216 17.2037 30.3695 17.0626 30.5736C16.9635 30.7234 16.9074 30.8975 16.9005 31.0769C16.8152 31.6997 16.7896 32.1518 16.764 32.1518Z" fill="#E3F2FD"/>
<path d="M22.6038 18.1868C22.5523 17.7566 22.4783 17.3295 22.382 16.9071C22.329 16.5703 22.1844 16.2545 21.964 15.9943C21.7014 15.7501 21.3585 15.6105 21 15.6019C21.2322 15.5119 21.4418 15.3721 21.6142 15.1924C21.876 14.8849 22.0447 14.509 22.1005 14.109C22.184 13.7456 22.2155 13.3722 22.1943 13C22.234 13.6616 22.5024 14.2889 22.9536 14.7744C23.2316 15.007 23.5737 15.1498 23.9346 15.1839C23.6118 15.2519 23.3207 15.4255 23.1075 15.6773C22.8944 15.9291 22.7711 16.2448 22.7574 16.5744C22.6635 17.5043 22.6379 18.1868 22.6038 18.1868Z" fill="#E3F2FD"/>
<path d="M31.7248 34.1826L32.4169 34.7608C32.0238 35.5746 31.44 36.2814 30.715 36.8211C30.1822 37.1958 29.5864 37.4716 28.956 37.6354C28.8029 37.6562 28.6471 37.6363 28.5041 37.5776C28.3611 37.519 28.2361 37.4238 28.1417 37.3015C28.0715 37.1976 28.0236 37.0803 28.0012 36.9569C27.9788 36.8335 27.9822 36.7069 28.0114 36.5849L31.7248 34.1826Z" fill="#FF8E5C"/>
<path d="M28.5163 36.2671C28.4603 36.3955 28.4314 36.5341 28.4314 36.6743C28.4314 36.8144 28.4603 36.953 28.5163 37.0814C28.5816 37.204 28.6719 37.3116 28.7813 37.3971C28.8907 37.4827 29.0168 37.5444 29.1515 37.5782C28.7898 37.8071 28.4115 38.0085 28.0196 38.1808L27.2053 38.5309L26.4887 38.8322L23.2313 40.2003C23.0288 39.779 22.9882 39.2979 23.1173 38.8485C23.3453 38.2215 23.9887 37.9365 25.2346 37.456C26.1955 37.1059 27.2948 36.7313 28.5163 36.2671Z" fill="#FF8E5C"/>
<path d="M26.2036 37.106L27.2215 38.5555L26.5049 38.8568C26.3991 38.2704 26.3013 37.6923 26.2036 37.106Z" fill="#210B04"/>
<path d="M26.1548 37.0083L26.9691 39.5816C26.1648 39.9977 25.2888 40.2575 24.3877 40.3471C23.9813 40.3835 23.5725 40.3835 23.1662 40.3471C22.9591 39.9934 22.876 39.5807 22.93 39.1744C22.9726 38.9185 23.0667 38.674 23.2067 38.4556C23.3467 38.2372 23.5296 38.0496 23.7443 37.9041L26.1548 37.0083Z" fill="#FFC800"/>
<path d="M16.0733 38.5308L15.1775 38.5878C15.0103 39.4774 15.0635 40.3944 15.3323 41.2588C15.5328 41.8848 15.8445 42.4696 16.2525 42.9851C16.3637 43.1033 16.5058 43.188 16.6626 43.2297C16.8194 43.2714 16.9848 43.2685 17.1401 43.2213C17.2586 43.1787 17.3669 43.1117 17.4581 43.0248C17.5492 42.9378 17.6212 42.8328 17.6694 42.7164L16.0733 38.5308Z" fill="#FF8E5C"/>
<path d="M24.632 36.9673C24.5468 37.485 24.4897 38.007 24.461 38.5309L21.79 38.1074C21.8714 37.8468 21.9447 37.5862 22.0261 37.3338C22.1727 36.8778 22.3112 36.4217 22.4496 35.9739C22.4449 35.9415 22.4449 35.9085 22.4496 35.8761C22.6125 35.3712 22.7672 34.8664 22.9219 34.3696L23.8177 34.5732L24.3877 34.7035L24.6564 34.7605L25.031 34.8419C24.8824 35.378 24.7628 35.9217 24.6727 36.4706C24.6809 36.6172 24.6483 36.7963 24.632 36.9673Z" fill="#FF8E5C"/>
<path d="M25.3322 47.3584C23.4155 47.4839 21.4956 47.1662 19.7215 46.4301L19.868 40.5506C19.868 40.2574 19.8192 39.9643 19.7866 39.6711C19.8181 39.2825 19.9274 38.9043 20.108 38.5588C20.2886 38.2133 20.5368 37.9077 20.838 37.6601C21.1391 37.4125 21.4869 37.228 21.8608 37.1176C22.2347 37.0072 22.627 36.9731 23.0143 37.0173C23.4016 37.0616 23.7761 37.1833 24.1154 37.3752C24.4547 37.5671 24.752 37.8253 24.9895 38.1344C25.2271 38.4435 25.4 38.7973 25.498 39.1746C25.5961 39.5519 25.6172 39.9451 25.5602 40.3307C25.4897 42.676 25.4136 45.0186 25.3322 47.3584Z" fill="#FF8E5C"/>
<path d="M27.3355 59.2556C27.3716 59.4196 27.3988 59.5854 27.417 59.7524C27.417 59.8989 27.417 60.0211 27.417 60.1107L28.5326 60.0048L28.5733 59.8175V52.5455L28.0847 52.8305H28.0277H27.9707C27.561 52.6079 27.1015 52.493 26.6352 52.4967C26.4976 52.5351 26.3735 52.6112 26.2769 52.7165C25.9895 53.5622 25.9168 54.4661 26.0652 55.3468C26.3502 56.4787 27.2704 58.938 27.3355 59.2556Z" fill="#FF8E5C"/>
<path d="M25.0635 34.8419C24.9149 35.3779 24.7953 35.9216 24.7052 36.4705C24.7052 36.6497 24.6482 36.8288 24.6319 36.9998H24.4528C24.1768 36.9356 23.9369 36.7658 23.7847 36.5268C23.6324 36.2878 23.5799 35.9986 23.6384 35.7213C23.6628 35.4963 23.753 35.2835 23.8979 35.1097C24.0428 34.9358 24.2358 34.8086 24.4528 34.7441L24.7215 34.8011L25.0635 34.8419Z" fill="#210B04"/>
<path d="M21.5375 33.5635L21.8876 34.5C22.2037 35.027 22.6494 35.4643 23.1824 35.7703C23.3046 35.8355 25.2589 36.9022 26.399 35.8192C26.7311 35.4484 26.9461 34.9878 27.0171 34.4951C27.0881 34.0025 27.0119 33.4999 26.798 33.0504C26.7492 32.9283 26.7573 32.9609 26.6189 32.6107C26.1466 31.3811 26.1954 31.1123 25.9756 30.754C25.7561 30.4806 25.4803 30.2576 25.1669 30.1002C24.8536 29.9429 24.51 29.8548 24.1596 29.842C23.5839 29.8041 23.0106 29.945 22.5179 30.2452C22.0253 30.5455 21.6374 30.9905 21.4072 31.5195C21.1817 32.1917 21.2285 32.9254 21.5375 33.5635Z" fill="#FF8E5C"/>
<path d="M25.4137 34.0196C25.4816 33.9571 25.5621 33.9099 25.6499 33.8812C25.741 33.8606 25.8356 33.8606 25.9268 33.8812C25.8611 33.9467 25.7798 33.9943 25.6906 34.0196C25.6 34.0446 25.5043 34.0446 25.4137 34.0196Z" fill="#210B04"/>
<path d="M25.9593 32.8143C25.967 32.8503 25.9818 32.8844 26.0028 32.9146C26.0238 32.9449 26.0507 32.9706 26.0817 32.9903C26.1128 33.01 26.1475 33.0233 26.1838 33.0295C26.2201 33.0356 26.2573 33.0344 26.2931 33.0261C26.3641 33.0019 26.4227 32.9508 26.4563 32.8837C26.4898 32.8166 26.4956 32.739 26.4723 32.6677C26.4646 32.6317 26.4498 32.5976 26.4288 32.5674C26.4077 32.5372 26.3809 32.5115 26.3498 32.4918C26.3187 32.4721 26.284 32.4587 26.2477 32.4526C26.2114 32.4465 26.1743 32.4476 26.1384 32.456C26.0687 32.4819 26.0114 32.5333 25.9781 32.5998C25.9448 32.6663 25.9381 32.743 25.9593 32.8143Z" fill="#210B04"/>
<path d="M25.601 33.2705C25.5735 33.2686 25.5477 33.2568 25.5282 33.2374C25.5088 33.2179 25.497 33.1921 25.4951 33.1646C25.4978 33.0148 25.5418 32.8686 25.6223 32.7422C25.7028 32.6157 25.8166 32.514 25.9511 32.448C26.0561 32.4023 26.1714 32.3855 26.285 32.3992V32.22C26.2869 32.2063 26.2916 32.193 26.299 32.1812C26.3063 32.1695 26.3161 32.1594 26.3277 32.1517C26.3392 32.144 26.3523 32.1388 26.366 32.1365C26.3797 32.1343 26.3938 32.135 26.4072 32.1386C26.4323 32.1444 26.4544 32.1592 26.4694 32.1802C26.4844 32.2012 26.4913 32.2269 26.4886 32.2526L26.4479 32.5295C26.439 32.5558 26.4219 32.5787 26.399 32.5946C26.3863 32.6005 26.3724 32.6035 26.3583 32.6035C26.3443 32.6035 26.3304 32.6005 26.3176 32.5946C26.2174 32.5599 26.1084 32.5599 26.0081 32.5946C25.9093 32.6459 25.8261 32.7229 25.7673 32.8175C25.7086 32.912 25.6764 33.0207 25.6743 33.1321C25.6793 33.1459 25.6813 33.1607 25.6803 33.1754C25.6792 33.1901 25.6751 33.2045 25.6682 33.2175C25.6613 33.2305 25.6518 33.242 25.6402 33.2511C25.6286 33.2602 25.6153 33.2668 25.601 33.2705Z" fill="#210B04"/>
<path d="M23.9723 33.5961C23.9789 33.6326 23.993 33.6674 24.0138 33.6982C24.0345 33.7291 24.0614 33.7552 24.0928 33.7751C24.1242 33.795 24.1593 33.8082 24.196 33.8138C24.2328 33.8194 24.2703 33.8174 24.3062 33.8078C24.3756 33.782 24.4324 33.7302 24.4643 33.6633C24.4962 33.5964 24.5008 33.5197 24.4772 33.4495C24.4695 33.4135 24.4547 33.3794 24.4336 33.3492C24.4126 33.3189 24.3858 33.2932 24.3547 33.2735C24.3236 33.2538 24.2889 33.2405 24.2526 33.2343C24.2163 33.2282 24.1791 33.2294 24.1433 33.2378C24.0738 33.2635 24.0171 33.3153 23.9851 33.3822C23.9532 33.4491 23.9486 33.5258 23.9723 33.5961Z" fill="#210B04"/>
<path d="M23.5245 34.1089C23.5109 34.109 23.4975 34.1062 23.4851 34.1008C23.4727 34.0954 23.4615 34.0875 23.4523 34.0775C23.4431 34.0675 23.4361 34.0558 23.4317 34.043C23.4273 34.0302 23.4256 34.0166 23.4268 34.0031C23.4287 33.8541 23.4715 33.7085 23.5505 33.5821C23.6294 33.4558 23.7416 33.3535 23.8746 33.2865C23.9799 33.2419 24.0949 33.225 24.2085 33.2376V33.0666C24.2105 33.0526 24.2153 33.0392 24.2225 33.0271C24.2298 33.015 24.2394 33.0044 24.2507 32.9961C24.2621 32.9877 24.275 32.9817 24.2888 32.9785C24.3025 32.9752 24.3167 32.9747 24.3307 32.977C24.3574 32.9829 24.3808 32.9989 24.396 33.0217C24.4112 33.0445 24.417 33.0722 24.4121 33.0992V33.3679C24.4032 33.3943 24.3861 33.4171 24.3632 33.433C24.3519 33.4388 24.3393 33.4418 24.3266 33.4418C24.3139 33.4418 24.3013 33.4388 24.29 33.433C24.1867 33.4 24.0756 33.4 23.9724 33.433C23.8733 33.4832 23.7902 33.5602 23.7327 33.6552C23.6751 33.7502 23.6453 33.8594 23.6466 33.9705C23.6528 33.9882 23.6542 34.0073 23.6506 34.0258C23.647 34.0442 23.6385 34.0614 23.6261 34.0755C23.6136 34.0896 23.5977 34.1001 23.5798 34.106C23.562 34.1119 23.5429 34.1129 23.5245 34.1089Z" fill="#210B04"/>
<path d="M25.2101 35.1026C25.1846 35.1029 25.1599 35.0941 25.1405 35.0776C25.121 35.0611 25.1082 35.0382 25.1043 35.0131C25.1019 34.9996 25.1025 34.9858 25.1058 34.9726C25.1092 34.9593 25.1153 34.9469 25.1237 34.9362C25.1322 34.9254 25.1428 34.9166 25.1548 34.9102C25.1669 34.9038 25.1802 34.9 25.1938 34.8991C25.3441 34.8811 25.4916 34.8456 25.6336 34.7932C25.8442 34.7102 26.0375 34.5887 26.2036 34.4349C26.2241 34.4176 26.2501 34.4082 26.2769 34.4082C26.3037 34.4082 26.3296 34.4176 26.3502 34.4349C26.3691 34.4546 26.3797 34.4809 26.3797 34.5082C26.3797 34.5355 26.3691 34.5618 26.3502 34.5815C26.1653 34.751 25.9497 34.8837 25.715 34.9723C25.5563 35.0283 25.3927 35.0692 25.2264 35.0945L25.2101 35.1026Z" fill="#210B04"/>
<path d="M25.7476 35.233C25.7286 35.2343 25.7096 35.2294 25.6935 35.2192C25.6774 35.2089 25.6649 35.1938 25.658 35.176C25.6461 35.152 25.6436 35.1244 25.6512 35.0987C25.6587 35.073 25.6757 35.0512 25.6987 35.0375L26.0163 34.8909C26.0281 34.8851 26.0409 34.8816 26.054 34.8806C26.0671 34.8797 26.0803 34.8813 26.0928 34.8855C26.1053 34.8897 26.1168 34.8962 26.1267 34.9049C26.1367 34.9135 26.1448 34.924 26.1507 34.9357C26.1566 34.9475 26.1601 34.9603 26.161 34.9734C26.162 34.9865 26.1603 34.9997 26.1561 35.0122C26.152 35.0247 26.1454 35.0362 26.1368 35.0461C26.1282 35.0561 26.1177 35.0642 26.1059 35.0701L25.7883 35.2248L25.7476 35.233Z" fill="#210B04"/>
<path d="M26.4234 31.9754C26.4234 32.0324 26.2768 32.0243 25.8452 32.1301C25.4136 32.236 25.2182 32.3337 25.1856 32.2849C25.1531 32.236 25.3648 31.8533 25.7149 31.7637C26.0651 31.6741 26.4316 31.8451 26.4234 31.9754Z" fill="#210B04"/>
<path d="M24.1759 32.5619C24.1759 32.6189 24.0456 32.6515 23.6547 32.8632C23.2638 33.0749 23.1091 33.2215 23.0603 33.1808C23.0114 33.1401 23.1254 32.7166 23.4349 32.5456C23.7443 32.3746 24.1678 32.4723 24.1759 32.5619Z" fill="#210B04"/>
<path d="M21.684 34.6383C21.7534 34.8138 21.8878 34.9557 22.0592 35.0346C22.2306 35.1135 22.4258 35.1232 22.6042 35.0618C22.752 34.9446 22.8483 34.7744 22.8726 34.5874C22.8969 34.4004 22.8474 34.2112 22.7345 34.0602C22.5228 33.6693 22.1075 33.4738 21.8225 33.6367C21.6735 33.7527 21.5756 33.9223 21.5497 34.1094C21.5239 34.2965 21.5721 34.4862 21.684 34.6383Z" fill="#FF8E5C"/>
<path d="M22.3763 35.2245C22.2266 35.2235 22.0801 35.1812 21.9528 35.1024C21.9312 35.0872 21.9165 35.0642 21.9119 35.0382C21.9074 35.0122 21.9133 34.9855 21.9284 34.9639C21.9435 34.9423 21.9666 34.9276 21.9926 34.923C22.0185 34.9184 22.0452 34.9244 22.0668 34.9395C22.136 34.9974 22.2203 35.0344 22.3098 35.0459C22.3992 35.0575 22.4901 35.0431 22.5717 35.0046C22.6384 34.9695 22.6903 34.9117 22.7183 34.8418C22.7323 34.8188 22.7545 34.8021 22.7803 34.7949C22.8062 34.7877 22.8338 34.7906 22.8577 34.803C22.8815 34.8154 22.8997 34.8365 22.9086 34.8618C22.9175 34.8871 22.9164 34.9149 22.9056 34.9395C22.8512 35.0414 22.7694 35.126 22.6694 35.1838C22.5771 35.2233 22.4759 35.2374 22.3763 35.2245Z" fill="#210B04"/>
<path d="M21.9039 35.0212C21.8829 35.0294 21.8597 35.0294 21.8387 35.0212C21.7599 34.9496 21.6914 34.8674 21.6352 34.7769C21.6162 34.7572 21.6057 34.731 21.6057 34.7036C21.6057 34.6763 21.6162 34.6501 21.6352 34.6304C21.655 34.6152 21.6794 34.6069 21.7044 34.6069C21.7294 34.6069 21.7537 34.6152 21.7736 34.6304C21.8191 34.7071 21.8768 34.7759 21.9446 34.8339C21.9618 34.8545 21.9713 34.8804 21.9713 34.9072C21.9713 34.934 21.9618 34.96 21.9446 34.9805C21.9351 34.9976 21.921 35.0117 21.9039 35.0212Z" fill="#210B04"/>
<path d="M21.6433 34.6627C21.6245 34.6629 21.606 34.6576 21.5901 34.6474C21.5742 34.6373 21.5616 34.6228 21.5537 34.6057C21.4537 34.4338 21.42 34.2313 21.459 34.0363C21.498 33.8413 21.607 33.6673 21.7655 33.5471C21.8407 33.5065 21.9244 33.4842 22.0098 33.4819C22.0374 33.4817 22.0642 33.4914 22.0851 33.5094C22.1061 33.5274 22.1198 33.5523 22.1238 33.5797C22.1222 33.6059 22.1116 33.6307 22.0938 33.65C22.076 33.6693 22.052 33.6818 22.0261 33.6855C21.9718 33.6853 21.9184 33.6993 21.8713 33.7262C21.7518 33.8211 21.6721 33.9574 21.648 34.1081C21.6239 34.2588 21.6571 34.4131 21.741 34.5406C21.7518 34.5665 21.7519 34.5956 21.7412 34.6216C21.7305 34.6476 21.71 34.6682 21.684 34.679L21.6433 34.6627Z" fill="#210B04"/>
<path d="M22.5066 34.728C22.4855 34.7355 22.4625 34.7355 22.4414 34.728L21.8225 34.215C21.8134 34.2059 21.8062 34.1951 21.8013 34.1832C21.7963 34.1714 21.7938 34.1586 21.7938 34.1458C21.7938 34.1329 21.7963 34.1202 21.8013 34.1083C21.8062 34.0964 21.8134 34.0856 21.8225 34.0765C21.8317 34.0661 21.843 34.0578 21.8556 34.0521C21.8683 34.0464 21.882 34.0435 21.8958 34.0435C21.9097 34.0435 21.9234 34.0464 21.936 34.0521C21.9487 34.0578 21.9599 34.0661 21.9691 34.0765L22.588 34.5814C22.6052 34.602 22.6147 34.6279 22.6147 34.6547C22.6147 34.6815 22.6052 34.7075 22.588 34.728C22.5751 34.7334 22.5613 34.7362 22.5473 34.7362C22.5333 34.7362 22.5195 34.7334 22.5066 34.728Z" fill="#210B04"/>
<path d="M22.1645 34.4185C22.1509 34.4185 22.1375 34.4158 22.1251 34.4103C22.1127 34.4049 22.1015 34.397 22.0924 34.387C22.0832 34.3771 22.0761 34.3653 22.0717 34.3525C22.0673 34.3397 22.0656 34.3261 22.0668 34.3126V34.0357C22.0678 34.0229 22.0714 34.0104 22.0772 33.9989C22.0831 33.9874 22.0912 33.9772 22.1011 33.9689C22.1109 33.9606 22.1223 33.9543 22.1346 33.9504C22.1469 33.9465 22.1598 33.9451 22.1726 33.9462C22.1862 33.9461 22.1996 33.9489 22.212 33.9543C22.2244 33.9597 22.2356 33.9676 22.2448 33.9776C22.254 33.9876 22.261 33.9993 22.2654 34.0121C22.2698 34.0249 22.2715 34.0385 22.2704 34.052V34.2882C22.2741 34.304 22.2742 34.3204 22.2706 34.3362C22.267 34.352 22.2598 34.3668 22.2495 34.3794C22.2393 34.392 22.2263 34.4021 22.2116 34.4089C22.1968 34.4156 22.1807 34.4189 22.1645 34.4185Z" fill="#210B04"/>
<path d="M19.7297 54.1906C19.632 54.1906 19.5017 54.1418 19.461 54.0441C19.4203 53.9463 19.461 53.8731 19.461 53.7835C19.5119 53.5516 19.4891 53.3096 19.3959 53.0913C19.3098 52.8258 19.1342 52.5984 18.8991 52.448C18.9174 52.3867 18.931 52.3241 18.9398 52.2607C18.9398 52.1711 18.9398 52.0815 19.005 51.992C19.0701 51.7069 19.1434 51.4219 19.2004 51.1369C19.6727 49.1174 20.1369 47.1141 20.6092 45.1108L23.7118 45.3307C23.6149 46.2043 23.468 47.0716 23.2721 47.9284C23.2721 47.9284 22.5147 51.2509 21.2607 52.7248L21.1548 52.8551C21.0571 52.9773 20.9919 53.0832 20.9838 53.0913C20.5969 53.4918 20.1775 53.8595 19.7297 54.1906Z" fill="#FF8E5C"/>
<path d="M21.0244 53.0914L18.9804 52.2771C18.9804 52.1875 18.9804 52.0979 19.0456 52.0084C19.1107 51.7233 19.184 51.4383 19.241 51.1533L21.0244 53.0914Z" fill="#210B04"/>
<path d="M21.1385 53.1727L18.044 51.2509L19.3551 47.7085C19.2713 47.2204 19.3248 46.7185 19.5098 46.259C19.6506 45.8943 19.8639 45.5619 20.1369 45.282C20.4098 45.002 20.7367 44.7804 21.0978 44.6304L23.6466 47.3991C23.4677 48.3388 23.1949 49.2582 22.8323 50.1434C22.397 51.2202 21.8279 52.238 21.1385 53.1727Z" fill="#70CD94"/>
<path d="M28.6384 52.5456C28.1987 53.0423 27.9137 53.1075 27.7345 53.0586C27.5554 53.0098 27.4414 52.8062 27.1564 52.684C26.893 52.5902 26.6054 52.5902 26.342 52.684L26.2199 52.5375L26.0489 52.3176L25.4951 51.6336C24.2003 50.0049 22.9137 48.4169 21.627 46.7964L23.7199 44.5C24.3495 45.116 24.9423 45.7686 25.4951 46.4544C25.4951 46.4544 27.6368 49.1091 28.0196 50.9984C28.0196 50.9984 28.0196 51.0798 28.0196 51.1612C28.0407 51.2578 28.0679 51.353 28.101 51.4463C28.2321 51.8343 28.4128 52.2038 28.6384 52.5456Z" fill="#FF8E5C"/>
<path d="M28.1336 51.438L26.2199 52.5292L26.0489 52.3093L25.4951 51.6253L28.1336 51.438Z" fill="#210B04"/>
<path d="M28.2801 51.3893L24.8518 52.6271C24.1895 51.5413 23.5326 50.4556 22.8811 49.3698C22.4391 49.15 22.067 48.8117 21.8062 48.3926C21.6135 48.0564 21.4898 47.6853 21.4423 47.3008C21.3947 46.9163 21.4243 46.5261 21.5293 46.1532L25.2834 45.8682C26.6824 47.4615 27.7064 49.3481 28.2801 51.3893Z" fill="#70CD94"/>
<path d="M30.7557 62.1057H27.0912C26.9616 61.9512 26.8821 61.7609 26.8632 61.5601C26.8568 61.3512 26.9105 61.1449 27.0179 60.9656C27.2815 60.3414 27.385 59.6612 27.3192 58.9868L28.557 59.565C28.8594 60.0813 29.2846 60.5148 29.7948 60.8272C30.2834 61.1122 30.8209 61.2425 30.8942 61.6415C30.9069 61.808 30.8576 61.9734 30.7557 62.1057Z" fill="#FF8E5C"/>
<path d="M30.9511 62.2033H26.8387C26.8163 62.0004 26.8163 61.7956 26.8387 61.5926C26.8534 61.2905 26.9195 60.993 27.0342 60.7131C27.0342 60.6235 27.1156 60.534 27.1645 60.534C27.2133 60.534 27.2622 61.0551 27.4495 61.1284C27.8078 61.2669 28.6058 59.6545 28.956 59.7766C29.0211 59.7766 29.0863 59.8744 29.1026 60.1349L29.4039 60.3304C30.6335 61.1447 31.0814 61.2506 31.1465 61.6252C31.1574 61.7299 31.1456 61.8358 31.1119 61.9356C31.0781 62.0353 31.0233 62.1267 30.9511 62.2033Z" fill="#F1DECC"/>
<path d="M30.9674 62.3503H26.8387C26.8063 62.3503 26.7752 62.3374 26.7523 62.3145C26.7294 62.2916 26.7166 62.2605 26.7166 62.2281C26.7166 62.1957 26.7294 62.1646 26.7523 62.1417C26.7752 62.1188 26.8063 62.106 26.8387 62.106H30.9104C30.9428 62.106 30.9738 62.1188 30.9967 62.1417C31.0196 62.1646 31.0325 62.1957 31.0325 62.2281C31.0325 62.2605 31.0196 62.2916 30.9967 62.3145C30.9738 62.3374 30.9428 62.3503 30.9104 62.3503H30.9674Z" fill="#210B04"/>
<path d="M28.6791 61.1612C28.6791 61.2066 28.6611 61.2501 28.6291 61.2822C28.597 61.3142 28.5535 61.3323 28.5081 61.3323C28.4628 61.3323 28.4193 61.3142 28.3872 61.2822C28.3551 61.2501 28.3371 61.2066 28.3371 61.1612C28.3371 61.1159 28.3551 61.0724 28.3872 61.0403C28.4193 61.0083 28.4628 60.9902 28.5081 60.9902C28.5535 60.9902 28.597 61.0083 28.6291 61.0403C28.6611 61.0724 28.6791 61.1159 28.6791 61.1612Z" fill="#210B04"/>
<path d="M14.6727 57.1548C14.5179 57.3584 14.3551 57.5375 14.3551 57.5375C14.3551 57.5375 14.1678 57.733 14.1108 57.7981L14.9251 58.5717L15.088 58.4822L20.031 53.9138L20.0798 53.5636V53.5066V53.4496C19.5668 52.4642 19.3388 52.3828 19.3388 52.3828C18.4211 52.5388 17.5784 52.9872 16.9365 53.6613C16.1164 54.782 15.3606 55.9484 14.6727 57.1548Z" fill="#FF8E5C"/>
<path d="M14.7541 61.6008L12.36 58.8321C12.3917 58.6335 12.4825 58.4491 12.6206 58.3028C12.7751 58.1551 12.9712 58.0584 13.1825 58.0259C13.8233 57.8179 14.4025 57.4542 14.8681 56.9673L15.2427 58.2784C15.0476 58.8432 14.9972 59.448 15.0961 60.0373C15.202 60.5992 15.4544 61.0878 15.2101 61.3972C15.1513 61.4595 15.0807 61.5095 15.0024 61.5445C14.9242 61.5794 14.8398 61.5986 14.7541 61.6008Z" fill="#FF8E5C"/>
<path d="M14.8111 61.8129L12.1808 58.7184C12.3113 58.5615 12.4588 58.4194 12.6206 58.295C12.867 58.1103 13.1421 57.9672 13.4349 57.8715C13.5245 57.8715 13.6303 57.8145 13.6629 57.8715C13.6955 57.9285 13.329 58.2868 13.3942 58.4741C13.5245 58.8324 15.259 58.3845 15.4056 58.7266C15.4056 58.7917 15.4056 58.8894 15.2264 59.0767C15.2264 59.1582 15.2264 59.2803 15.2753 59.435C15.487 60.8683 15.6824 61.2999 15.4381 61.593C15.3583 61.6765 15.2599 61.7399 15.151 61.7781C15.042 61.8163 14.9256 61.8282 14.8111 61.8129Z" fill="#F1DECC"/>
<path d="M14.7134 61.9185L12.0342 58.8159C12.0234 58.8053 12.0148 58.7927 12.0089 58.7787C12.003 58.7647 12 58.7497 12 58.7345C12 58.7194 12.003 58.7043 12.0089 58.6903C12.0148 58.6764 12.0234 58.6637 12.0342 58.6531C12.0571 58.6307 12.0878 58.6182 12.1197 58.6182C12.1517 58.6182 12.1824 58.6307 12.2052 58.6531L14.8844 61.7557C14.8952 61.7663 14.9038 61.779 14.9097 61.793C14.9156 61.8069 14.9186 61.822 14.9186 61.8371C14.9186 61.8523 14.9156 61.8673 14.9097 61.8813C14.9038 61.8953 14.8952 61.9079 14.8844 61.9185C14.8737 61.9307 14.8605 61.9404 14.8458 61.9471C14.831 61.9537 14.8151 61.9572 14.7989 61.9572C14.7827 61.9572 14.7667 61.9537 14.752 61.9471C14.7372 61.9404 14.7241 61.9307 14.7134 61.9185Z" fill="#210B04"/>
<path d="M14.1352 59.3942C14.1112 59.4178 14.0807 59.4337 14.0476 59.4401C14.0145 59.4464 13.9803 59.4428 13.9493 59.4297C13.9182 59.4167 13.8917 59.3948 13.8731 59.3667C13.8545 59.3387 13.8445 59.3058 13.8445 59.2721C13.8445 59.2384 13.8545 59.2055 13.8731 59.1774C13.8917 59.1494 13.9182 59.1275 13.9493 59.1144C13.9803 59.1014 14.0145 59.0978 14.0476 59.1041C14.0807 59.1104 14.1112 59.1264 14.1352 59.1499C14.1515 59.1659 14.1644 59.1849 14.1732 59.2058C14.182 59.2268 14.1865 59.2493 14.1865 59.2721C14.1865 59.2948 14.182 59.3174 14.1732 59.3383C14.1644 59.3593 14.1515 59.3783 14.1352 59.3942Z" fill="#210B04"/>
<path d="M16.3013 41.7799C16.684 42.1789 17.0668 42.5942 17.4577 42.9688L18.6954 41.617L19.2329 41.0551L21.6759 38.4818C21.3562 38.1408 20.9205 37.9317 20.4544 37.8955C19.8274 37.8955 19.3713 38.319 18.3941 39.3695C17.816 40.0535 17.0668 40.8515 16.3013 41.7799Z" fill="#FF8E5C"/>
<path d="M17.7182 40.1841L18.6954 41.6173L19.2329 41.0554L17.7182 40.1841Z" fill="#210B04"/>
<path d="M17.4007 39.8746L19.1678 41.6173C19.803 40.8762 20.4382 40.1433 21.0652 39.4023L21.8388 38.5228C21.5835 38.1994 21.2236 37.9748 20.8209 37.8876C20.5634 37.8383 20.2985 37.8417 20.0424 37.8977C19.7862 37.9537 19.5441 38.0611 19.3307 38.2134L17.4007 39.8746Z" fill="#FFC800"/>
<path d="M22.8567 30.0619C22.2236 30.2755 21.6737 30.6829 21.285 31.2264C21.0477 31.5675 20.9095 31.9678 20.886 32.3828C20.8555 32.777 20.9588 33.17 21.1792 33.4984C21.2667 33.5752 21.341 33.666 21.399 33.7671C21.4967 33.93 21.513 34.0521 21.5619 34.0521C21.6108 34.0521 21.5619 33.9218 21.684 33.8404C21.8062 33.759 22.2459 33.8974 22.3518 33.7671C22.4577 33.6368 22.3029 33.5961 22.2948 33.4495C22.2459 32.8713 23.8094 32.4886 23.8257 31.8209C23.8257 31.658 23.7524 31.5766 23.8257 31.4463C23.899 31.316 24.298 31.2997 24.6401 31.1694C25.2752 30.9495 25.7231 30.2248 25.5928 29.9886C25.525 29.9167 25.434 29.8708 25.3359 29.8589C25.2377 29.847 25.1385 29.8699 25.0554 29.9235C24.9984 29.9886 25.0065 30.0863 24.9984 30.0782C24.9902 30.07 25.0717 29.8095 24.9984 29.6792C24.9251 29.5489 24.6075 29.5977 23.8827 29.7932C23.158 29.9886 22.9788 30.013 22.8567 30.0619Z" fill="#210B04"/>
<path d="M24.9902 34.8176C24.9902 34.9316 25.1857 35.1026 25.4055 35.127C25.8371 35.184 26.2199 34.6629 26.2199 34.5407C26.2199 34.4186 25.9593 34.5407 25.5033 34.6303C25.0472 34.7199 24.9902 34.785 24.9902 34.8176Z" fill="white"/>
<path d="M18.9398 46.7149C20.6351 47.3662 22.485 47.5022 24.2573 47.1058C24.8667 46.9704 25.4593 46.7683 26.0244 46.5032L25.772 40.4853C25.7618 40.0372 25.6764 39.594 25.5196 39.1742C25.3242 38.6435 25.0221 38.1585 24.6319 37.7491C24.1638 37.9297 23.65 37.9554 23.1661 37.8224C22.7274 37.6939 22.3346 37.4424 22.0342 37.0977C21.1832 37.2388 20.4207 37.7062 19.9088 38.4006C19.584 38.8616 19.3898 39.4018 19.3469 39.9641C19.2085 42.2035 19.0701 44.4592 18.9398 46.7149Z" fill="#FFC800"/>
<path d="M16.0488 38.9055C16.2765 38.545 16.3952 38.1266 16.3909 37.7003C16.3909 37.1954 16.171 36.6742 16.057 36.6824C15.943 36.6905 15.9267 36.8697 15.9104 37.5618L15.2345 37.3908L14.8436 36.9511C14.412 36.0472 14.2247 35.8925 14.127 35.9169C14.0293 35.9413 14.013 36.6824 14.0293 36.8697C14.0328 37.2912 14.1331 37.7064 14.3225 38.083C14.5796 38.5682 14.9927 38.9526 15.4951 39.1742L16.0488 38.9055Z" fill="#FF8E5C"/>
<path d="M23.0195 49.7606C23.0014 49.7625 22.9831 49.7589 22.9671 49.7502C22.9511 49.7414 22.9381 49.728 22.9299 49.7117C22.9179 49.6878 22.9155 49.6602 22.923 49.6345C22.9306 49.6088 22.9476 49.5869 22.9706 49.5733L23.6547 49.1987C23.6786 49.1867 23.7062 49.1842 23.7319 49.1918C23.7576 49.1994 23.7795 49.2164 23.7931 49.2394C23.8051 49.2634 23.8075 49.2909 23.8 49.3166C23.7924 49.3423 23.7754 49.3642 23.7524 49.3778L23.0684 49.7524L23.0195 49.7606Z" fill="#210B04"/>
<path d="M23.8746 49.1903C23.8548 49.1898 23.8357 49.1833 23.8197 49.1716C23.8037 49.16 23.7916 49.1438 23.785 49.1252L23.1254 47.7652C23.1194 47.7415 23.1217 47.7164 23.1321 47.6943C23.1425 47.6721 23.1602 47.6542 23.1823 47.6437C23.2044 47.6331 23.2295 47.6305 23.2532 47.6363C23.277 47.6422 23.298 47.6561 23.3127 47.6757L23.9641 49.0437C23.9709 49.0552 23.975 49.0681 23.9761 49.0814C23.9773 49.0947 23.9754 49.108 23.9708 49.1205C23.9661 49.133 23.9587 49.1443 23.9491 49.1535C23.9395 49.1628 23.9279 49.1698 23.9153 49.174L23.8746 49.1903Z" fill="#210B04"/>
<path d="M26.627 53.018C26.6035 53.0275 26.5772 53.0275 26.5537 53.018L26.3338 52.8062C26.3247 52.7972 26.3175 52.7864 26.3126 52.7745C26.3076 52.7626 26.3051 52.7499 26.3051 52.737C26.3051 52.7242 26.3076 52.7114 26.3126 52.6995C26.3175 52.6877 26.3247 52.6769 26.3338 52.6678C26.3544 52.6506 26.3803 52.6411 26.4071 52.6411C26.4339 52.6411 26.4599 52.6506 26.4804 52.6678L26.7003 52.8795C26.7192 52.8992 26.7297 52.9255 26.7297 52.9528C26.7297 52.9801 26.7192 53.0064 26.7003 53.0261C26.6756 53.0297 26.6503 53.0269 26.627 53.018Z" fill="#210B04"/>
<path d="M19.1514 52.7326C19.1304 52.7408 19.1072 52.7408 19.0862 52.7326L18.8745 52.5535C18.8573 52.533 18.8478 52.507 18.8478 52.4802C18.8478 52.4534 18.8573 52.4274 18.8745 52.4069C18.8942 52.388 18.9205 52.3774 18.9478 52.3774C18.9751 52.3774 19.0014 52.388 19.0211 52.4069L19.2328 52.5861C19.2419 52.5951 19.2492 52.6059 19.2541 52.6178C19.259 52.6297 19.2616 52.6424 19.2616 52.6553C19.2616 52.6681 19.259 52.6809 19.2541 52.6928C19.2492 52.7046 19.2419 52.7154 19.2328 52.7245C19.2076 52.7372 19.1786 52.7401 19.1514 52.7326Z" fill="#210B04"/>
<path d="M19.2737 41.56C19.2527 41.5682 19.2295 41.5682 19.2085 41.56C19.1896 41.5403 19.179 41.5141 19.179 41.4867C19.179 41.4594 19.1896 41.4332 19.2085 41.4135L20.0228 40.477C20.0319 40.4679 20.0427 40.4606 20.0546 40.4557C20.0665 40.4508 20.0792 40.4482 20.0921 40.4482C20.1049 40.4482 20.1177 40.4508 20.1295 40.4557C20.1414 40.4606 20.1522 40.4679 20.1613 40.477C20.1802 40.4967 20.1908 40.523 20.1908 40.5503C20.1908 40.5776 20.1802 40.6038 20.1613 40.6236L19.347 41.5682C19.3349 41.5721 19.3221 41.5734 19.3094 41.572C19.2968 41.5706 19.2846 41.5665 19.2737 41.56Z" fill="#210B04"/>
<path d="M34.9821 31.2754L33.5082 32.4073C32.8486 32.9203 32.36 33.2949 32.0831 33.4822C31.9268 33.5818 31.798 33.719 31.7085 33.8813C31.6585 33.9694 31.6253 34.066 31.6108 34.1663C31.5988 34.2554 31.5988 34.3458 31.6108 34.435C31.8438 35.0066 32.2404 35.4967 32.7508 35.8438C32.7508 35.9008 32.6857 35.9904 32.6368 36.0881C32.4577 36.4871 32.4333 36.5604 32.4577 36.6337C32.4874 36.6921 32.5313 36.7421 32.5854 36.7791C32.6394 36.8161 32.7019 36.8389 32.7671 36.8454C32.9219 36.8454 33.1254 36.7803 33.728 35.9741C33.8909 35.7624 34.1108 35.4529 34.3551 35.0702C34.1792 35.1416 34.0303 35.2665 33.9295 35.4273C33.8286 35.5881 33.781 35.7765 33.7932 35.9659C33.7932 36.0555 33.8909 36.2184 34.0049 36.2347C34.1189 36.251 34.3958 36.0229 34.8193 34.948C34.8193 34.7282 34.8193 34.5083 34.7785 34.2966C34.7785 33.2868 34.8681 32.277 34.9821 31.2754Z" fill="#FF8E5C"/>
<path d="M33.7362 36.0636H33.6873C33.6707 36.0444 33.6616 36.0198 33.6616 35.9944C33.6616 35.969 33.6707 35.9444 33.6873 35.9252L34.2248 34.891C34.244 34.8744 34.2686 34.8652 34.294 34.8652C34.3194 34.8652 34.344 34.8744 34.3632 34.891C34.3754 34.897 34.3862 34.9054 34.395 34.9158C34.4038 34.9261 34.4103 34.9382 34.4141 34.9512C34.4179 34.9643 34.419 34.9779 34.4173 34.9914C34.4155 35.0049 34.411 35.0178 34.4039 35.0294L33.8665 36.0636C33.8479 36.0782 33.8249 36.0861 33.8013 36.0861C33.7777 36.0861 33.7548 36.0782 33.7362 36.0636Z" fill="#210B04"/>
<path d="M34.3143 35.0457C34.291 35.046 34.2683 35.038 34.2504 35.0231C34.2325 35.0081 34.2205 34.9873 34.2166 34.9643C34.213 34.9514 34.212 34.938 34.2138 34.9247C34.2155 34.9115 34.22 34.8988 34.2268 34.8873C34.2337 34.8759 34.2429 34.866 34.2537 34.8582C34.2645 34.8504 34.2769 34.8449 34.2899 34.8421L34.4772 34.7932C34.4901 34.7896 34.5035 34.7886 34.5167 34.7904C34.53 34.7922 34.5427 34.7966 34.5541 34.8035C34.5656 34.8103 34.5755 34.8195 34.5833 34.8303C34.5911 34.8412 34.5965 34.8535 34.5994 34.8665C34.6045 34.8794 34.6065 34.8932 34.6054 34.9069C34.6043 34.9206 34.6 34.9339 34.5929 34.9458C34.5859 34.9576 34.5761 34.9676 34.5645 34.9751C34.5529 34.9825 34.5398 34.9872 34.5261 34.9887L34.3388 35.0376L34.3143 35.0457Z" fill="#210B04"/>
<path d="M32.6857 35.9169C32.5961 35.9169 32.5716 35.8273 32.5961 35.7784L32.7427 35.3631C32.7547 35.3403 32.7742 35.3222 32.7978 35.3118C32.8215 35.3014 32.848 35.2994 32.873 35.3061C32.8984 35.3154 32.9194 35.334 32.9315 35.3583C32.9436 35.3825 32.946 35.4105 32.9381 35.4364L32.7834 35.8517C32.7753 35.871 32.7618 35.8875 32.7444 35.8991C32.727 35.9107 32.7066 35.9169 32.6857 35.9169Z" fill="#210B04"/>
<path d="M32.2622 35.4448C32.1726 35.4448 32.1482 35.3552 32.1645 35.3064L32.2785 35.0458C32.283 35.0332 32.29 35.0217 32.299 35.012C32.3081 35.0023 32.3191 34.9945 32.3313 34.9891C32.3435 34.9838 32.3567 34.981 32.37 34.981C32.3833 34.9809 32.3965 34.9835 32.4088 34.9888C32.4334 35.0011 32.4527 35.0219 32.4632 35.0473C32.4737 35.0728 32.4746 35.1011 32.4658 35.1272L32.3518 35.3878C32.3439 35.4049 32.3313 35.4194 32.3154 35.4295C32.2995 35.4396 32.281 35.4449 32.2622 35.4448Z" fill="#210B04"/>
<path d="M31.8876 35.0537C31.8062 35.0537 31.7736 34.9804 31.7899 34.9234L31.8632 34.6383C31.8708 34.6131 31.8875 34.5916 31.9101 34.5781C31.9327 34.5645 31.9595 34.5599 31.9853 34.565C32.0123 34.5726 32.0352 34.5906 32.0489 34.615C32.0626 34.6395 32.0661 34.6683 32.0586 34.6953L31.9853 34.9804C31.9777 35.0006 31.9644 35.0182 31.9471 35.0312C31.9298 35.0442 31.9092 35.052 31.8876 35.0537Z" fill="#210B04"/>
<path d="M49.2003 19.8745L49.6156 22.2116C49.8274 23.3843 50.0309 24.5406 50.2345 25.6888L48.044 26.4054C47.5798 25.2491 47.2296 24.2149 46.9202 23.3435C46.8225 23.0667 46.7329 22.7979 46.6596 22.5292L46.6189 22.3989C45.1938 17.9689 45.3241 16.6986 45.9511 15.9575C46.044 15.8413 46.1538 15.7398 46.2769 15.6562C47.2486 17.0786 48.2231 18.4847 49.2003 19.8745Z" fill="#FF8E5C"/>
<path d="M49.6401 22.2196L46.9365 23.3434C46.8388 23.0665 46.7492 22.7978 46.6759 22.5291C46.6759 22.4721 46.6759 22.4069 46.6759 22.3499L49.3795 21.8613L49.6238 22.1789L49.6401 22.2196Z" fill="#210B04"/>
<path d="M49.8192 22.1549L46.1873 23.0425C46.0652 22.163 45.943 21.4627 45.8616 20.9985C45.3811 18.3682 44.974 17.2119 45.6091 16.1125C45.7161 15.9225 45.8475 15.7473 46 15.5913C46.1323 15.5711 46.2668 15.5711 46.399 15.5913C48.2231 15.7786 49.1841 18.8487 49.3225 19.2721C49.4935 20.2167 49.6401 21.1858 49.8192 22.1549Z" fill="#069550"/>
<path d="M39.9658 45.518C39.4283 46.2834 38.4022 47.7411 37.7426 47.5212C36.9283 47.2606 37.1726 44.7281 37.2052 44.3453C37.6087 39.0974 39.1451 33.9994 41.7084 29.4023L44.1514 34.4756C43.0684 40.2981 41.2524 43.6531 39.9658 45.518Z" fill="#FF8E5C"/>
<path d="M32.8485 57.0161L31.4397 56.3647C31.6026 56.0145 31.855 55.4689 32.1238 54.793C33.5326 51.2751 33.3615 49.7197 34.412 47.749C35.1355 46.4388 36.1633 45.3217 37.4088 44.4917L40.1694 45.2409C39.241 46.5031 38.3045 47.8467 37.3762 49.2637C35.7372 51.7698 34.2261 54.3573 32.8485 57.0161Z" fill="#FF8E5C"/>
<path d="M48.1335 26.5846C48.1335 26.8941 48.0032 27.5374 47.8241 28.8078C47.7544 29.5925 47.6264 30.371 47.4414 31.1368C47.0098 32.456 45.7638 33.8729 44.6889 33.9625C43.1173 34.0928 41.0733 31.4706 40.3811 27.2198C40.3404 26.2263 40.2997 25.3713 40.2508 24.3778C40.0635 24.0195 39.8844 23.6368 39.7133 23.2459C39.137 21.9397 38.7056 20.5744 38.4267 19.1742C38.3295 18.681 38.3322 18.1734 38.4349 17.6813C38.5375 17.1892 38.738 16.7227 39.0243 16.3096C39.3106 15.8964 39.677 15.545 40.1017 15.2761C40.5264 15.0072 41.0008 14.8263 41.4967 14.7443C42.2295 14.63 42.9701 14.5728 43.7117 14.5732H44.5261C45.0729 14.6047 45.617 14.6727 46.1547 14.7768C47.2948 15.0537 47.8648 17.4234 48.044 18.2214C48.5859 20.9802 48.6162 23.815 48.1335 26.5846Z" fill="#FF8E5C"/>
<path d="M53.6221 33.0505L52.1319 33.6612C51.5456 32.7899 51.0163 32.1059 50.6417 31.6336C49.2248 29.8827 48.3371 29.1906 48.0684 27.8632C47.9976 27.429 47.9976 26.9863 48.0684 26.5521L50.1042 25.4854C50.4624 26.0005 50.7757 26.5454 51.0407 27.114C52.0179 29.1417 51.855 30.3713 52.9788 32.1629C53.1727 32.4731 53.3877 32.7697 53.6221 33.0505Z" fill="#FF8E5C"/>
<path d="M34.1678 34.2883L32.7183 33.5717C32.9952 32.5537 33.158 31.7068 33.2639 31.1287C33.6466 28.9055 33.5652 27.798 34.404 26.7068C34.6729 26.3598 34.9976 26.0599 35.3649 25.8192C35.6134 25.6079 35.9232 25.482 36.2486 25.46C36.5741 25.438 36.898 25.5211 37.1727 25.6971C37.3904 25.8849 37.5394 26.1399 37.5961 26.4218C37.4346 27.1005 37.211 27.7629 36.9284 28.4007C36.0408 30.4202 34.9984 31.1612 34.4121 33.1889C34.3019 33.5484 34.2202 33.916 34.1678 34.2883Z" fill="#FF8E5C"/>
<path d="M50.5195 43.2461C50.5195 44.0605 50.5195 45.9579 49.811 46.1452C48.9967 46.3732 47.7671 44.1501 47.5879 43.8162C46.228 42.2608 42.2459 30.6973 42.2948 29.1582L47.1807 30.9335C50.1123 36.9839 50.5521 40.9742 50.5195 43.2461Z" fill="#FF8E5C"/>
<path d="M51.5782 57.619L50.1776 57.733C50.0961 57.3584 49.974 56.7721 49.7785 56.1043C48.7932 52.448 47.7183 51.3079 47.3355 49.1011C47.122 47.6138 47.27 46.0971 47.7671 44.6792L50.4219 43.6206C50.4219 45.2004 50.4843 46.8291 50.6092 48.5066C50.8453 51.7151 51.1711 54.7688 51.5782 57.619Z" fill="#FF8E5C"/>
<path d="M45.2834 16.2997H41.6922L42.1075 11.9512H44.9576L45.2834 16.2997Z" fill="#FF8E5C"/>
<path d="M44.6564 12.3665C44.6564 13.2785 44.1596 13.9951 43.5489 13.9951C42.9381 13.9951 42.4414 13.2459 42.4414 12.3665C42.4414 11.487 42.9381 10.7378 43.5489 10.7378C44.1596 10.7378 44.6564 11.487 44.6564 12.3665Z" fill="#FFF5F2"/>
<path d="M43.4512 13.4413C42.8897 13.4413 42.3511 13.2182 41.9541 12.8211C41.557 12.4241 41.3339 11.8855 41.3339 11.324V8.22953C41.9837 7.79516 42.7512 7.57061 43.5326 7.58621C44.2581 7.60585 44.9634 7.82874 45.5684 8.22953V11.3321C45.5663 11.8923 45.3423 12.4287 44.9454 12.824C44.5486 13.2193 44.0113 13.4413 43.4512 13.4413Z" fill="#FF8E5C"/>
<path d="M46.3827 10.6727C46.364 10.7849 46.3135 10.8894 46.2372 10.9737C46.1609 11.0581 46.062 11.1188 45.9522 11.1486C45.8425 11.1784 45.7264 11.1761 45.6179 11.142C45.5094 11.1079 45.413 11.0433 45.3401 10.956C45.2672 10.8687 45.2208 10.7623 45.2066 10.6495C45.1923 10.5367 45.2107 10.4221 45.2596 10.3194C45.3085 10.2167 45.3858 10.1302 45.4824 10.0701C45.579 10.01 45.6908 9.97896 45.8045 9.98053C45.9724 9.99706 46.1271 10.0789 46.2352 10.2083C46.3434 10.3378 46.3963 10.5046 46.3827 10.6727Z" fill="#FF8E5C"/>
<path d="M42.702 10.9006C42.5378 10.886 42.3747 10.8615 42.2134 10.8273C42.0037 10.78 41.797 10.7202 41.5945 10.6482C41.582 10.6437 41.5705 10.6367 41.5607 10.6276C41.551 10.6185 41.5432 10.6075 41.5379 10.5953C41.5326 10.5831 41.5298 10.57 41.5297 10.5566C41.5296 10.5433 41.5323 10.5301 41.5375 10.5179C41.5408 10.5045 41.5471 10.4921 41.556 10.4816C41.5648 10.4711 41.576 10.4627 41.5886 10.4572C41.6012 10.4517 41.6149 10.4492 41.6286 10.4498C41.6424 10.4504 41.6558 10.4542 41.6678 10.4609C41.8593 10.5285 42.0552 10.583 42.2541 10.6237C42.4045 10.6574 42.5568 10.6818 42.7101 10.697C42.7238 10.698 42.7371 10.7018 42.7491 10.7082C42.7612 10.7146 42.7718 10.7234 42.7802 10.7341C42.7887 10.7449 42.7948 10.7573 42.7981 10.7705C42.8015 10.7838 42.802 10.7976 42.7997 10.811C42.7977 10.8355 42.7865 10.8583 42.7684 10.8749C42.7503 10.8915 42.7266 10.9007 42.702 10.9006Z" fill="#210B04"/>
<path d="M42.1319 11.1448C42.2533 11.1448 42.3518 11.0355 42.3518 10.9005C42.3518 10.7656 42.2533 10.6562 42.1319 10.6562C42.0105 10.6562 41.912 10.7656 41.912 10.9005C41.912 11.0355 42.0105 11.1448 42.1319 11.1448Z" fill="#210B04"/>
<path d="M44.7541 10.9331C44.5912 10.9331 44.4283 10.9331 44.2655 10.9331C44.0534 10.9062 43.8437 10.8627 43.6384 10.8028C43.6254 10.8 43.6131 10.7945 43.6022 10.7868C43.5914 10.779 43.5822 10.7691 43.5754 10.7576C43.5685 10.7462 43.564 10.7334 43.5623 10.7202C43.5605 10.707 43.5615 10.6935 43.5651 10.6807C43.5727 10.6537 43.5907 10.6308 43.6151 10.6171C43.6396 10.6034 43.6684 10.5999 43.6954 10.6074C43.8899 10.6645 44.0887 10.7053 44.2899 10.7295C44.4445 10.7376 44.5994 10.7376 44.7541 10.7295C44.78 10.7295 44.8048 10.7398 44.8232 10.7582C44.8415 10.7765 44.8518 10.8014 44.8518 10.8273C44.8519 10.854 44.8418 10.8798 44.8237 10.8994C44.8056 10.919 44.7807 10.9311 44.7541 10.9331Z" fill="#210B04"/>
<path d="M43.9398 10.9823C43.9397 11.0126 43.9459 11.0425 43.9579 11.0703C43.97 11.0981 43.9876 11.1231 44.0098 11.1438C44.032 11.1644 44.0582 11.1803 44.0868 11.1903C44.1154 11.2004 44.1457 11.2044 44.1759 11.2021C44.2321 11.1918 44.2828 11.162 44.3193 11.1182C44.3558 11.0743 44.3758 11.019 44.3758 10.9619C44.3758 10.9048 44.3558 10.8495 44.3193 10.8057C44.2828 10.7618 44.2321 10.7321 44.1759 10.7217C44.1431 10.7227 44.1108 10.7303 44.081 10.7441C44.0512 10.7579 44.0245 10.7775 44.0025 10.8018C43.9804 10.8261 43.9635 10.8547 43.9528 10.8857C43.942 10.9167 43.9376 10.9495 43.9398 10.9823Z" fill="#210B04"/>
<path d="M42.6124 10.3144C42.6656 10.2404 42.6967 10.1529 42.702 10.062C42.702 9.95609 42.0994 9.83395 41.9365 9.80952C41.7829 9.78355 41.626 9.78355 41.4724 9.80952C41.4117 9.82427 41.3539 9.84904 41.3014 9.8828C41.2478 9.92776 41.2083 9.9871 41.1873 10.0538C41.1873 10.0538 42.1401 10.2004 42.6124 10.3144Z" fill="#EFEFEF"/>
<path d="M43.7606 10.2327C43.7037 10.1607 43.6722 10.072 43.6711 9.98024C43.6711 9.86623 44.2737 9.74408 44.4365 9.72779C44.5898 9.69751 44.7475 9.69751 44.9007 9.72779C44.9626 9.7387 45.0211 9.76378 45.0717 9.80108C45.1227 9.84828 45.1617 9.90689 45.1857 9.97209C45.1857 9.97209 44.2329 10.1105 43.7606 10.2327Z" fill="#EFEFEF"/>
<path d="M42.5879 11.9837C42.6644 12.0512 42.7628 12.0888 42.8648 12.0896C42.9269 12.0905 42.9886 12.0787 43.046 12.0549C43.1034 12.0311 43.1554 11.9958 43.1987 11.9512L42.5879 11.9837Z" fill="#210B04"/>
<path d="M43.1254 12.8552C43.0183 12.854 42.9117 12.8404 42.8078 12.8145C42.7948 12.8116 42.7825 12.8062 42.7716 12.7984C42.7608 12.7906 42.7516 12.7807 42.7448 12.7693C42.7379 12.7578 42.7334 12.7451 42.7317 12.7318C42.7299 12.7186 42.7309 12.7052 42.7345 12.6923C42.7345 12.6353 42.8078 12.5946 42.8567 12.619C43.0547 12.6867 43.2695 12.6867 43.4674 12.619C43.5768 12.5734 43.6764 12.507 43.7606 12.4236C43.7809 12.4102 43.8053 12.4043 43.8295 12.4068C43.8537 12.4093 43.8763 12.4201 43.8935 12.4373C43.9107 12.4545 43.9215 12.4771 43.924 12.5013C43.9265 12.5255 43.9205 12.5498 43.9072 12.5702C43.8016 12.6682 43.6805 12.748 43.5489 12.8063C43.4124 12.8507 43.2684 12.8673 43.1254 12.8552Z" fill="#210B04"/>
<path d="M43.4186 13.026C43.3971 13.0243 43.3764 13.0165 43.3591 13.0035C43.3418 12.9905 43.3286 12.9729 43.3209 12.9527C43.313 12.9267 43.3154 12.8988 43.3275 12.8745C43.3396 12.8503 43.3606 12.8316 43.3861 12.8224L43.6385 12.7328L43.891 12.6514C43.9032 12.6463 43.9164 12.644 43.9296 12.6446C43.9428 12.6453 43.9557 12.6488 43.9674 12.6551C43.9791 12.6613 43.9893 12.67 43.9972 12.6807C44.0051 12.6913 44.0105 12.7035 44.0131 12.7165C44.0183 12.7282 44.0208 12.7408 44.0207 12.7536C44.0206 12.7664 44.0177 12.7789 44.0123 12.7905C44.0069 12.8021 43.9991 12.8124 43.9894 12.8207C43.9797 12.829 43.9684 12.8351 43.9561 12.8387L43.7037 12.9282L43.4512 13.0178L43.4186 13.026Z" fill="#210B04"/>
<path d="M55.7395 60.5425L49.5505 60.347C49.4734 60.0303 49.4962 59.6975 49.6157 59.3943C49.6588 59.2958 49.7134 59.2029 49.7785 59.1174C50.049 58.6702 50.2211 58.1705 50.2834 57.6516L51.4154 57.562C52.7671 59.5164 53.5489 59.9236 54.0294 59.9154C54.3632 59.9154 54.6808 60.1027 55.0147 60.119C55.3486 60.1353 55.4952 60.119 55.6417 60.29C55.7005 60.3615 55.7348 60.45 55.7395 60.5425Z" fill="#FF8E5C"/>
<path d="M55.8453 60.6319H49.5017C49.4104 60.3932 49.3715 60.1377 49.3876 59.8827C49.4328 59.4384 49.6454 59.0279 49.9821 58.7345C50.145 59.158 50.3241 59.3045 50.4788 59.329C51.0652 59.4185 51.7411 57.8632 51.9772 57.969C51.9772 57.969 52.0424 58.0423 52.0342 58.2215C52.3111 58.2785 55.9349 59.0358 55.9512 60.2654C55.9454 60.3943 55.9091 60.5199 55.8453 60.6319Z" fill="#E84F57"/>
<path d="M55.8942 60.7216H49.4854C49.4594 60.7216 49.4346 60.7113 49.4163 60.693C49.3979 60.6747 49.3876 60.6498 49.3876 60.6239C49.3865 60.6104 49.3882 60.5968 49.3926 60.584C49.397 60.5712 49.404 60.5595 49.4132 60.5495C49.4224 60.5395 49.4336 60.5316 49.446 60.5262C49.4584 60.5208 49.4718 60.518 49.4854 60.5181H55.8942C55.9222 60.5181 55.9492 60.5292 55.969 60.5491C55.9889 60.5689 56 60.5958 56 60.6239C56.0001 60.6375 55.9973 60.6509 55.9919 60.6633C55.9865 60.6757 55.9785 60.6869 55.9686 60.6961C55.9586 60.7053 55.9469 60.7123 55.9341 60.7167C55.9212 60.7211 55.9077 60.7228 55.8942 60.7216Z" fill="#210B04"/>
<path d="M51.7085 59.0847C51.7 59.0778 51.6931 59.0691 51.6884 59.0593C51.6837 59.0494 51.6812 59.0386 51.6812 59.0277C51.6812 59.0167 51.6837 59.0059 51.6884 58.9961C51.6931 58.9862 51.7 58.9775 51.7085 58.9707L52.4495 58.2296C52.4661 58.2142 52.4879 58.2056 52.5106 58.2056C52.5333 58.2056 52.5551 58.2142 52.5717 58.2296C52.5866 58.2448 52.5949 58.2653 52.5949 58.2866C52.5949 58.3079 52.5866 58.3284 52.5717 58.3436L51.8306 59.0847C51.823 59.0933 51.8136 59.1003 51.803 59.105C51.7925 59.1098 51.7811 59.1122 51.7695 59.1122C51.758 59.1122 51.7466 59.1098 51.736 59.105C51.7255 59.1003 51.7161 59.0933 51.7085 59.0847Z" fill="#210B04"/>
<path d="M52.0017 59.1335C51.9932 59.1266 51.9864 59.1179 51.9816 59.1081C51.9769 59.0982 51.9745 59.0874 51.9745 59.0765C51.9745 59.0656 51.9769 59.0548 51.9816 59.0449C51.9864 59.035 51.9932 59.0264 52.0017 59.0195L52.7428 58.2785C52.7593 58.263 52.7812 58.2544 52.8038 58.2544C52.8265 58.2544 52.8483 58.263 52.8649 58.2785C52.8798 58.2937 52.8882 58.3141 52.8882 58.3354C52.8882 58.3568 52.8798 58.3772 52.8649 58.3925L52.1239 59.1335C52.1162 59.1422 52.1068 59.1491 52.0963 59.1539C52.0858 59.1586 52.0743 59.1611 52.0628 59.1611C52.0512 59.1611 52.0398 59.1586 52.0293 59.1539C52.0187 59.1491 52.0094 59.1422 52.0017 59.1335Z" fill="#210B04"/>
<path d="M52.2622 59.2312C52.2467 59.2146 52.2381 59.1928 52.2381 59.1701C52.2381 59.1474 52.2467 59.1256 52.2622 59.109L53.0032 58.368C53.0184 58.3531 53.0389 58.3447 53.0602 58.3447C53.0815 58.3447 53.102 58.3531 53.1172 58.368C53.1327 58.3846 53.1413 58.4064 53.1413 58.4291C53.1413 58.4518 53.1327 58.4736 53.1172 58.4902L52.3762 59.2312C52.361 59.2461 52.3405 59.2545 52.3192 59.2545C52.2979 59.2545 52.2774 59.2461 52.2622 59.2312Z" fill="#210B04"/>
<path d="M52.5309 59.3373C52.516 59.3221 52.5076 59.3016 52.5076 59.2803C52.5076 59.259 52.516 59.2385 52.5309 59.2233L53.2719 58.4823C53.2872 58.4673 53.3076 58.459 53.329 58.459C53.3503 58.459 53.3707 58.4673 53.386 58.4823C53.4014 58.4989 53.41 58.5207 53.41 58.5433C53.41 58.566 53.4014 58.5878 53.386 58.6044L52.6449 59.3373C52.6297 59.3522 52.6092 59.3606 52.5879 59.3606C52.5666 59.3606 52.5461 59.3522 52.5309 59.3373Z" fill="#210B04"/>
<path d="M35.6092 60.7132L29.9821 58.1318C30.0389 57.8225 30.1896 57.5381 30.4137 57.3175C30.4902 57.243 30.5749 57.1774 30.6662 57.122C31.1021 56.8083 31.4635 56.4024 31.7248 55.9331L32.7997 56.2914C33.2802 58.6204 33.8502 59.3044 34.2899 59.4754C34.7297 59.6465 34.8192 59.8989 35.1043 60.0455C35.3893 60.1921 35.5521 60.2328 35.6173 60.4527C35.6438 60.538 35.641 60.6297 35.6092 60.7132Z" fill="#FF8E5C"/>
<path d="M35.6743 60.8354L29.8274 58.3925C29.8335 58.1371 29.8976 57.8865 30.0147 57.6595C30.2332 57.2741 30.5874 56.9838 31.0082 56.8452C31.0082 57.3012 31.0978 57.5048 31.2281 57.5863C31.7411 57.8957 32.9626 56.7719 33.1418 56.9185C33.1418 56.9185 33.1418 57.0081 33.101 57.171C33.3291 57.3338 36.3584 59.4592 35.9105 60.5749C35.8571 60.6817 35.7754 60.7719 35.6743 60.8354Z" fill="#E84F57"/>
<path d="M35.6824 60.9495L29.7703 58.4495C29.7577 58.4452 29.7461 58.4382 29.7365 58.429C29.7269 58.4197 29.7195 58.4084 29.7148 58.396C29.7102 58.3835 29.7083 58.3701 29.7095 58.3568C29.7106 58.3435 29.7147 58.3307 29.7215 58.3192C29.7335 58.2963 29.753 58.2782 29.7766 58.2679C29.8003 58.2575 29.8268 58.2555 29.8518 58.2622L35.7964 60.754C35.8208 60.7663 35.8396 60.7876 35.8487 60.8134C35.8578 60.8392 35.8566 60.8675 35.8452 60.8925C35.8392 60.9077 35.83 60.9214 35.8182 60.9328C35.8064 60.9441 35.7923 60.9528 35.7768 60.9582C35.7614 60.9636 35.745 60.9657 35.7287 60.9641C35.7123 60.9626 35.6966 60.9576 35.6824 60.9495Z" fill="#210B04"/>
<path d="M32.4577 57.8062C32.4494 57.7867 32.449 57.7647 32.4566 57.745C32.4642 57.7252 32.4792 57.7092 32.4984 57.7003L33.4756 57.3013C33.4857 57.2974 33.4966 57.2956 33.5074 57.2959C33.5183 57.2963 33.529 57.2988 33.5388 57.3034C33.5487 57.308 33.5575 57.3144 33.5649 57.3225C33.5722 57.3305 33.5778 57.3399 33.5814 57.3501C33.5878 57.3719 33.5863 57.3951 33.5774 57.4159C33.5685 57.4367 33.5527 57.4537 33.5326 57.4642L32.5635 57.855C32.5534 57.8589 32.5426 57.8607 32.5317 57.8604C32.5208 57.86 32.5102 57.8575 32.5003 57.8529C32.4904 57.8484 32.4816 57.8419 32.4743 57.8338C32.4669 57.8258 32.4613 57.8164 32.4577 57.8062Z" fill="#210B04"/>
<path d="M32.7101 57.969C32.6969 57.9529 32.6896 57.9328 32.6896 57.912C32.6896 57.8912 32.6969 57.871 32.7101 57.855L33.6792 57.4641C33.6997 57.4555 33.7228 57.4553 33.7434 57.4637C33.764 57.4721 33.7805 57.4884 33.7891 57.5089C33.7977 57.5294 33.7979 57.5525 33.7895 57.5731C33.7811 57.5937 33.7648 57.6102 33.7443 57.6188L32.7753 58.0097C32.7619 58.0088 32.7489 58.0046 32.7376 57.9975C32.7262 57.9904 32.7168 57.9806 32.7101 57.969Z" fill="#210B04"/>
<path d="M32.9137 58.1563C32.9055 58.1346 32.9061 58.1107 32.9152 58.0894C32.9243 58.0682 32.9412 58.0513 32.9625 58.0422L33.9316 57.6514C33.9417 57.6475 33.9525 57.6457 33.9634 57.646C33.9743 57.6464 33.9849 57.6489 33.9948 57.6535C34.0047 57.658 34.0135 57.6645 34.0209 57.6725C34.0282 57.6806 34.0338 57.69 34.0374 57.7002C34.0458 57.7197 34.0461 57.7417 34.0385 57.7614C34.0309 57.7812 34.0159 57.7972 33.9967 57.8061L33.0195 58.197C33.0101 58.2023 32.9996 58.2056 32.9888 58.2064C32.978 58.2072 32.9671 58.2056 32.957 58.2017C32.9468 58.1978 32.9377 58.1917 32.9302 58.1838C32.9227 58.176 32.9171 58.1666 32.9137 58.1563Z" fill="#210B04"/>
<path d="M33.1173 58.3599C33.1134 58.3497 33.1116 58.3389 33.112 58.328C33.1123 58.3172 33.1149 58.3065 33.1194 58.2966C33.124 58.2868 33.1304 58.2779 33.1385 58.2706C33.1465 58.2633 33.1559 58.2576 33.1661 58.254L34.1352 57.855C34.1453 57.8511 34.1562 57.8493 34.167 57.8497C34.1779 57.85 34.1886 57.8525 34.1984 57.8571C34.2083 57.8617 34.2172 57.8681 34.2245 57.8762C34.2318 57.8842 34.2374 57.8936 34.2411 57.9038C34.2498 57.9245 34.2504 57.9477 34.2429 57.9688C34.2353 57.9899 34.2202 58.0074 34.2004 58.0178L33.2232 58.4087C33.213 58.4126 33.2022 58.4144 33.1913 58.4141C33.1805 58.4137 33.1698 58.4112 33.1599 58.4066C33.1501 58.4021 33.1412 58.3956 33.1339 58.3876C33.1266 58.3795 33.1209 58.3701 33.1173 58.3599Z" fill="#210B04"/>
<path d="M45.5567 8.5022L45.5566 8.50223L45.5581 8.50566C45.6746 8.77351 45.7255 9.06524 45.7067 9.35669C45.6933 9.56445 45.6447 9.76779 45.5636 9.95825C45.5576 9.91551 45.5507 9.86969 45.5425 9.82574C45.5035 9.61612 45.4196 9.33664 45.166 9.20732C44.9207 9.08228 44.659 9.14334 44.4636 9.19344C44.4502 9.19687 44.4372 9.20025 44.4245 9.20353C44.3385 9.22578 44.2685 9.2439 44.2078 9.24952C44.1434 9.25547 44.113 9.24479 44.0948 9.22843C44.0781 9.20706 44.0764 9.18649 44.0754 9.13562C44.0753 9.13455 44.0753 9.13345 44.0753 9.13233C44.0743 9.0828 44.0726 8.99245 43.9869 8.92584C43.8867 8.83946 43.7505 8.86041 43.6452 8.89193C43.5403 8.92331 43.422 8.97917 43.31 9.03204C43.3008 9.03642 43.2915 9.04079 43.2823 9.04512C43.1576 9.10386 43.0409 9.15708 42.9387 9.18359C42.8337 9.21086 42.7729 9.20223 42.7375 9.1757L42.7375 9.1757L42.7367 9.17506C42.7101 9.1556 42.7047 9.138 42.6933 9.07898L42.693 9.07736C42.6813 9.01706 42.664 8.92718 42.5732 8.84729C42.4757 8.75868 42.3509 8.73466 42.2329 8.73594C42.1149 8.73722 41.9897 8.76398 41.8783 8.79106C41.8493 8.79811 41.8215 8.8051 41.7948 8.8118C41.7142 8.83208 41.644 8.84972 41.5833 8.85831C41.5436 8.86391 41.5161 8.86428 41.498 8.86145C41.4897 8.86014 41.4856 8.85853 41.4839 8.85771C41.4596 8.82732 41.4591 8.81313 41.4591 8.8108C41.459 8.80671 41.4599 8.79943 41.4711 8.77835C41.4724 8.77592 41.4742 8.77272 41.4763 8.7689C41.4867 8.75041 41.5054 8.71721 41.5147 8.68502C41.5291 8.63516 41.5265 8.57986 41.4943 8.52263C41.4597 8.46098 41.4045 8.42961 41.3528 8.41216C41.3039 8.39566 41.2479 8.3883 41.1999 8.382L41.1993 8.38192C41.0959 8.36835 41.0017 8.35568 40.9184 8.30201C40.8436 8.24703 40.7852 8.1727 40.7495 8.087C40.7139 8.0015 40.7022 7.90794 40.7157 7.81634C40.7475 7.67615 40.8724 7.56952 41.0277 7.49141C41.1796 7.41497 41.336 7.3784 41.3884 7.36629C41.5332 7.33456 41.6194 7.3414 41.7159 7.34906C41.7203 7.34941 41.7247 7.34976 41.7292 7.3501C41.8388 7.3587 41.9583 7.36525 42.1557 7.31701C42.3486 7.26984 42.4476 7.21289 42.5247 7.1685C42.5261 7.16769 42.5275 7.16688 42.5289 7.16608C42.5973 7.12674 42.6393 7.10348 42.7362 7.1C42.8892 7.10039 42.9824 7.15418 43.1001 7.22356L43.1023 7.22488C43.2228 7.29591 43.3642 7.37933 43.5917 7.39298L43.5917 7.39316H43.5977C43.7495 7.39316 43.8463 7.36012 43.9307 7.3257C43.9413 7.32138 43.9515 7.31715 43.9614 7.31304C44.0279 7.2854 44.0815 7.26312 44.1625 7.25411L44.1626 7.25464L44.1726 7.25247C44.4258 7.19772 44.6984 7.32158 44.9534 7.56767C45.2059 7.81146 45.4225 8.1589 45.5567 8.5022Z" fill="#E0E0E0" stroke="#E0E0E0" stroke-width="0.2"/>
<path d="M49.6889 58.0992C50.0516 58.1387 50.4175 58.1387 50.7801 58.0992C51.2266 58.0373 51.6623 57.914 52.0749 57.7327C52.0452 53.3736 51.7296 49.0212 51.1303 44.7034C50.6922 40.8096 49.79 36.9823 48.443 33.3028C48.1743 32.6024 47.8974 31.9184 47.6287 31.2588L43.7524 34.9396L47.3681 44.4835C47.2948 45.1513 47.2541 45.8435 47.2378 46.5682C47.1853 50.5465 48.0228 54.4862 49.6889 58.0992Z" fill="#BBDEFB"/>
<path d="M37.1238 44.5245C36.2989 45.0528 35.5739 45.7227 34.9821 46.5033C34.0619 47.7004 33.785 48.7427 33.0603 51.1043C32.7346 52.1711 32.246 53.7916 31.5619 55.8193C31.8329 56.2999 32.2191 56.7056 32.6857 57C33.1448 57.2845 33.6629 57.46 34.2004 57.5131C36.0896 53.8486 37.9897 50.1868 39.9007 46.5277C40.658 45.1515 41.4072 43.6287 42.1238 41.9512C43.1041 39.653 43.9205 37.2882 44.5668 34.8747L48.0929 32.4317C47.9789 31.4382 47.8648 30.4447 47.7427 29.4431L40.4137 28.8975C39.65 29.9733 39.1736 31.2261 39.0293 32.5375C38.9675 33.12 38.9757 33.7078 39.0538 34.2883C38.2869 36.4395 37.7412 38.6633 37.4251 40.9251C37.258 42.1184 37.1574 43.3201 37.1238 44.5245Z" fill="#BBDEFB"/>
<path d="M37.8323 32.0733C41.6341 32.5139 45.4861 32.1589 49.1433 31.0309L48.728 19.6303C48.728 19.5244 49.2329 16.9349 47.4332 15.4039C46.787 14.8707 45.9892 14.5544 45.1531 14.5C45.0528 14.7414 44.9043 14.9598 44.7167 15.1418C44.529 15.3238 44.3062 15.4657 44.0619 15.5586C43.654 15.6735 43.2202 15.6567 42.8224 15.5104C42.4247 15.3642 42.0833 15.0961 41.8469 14.7443C41.2291 14.7874 40.6285 14.9677 40.089 15.2719C39.5495 15.5762 39.0846 15.9968 38.728 16.5033C38.4313 16.9624 38.23 17.4767 38.1363 18.0153C38.0425 18.554 38.0582 19.106 38.1824 19.6384C38.0684 23.759 37.9517 27.9039 37.8323 32.0733Z" fill="#069550"/>
<path d="M44.1922 36.2182C44.1737 36.2244 44.1537 36.2244 44.1352 36.2182C44.125 36.2098 44.1168 36.1993 44.1111 36.1873C44.1054 36.1753 44.1025 36.1623 44.1025 36.149C44.1025 36.1358 44.1054 36.1227 44.1111 36.1107C44.1168 36.0988 44.125 36.0882 44.1352 36.0798L44.8763 35.1596C44.8853 35.1505 44.8961 35.1433 44.908 35.1383C44.9199 35.1334 44.9326 35.1309 44.9455 35.1309C44.9583 35.1309 44.9711 35.1334 44.983 35.1383C44.9948 35.1433 45.0056 35.1505 45.0147 35.1596C45.0249 35.168 45.0332 35.1786 45.0388 35.1905C45.0445 35.2025 45.0474 35.2156 45.0474 35.2288C45.0474 35.2421 45.0445 35.2551 45.0388 35.2671C45.0332 35.2791 45.0249 35.2896 45.0147 35.298L44.2737 36.2182C44.2609 36.2241 44.247 36.2271 44.2329 36.2271C44.2189 36.2271 44.205 36.2241 44.1922 36.2182Z" fill="#210B04"/>
<path d="M44.9414 35.1025C44.9147 35.1025 44.8889 35.0925 44.8693 35.0744C44.8496 35.0563 44.8376 35.0314 44.8355 35.0047L44.4691 31.6578C44.4668 31.6444 44.4673 31.6306 44.4707 31.6173C44.474 31.6041 44.4801 31.5917 44.4886 31.5809C44.497 31.5702 44.5076 31.5613 44.5197 31.5549C44.5318 31.5486 44.545 31.5448 44.5587 31.5438C44.5715 31.5427 44.5844 31.5441 44.5967 31.548C44.609 31.552 44.6204 31.5582 44.6302 31.5666C44.6401 31.5749 44.6482 31.5851 44.6541 31.5966C44.6599 31.608 44.6635 31.6206 44.6645 31.6334L45.0391 34.9884C45.0402 35.0013 45.0388 35.0142 45.0349 35.0265C45.031 35.0388 45.0247 35.0502 45.0164 35.06C45.008 35.0699 44.9978 35.078 44.9864 35.0838C44.9749 35.0897 44.9624 35.0933 44.9495 35.0943L44.9414 35.1025Z" fill="#210B04"/>
<path d="M39.8681 20.9496C39.5586 21.6825 39.2573 22.4154 38.956 23.1483L37.6042 26.4056L35.373 25.8275C35.6091 24.606 35.8534 23.531 36.0733 22.6434C36.1466 22.3503 36.2117 22.0815 36.2769 21.8291V21.7069C37.4739 17.2118 38.2801 16.1858 39.1922 15.917C39.3316 15.8713 39.4771 15.8466 39.6238 15.8438C39.7269 17.5538 39.8084 19.2558 39.8681 20.9496Z" fill="#FF8E5C"/>
<path d="M38.9642 23.1562L36.0814 22.6432C36.1547 22.35 36.2199 22.0813 36.285 21.8289L36.3909 21.6904L38.9316 22.7328C38.9316 22.8631 38.9316 23.0015 38.9316 23.1399L38.9642 23.1562Z" fill="#210B04"/>
<path d="M39.1678 23.205L35.6336 21.9916C36.0001 21.1773 36.277 20.5258 36.448 20.0942C37.4659 17.6512 37.7509 16.4297 38.891 15.8353C39.0823 15.728 39.288 15.6485 39.5017 15.5991C39.6225 15.6581 39.7371 15.7291 39.8437 15.8108C41.277 16.9509 40.4463 20.0291 40.316 20.4933L39.1678 23.205Z" fill="#069550"/>
<path d="M52.0342 32.9365C51.9369 33.5297 51.9369 34.1348 52.0342 34.7281C52.197 35.8111 52.7019 36.829 52.8485 36.7883C52.9951 36.7476 52.9788 36.4219 52.7508 34.9724L53.4348 36.1776C53.2882 37.0326 53.272 37.4724 53.3697 37.4968C53.4674 37.5212 53.8746 36.8127 54.469 35.3062C54.4615 34.4837 54.1743 33.6882 53.6547 33.0505L52.0342 32.9365Z" fill="#FF8E5C"/>
<path d="M48.8258 22.497C48.7999 22.497 48.775 22.4867 48.7567 22.4683C48.7384 22.45 48.7281 22.4252 48.7281 22.3992V19.5165C48.7281 19.4906 48.7384 19.4657 48.7567 19.4474C48.775 19.4291 48.7999 19.4188 48.8258 19.4188C48.8393 19.4177 48.8529 19.4194 48.8657 19.4238C48.8785 19.4282 48.8902 19.4352 48.9002 19.4444C48.9102 19.4536 48.9181 19.4647 48.9235 19.4771C48.9289 19.4896 48.9317 19.503 48.9316 19.5165V22.3992C48.9317 22.4128 48.9289 22.4262 48.9235 22.4386C48.9181 22.451 48.9102 22.4622 48.9002 22.4714C48.8902 22.4806 48.8785 22.4876 48.8657 22.492C48.8529 22.4964 48.8393 22.4981 48.8258 22.497Z" fill="#210B04"/>
<path d="M39.1678 23.3112C39.1432 23.2989 39.1238 23.2781 39.1134 23.2526C39.1029 23.2272 39.102 23.1988 39.1108 23.1728L41.0244 18.9627C41.0367 18.9382 41.058 18.9194 41.0838 18.9103C41.1096 18.9012 41.138 18.9025 41.1629 18.9138C41.1873 18.9261 41.2061 18.9474 41.2152 18.9732C41.2243 18.999 41.2231 19.0273 41.2117 19.0522L39.2981 23.2542C39.2936 23.2667 39.2866 23.2782 39.2775 23.288C39.2684 23.2977 39.2574 23.3055 39.2452 23.3108C39.233 23.3161 39.2198 23.3189 39.2065 23.319C39.1932 23.3191 39.18 23.3164 39.1678 23.3112Z" fill="#210B04"/>
</svg>
