<svg width="52" height="53" viewBox="0 0 52 53" fill="none" xmlns="http://www.w3.org/2000/svg">
    <rect y="0.945312" width="52" height="52" rx="8" fill="#E3F2FD"/>
    <path d="M18.3997 38.3999C21.1979 38.3999 23.4663 36.1315 23.4663 33.3333C23.4663 30.535 21.1979 28.2666 18.3997 28.2666C15.6014 28.2666 13.333 30.535 13.333 33.3333C13.333 36.1315 15.6014 38.3999 18.3997 38.3999Z" stroke="#1565C0" stroke-width="2.58205" stroke-linecap="round" stroke-linejoin="round"/>
    <path d="M10.7998 42.1999C11.6847 41.02 12.8321 40.0624 14.1513 39.4028C15.4704 38.7433 16.925 38.3999 18.3998 38.3999C19.8746 38.3999 21.3292 38.7433 22.6483 39.4028C23.9675 40.0624 25.1149 41.02 25.9998 42.1999" stroke="#1565C0" stroke-width="2.58205" stroke-linecap="round" stroke-linejoin="round"/>
    <path d="M18.3997 21.9331C21.1979 21.9331 23.4663 19.6647 23.4663 16.8665C23.4663 14.0682 21.1979 11.7998 18.3997 11.7998C15.6014 11.7998 13.333 14.0682 13.333 16.8665C13.333 19.6647 15.6014 21.9331 18.3997 21.9331Z" stroke="#1565C0" stroke-width="2.58205" stroke-linecap="round" stroke-linejoin="round"/>
    <path d="M10.7998 25.7331C11.6847 24.5532 12.8321 23.5956 14.1513 22.936C15.4704 22.2765 16.925 21.9331 18.3998 21.9331C19.8746 21.9331 21.3292 22.2765 22.6483 22.936C23.9675 23.5956 25.1149 24.5532 25.9998 25.7331" stroke="#1565C0" stroke-width="2.58205" stroke-linecap="round" stroke-linejoin="round"/>
    <path d="M33.5999 38.3999C36.3981 38.3999 38.6665 36.1315 38.6665 33.3333C38.6665 30.535 36.3981 28.2666 33.5999 28.2666C30.8016 28.2666 28.5332 30.535 28.5332 33.3333C28.5332 36.1315 30.8016 38.3999 33.5999 38.3999Z" stroke="#1565C0" stroke-width="2.58205" stroke-linecap="round" stroke-linejoin="round"/>
    <path d="M26 42.1999C26.8849 41.02 28.0323 40.0624 29.3515 39.4028C30.6706 38.7433 32.1252 38.3999 33.6 38.3999C35.0748 38.3999 36.5294 38.7433 37.8485 39.4028C39.1677 40.0624 40.3151 41.02 41.2 42.1999" stroke="#1565C0" stroke-width="2.58205" stroke-linecap="round" stroke-linejoin="round"/>
    <path d="M33.5999 21.9331C36.3981 21.9331 38.6665 19.6647 38.6665 16.8665C38.6665 14.0682 36.3981 11.7998 33.5999 11.7998C30.8016 11.7998 28.5332 14.0682 28.5332 16.8665C28.5332 19.6647 30.8016 21.9331 33.5999 21.9331Z" stroke="#1565C0" stroke-width="2.58205" stroke-linecap="round" stroke-linejoin="round"/>
    <path d="M26 25.7331C26.8849 24.5532 28.0323 23.5956 29.3515 22.936C30.6706 22.2765 32.1252 21.9331 33.6 21.9331C35.0748 21.9331 36.5294 22.2765 37.8485 22.936C39.1677 23.5956 40.3151 24.5532 41.2 25.7331" stroke="#1565C0" stroke-width="2.58205" stroke-linecap="round" stroke-linejoin="round"/>
</svg>
