<svg width="52" height="53" viewBox="0 0 52 53" fill="none" xmlns="http://www.w3.org/2000/svg">
    <rect y="0.945312" width="52" height="52" rx="8" fill="#E3F2FD"/>
    <path d="M8.50032 15.3633H43.5004C44.379 15.3633 45.0913 16.0756 45.0913 16.9542V42.4088C45.0913 43.2874 44.379 43.9997 43.5004 43.9997H8.50032C7.62169 43.9997 6.90941 43.2874 6.90941 42.4088V16.9542C6.90941 16.0756 7.62169 15.3633 8.50032 15.3633Z" stroke="#1565C0" stroke-width="3.67788" stroke-linecap="round" stroke-linejoin="round"/>
    <path d="M18.046 15.3636V12.1818C18.046 11.338 18.3812 10.5286 18.9779 9.93193C19.5746 9.33523 20.3839 9 21.2278 9H30.7733C31.6171 9 32.4264 9.33523 33.0231 9.93193C33.6199 10.5286 33.9551 11.338 33.9551 12.1818V15.3636" stroke="#1565C0" stroke-width="3.67788" stroke-linecap="round" stroke-linejoin="round"/>
    <path d="M26 24.1138V35.2502" stroke="#1565C0" stroke-width="3.67788" stroke-linecap="round" stroke-linejoin="round"/>
    <path d="M20.432 29.6816H31.5684" stroke="#1565C0" stroke-width="3.67788" stroke-linecap="round" stroke-linejoin="round"/>
</svg>
