<svg width="53" height="53" viewBox="0 0 53 53" fill="none" xmlns="http://www.w3.org/2000/svg">
    <rect x="0.5" y="0.835938" width="52" height="52" rx="8" fill="#E3F2FD"/>
    <path d="M45.5327 19.0538L27.4063 9.12258C27.1288 8.97043 26.817 8.89062 26.5 8.89062C26.183 8.89062 25.8712 8.97043 25.5937 9.12258L7.46734 19.0538C7.17425 19.2149 6.92995 19.4509 6.75984 19.7375C6.58972 20.024 6.5 20.3506 6.5 20.6832C6.5 21.0158 6.58972 21.3424 6.75984 21.6289C6.92995 21.9154 7.17425 22.1515 7.46734 22.3125L9.62375 23.4919V31.4214C9.62701 32.1531 9.88668 32.8608 10.3582 33.4231C11.7802 35.099 17.1556 40.5457 26.5 40.5457C28.9458 40.5579 31.3761 40.1591 33.688 39.3664V43.0285C33.688 43.5224 33.8856 43.996 34.2372 44.3452C34.5889 44.6944 35.0659 44.8906 35.5632 44.8906C36.0605 44.8906 36.5374 44.6944 36.8891 44.3452C37.2407 43.996 37.4383 43.5224 37.4383 43.0285V37.6749C39.3955 36.55 41.1534 35.1137 42.6418 33.4231C43.1133 32.8608 43.373 32.1531 43.3762 31.4214V23.4919L45.5327 22.3125C45.8257 22.1515 46.07 21.9154 46.2402 21.6289C46.4103 21.3424 46.5 21.0158 46.5 20.6832C46.5 20.3506 46.4103 20.024 46.2402 19.7375C46.07 19.4509 45.8257 19.2149 45.5327 19.0538V19.0538ZM26.5 12.8778L40.7511 20.6832L40.6104 20.7608H40.5948L35.5632 23.5229L27.4063 19.0538C27.1904 18.9275 26.9511 18.8455 26.7027 18.8126C26.4543 18.7796 26.2018 18.7965 25.9601 18.8621C25.7183 18.9278 25.4923 19.0409 25.2953 19.1947C25.0984 19.3486 24.9344 19.5401 24.8133 19.7579C24.6921 19.9758 24.6161 20.2155 24.5898 20.463C24.5636 20.7105 24.5875 20.9607 24.6603 21.1989C24.733 21.437 24.8531 21.6583 25.0134 21.8496C25.1737 22.0408 25.3711 22.1983 25.5937 22.3125L31.6879 25.6488L26.5 28.4885L12.4052 20.7608H12.3896L12.2489 20.6832L26.5 12.8778ZM26.5 36.8215C19.0619 36.8215 14.7335 32.7248 13.374 31.1886V25.5557L25.5937 32.2438C25.8712 32.3959 26.183 32.4757 26.5 32.4757C26.817 32.4757 27.1288 32.3959 27.4063 32.2438L33.688 28.7989V35.3939C31.414 36.348 28.9686 36.8337 26.5 36.8215ZM39.626 31.1886C38.9634 31.9289 38.2308 32.6045 37.4383 33.2059V26.7506L39.626 25.5557V31.1886Z" fill="#1565C0"/>
</svg>
